<svg width="14" height="14" viewBox="0 0 14 14" fill="none" xmlns="http://www.w3.org/2000/svg">
<path d="M11.2774 8.55574C10.8364 8.5561 10.4021 8.66378 10.0119 8.86947C9.62175 9.07517 9.28751 9.37271 9.03803 9.73641L5.24111 8.02199C5.51079 7.37078 5.51184 6.63931 5.24403 5.98733L9.03569 4.26416C9.40545 4.79893 9.95463 5.18347 10.5836 5.34802C11.2126 5.51257 11.8797 5.44623 12.464 5.16104C13.0483 4.87584 13.511 4.39068 13.7682 3.79357C14.0254 3.19645 14.0601 2.52692 13.8659 1.90643C13.6718 1.28594 13.2616 0.755582 12.7099 0.411566C12.1583 0.06755 11.5015 -0.0673409 10.8589 0.0313612C10.2163 0.130063 9.63034 0.455821 9.20733 0.949544C8.78431 1.44327 8.55227 2.07225 8.55328 2.72241C8.55575 2.87629 8.57136 3.02968 8.59994 3.18091L4.56911 5.01258C4.18197 4.64987 3.69732 4.40815 3.17469 4.3171C2.65207 4.22606 2.11423 4.28966 1.62725 4.50009C1.14027 4.71053 0.725365 5.05862 0.433507 5.50162C0.141648 5.94462 -0.0144528 6.46322 -0.0156184 6.99372C-0.016784 7.52422 0.137036 8.0435 0.426946 8.48778C0.716855 8.93206 1.13023 9.28198 1.61627 9.49455C2.10232 9.70712 2.63988 9.77308 3.1629 9.68433C3.68592 9.59559 4.17163 9.356 4.56036 8.995L8.60169 10.8197C8.57362 10.9708 8.55821 11.1239 8.55561 11.2776C8.55549 11.8161 8.71508 12.3425 9.01418 12.7903C9.31327 13.2381 9.73845 13.5871 10.2359 13.7932C10.7334 13.9994 11.2808 14.0533 11.809 13.9483C12.3372 13.8433 12.8223 13.584 13.2031 13.2032C13.5838 12.8224 13.8431 12.3373 13.9482 11.8091C14.0532 11.281 13.9992 10.7336 13.7931 10.2361C13.587 9.73859 13.2379 9.31341 12.7902 9.01431C12.3424 8.71521 11.8159 8.55563 11.2774 8.55574ZM11.2774 1.16666C11.5852 1.16654 11.886 1.25769 12.1419 1.42857C12.3978 1.59944 12.5973 1.84238 12.7152 2.12665C12.833 2.41091 12.8639 2.72374 12.804 3.02556C12.744 3.32739 12.5959 3.60465 12.3783 3.82228C12.1608 4.03992 11.8836 4.18815 11.5818 4.24822C11.28 4.3083 10.9671 4.27752 10.6828 4.15979C10.3985 4.04206 10.1555 3.84265 9.98451 3.5868C9.81353 3.33094 9.72228 3.03013 9.72228 2.72241C9.72258 2.30999 9.88651 1.91455 10.1781 1.62287C10.4696 1.3312 10.865 1.16712 11.2774 1.16666ZM2.72228 8.55574C2.41455 8.55586 2.11371 8.46472 1.85779 8.29384C1.60187 8.12296 1.40237 7.88002 1.28453 7.59576C1.16669 7.31149 1.1358 6.99866 1.19576 6.69684C1.25573 6.39502 1.40385 6.11775 1.6214 5.90012C1.83896 5.68248 2.11616 5.53426 2.41797 5.47418C2.71977 5.4141 3.03261 5.44488 3.31692 5.56261C3.60123 5.68035 3.84424 5.87975 4.01521 6.1356C4.18618 6.39146 4.27744 6.69227 4.27744 6.99999C4.27698 7.41236 4.113 7.80772 3.82147 8.09936C3.52994 8.391 3.13464 8.55513 2.72228 8.55574ZM11.2774 12.8333C10.9697 12.8333 10.669 12.7421 10.4131 12.5711C10.1573 12.4002 9.95787 12.1572 9.84012 11.8729C9.72237 11.5887 9.69156 11.2759 9.75159 10.9741C9.81161 10.6723 9.95978 10.3951 10.1774 10.1775C10.3949 9.95992 10.6721 9.81175 10.9739 9.75172C11.2757 9.69169 11.5885 9.7225 11.8728 9.84025C12.1571 9.958 12.4001 10.1574 12.571 10.4133C12.7419 10.6691 12.8332 10.9699 12.8332 11.2776C12.8329 11.6901 12.6689 12.0856 12.3772 12.3773C12.0855 12.669 11.69 12.833 11.2774 12.8333Z" fill="#edc867"/>
</svg>
