<svg width="14" height="14" viewBox="0 0 14 14" fill="none" xmlns="http://www.w3.org/2000/svg">
<g clip-path="url(#clip0_350_13673)">
<path d="M11.7502 0.94339H2.23413C1.23919 0.94339 0.429688 1.75273 0.429688 2.74783V8.57149C0.429688 9.56435 1.23566 10.3724 2.22773 10.3759V13.0186L6.0256 10.3759H11.7502C12.7452 10.3759 13.5547 9.56643 13.5547 8.57149V2.74783C13.5547 1.75273 12.7452 0.94339 11.7502 0.94339ZM12.7856 8.57149C12.7856 9.14234 12.3212 9.60689 11.7502 9.60689H5.78431L2.99677 11.5466V9.60689H2.23413C1.6632 9.60689 1.19873 9.14234 1.19873 8.57149V2.74783C1.19873 2.17682 1.6632 1.71243 2.23413 1.71243H11.7502C12.3212 1.71243 12.7856 2.17682 12.7856 2.74783V8.57149Z" fill="#EDC867"/>
<path d="M3.94336 3.66077H10.0427V4.42981H3.94336V3.66077Z" fill="#EDC867"/>
<path d="M3.94336 5.30139H10.0427V6.07043H3.94336V5.30139Z" fill="#EDC867"/>
<path d="M3.94336 6.94202H10.0427V7.71107H3.94336V6.94202Z" fill="#EDC867"/>
</g>
<defs>
<clipPath id="clip0_350_13673">
<rect width="14" height="14" fill="white"/>
</clipPath>
</defs>
</svg>
