<svg width="16" height="14" viewBox="0 0 16 14" fill="none" xmlns="http://www.w3.org/2000/svg">
<path d="M11.6652 0C10.9148 0.0109512 10.1808 0.207492 9.53722 0.569773C8.89368 0.932055 8.36343 1.44725 8 2.06333C7.63657 1.44725 7.10632 0.932055 6.46278 0.569773C5.81924 0.207492 5.08521 0.0109512 4.33481 0C3.13859 0.0487638 2.01155 0.539751 1.19993 1.36569C0.38831 2.19164 -0.0419227 3.2854 0.0032261 4.40802C0.0032261 8.6441 7.30428 13.5367 7.61482 13.7443L8 14L8.38518 13.7443C8.69572 13.5379 15.9968 8.6441 15.9968 4.40802C16.0419 3.2854 15.6117 2.19164 14.8001 1.36569C13.9884 0.539751 12.8614 0.0487638 11.6652 0ZM8 12.4606C5.83221 10.9413 1.33602 7.20852 1.33602 4.40802C1.29047 3.6169 1.58017 2.84097 2.14194 2.24947C2.70371 1.65796 3.49197 1.29887 4.33481 1.2505C5.17765 1.29887 5.96591 1.65796 6.52769 2.24947C7.08946 2.84097 7.37916 3.6169 7.3336 4.40802H8.6664C8.62084 3.6169 8.91054 2.84097 9.47231 2.24947C10.0341 1.65796 10.8224 1.29887 11.6652 1.2505C12.508 1.29887 13.2963 1.65796 13.8581 2.24947C14.4198 2.84097 14.7095 3.6169 14.664 4.40802C14.664 7.20977 10.1678 10.9413 8 12.4606Z" fill="#2D2D2D"/>
</svg>
