<svg width="36" height="36" viewBox="0 0 36 36" fill="none" xmlns="http://www.w3.org/2000/svg">
<path d="M22.3006 23.5353C21.171 22.8989 19.0072 21.5178 16.6542 19.1641C14.3008 16.8102 12.9045 14.63 12.2579 13.4894L16.0533 9.64393L6.46944 0L1.74798 4.69163C-0.0449269 6.485 -0.50966 9.21379 0.591635 11.4819C2.27219 14.9429 5.37293 20.1662 10.6014 25.3958C15.8299 30.6257 21.0517 33.7273 24.5118 35.4082C25.3316 35.8065 26.2116 36 27.0859 36C28.6296 36 30.1556 35.3966 31.3002 34.2516L36 29.5341L26.2219 19.7374L22.3006 23.5353ZM29.3113 32.2657C28.3647 33.2111 26.9296 33.4579 25.7395 32.8797C22.4735 31.2929 17.5407 28.3618 12.5885 23.4082C7.63634 18.4547 4.70581 13.5206 3.11944 10.2537C2.54109 9.06261 2.78845 7.62623 3.73179 6.68265L6.45705 3.97478L12.0976 9.65069L8.86427 12.9266L9.25446 13.8031C9.31781 13.9456 10.8514 17.3354 14.667 21.1519C18.485 24.9709 21.8453 26.4729 21.9865 26.535L22.8509 26.9151L26.1885 23.6826L32.0308 29.5359L29.3113 32.2657Z" fill="white"/>
</svg>
