<svg width="16" height="14" viewBox="0 0 16 14" fill="none" xmlns="http://www.w3.org/2000/svg">
<g clip-path="url(#clip0_138_2060)">
<path d="M8.31598 6.28906H7.15039V7.38281H8.31598V6.28906Z" fill="#EDC867"/>
<path d="M13.4446 1.09375H12.7453V0H11.5797V1.09375H3.88677V0H2.72118V1.09375H2.02182C1.05776 1.09375 0.273438 1.82973 0.273438 2.73438V12.3594C0.273438 13.264 1.05776 14 2.02182 14H5.89741H5.98483H8.01768C7.61474 13.6879 7.26378 13.3188 6.97847 12.9062H5.98483H5.89741H2.02182C1.70047 12.9062 1.43903 12.6609 1.43903 12.3594V5.14062H14.0274V6.23438V6.28906V6.29177C14.4671 6.55949 14.8604 6.88885 15.193 7.26693V6.28906V6.23438V2.73438C15.193 1.82973 14.4087 1.09375 13.4446 1.09375ZM14.0274 4.04688H1.43903V2.73438C1.43903 2.43283 1.70047 2.1875 2.02182 2.1875H2.72118V3.28125H3.88677V2.1875H11.5797V3.28125H12.7453V2.1875H13.4446C13.766 2.1875 14.0274 2.43283 14.0274 2.73438V4.04688Z" fill="#EDC867"/>
<path d="M11.26 6.61719C9.09091 6.61719 7.32617 8.27315 7.32617 10.3086C7.32617 12.344 9.09091 14 11.26 14C13.4292 14 15.1939 12.344 15.1939 10.3086C15.1939 8.27315 13.4292 6.61719 11.26 6.61719ZM11.26 12.9062C9.73361 12.9062 8.49176 11.7409 8.49176 10.3086C8.49176 8.87625 9.73361 7.71094 11.26 7.71094C12.7865 7.71094 14.0283 8.87625 14.0283 10.3086C14.0283 11.7409 12.7865 12.9062 11.26 12.9062Z" fill="#EDC867"/>
<path d="M11.8121 8.47656H10.6465V10.8555H12.8028V9.76172H11.8121V8.47656Z" fill="#EDC867"/>
<path d="M5.98395 8.47656H4.81836V9.57031H5.98395V8.47656Z" fill="#EDC867"/>
<path d="M3.65387 8.47656H2.48828V9.57031H3.65387V8.47656Z" fill="#EDC867"/>
<path d="M3.65387 6.28906H2.48828V7.38281H3.65387V6.28906Z" fill="#EDC867"/>
<path d="M3.65387 10.6641H2.48828V11.7578H3.65387V10.6641Z" fill="#EDC867"/>
<path d="M5.98395 6.28906H4.81836V7.38281H5.98395V6.28906Z" fill="#EDC867"/>
<path d="M5.98395 10.6641H4.81836V11.7578H5.98395V10.6641Z" fill="#EDC867"/>
</g>
<defs>
<clipPath id="clip0_138_2060">
<rect width="14.9196" height="14" fill="white" transform="translate(0.273438)"/>
</clipPath>
</defs>
</svg>
