<svg width="19" height="19" viewBox="0 0 19 19" fill="none" xmlns="http://www.w3.org/2000/svg">
<g clip-path="url(#clip0_131_617)">
<path d="M9.85938 15.8333C11.4522 15.8314 12.9793 15.1636 14.1056 13.9763C15.2319 12.7889 15.8654 11.1791 15.8672 9.5V6.33333C15.8672 4.65363 15.2342 3.04272 14.1075 1.85499C12.9809 0.66726 11.4528 0 9.85938 0C8.26601 0 6.7379 0.66726 5.61121 1.85499C4.48453 3.04272 3.85156 4.65363 3.85156 6.33333V9.5C3.85335 11.1791 4.48689 12.7889 5.61319 13.9763C6.73948 15.1636 8.26656 15.8314 9.85938 15.8333ZM5.35352 7.125H8.35742V5.54167H5.4211C5.59761 4.43532 6.1403 3.4307 6.95283 2.70617C7.76536 1.98165 8.79516 1.58409 9.85938 1.58409C10.9236 1.58409 11.9534 1.98165 12.7659 2.70617C13.5785 3.4307 14.1211 4.43532 14.2977 5.54167H11.3613V7.125H14.3652V8.70833H11.3613V10.2917H14.2977C14.1211 11.398 13.5785 12.4026 12.7659 13.1272C11.9534 13.8517 10.9236 14.2492 9.85938 14.2492C8.79516 14.2492 7.76536 13.8517 6.95283 13.1272C6.1403 12.4026 5.59761 11.398 5.4211 10.2917H8.35742V8.70833H5.35352V7.125Z" fill="white"/>
<path d="M17.3691 10.2917C17.3672 12.1807 16.6544 13.9918 15.3873 15.3275C14.1203 16.6632 12.4023 17.4146 10.6104 17.4167H9.1084C7.31653 17.4144 5.59867 16.663 4.33163 15.3273C3.06458 13.9916 2.3518 12.1806 2.34961 10.2917H0.847656C0.85024 12.6004 1.7214 14.8139 3.27003 16.4464C4.81866 18.0789 6.91831 18.9973 9.1084 19H10.6104C12.8004 18.9973 14.9001 18.0789 16.4487 16.4464C17.9974 14.8139 18.8685 12.6004 18.8711 10.2917H17.3691Z" fill="white"/>
</g>
<defs>
<clipPath id="clip0_131_617">
<rect width="18.0234" height="19" fill="white" transform="translate(0.847656)"/>
</clipPath>
</defs>
</svg>
