<svg width="18" height="19" viewBox="0 0 18 19" fill="none" xmlns="http://www.w3.org/2000/svg">
<g clip-path="url(#clip0_108_87)">
<path d="M5.72622 17.2706H4.08789V19H5.72622V17.2706Z" fill="#EDC867"/>
<path d="M13.9196 17.2706H12.2812V19H13.9196V17.2706Z" fill="#EDC867"/>
<path d="M5.78065 13.8781C5.74171 13.8781 5.67613 13.8172 5.67113 13.7759L4.20342 1.61306C4.09437 0.709254 3.33386 0 2.47014 0H0.8125V1.72934H2.47014C2.50796 1.72934 2.57327 1.79026 2.57826 1.8316L4.04598 13.9944C4.15519 14.8995 4.91712 15.6075 5.78068 15.6075H13.919V13.8781H5.78065Z" fill="#EDC867"/>
<path d="M15.0942 3.4408H3.14648V5.17013H15.0942C15.4641 5.17013 15.6172 5.3798 15.5233 5.75492L14.6147 9.38747C14.4787 9.93136 13.8853 10.4137 13.3533 10.4137H7.36403V12.1431H13.3533C14.629 12.1431 15.8728 11.1319 16.1988 9.82894L17.1074 6.19638C17.4756 4.72437 16.5389 3.4408 15.0942 3.4408Z" fill="#EDC867"/>
</g>
<defs>
<clipPath id="clip0_108_87">
<rect width="18" height="19" fill="white"/>
</clipPath>
</defs>
</svg>
