<svg width="19" height="19" viewBox="0 0 19 19" fill="none" xmlns="http://www.w3.org/2000/svg">
<g clip-path="url(#clip0_3702_5587)">
<path d="M6.04465 17.2707H4.31531V19H6.04465V17.2707Z" fill="#EDC867"/>
<path d="M14.6913 17.2707H12.9619V19H14.6913V17.2707Z" fill="#EDC867"/>
<path d="M6.10084 13.8781C6.05975 13.8781 5.99052 13.8172 5.98525 13.7759L4.43599 1.61306C4.32088 0.709254 3.51812 0 2.60642 0H0.856689V1.72934H2.60642C2.64634 1.72934 2.71528 1.79026 2.72055 1.8316L4.26981 13.9944C4.38508 14.8995 5.18934 15.6075 6.10088 15.6075H14.6913V13.8781H6.10084Z" fill="#EDC867"/>
<path d="M15.9337 3.4408H3.32214V5.17014H15.9337C16.3241 5.17014 16.4856 5.37981 16.3866 5.75492L15.4275 9.38748C15.2839 9.93137 14.6576 10.4137 14.096 10.4137H7.774V12.1431H14.096C15.4426 12.1431 16.7555 11.1319 17.0995 9.82894L18.0586 6.19639C18.4473 4.72438 17.4585 3.4408 15.9337 3.4408Z" fill="#EDC867"/>
</g>
<defs>
<clipPath id="clip0_3702_5587">
<rect width="19" height="19" fill="white"/>
</clipPath>
</defs>
</svg>
