<svg width="16" height="16" viewBox="0 0 16 16" fill="none" xmlns="http://www.w3.org/2000/svg">
<g clip-path="url(#clip0_131_625)">
<path d="M1.90121 0H13.2844C13.7876 0 14.2702 0.210714 14.626 0.585786C14.9818 0.960859 15.1816 1.46957 15.1816 2V16H0.00400352V2C0.00400448 1.46957 0.203887 0.960859 0.559682 0.585786C0.915477 0.210714 1.39804 0 1.90121 0V0ZM1.26881 2V3.33333H5.69562V1.33333H1.90121C1.73349 1.33333 1.57263 1.40357 1.45403 1.5286C1.33543 1.65362 1.26881 1.82319 1.26881 2ZM8.22522 1.33333H6.96042V5.33333H8.22522V1.33333ZM13.2844 1.33333H9.49003V3.33333H13.9168V2C13.9168 1.82319 13.8502 1.65362 13.7316 1.5286C13.613 1.40357 13.4522 1.33333 13.2844 1.33333ZM13.9168 14.6667V4.66667H9.49003V6.66667H5.69562V4.66667H1.26881V14.6667H13.9168ZM5.69562 12H2.53361V13.3333H5.69562V12Z" fill="#66C6E1"/>
</g>
<defs>
<clipPath id="clip0_131_625">
<rect width="15.1776" height="16" fill="white" transform="matrix(-1 0 0 1 15.1816 0)"/>
</clipPath>
</defs>
</svg>
