<svg width="16" height="18" viewBox="0 0 16 18" fill="none" xmlns="http://www.w3.org/2000/svg">
<g clip-path="url(#clip0_144_745)">
<path d="M14 5.45833H11.9107C12.3727 5.01072 12.7389 4.46285 12.9843 3.85181C13.2298 3.24077 13.3488 2.58083 13.3333 1.91667H12C12 3.95738 10.686 4.96746 9.232 5.31667C9.66858 4.48919 9.93064 3.57076 10 2.625C10 2.06141 9.78929 1.52091 9.41421 1.1224C9.03914 0.723883 8.53043 0.5 8 0.5C7.46957 0.5 6.96086 0.723883 6.58579 1.1224C6.21071 1.52091 6 2.06141 6 2.625C6.06937 3.57076 6.33142 4.48919 6.768 5.31667C5.314 4.96746 4 3.95738 4 1.91667H2.66667C2.6512 2.58083 2.77021 3.24077 3.01567 3.85181C3.26112 4.46285 3.62727 5.01072 4.08933 5.45833H2C1.46957 5.45833 0.960859 5.68222 0.585786 6.08073C0.210714 6.47925 0 7.01975 0 7.58333L0 10.4167H1.33333V17.5H14.6667V10.4167H16V7.58333C16 7.01975 15.7893 6.47925 15.4142 6.08073C15.0391 5.68222 14.5304 5.45833 14 5.45833ZM8 1.91667C8.17681 1.91667 8.34638 1.99129 8.47141 2.12413C8.59643 2.25697 8.66667 2.43714 8.66667 2.625C8.58619 3.37784 8.35915 4.10464 8 4.75921C7.64085 4.10464 7.41381 3.37784 7.33333 2.625C7.33333 2.43714 7.40357 2.25697 7.5286 2.12413C7.65362 1.99129 7.82319 1.91667 8 1.91667ZM1.33333 7.58333C1.33333 7.39547 1.40357 7.2153 1.5286 7.08247C1.65362 6.94963 1.82319 6.875 2 6.875H7.33333V9H1.33333V7.58333ZM2.66667 10.4167H7.33333V16.0833H2.66667V10.4167ZM13.3333 16.0833H8.66667V10.4167H13.3333V16.0833ZM14.6667 9H8.66667V6.875H14C14.1768 6.875 14.3464 6.94963 14.4714 7.08247C14.5964 7.2153 14.6667 7.39547 14.6667 7.58333V9Z" fill="white"/>
</g>
<defs>
<clipPath id="clip0_144_745">
<rect width="16" height="17" fill="white" transform="translate(0 0.5)"/>
</clipPath>
</defs>
</svg>
