<svg width="20" height="21" viewBox="0 0 20 21" fill="none" xmlns="http://www.w3.org/2000/svg">
<path fill-rule="evenodd" clip-rule="evenodd" d="M12.1769 0.617121L15.9285 4.35865C16.3538 4.78283 16.5978 5.38014 16.5978 5.99739V18.7441C16.5978 19.988 15.6378 21 14.4578 21H3.56374C2.38379 21 1.42383 19.988 1.42383 18.7441V2.25586C1.42383 1.01198 2.38379 0 3.56374 0H10.7063C11.2556 0 11.7779 0.219146 12.1769 0.617121ZM11.8899 4.92188H14.7948L11.6954 1.83077V4.7168C11.6954 4.82988 11.7827 4.92188 11.8899 4.92188ZM3.56374 19.7695H14.4578C14.9942 19.7695 15.4305 19.3095 15.4305 18.7441V6.15234H11.8899C11.1391 6.15234 10.5282 5.50836 10.5282 4.7168V1.23047H3.56374C3.0274 1.23047 2.59105 1.69046 2.59105 2.25586V18.7441C2.59105 19.3095 3.0274 19.7695 3.56374 19.7695ZM4.61486 8.20312H13.1745C13.4968 8.20312 13.7581 8.47859 13.7581 8.81836C13.7581 9.15813 13.4968 9.43359 13.1745 9.43359H4.61486C4.29255 9.43359 4.03125 9.15813 4.03125 8.81836C4.03125 8.47859 4.29255 8.20312 4.61486 8.20312ZM13.1745 11.4844H4.61486C4.29255 11.4844 4.03125 11.7598 4.03125 12.0996C4.03125 12.4394 4.29255 12.7148 4.61486 12.7148H13.1745C13.4968 12.7148 13.7581 12.4394 13.7581 12.0996C13.7581 11.7598 13.4968 11.4844 13.1745 11.4844ZM4.61486 14.7656H7.44422C7.76653 14.7656 8.02783 15.0411 8.02783 15.3809C8.02783 15.7206 7.76653 15.9961 7.44422 15.9961H4.61486C4.29255 15.9961 4.03125 15.7206 4.03125 15.3809C4.03125 15.0411 4.29255 14.7656 4.61486 14.7656Z" fill="#FF4B73"/>
</svg>
