<svg xmlns="http://www.w3.org/2000/svg" width="30" height="30" fill="none"><g fill="#EDC867" clip-path="url(#a)"><path d="m29.892 23.546-1.742-5.071a12.71 12.71 0 0 0 1.286-5.548c.006-3.34-1.287-6.5-3.64-8.894A12.585 12.585 0 0 0 16.97.237a12.576 12.576 0 0 0-9.166 3.71 12.567 12.567 0 0 0-3.71 8.795A9.236 9.236 0 0 0 1.29 24.087l-1.2 3.493c-.206.6-.056 1.252.393 1.7a1.638 1.638 0 0 0 1.702.394l3.492-1.2a9.272 9.272 0 0 0 3.948.891h.015a9.22 9.22 0 0 0 7.455-3.79 12.71 12.71 0 0 0 5.236-1.283l5.07 1.743a1.946 1.946 0 0 0 2.022-.468 1.946 1.946 0 0 0 .468-2.021ZM9.64 27.58H9.63a7.468 7.468 0 0 1-3.469-.861.893.893 0 0 0-.707-.056L1.87 27.894l1.23-3.581a.893.893 0 0 0-.054-.708 7.44 7.44 0 0 1 1.213-8.632 12.595 12.595 0 0 0 3.63 6.967 12.603 12.603 0 0 0 6.974 3.497A7.426 7.426 0 0 1 9.64 27.58Zm18.522-3.275a.162.162 0 0 1-.179.041l-5.428-1.865a.893.893 0 0 0-.708.055 10.907 10.907 0 0 1-5.065 1.257h-.017c-5.91 0-10.792-4.8-10.886-10.71A10.803 10.803 0 0 1 9.067 5.21a10.805 10.805 0 0 1 7.874-3.187c5.915.094 10.719 4.985 10.71 10.902a10.907 10.907 0 0 1-1.258 5.066.893.893 0 0 0-.055.707l1.865 5.429a.162.162 0 0 1-.041.179Z"/><path d="M22.084 8.175H11.446a.893.893 0 0 0 0 1.785h10.638a.893.893 0 0 0 0-1.785ZM22.084 11.847H11.446a.893.893 0 0 0 0 1.785h10.638a.893.893 0 0 0 0-1.785ZM17.989 15.519h-6.543a.893.893 0 0 0 0 1.786h6.543a.893.893 0 0 0 0-1.786Z"/></g><defs><clipPath id="a"><path fill="#fff" d="M0 0h30v30H0z"/></clipPath></defs></svg>