<svg width="45" height="45" viewBox="0 0 45 45" fill="none" xmlns="http://www.w3.org/2000/svg">
<g clip-path="url(#clip0_381_5578)">
<path d="M25.9131 15.5792H23.1475C22.7281 15.5792 22.3883 15.9191 22.3883 16.3383C22.3883 16.7576 22.7281 17.0975 23.1475 17.0975H25.9131C26.3325 17.0975 26.6723 16.7576 26.6723 16.3383C26.6723 15.9191 26.3324 15.5792 25.9131 15.5792Z" fill="url(#paint0_linear_381_5578)" stroke="url(#paint1_linear_381_5578)" stroke-width="0.2"/>
<path d="M25.9131 13.373H23.1475C22.7281 13.373 22.3883 13.7129 22.3883 14.1322C22.3883 14.5515 22.7281 14.8914 23.1475 14.8914H25.9131C26.3325 14.8914 26.6723 14.5515 26.6723 14.1322C26.6723 13.7129 26.3324 13.373 25.9131 13.373Z" fill="url(#paint2_linear_381_5578)" stroke="url(#paint3_linear_381_5578)" stroke-width="0.2"/>
<path d="M22.2908 11.0515C21.2395 11.0515 20.3844 11.9066 20.3844 12.9579V17.5127C20.3844 18.564 21.2395 19.4191 22.2908 19.4191H26.7632C27.8145 19.4191 28.6697 18.5639 28.6697 17.5127V12.9579C28.6697 11.9066 27.8145 11.0515 26.7632 11.0515H22.2908ZM27.1512 12.9579V17.5127C27.1512 17.7266 26.9771 17.9007 26.7631 17.9007H22.2907C22.0768 17.9007 21.9027 17.7265 21.9027 17.5127V12.9579C21.9027 12.744 22.0768 12.5698 22.2907 12.5698H26.7631C26.977 12.5698 27.1512 12.744 27.1512 12.9579Z" fill="url(#paint4_linear_381_5578)" stroke="url(#paint5_linear_381_5578)" stroke-width="0.2"/>
<path d="M16.8533 25.3623L16.9109 25.444L12.3614 28.6493L17.4578 35.8444C19.5194 34.7936 21.8107 34.2572 24.1273 34.2838L24.1274 34.2838L32.8485 34.3899L32.8498 34.3899C34.1861 34.4231 35.5093 34.0214 36.5907 33.2594L36.6483 33.3412L36.5907 33.2594L41.9345 29.4944C42.5744 29.0436 42.7533 28.1688 42.3437 27.5481L42.4272 27.4931L42.3437 27.5481C41.8916 26.8629 40.9746 26.718 40.3337 27.1697L40.2836 27.0986L40.3337 27.1697L37.041 29.4895L34.7044 31.1359C34.3089 31.4146 33.8076 31.5464 33.3284 31.4976L33.3102 31.4958L33.299 31.4902C33.2953 31.4892 33.2893 31.4879 33.2807 31.4862C33.2628 31.4828 33.2374 31.4787 33.2043 31.474C33.1384 31.4647 33.046 31.4535 32.9304 31.4406C32.6994 31.415 32.3789 31.3834 31.9984 31.3479C31.2376 31.2769 30.2392 31.1908 29.2435 31.1073C27.3394 30.9475 25.4461 30.7975 25.2453 30.7816L25.2285 30.7803C24.8105 30.7469 24.4988 30.381 24.5321 29.9631L24.5321 29.963C24.5656 29.545 24.9304 29.2342 25.3492 29.2667L25.3494 29.2667C26.2924 29.342 26.9886 29.3979 27.5032 29.4391C28.0739 29.4849 28.4215 29.5128 28.6351 29.5295C28.8392 29.5455 28.9188 29.551 28.9537 29.5524C28.9621 29.5528 28.9666 29.5528 28.969 29.5527L16.8533 25.3623ZM16.8533 25.3623L16.9109 25.444C17.6585 24.9174 18.5685 24.7037 19.4746 24.8421M16.8533 25.3623L19.4746 24.8421M16.6075 37.271L16.6075 37.271L10.0525 28.0164C9.9857 27.9222 9.84591 27.8944 9.73674 27.9716L16.6075 37.271ZM16.6075 37.271L17.2139 38.1272C17.2139 38.1272 17.2139 38.1272 17.2139 38.1272C17.2804 38.2212 17.2606 38.3626 17.1514 38.4399L17.2037 38.5137L17.1514 38.4399L15.6818 39.4808L11.9745 34.2466L8.26713 29.0124L9.73668 27.9716L16.6075 37.271ZM19.4746 24.8421C19.4746 24.8421 19.4746 24.8421 19.4746 24.8421M19.4746 24.8421L19.4746 24.8421M19.4746 24.8421L29.1529 26.322M19.4746 24.8421L29.1529 26.322M29.1529 26.322C30.0323 26.4564 30.6359 27.2476 30.5291 28.1229M29.1529 26.322L30.5291 28.1229M30.5291 28.1229C30.4339 28.9047 29.7908 29.5051 28.999 29.5497L30.5291 28.1229ZM18.4529 37.2496L18.3465 37.0995C20.137 36.225 22.1106 35.7764 24.1087 35.8021L24.1088 35.8021L32.8203 35.9082C32.8205 35.9082 32.8207 35.9082 32.8209 35.9082C34.469 35.9498 36.1188 35.4494 37.465 34.5008L42.8088 30.7359C44.109 29.8198 44.4714 28.0161 43.611 26.7121C43.1754 26.0518 42.5098 25.604 41.7349 25.4489C41.5845 24.6545 41.1614 23.9304 40.5566 23.4979C39.2278 22.5475 37.3911 22.8697 36.4563 24.2176L32.5215 29.8913L31.4512 29.7847C31.7616 29.362 31.9692 28.8575 32.0363 28.3066C32.2429 26.6112 31.0765 25.0799 29.3823 24.8209L29.3722 24.887L29.3823 24.8209L19.7041 23.3412C19.7041 23.3412 19.7041 23.3412 19.704 23.3412C18.4088 23.143 17.1061 23.4492 16.0364 24.2028L11.4839 27.4104L11.2915 27.1387C10.7351 26.3532 9.64654 26.1747 8.85911 26.7325C8.85911 26.7325 8.85911 26.7325 8.85911 26.7325L1.67126 31.8236L1.72584 31.9006L1.67126 31.8236C0.877438 32.3859 0.672713 33.4762 1.23112 34.2644L8.39259 44.3753C8.94759 45.1589 10.0464 45.3329 10.841 44.77L18.0289 39.679L17.9754 39.6035L18.0289 39.6789C18.8176 39.1202 19.0083 38.0338 18.4529 37.2496ZM39.4591 25.9286L39.5167 26.0103L39.4591 25.9286L34.8805 29.1545L37.7041 25.083C38.1571 24.4299 39.0359 24.2772 39.6735 24.733C39.9072 24.9001 40.0986 25.2004 40.2 25.5496C39.9297 25.6429 39.6763 25.7756 39.4591 25.9286ZM2.54886 33.0626L7.02803 29.8901L10.7354 35.1242L14.4427 40.3584L9.96352 43.5309C9.96351 43.5309 9.9635 43.5309 9.96348 43.5309C9.84274 43.6164 9.69627 43.5888 9.63169 43.4976L2.47013 33.3868C2.40768 33.2986 2.4251 33.1504 2.54886 33.0626Z" fill="url(#paint6_linear_381_5578)" stroke="url(#paint7_linear_381_5578)" stroke-width="0.2"/>
<path d="M30.4672 5.9926V7.89422L29.4038 7.19831L29.4038 7.1983C29.0071 6.9388 28.4946 6.93888 28.0982 7.19831L27.0347 7.89422V1.41839H30.4673V2.91636C30.4673 3.33563 30.8072 3.67556 31.2265 3.67556C31.6459 3.67556 31.9857 3.33563 31.9857 2.91636V1.41839H37.6907C37.9547 1.41839 38.1695 1.63326 38.1695 1.89716V19.7764C38.1695 20.0404 37.9546 20.2553 37.6906 20.2553H30.2891C29.8697 20.2553 29.5299 20.5952 29.5299 21.0145C29.5299 21.4338 29.8697 21.7737 30.2891 21.7737H37.6906C38.7919 21.7737 39.6878 20.8778 39.6878 19.7764V1.89716C39.6878 0.795832 38.792 -0.1 37.6906 -0.1H37.6865H37.682H37.6772H37.672H37.6664H37.6605H37.6543H37.6477H37.6407H37.6334H37.6257H37.6177H37.6094H37.6007H37.5917H37.5823H37.5726H37.5625H37.5521H37.5414H37.5303H37.5189H37.5072H37.4951H37.4827H37.47H37.4569H37.4436H37.4299H37.4159H37.4015H37.3869H37.3719H37.3566H37.341H37.3251H37.3089H37.2923H37.2755H37.2583H37.2409H37.2231H37.205H37.1867H37.168H37.149H37.1298H37.1102H37.0903H37.0702H37.0497H37.029H37.008H36.9867H36.9651H36.9432H36.921H36.8986H36.8758H36.8528H36.8295H36.806H36.7821H36.758H36.7336H36.709H36.6841H36.6589H36.6334H36.6077H36.5817H36.5555H36.5289H36.5022H36.4751H36.4479H36.4203H36.3925H36.3645H36.3362H36.3076H36.2788H36.2498H36.2205H36.191H36.1612H36.1312H36.1009H36.0705H36.0397H36.0088H35.9776H35.9461H35.9145H35.8826H35.8505H35.8181H35.7855H35.7527H35.7197H35.6865H35.653H35.6194H35.5855H35.5513H35.517H35.4825H35.4477H35.4128H35.3776H35.3422H35.3067H35.2709H35.2349H35.1987H35.1623H35.1257H35.089H35.052H35.0148H34.9774H34.9399H34.9021H34.8642H34.8261H34.7878H34.7493H34.7106H34.6717H34.6327H34.5935H34.5541H34.5145H34.4748H34.4349H34.3948H34.3545H34.3141H34.2735H34.2327H34.1918H34.1507H34.1095H34.0681H34.0265H33.9848H33.9429H33.9008H33.8587H33.8163H33.7738H33.7312H33.6884H33.6455H33.6024H33.5592H33.5158H33.4723H33.4286H33.3849H33.3409H33.2969H33.2527H33.2084H33.1639H33.1194H33.0747H33.0298H32.9849H32.9398H32.8946H32.8493H32.8038H32.7583H32.7126H32.6668H32.6209H32.5749H32.5287H32.4825H32.4362H32.3897H32.3432H32.2965H32.2497H32.2029H32.1559H32.1089H32.0617H32.0145H31.9671H31.9197H31.8721H31.8245H31.7768H31.729H31.6812H31.6332H31.5852H31.537H31.4888H31.4405H31.3922H31.3438H31.2952H31.2467H31.198H31.1493H31.1005H31.0517H31.0027H30.9537H30.9047H30.8556H30.8064H30.7572H30.7079H30.6586H30.6092H30.5597H30.5102H30.4607H30.4111H30.3615H30.3118H30.262H30.2123H30.1625H30.1126H30.0627H30.0128H29.9628H29.9128H29.8628H29.8127H29.7626H29.7125H29.6624H29.6122H29.562H29.5118H29.4615H29.4113H29.361H29.3107H29.2604H29.21H29.1597H29.1093H29.059H29.0086H28.9582H28.9078H28.8574H28.807H28.7566H28.7063H28.6559H28.6055H28.5551H28.5047H28.4543H28.404H28.3536H28.3033H28.2529H28.2026H28.1523H28.102H28.0518H28.0015H27.9513H27.9011H27.8509H27.8007H27.7506H27.7005H27.6504H27.6004H27.5504H27.5004H27.4505H27.4006H27.3507H27.3009H27.2511H27.2014H27.1517H27.102H27.0524H27.0028H26.9533H26.9039H26.8545H26.8051H26.7558H26.7066H26.6574H26.6083H26.5592H26.5102H26.4613H26.4124H26.3636H26.3149H26.2662H26.2176H26.1691H26.1206H26.0722H26.0239H25.9757H25.9276H25.8795H25.8315H25.7836H25.7358H25.6881H25.6405H25.5929H25.5455H25.4981H25.4508H25.4036H25.3565H25.3096H25.2627H25.2159H25.1692H25.1226H25.0761H25.0298H24.9835H24.9374H24.8913H24.8454H24.7996H24.7539H24.7083H24.6628H24.6175H24.5722H24.5271H24.4821H24.4373H24.3925H24.3479H24.3034H24.2591H24.2149H24.1708H24.1268H24.083H24.0393H23.9958H23.9524H23.9091H23.866H23.8231H23.7802H23.7376H23.695H23.6526H23.6104H23.5683H23.5264H23.4847H23.4431H23.4016H23.3603H23.3192H23.2782H23.2374H23.1968H23.1563H23.116H23.0759H23.0359H22.9961H22.9565H22.9171H22.8778H22.8388H22.7998H22.7611H22.7226H22.6842H22.6461H22.6081H22.5703H22.5327H22.4953H22.4581H22.421H22.3842H22.3476H22.3111H22.2749H22.2389H22.203H22.1674H22.132H22.0968H22.0617H22.0269H21.9924H21.958H21.9238H21.8899H21.8561H21.8226H21.7893H21.7563H21.7234H21.6908H21.6584H21.6262H21.5943H21.5625H21.5311H21.4998H21.4688H21.438H21.4074H21.3771H21.3471H21.3172H21.2876H21.2583H21.2292H21.2003H21.1717H21.1434H21.1153H21.0874H21.0598H21.0325H21.0054H20.9785H20.952H20.9256H20.8996H20.8738H20.8483H20.823H20.798H20.7733H20.7489H20.7247H20.7008H20.6771H20.6538H20.6307H20.6079H20.5854H20.5632H20.5412H20.5195H20.4981H20.4771H20.4562H20.4357H20.4155H20.3956H20.3759H20.3566H20.3376H20.3188H20.3004H20.2822H20.2644H20.2468H20.2296H20.2127H20.1961H20.1798H20.1638H20.1481H20.1327H20.1177H20.103H20.0885H20.0744H20.0607H20.0472H20.0341H20.0213H20.0088H19.9967H19.9849H19.9734H19.9622H19.9514H19.9409H19.9308H19.921H19.9115H19.9024H19.8936H19.8852H19.8771H19.8694H19.862H19.8549H19.8482H19.8419H19.8359H19.8303H19.825H19.8201H19.8155H19.8113C18.71 -0.1 17.8141 0.795829 17.8141 1.89716V19.7764C17.8141 20.8778 18.71 21.7736 19.8113 21.7736H27.2128C27.6322 21.7736 27.972 21.4337 27.972 21.0144C27.972 20.5951 27.6322 20.2552 27.2128 20.2552H19.8113C19.5473 20.2552 19.3325 20.0403 19.3325 19.7764V1.89716C19.3325 1.63326 19.5473 1.41839 19.8113 1.41839H25.5163V8.49745C25.5163 9.44948 26.5749 10.0098 27.3613 9.49502L28.7509 8.58567L30.1405 9.49494C30.9323 10.0133 31.9856 9.44382 31.9856 8.49745V5.9926C31.9856 5.57333 31.6458 5.23341 31.2264 5.23341C30.8071 5.23341 30.4672 5.57333 30.4672 5.9926Z" fill="url(#paint8_linear_381_5578)" stroke="url(#paint9_linear_381_5578)" stroke-width="0.2"/>
</g>
<defs>
<linearGradient id="paint0_linear_381_5578" x1="22.4883" y1="15.4961" x2="23.4395" y2="18.206" gradientUnits="userSpaceOnUse">
<stop stop-color="#737C84"/>
<stop offset="0.15625" stop-color="#A2ABB4"/>
<stop offset="0.307292" stop-color="#A2ABB4"/>
<stop offset="0.473958" stop-color="#C31A44"/>
<stop offset="0.671875" stop-color="#0098B7"/>
<stop offset="0.838542" stop-color="#A2ABB4"/>
</linearGradient>
<linearGradient id="paint1_linear_381_5578" x1="22.4883" y1="15.4961" x2="23.4395" y2="18.206" gradientUnits="userSpaceOnUse">
<stop stop-color="#737C84"/>
<stop offset="0.15625" stop-color="#A2ABB4"/>
<stop offset="0.307292" stop-color="#A2ABB4"/>
<stop offset="0.473958" stop-color="#C31A44"/>
<stop offset="0.671875" stop-color="#0098B7"/>
<stop offset="0.838542" stop-color="#A2ABB4"/>
</linearGradient>
<linearGradient id="paint2_linear_381_5578" x1="22.4883" y1="13.2899" x2="23.4395" y2="15.9998" gradientUnits="userSpaceOnUse">
<stop stop-color="#737C84"/>
<stop offset="0.15625" stop-color="#A2ABB4"/>
<stop offset="0.307292" stop-color="#A2ABB4"/>
<stop offset="0.473958" stop-color="#C31A44"/>
<stop offset="0.671875" stop-color="#0098B7"/>
<stop offset="0.838542" stop-color="#A2ABB4"/>
</linearGradient>
<linearGradient id="paint3_linear_381_5578" x1="22.4883" y1="13.2899" x2="23.4395" y2="15.9998" gradientUnits="userSpaceOnUse">
<stop stop-color="#737C84"/>
<stop offset="0.15625" stop-color="#A2ABB4"/>
<stop offset="0.307292" stop-color="#A2ABB4"/>
<stop offset="0.473958" stop-color="#C31A44"/>
<stop offset="0.671875" stop-color="#0098B7"/>
<stop offset="0.838542" stop-color="#A2ABB4"/>
</linearGradient>
<linearGradient id="paint4_linear_381_5578" x1="20.4844" y1="10.0171" x2="29.8715" y2="18.5628" gradientUnits="userSpaceOnUse">
<stop stop-color="#737C84"/>
<stop offset="0.15625" stop-color="#A2ABB4"/>
<stop offset="0.307292" stop-color="#A2ABB4"/>
<stop offset="0.473958" stop-color="#C31A44"/>
<stop offset="0.671875" stop-color="#0098B7"/>
<stop offset="0.838542" stop-color="#A2ABB4"/>
</linearGradient>
<linearGradient id="paint5_linear_381_5578" x1="20.4844" y1="10.0171" x2="29.8715" y2="18.5628" gradientUnits="userSpaceOnUse">
<stop stop-color="#737C84"/>
<stop offset="0.15625" stop-color="#A2ABB4"/>
<stop offset="0.307292" stop-color="#A2ABB4"/>
<stop offset="0.473958" stop-color="#C31A44"/>
<stop offset="0.671875" stop-color="#0098B7"/>
<stop offset="0.838542" stop-color="#A2ABB4"/>
</linearGradient>
<linearGradient id="paint6_linear_381_5578" x1="1.01563" y1="20.0036" x2="22.5267" y2="58.727" gradientUnits="userSpaceOnUse">
<stop stop-color="#737C84"/>
<stop offset="0.15625" stop-color="#A2ABB4"/>
<stop offset="0.307292" stop-color="#A2ABB4"/>
<stop offset="0.473958" stop-color="#C31A44"/>
<stop offset="0.671875" stop-color="#0098B7"/>
<stop offset="0.838542" stop-color="#A2ABB4"/>
</linearGradient>
<linearGradient id="paint7_linear_381_5578" x1="1.01563" y1="20.0036" x2="22.5267" y2="58.727" gradientUnits="userSpaceOnUse">
<stop stop-color="#737C84"/>
<stop offset="0.15625" stop-color="#A2ABB4"/>
<stop offset="0.307292" stop-color="#A2ABB4"/>
<stop offset="0.473958" stop-color="#C31A44"/>
<stop offset="0.671875" stop-color="#0098B7"/>
<stop offset="0.838542" stop-color="#A2ABB4"/>
</linearGradient>
<linearGradient id="paint8_linear_381_5578" x1="17.9141" y1="-3.01023" x2="42.8463" y2="19.9184" gradientUnits="userSpaceOnUse">
<stop stop-color="#737C84"/>
<stop offset="0.15625" stop-color="#A2ABB4"/>
<stop offset="0.307292" stop-color="#A2ABB4"/>
<stop offset="0.473958" stop-color="#C31A44"/>
<stop offset="0.671875" stop-color="#0098B7"/>
<stop offset="0.838542" stop-color="#A2ABB4"/>
</linearGradient>
<linearGradient id="paint9_linear_381_5578" x1="17.9141" y1="-3.01023" x2="42.8463" y2="19.9184" gradientUnits="userSpaceOnUse">
<stop stop-color="#737C84"/>
<stop offset="0.15625" stop-color="#A2ABB4"/>
<stop offset="0.307292" stop-color="#A2ABB4"/>
<stop offset="0.473958" stop-color="#C31A44"/>
<stop offset="0.671875" stop-color="#0098B7"/>
<stop offset="0.838542" stop-color="#A2ABB4"/>
</linearGradient>
<clipPath id="clip0_381_5578">
<rect width="45" height="45" fill="white"/>
</clipPath>
</defs>
</svg>
