<svg width="47" height="47" viewBox="0 0 47 47" fill="none" xmlns="http://www.w3.org/2000/svg">
<g clip-path="url(#clip0_381_5543)">
<path d="M37.7831 38.9669L37.7831 38.9669C37.682 38.4587 38.0118 37.9645 38.5202 37.8631L37.7831 38.9669ZM37.7831 38.9669L38.7928 44.0377C38.8088 44.1599 38.8242 44.3532 38.8026 44.5529C38.7801 44.7604 38.7209 44.9456 38.611 45.0722L38.611 45.0722M37.7831 38.9669L38.611 45.0722M38.611 45.0722C38.4239 45.2877 38.1143 45.3706 37.3798 45.3791C37.1367 45.3819 36.846 45.3766 36.5073 45.3705C35.9409 45.3602 35.2406 45.3475 34.4056 45.3661V39.132C34.4056 38.6135 33.9854 38.1933 33.4669 38.1933C32.9484 38.1933 32.5283 38.6135 32.5283 39.132V45.3727H19.9387C19.4202 45.3727 19 45.7929 19 46.3113C19 46.8298 19.4202 47.25 19.9387 47.25H37.6089C38.6423 47.25 39.4715 46.9444 40.0283 46.3031C40.6586 45.5774 40.7963 44.4827 40.6394 43.6988L39.6242 38.6004M38.611 45.0722L39.6242 38.6004M39.6242 38.6004C39.5231 38.0921 39.029 37.7614 38.5203 37.8631C38.5204 37.8631 38.5204 37.8631 38.5204 37.8631L39.6242 38.6004Z" fill="url(#paint0_linear_381_5543)" stroke="url(#paint1_linear_381_5543)" stroke-width="0.5"/>
<mask id="path-2-outside-1_381_5543" maskUnits="userSpaceOnUse" x="5.55469" y="-0.999969" width="34" height="49" fill="black">
<rect fill="white" x="5.55469" y="-0.999969" width="34" height="49"/>
<path d="M38.7518 35.4971C38.3844 34.1195 38.5132 32.3338 36.7308 30.9377C35.7126 30.1422 35.3988 30.1971 29.5579 28.4742L27.7475 27.2499V26.1086C31.0504 24.3165 32.6377 21.1391 32.6377 18.0231V17.896C34.8923 17.4791 35.9933 15.2101 34.7367 13.5115C34.7375 13.5012 34.7736 10.959 34.6595 9.89056C33.5054 0.161117 21.2739 -3.40335 15.0639 3.83115C14.8133 4.11719 14.8418 4.5523 15.1279 4.80291C15.414 5.05351 15.849 5.02487 16.0997 4.73893C21.2182 -1.17581 30.9545 1.15252 33.008 8.6054L33.0192 8.64671C33.4833 10.3609 33.3321 11.5537 33.3618 12.4594C32.954 12.2913 32.5008 12.194 32.0229 12.1848C31.5291 11.9145 31.1092 11.4466 30.8843 10.8297C30.7689 10.4904 30.7249 10.3172 30.6903 9.7468C30.6766 9.20823 30.4305 8.7006 30.0151 8.35397C28.5779 7.15483 27.3465 8.9926 19.5537 8.07941L18.5158 7.9351C17.3955 7.76069 16.3589 8.60164 16.3291 9.75305C16.3132 10.0856 16.2945 10.2886 16.1922 10.6583C15.9661 11.4151 15.5187 11.797 15.5503 11.7641C15.3746 11.9412 15.1816 12.0841 14.9969 12.1848C14.5189 12.194 14.0654 12.2912 13.6575 12.4595C13.6605 10.4484 13.6686 9.13571 14.4834 7.27784C14.6361 6.92956 14.4777 6.52336 14.1293 6.37061C13.781 6.21796 13.3749 6.3764 13.2221 6.72476C12.6679 7.98862 12.3517 9.33886 12.2912 10.7456C12.2912 10.7548 12.2692 13.3261 12.2827 13.5117C11.0217 15.2163 12.1333 17.4806 14.3821 17.8961C14.4248 23.9106 19.1617 26.0171 19.2319 26.0869C19.2379 26.0902 19.244 26.0934 19.25 26.0967V27.2606L17.4675 28.466C12.1165 30.0443 11.6504 30.1788 11.5871 30.2024C10.0883 30.7613 8.95195 31.9548 8.60946 33.671C6.51282 44.2031 6.60168 43.7501 6.59663 43.7857C6.33318 45.647 7.31632 46.9999 9.38863 46.9999H16.7252C17.1056 46.9999 17.4139 46.6917 17.4139 46.3113C17.4139 45.9309 17.1056 45.6226 16.7252 45.6226H14.2439V39.132C14.2439 38.7516 13.9357 38.4434 13.5553 38.4434C13.1749 38.4434 12.8666 38.7516 12.8666 39.132V45.6227H9.38854C8.27367 45.6227 7.80523 45.1343 7.95798 43.9967C10.1366 33.4036 9.83559 33.3491 10.7351 32.3729C11.0931 31.9839 11.5531 31.6888 12.0472 31.5008C17.0896 30.0134 17.3079 29.9491 17.3106 29.9482C17.3121 29.9478 17.3152 29.9469 17.3217 29.9449C18.6492 33.6362 18.5598 33.4795 18.6897 33.707C19.046 34.3318 19.862 34.633 20.6291 34.1895C20.8165 34.1152 22.4395 33.4718 22.6779 33.3773V39.1319C22.6779 39.5123 22.9861 39.8205 23.3665 39.8205C23.7469 39.8205 24.0552 39.5123 24.0552 39.1319V33.3463C27.0404 34.4309 26.1889 34.1095 26.5402 34.2742C27.2611 34.6119 28.1492 34.2679 28.4293 33.4828L29.6903 29.9491C35.7636 31.7405 34.1989 31.2864 34.4618 31.3565C34.5173 31.3897 36.5953 31.7239 37.0373 33.9397L37.4009 35.7659C37.4751 36.139 37.8377 36.3813 38.2107 36.3069C38.5839 36.2326 38.8259 35.87 38.7518 35.4971ZM32.6377 13.6591C34.2999 14.1535 34.2989 15.989 32.6377 16.4832V13.6591ZM14.3824 16.4833C12.72 15.9891 12.7203 14.1531 14.3824 13.659V16.4833ZM16.3007 20.8741C15.6003 19.1072 15.7597 18.1673 15.7597 13.3353C16.8544 12.6898 17.6629 11.4643 17.7066 9.78178C17.7144 9.47151 18.0029 9.24872 18.3035 9.2959L18.515 9.32803C19.1703 9.35951 22.5602 10.1624 28.7162 9.29599C28.865 9.27295 29.0172 9.3149 29.1329 9.41138C29.301 9.55174 29.3084 9.70669 29.3162 9.84035C29.3601 11.06 29.81 12.1595 30.7113 12.9393L30.7063 12.9351C30.8336 13.0499 31.0575 13.2163 31.2601 13.3351C31.2601 13.3585 31.2604 17.938 31.2604 18.0232C31.2604 23.5785 25.4219 27.6275 19.9532 24.9108C19.9502 24.9093 19.9461 24.9072 19.942 24.9053C19.9419 24.9052 19.9419 24.9052 19.9418 24.9052C18.3366 24.0712 17.0044 22.6565 16.3007 20.8741ZM19.892 33.0261C19.8724 33.0242 19.9388 33.1619 18.581 29.3757L19.786 28.5609L22.2922 32.0488C19.9271 32.9957 20.0261 32.9267 19.892 33.0261ZM23.3883 31.2137L20.6276 27.3718V26.684C22.132 27.1815 23.3594 27.1418 23.4433 27.1495V27.1436C23.4474 27.1436 23.4515 27.1438 23.4557 27.1438L23.4558 27.1496C24.7339 27.1277 25.4748 26.9856 26.3702 26.6916V27.3791L23.3883 31.2137ZM27.1307 33.0234C27.1152 33.0374 27.0901 32.9833 26.9434 32.93C26.7548 32.8615 24.7812 32.1448 24.4911 32.0395L27.207 28.547L28.4325 29.3757L27.1307 33.0234Z"/>
</mask>
<path d="M38.7518 35.4971C38.3844 34.1195 38.5132 32.3338 36.7308 30.9377C35.7126 30.1422 35.3988 30.1971 29.5579 28.4742L27.7475 27.2499V26.1086C31.0504 24.3165 32.6377 21.1391 32.6377 18.0231V17.896C34.8923 17.4791 35.9933 15.2101 34.7367 13.5115C34.7375 13.5012 34.7736 10.959 34.6595 9.89056C33.5054 0.161117 21.2739 -3.40335 15.0639 3.83115C14.8133 4.11719 14.8418 4.5523 15.1279 4.80291C15.414 5.05351 15.849 5.02487 16.0997 4.73893C21.2182 -1.17581 30.9545 1.15252 33.008 8.6054L33.0192 8.64671C33.4833 10.3609 33.3321 11.5537 33.3618 12.4594C32.954 12.2913 32.5008 12.194 32.0229 12.1848C31.5291 11.9145 31.1092 11.4466 30.8843 10.8297C30.7689 10.4904 30.7249 10.3172 30.6903 9.7468C30.6766 9.20823 30.4305 8.7006 30.0151 8.35397C28.5779 7.15483 27.3465 8.9926 19.5537 8.07941L18.5158 7.9351C17.3955 7.76069 16.3589 8.60164 16.3291 9.75305C16.3132 10.0856 16.2945 10.2886 16.1922 10.6583C15.9661 11.4151 15.5187 11.797 15.5503 11.7641C15.3746 11.9412 15.1816 12.0841 14.9969 12.1848C14.5189 12.194 14.0654 12.2912 13.6575 12.4595C13.6605 10.4484 13.6686 9.13571 14.4834 7.27784C14.6361 6.92956 14.4777 6.52336 14.1293 6.37061C13.781 6.21796 13.3749 6.3764 13.2221 6.72476C12.6679 7.98862 12.3517 9.33886 12.2912 10.7456C12.2912 10.7548 12.2692 13.3261 12.2827 13.5117C11.0217 15.2163 12.1333 17.4806 14.3821 17.8961C14.4248 23.9106 19.1617 26.0171 19.2319 26.0869C19.2379 26.0902 19.244 26.0934 19.25 26.0967V27.2606L17.4675 28.466C12.1165 30.0443 11.6504 30.1788 11.5871 30.2024C10.0883 30.7613 8.95195 31.9548 8.60946 33.671C6.51282 44.2031 6.60168 43.7501 6.59663 43.7857C6.33318 45.647 7.31632 46.9999 9.38863 46.9999H16.7252C17.1056 46.9999 17.4139 46.6917 17.4139 46.3113C17.4139 45.9309 17.1056 45.6226 16.7252 45.6226H14.2439V39.132C14.2439 38.7516 13.9357 38.4434 13.5553 38.4434C13.1749 38.4434 12.8666 38.7516 12.8666 39.132V45.6227H9.38854C8.27367 45.6227 7.80523 45.1343 7.95798 43.9967C10.1366 33.4036 9.83559 33.3491 10.7351 32.3729C11.0931 31.9839 11.5531 31.6888 12.0472 31.5008C17.0896 30.0134 17.3079 29.9491 17.3106 29.9482C17.3121 29.9478 17.3152 29.9469 17.3217 29.9449C18.6492 33.6362 18.5598 33.4795 18.6897 33.707C19.046 34.3318 19.862 34.633 20.6291 34.1895C20.8165 34.1152 22.4395 33.4718 22.6779 33.3773V39.1319C22.6779 39.5123 22.9861 39.8205 23.3665 39.8205C23.7469 39.8205 24.0552 39.5123 24.0552 39.1319V33.3463C27.0404 34.4309 26.1889 34.1095 26.5402 34.2742C27.2611 34.6119 28.1492 34.2679 28.4293 33.4828L29.6903 29.9491C35.7636 31.7405 34.1989 31.2864 34.4618 31.3565C34.5173 31.3897 36.5953 31.7239 37.0373 33.9397L37.4009 35.7659C37.4751 36.139 37.8377 36.3813 38.2107 36.3069C38.5839 36.2326 38.8259 35.87 38.7518 35.4971ZM32.6377 13.6591C34.2999 14.1535 34.2989 15.989 32.6377 16.4832V13.6591ZM14.3824 16.4833C12.72 15.9891 12.7203 14.1531 14.3824 13.659V16.4833ZM16.3007 20.8741C15.6003 19.1072 15.7597 18.1673 15.7597 13.3353C16.8544 12.6898 17.6629 11.4643 17.7066 9.78178C17.7144 9.47151 18.0029 9.24872 18.3035 9.2959L18.515 9.32803C19.1703 9.35951 22.5602 10.1624 28.7162 9.29599C28.865 9.27295 29.0172 9.3149 29.1329 9.41138C29.301 9.55174 29.3084 9.70669 29.3162 9.84035C29.3601 11.06 29.81 12.1595 30.7113 12.9393L30.7063 12.9351C30.8336 13.0499 31.0575 13.2163 31.2601 13.3351C31.2601 13.3585 31.2604 17.938 31.2604 18.0232C31.2604 23.5785 25.4219 27.6275 19.9532 24.9108C19.9502 24.9093 19.9461 24.9072 19.942 24.9053C19.9419 24.9052 19.9419 24.9052 19.9418 24.9052C18.3366 24.0712 17.0044 22.6565 16.3007 20.8741ZM19.892 33.0261C19.8724 33.0242 19.9388 33.1619 18.581 29.3757L19.786 28.5609L22.2922 32.0488C19.9271 32.9957 20.0261 32.9267 19.892 33.0261ZM23.3883 31.2137L20.6276 27.3718V26.684C22.132 27.1815 23.3594 27.1418 23.4433 27.1495V27.1436C23.4474 27.1436 23.4515 27.1438 23.4557 27.1438L23.4558 27.1496C24.7339 27.1277 25.4748 26.9856 26.3702 26.6916V27.3791L23.3883 31.2137ZM27.1307 33.0234C27.1152 33.0374 27.0901 32.9833 26.9434 32.93C26.7548 32.8615 24.7812 32.1448 24.4911 32.0395L27.207 28.547L28.4325 29.3757L27.1307 33.0234Z" fill="url(#paint2_linear_381_5543)"/>
<path d="M38.7518 35.4971C38.3844 34.1195 38.5132 32.3338 36.7308 30.9377C35.7126 30.1422 35.3988 30.1971 29.5579 28.4742L27.7475 27.2499V26.1086C31.0504 24.3165 32.6377 21.1391 32.6377 18.0231V17.896C34.8923 17.4791 35.9933 15.2101 34.7367 13.5115C34.7375 13.5012 34.7736 10.959 34.6595 9.89056C33.5054 0.161117 21.2739 -3.40335 15.0639 3.83115C14.8133 4.11719 14.8418 4.5523 15.1279 4.80291C15.414 5.05351 15.849 5.02487 16.0997 4.73893C21.2182 -1.17581 30.9545 1.15252 33.008 8.6054L33.0192 8.64671C33.4833 10.3609 33.3321 11.5537 33.3618 12.4594C32.954 12.2913 32.5008 12.194 32.0229 12.1848C31.5291 11.9145 31.1092 11.4466 30.8843 10.8297C30.7689 10.4904 30.7249 10.3172 30.6903 9.7468C30.6766 9.20823 30.4305 8.7006 30.0151 8.35397C28.5779 7.15483 27.3465 8.9926 19.5537 8.07941L18.5158 7.9351C17.3955 7.76069 16.3589 8.60164 16.3291 9.75305C16.3132 10.0856 16.2945 10.2886 16.1922 10.6583C15.9661 11.4151 15.5187 11.797 15.5503 11.7641C15.3746 11.9412 15.1816 12.0841 14.9969 12.1848C14.5189 12.194 14.0654 12.2912 13.6575 12.4595C13.6605 10.4484 13.6686 9.13571 14.4834 7.27784C14.6361 6.92956 14.4777 6.52336 14.1293 6.37061C13.781 6.21796 13.3749 6.3764 13.2221 6.72476C12.6679 7.98862 12.3517 9.33886 12.2912 10.7456C12.2912 10.7548 12.2692 13.3261 12.2827 13.5117C11.0217 15.2163 12.1333 17.4806 14.3821 17.8961C14.4248 23.9106 19.1617 26.0171 19.2319 26.0869C19.2379 26.0902 19.244 26.0934 19.25 26.0967V27.2606L17.4675 28.466C12.1165 30.0443 11.6504 30.1788 11.5871 30.2024C10.0883 30.7613 8.95195 31.9548 8.60946 33.671C6.51282 44.2031 6.60168 43.7501 6.59663 43.7857C6.33318 45.647 7.31632 46.9999 9.38863 46.9999H16.7252C17.1056 46.9999 17.4139 46.6917 17.4139 46.3113C17.4139 45.9309 17.1056 45.6226 16.7252 45.6226H14.2439V39.132C14.2439 38.7516 13.9357 38.4434 13.5553 38.4434C13.1749 38.4434 12.8666 38.7516 12.8666 39.132V45.6227H9.38854C8.27367 45.6227 7.80523 45.1343 7.95798 43.9967C10.1366 33.4036 9.83559 33.3491 10.7351 32.3729C11.0931 31.9839 11.5531 31.6888 12.0472 31.5008C17.0896 30.0134 17.3079 29.9491 17.3106 29.9482C17.3121 29.9478 17.3152 29.9469 17.3217 29.9449C18.6492 33.6362 18.5598 33.4795 18.6897 33.707C19.046 34.3318 19.862 34.633 20.6291 34.1895C20.8165 34.1152 22.4395 33.4718 22.6779 33.3773V39.1319C22.6779 39.5123 22.9861 39.8205 23.3665 39.8205C23.7469 39.8205 24.0552 39.5123 24.0552 39.1319V33.3463C27.0404 34.4309 26.1889 34.1095 26.5402 34.2742C27.2611 34.6119 28.1492 34.2679 28.4293 33.4828L29.6903 29.9491C35.7636 31.7405 34.1989 31.2864 34.4618 31.3565C34.5173 31.3897 36.5953 31.7239 37.0373 33.9397L37.4009 35.7659C37.4751 36.139 37.8377 36.3813 38.2107 36.3069C38.5839 36.2326 38.8259 35.87 38.7518 35.4971ZM32.6377 13.6591C34.2999 14.1535 34.2989 15.989 32.6377 16.4832V13.6591ZM14.3824 16.4833C12.72 15.9891 12.7203 14.1531 14.3824 13.659V16.4833ZM16.3007 20.8741C15.6003 19.1072 15.7597 18.1673 15.7597 13.3353C16.8544 12.6898 17.6629 11.4643 17.7066 9.78178C17.7144 9.47151 18.0029 9.24872 18.3035 9.2959L18.515 9.32803C19.1703 9.35951 22.5602 10.1624 28.7162 9.29599C28.865 9.27295 29.0172 9.3149 29.1329 9.41138C29.301 9.55174 29.3084 9.70669 29.3162 9.84035C29.3601 11.06 29.81 12.1595 30.7113 12.9393L30.7063 12.9351C30.8336 13.0499 31.0575 13.2163 31.2601 13.3351C31.2601 13.3585 31.2604 17.938 31.2604 18.0232C31.2604 23.5785 25.4219 27.6275 19.9532 24.9108C19.9502 24.9093 19.9461 24.9072 19.942 24.9053C19.9419 24.9052 19.9419 24.9052 19.9418 24.9052C18.3366 24.0712 17.0044 22.6565 16.3007 20.8741ZM19.892 33.0261C19.8724 33.0242 19.9388 33.1619 18.581 29.3757L19.786 28.5609L22.2922 32.0488C19.9271 32.9957 20.0261 32.9267 19.892 33.0261ZM23.3883 31.2137L20.6276 27.3718V26.684C22.132 27.1815 23.3594 27.1418 23.4433 27.1495V27.1436C23.4474 27.1436 23.4515 27.1438 23.4557 27.1438L23.4558 27.1496C24.7339 27.1277 25.4748 26.9856 26.3702 26.6916V27.3791L23.3883 31.2137ZM27.1307 33.0234C27.1152 33.0374 27.0901 32.9833 26.9434 32.93C26.7548 32.8615 24.7812 32.1448 24.4911 32.0395L27.207 28.547L28.4325 29.3757L27.1307 33.0234Z" stroke="url(#paint3_linear_381_5543)" mask="url(#path-2-outside-1_381_5543)"/>
<mask id="path-3-outside-2_381_5543" maskUnits="userSpaceOnUse" x="16.3086" y="28.9482" width="2" height="2" fill="black">
<rect fill="white" x="16.3086" y="28.9482" width="2" height="2"/>
<path d="M17.3095 29.9482C17.3073 29.9489 17.3098 29.9482 17.3095 29.9482V29.9482Z"/>
</mask>
<path d="M17.3095 29.9482C17.3073 29.9489 17.3098 29.9482 17.3095 29.9482V29.9482Z" fill="url(#paint4_linear_381_5543)"/>
<path d="M17.1694 29.4683C17.169 29.4684 17.1684 29.4686 17.1679 29.4687C17.1676 29.4688 17.1672 29.4689 17.1667 29.4691C17.1664 29.4692 17.1651 29.4695 17.1635 29.47C17.163 29.4702 17.1623 29.4704 17.1614 29.4707C17.1607 29.4709 17.1592 29.4714 17.1572 29.472C17.1563 29.4723 17.1547 29.4728 17.1529 29.4734C17.1513 29.4739 17.1479 29.475 17.1437 29.4765C17.1415 29.4772 17.138 29.4785 17.1337 29.4801C17.1318 29.4808 17.1275 29.4825 17.1251 29.4834C17.1221 29.4846 17.115 29.4875 17.1111 29.4892C17.1056 29.4916 17.0921 29.4978 17.0842 29.5017C17.0715 29.5083 17.0362 29.5292 17.0142 29.5444C16.9644 29.5858 16.8256 29.8194 16.815 30.028C16.9133 30.2547 17.183 30.4325 17.2609 30.4462C17.2917 30.4482 17.3383 30.4476 17.3541 30.4464C17.3636 30.4455 17.3795 30.4435 17.3858 30.4425C17.3903 30.4418 17.3982 30.4404 17.4016 30.4398C17.4042 30.4393 17.4089 30.4383 17.411 30.4379C17.4157 30.4369 17.4194 30.4361 17.4217 30.4356C17.4241 30.435 17.4262 30.4345 17.4276 30.4341C17.4304 30.4334 17.4327 30.4329 17.434 30.4325C17.4354 30.4322 17.4365 30.4319 17.4373 30.4317C17.44 30.4309 17.4422 30.4303 17.4426 30.4302C17.4441 30.4298 17.4453 30.4295 17.4456 30.4294C17.4461 30.4292 17.4466 30.4291 17.4469 30.429C17.4478 30.4287 17.4493 30.4283 17.4509 30.4278C17.4514 30.4277 17.4522 30.4274 17.4533 30.4271C17.4538 30.427 17.4564 30.4262 17.4596 30.4252C17.4605 30.4249 17.4619 30.4245 17.4636 30.4239C17.4651 30.4234 17.4678 30.4225 17.4712 30.4214C17.4729 30.4208 17.4754 30.4199 17.4784 30.4189C17.4811 30.4179 17.4858 30.4162 17.4916 30.4139C17.4946 30.4127 17.4986 30.4111 17.5034 30.4091C17.508 30.4072 17.5151 30.4041 17.5237 30.4001C17.5274 30.3983 17.5357 30.3941 17.5403 30.3918C17.5459 30.3888 17.5587 30.3817 17.5657 30.3776C17.575 30.3719 17.5966 30.3576 17.6088 30.3488C17.6262 30.3352 17.6679 30.2969 17.6911 30.2713C17.7262 30.2246 17.7918 30.0802 17.8085 29.9807C17.7985 29.8439 17.6878 29.6213 17.6043 29.5444C17.5472 29.5083 17.4483 29.4679 17.4101 29.4585C17.3859 29.4541 17.345 29.4495 17.3285 29.4486C17.3167 29.4483 17.2962 29.4484 17.2874 29.4487C17.2806 29.4491 17.2685 29.4499 17.2631 29.4504C17.2587 29.4508 17.2507 29.4517 17.2471 29.4522C17.2441 29.4525 17.2385 29.4533 17.2359 29.4537C17.2298 29.4546 17.2247 29.4555 17.2211 29.4561C17.2174 29.4568 17.2143 29.4574 17.2119 29.4579C17.2072 29.4588 17.2034 29.4596 17.201 29.4602C17.1962 29.4612 17.1925 29.4621 17.1907 29.4626C17.1886 29.4631 17.1869 29.4635 17.1858 29.4638L17.4332 30.4327C17.4321 30.433 17.4304 30.4334 17.4283 30.4339C17.4265 30.4344 17.4228 30.4353 17.4181 30.4363C17.4157 30.4369 17.4118 30.4377 17.4071 30.4386C17.4047 30.4391 17.4016 30.4397 17.3979 30.4404C17.3943 30.441 17.3893 30.4419 17.3832 30.4428C17.3806 30.4432 17.3749 30.4439 17.3719 30.4443C17.3683 30.4448 17.3603 30.4457 17.356 30.4461C17.3506 30.4466 17.3384 30.4474 17.3317 30.4478C17.3229 30.4481 17.3023 30.4482 17.2905 30.4479C17.274 30.447 17.2331 30.4424 17.209 30.438C17.1707 30.4286 17.0719 30.3881 17.0148 30.3521C16.9313 30.2752 16.8205 30.0525 16.8106 29.9158C16.8272 29.8163 16.8929 29.6718 16.9279 29.6252C16.9512 29.5996 16.9929 29.5613 17.0102 29.5477C17.0224 29.5389 17.044 29.5245 17.0533 29.5189C17.0604 29.5147 17.0731 29.5077 17.0787 29.5047C17.0833 29.5023 17.0916 29.4982 17.0954 29.4964C17.1039 29.4924 17.1111 29.4893 17.1156 29.4874C17.1204 29.4854 17.1245 29.4837 17.1274 29.4826C17.1332 29.4803 17.1379 29.4786 17.1406 29.4776C17.1436 29.4766 17.1461 29.4757 17.1478 29.4751C17.1512 29.474 17.1539 29.4731 17.1554 29.4726C17.1571 29.472 17.1585 29.4716 17.1594 29.4713C17.1626 29.4703 17.1651 29.4696 17.1656 29.4694C17.1665 29.4691 17.1673 29.4689 17.1677 29.4688C17.1691 29.4684 17.1701 29.4681 17.1707 29.4679C17.1709 29.4678 17.1713 29.4677 17.1718 29.4676C17.172 29.4675 17.1732 29.4672 17.1746 29.4668C17.1751 29.4667 17.1772 29.4661 17.1799 29.4654C17.1807 29.4651 17.1818 29.4648 17.1832 29.4645C17.1845 29.4642 17.1868 29.4636 17.1896 29.4629C17.191 29.4625 17.193 29.462 17.1955 29.4615C17.1978 29.4609 17.2015 29.4601 17.2062 29.4591C17.2083 29.4587 17.213 29.4577 17.2156 29.4572C17.219 29.4566 17.2268 29.4552 17.2314 29.4545C17.2377 29.4536 17.2536 29.4516 17.2631 29.4506C17.2789 29.4494 17.3255 29.4488 17.3563 29.4508C17.4342 29.4646 17.7039 29.6424 17.8022 29.869C17.7916 30.0776 17.6527 30.3112 17.603 30.3527C17.581 30.3678 17.5457 30.3887 17.533 30.3953C17.5251 30.3992 17.5116 30.4054 17.5061 30.4078C17.5021 30.4095 17.4951 30.4124 17.4921 30.4136C17.4897 30.4146 17.4854 30.4162 17.4835 30.4169C17.4792 30.4185 17.4757 30.4198 17.4735 30.4205C17.4693 30.422 17.4659 30.4231 17.4643 30.4236C17.4625 30.4243 17.4609 30.4247 17.46 30.425C17.458 30.4257 17.4565 30.4261 17.4558 30.4264C17.4549 30.4266 17.4542 30.4268 17.4537 30.427C17.4522 30.4275 17.451 30.4278 17.4508 30.4279C17.4503 30.428 17.45 30.4281 17.4499 30.4281C17.4496 30.4282 17.4495 30.4283 17.4496 30.4282L17.1694 29.4683Z" fill="url(#paint5_linear_381_5543)" mask="url(#path-3-outside-2_381_5543)"/>
</g>
<defs>
<linearGradient id="paint0_linear_381_5543" x1="19.25" y1="36.858" x2="27.0203" y2="53.8687" gradientUnits="userSpaceOnUse">
<stop stop-color="#737C84"/>
<stop offset="0.15625" stop-color="#A2ABB4"/>
<stop offset="0.307292" stop-color="#A2ABB4"/>
<stop offset="0.473958" stop-color="#C31A44"/>
<stop offset="0.671875" stop-color="#0098B7"/>
<stop offset="0.838542" stop-color="#A2ABB4"/>
</linearGradient>
<linearGradient id="paint1_linear_381_5543" x1="19.25" y1="36.858" x2="27.0203" y2="53.8687" gradientUnits="userSpaceOnUse">
<stop stop-color="#737C84"/>
<stop offset="0.15625" stop-color="#A2ABB4"/>
<stop offset="0.307292" stop-color="#A2ABB4"/>
<stop offset="0.473958" stop-color="#C31A44"/>
<stop offset="0.671875" stop-color="#0098B7"/>
<stop offset="0.838542" stop-color="#A2ABB4"/>
</linearGradient>
<linearGradient id="paint2_linear_381_5543" x1="6.55469" y1="-6.52773" x2="55.5019" y2="24.3215" gradientUnits="userSpaceOnUse">
<stop stop-color="#737C84"/>
<stop offset="0.15625" stop-color="#A2ABB4"/>
<stop offset="0.307292" stop-color="#A2ABB4"/>
<stop offset="0.473958" stop-color="#C31A44"/>
<stop offset="0.671875" stop-color="#0098B7"/>
<stop offset="0.838542" stop-color="#A2ABB4"/>
</linearGradient>
<linearGradient id="paint3_linear_381_5543" x1="6.55469" y1="-6.52773" x2="55.5019" y2="24.3215" gradientUnits="userSpaceOnUse">
<stop stop-color="#737C84"/>
<stop offset="0.15625" stop-color="#A2ABB4"/>
<stop offset="0.307292" stop-color="#A2ABB4"/>
<stop offset="0.473958" stop-color="#C31A44"/>
<stop offset="0.671875" stop-color="#0098B7"/>
<stop offset="0.838542" stop-color="#A2ABB4"/>
</linearGradient>
<linearGradient id="paint4_linear_381_5543" x1="17.3086" y1="29.9482" x2="17.3088" y2="29.9488" gradientUnits="userSpaceOnUse">
<stop stop-color="#737C84"/>
<stop offset="0.15625" stop-color="#A2ABB4"/>
<stop offset="0.307292" stop-color="#A2ABB4"/>
<stop offset="0.473958" stop-color="#C31A44"/>
<stop offset="0.671875" stop-color="#0098B7"/>
<stop offset="0.838542" stop-color="#A2ABB4"/>
</linearGradient>
<linearGradient id="paint5_linear_381_5543" x1="17.3086" y1="29.9482" x2="17.3088" y2="29.9488" gradientUnits="userSpaceOnUse">
<stop stop-color="#737C84"/>
<stop offset="0.15625" stop-color="#A2ABB4"/>
<stop offset="0.307292" stop-color="#A2ABB4"/>
<stop offset="0.473958" stop-color="#C31A44"/>
<stop offset="0.671875" stop-color="#0098B7"/>
<stop offset="0.838542" stop-color="#A2ABB4"/>
</linearGradient>
<clipPath id="clip0_381_5543">
<rect width="47" height="47" fill="white"/>
</clipPath>
</defs>
</svg>
