<svg width="45" height="45" viewBox="0 0 45 45" fill="none" xmlns="http://www.w3.org/2000/svg">
<path d="M35.679 5.89586H31.6079V4.0746C31.6079 3.48536 30.9652 3.21754 30.3759 3.21754H27.2155C26.4656 1.07485 24.5907 0.00349892 22.448 0.00349892C20.3289 -0.0761678 18.4014 1.22321 17.6805 3.21754H14.5736C13.9844 3.21754 13.3951 3.48536 13.3951 4.0746V5.89586H9.3239C6.91134 5.9216 4.93762 7.82478 4.82422 10.2348V40.9288C4.82422 43.2858 6.96692 44.9999 9.3239 44.9999H35.679C38.036 44.9999 40.1787 43.2858 40.1787 40.9288V10.2349C40.0653 7.82478 38.0916 5.9216 35.679 5.89586ZM15.5377 5.36024H18.4839C18.9982 5.29749 19.4113 4.90623 19.5018 4.39604C19.819 3.01453 21.031 2.02285 22.448 1.98553C23.8519 2.02808 25.0456 3.02284 25.3406 4.39604C25.4367 4.92387 25.877 5.32015 26.412 5.36024H29.4653V9.64563H15.5377V5.36024ZM38.036 40.9289C38.036 42.1074 36.8575 42.8573 35.679 42.8573H9.3239C8.14541 42.8573 6.96692 42.1074 6.96692 40.9289V10.2349C7.07621 9.0082 8.0925 8.06112 9.3239 8.03866H13.395V10.7706C13.4516 11.3708 13.9714 11.8198 14.5735 11.7884H30.3758C30.9889 11.822 31.5251 11.3791 31.6078 10.7706V8.03856H35.6789C36.9102 8.06112 37.9266 9.0081 38.0359 10.2348V40.9289H38.036Z" fill="url(#paint0_linear_381_5514)"/>
<path d="M18.3771 23.9481C17.9753 23.5246 17.3082 23.5007 16.8772 23.8946L13.4488 27.1621L12.0025 25.6622C11.6007 25.2387 10.9337 25.2149 10.5026 25.6087C10.0877 26.0434 10.0877 26.7274 10.5026 27.1621L12.6988 29.412C12.8889 29.6248 13.1635 29.7425 13.4487 29.7334C13.7313 29.7294 14.0009 29.6139 14.1987 29.412L18.3769 25.448C18.7911 25.0681 18.8188 24.4242 18.4387 24.01C18.4193 23.9884 18.3986 23.9678 18.3771 23.9481Z" fill="url(#paint1_linear_381_5514)"/>
<path d="M33.7512 26.2515H21.4307C20.839 26.2515 20.3594 26.7311 20.3594 27.3228C20.3594 27.9145 20.839 28.3942 21.4307 28.3942H33.7512C34.3429 28.3942 34.8225 27.9145 34.8225 27.3228C34.8225 26.7311 34.3429 26.2515 33.7512 26.2515Z" fill="url(#paint2_linear_381_5514)"/>
<path d="M18.3771 15.3773C17.9753 14.9538 17.3082 14.9299 16.8772 15.3238L13.4488 18.5914L12.0025 17.0914C11.6007 16.6679 10.9337 16.644 10.5026 17.0379C10.0877 17.4726 10.0877 18.1566 10.5026 18.5914L12.6988 20.8412C12.8889 21.0541 13.1635 21.1718 13.4487 21.1626C13.7313 21.1586 14.0009 21.0431 14.1987 20.8412L18.3769 16.8772C18.7911 16.4973 18.8188 15.8534 18.4387 15.4392C18.4193 15.4176 18.3986 15.397 18.3771 15.3773Z" fill="url(#paint3_linear_381_5514)"/>
<path d="M33.7512 17.6807H21.4307C20.839 17.6807 20.3594 18.1603 20.3594 18.752C20.3594 19.3437 20.839 19.8234 21.4307 19.8234H33.7512C34.3429 19.8234 34.8225 19.3437 34.8225 18.752C34.8225 18.1603 34.3429 17.6807 33.7512 17.6807Z" fill="url(#paint4_linear_381_5514)"/>
<path d="M18.3771 32.5188C17.9753 32.0952 17.3082 32.0714 16.8772 32.4653L13.4488 35.7328L12.0025 34.2329C11.6007 33.8093 10.9337 33.7856 10.5026 34.1794C10.0877 34.6141 10.0877 35.2981 10.5026 35.7328L12.6988 37.9827C12.8889 38.1955 13.1635 38.3132 13.4487 38.3041C13.7313 38.3001 14.0009 38.1846 14.1987 37.9827L18.3769 34.0187C18.7911 33.6387 18.8188 32.9948 18.4387 32.5807C18.4193 32.5592 18.3986 32.5386 18.3771 32.5188Z" fill="url(#paint5_linear_381_5514)"/>
<path d="M33.7512 34.8222H21.4307C20.839 34.8222 20.3594 35.3019 20.3594 35.8936C20.3594 36.4853 20.839 36.965 21.4307 36.965H33.7512C34.3429 36.965 34.8225 36.4853 34.8225 35.8936C34.8225 35.3019 34.3429 34.8222 33.7512 34.8222Z" fill="url(#paint6_linear_381_5514)"/>
<defs>
<linearGradient id="paint0_linear_381_5514" x1="4.82422" y1="-6.24996" x2="54.1435" y2="29.3842" gradientUnits="userSpaceOnUse">
<stop stop-color="#737C84"/>
<stop offset="0.15625" stop-color="#A2ABB4"/>
<stop offset="0.307292" stop-color="#A2ABB4"/>
<stop offset="0.473958" stop-color="#C31A44"/>
<stop offset="0.671875" stop-color="#0098B7"/>
<stop offset="0.838542" stop-color="#A2ABB4"/>
</linearGradient>
<linearGradient id="paint1_linear_381_5514" x1="10.1914" y1="22.7641" x2="17.0466" y2="31.5361" gradientUnits="userSpaceOnUse">
<stop stop-color="#737C84"/>
<stop offset="0.15625" stop-color="#A2ABB4"/>
<stop offset="0.307292" stop-color="#A2ABB4"/>
<stop offset="0.473958" stop-color="#C31A44"/>
<stop offset="0.671875" stop-color="#0098B7"/>
<stop offset="0.838542" stop-color="#A2ABB4"/>
</linearGradient>
<linearGradient id="paint2_linear_381_5514" x1="20.3594" y1="25.9539" x2="21.1362" y2="30.7757" gradientUnits="userSpaceOnUse">
<stop stop-color="#737C84"/>
<stop offset="0.15625" stop-color="#A2ABB4"/>
<stop offset="0.307292" stop-color="#A2ABB4"/>
<stop offset="0.473958" stop-color="#C31A44"/>
<stop offset="0.671875" stop-color="#0098B7"/>
<stop offset="0.838542" stop-color="#A2ABB4"/>
</linearGradient>
<linearGradient id="paint3_linear_381_5514" x1="10.1914" y1="14.1933" x2="17.0466" y2="22.9653" gradientUnits="userSpaceOnUse">
<stop stop-color="#737C84"/>
<stop offset="0.15625" stop-color="#A2ABB4"/>
<stop offset="0.307292" stop-color="#A2ABB4"/>
<stop offset="0.473958" stop-color="#C31A44"/>
<stop offset="0.671875" stop-color="#0098B7"/>
<stop offset="0.838542" stop-color="#A2ABB4"/>
</linearGradient>
<linearGradient id="paint4_linear_381_5514" x1="20.3594" y1="17.3831" x2="21.1361" y2="22.2049" gradientUnits="userSpaceOnUse">
<stop stop-color="#737C84"/>
<stop offset="0.15625" stop-color="#A2ABB4"/>
<stop offset="0.307292" stop-color="#A2ABB4"/>
<stop offset="0.473958" stop-color="#C31A44"/>
<stop offset="0.671875" stop-color="#0098B7"/>
<stop offset="0.838542" stop-color="#A2ABB4"/>
</linearGradient>
<linearGradient id="paint5_linear_381_5514" x1="10.1914" y1="31.3348" x2="17.0466" y2="40.1068" gradientUnits="userSpaceOnUse">
<stop stop-color="#737C84"/>
<stop offset="0.15625" stop-color="#A2ABB4"/>
<stop offset="0.307292" stop-color="#A2ABB4"/>
<stop offset="0.473958" stop-color="#C31A44"/>
<stop offset="0.671875" stop-color="#0098B7"/>
<stop offset="0.838542" stop-color="#A2ABB4"/>
</linearGradient>
<linearGradient id="paint6_linear_381_5514" x1="20.3594" y1="34.5246" x2="21.1362" y2="39.3466" gradientUnits="userSpaceOnUse">
<stop stop-color="#737C84"/>
<stop offset="0.15625" stop-color="#A2ABB4"/>
<stop offset="0.307292" stop-color="#A2ABB4"/>
<stop offset="0.473958" stop-color="#C31A44"/>
<stop offset="0.671875" stop-color="#0098B7"/>
<stop offset="0.838542" stop-color="#A2ABB4"/>
</linearGradient>
</defs>
</svg>
