<svg width="66" height="46" viewBox="0 0 66 46" fill="none" xmlns="http://www.w3.org/2000/svg">
<path d="M65.4558 22.9714L54.3635 11.5105C53.9993 11.1341 53.4979 10.9216 52.9742 10.9216H45.886V2.57935C45.886 1.51149 45.0202 0.645752 43.9524 0.645752H8.03846C6.97061 0.645752 6.10487 1.51149 6.10487 2.57935V8.38193H4.64127C3.57341 8.38193 2.70768 9.24767 2.70768 10.3155C2.70768 11.3834 3.57341 12.2491 4.64127 12.2491H6.10487V16.1181H1.93359C0.865734 16.1181 0 16.9838 0 18.0517C0 19.1196 0.865734 19.9853 1.93359 19.9853H6.10487V37.743C6.10487 38.8109 6.97061 39.6766 8.03846 39.6766H12.1543C12.5292 40.9244 13.2089 42.0678 14.1561 43.015C15.6646 44.5236 17.6702 45.3543 19.8035 45.3543C21.9368 45.3543 23.9423 44.5236 25.4509 43.015C26.4094 42.0565 27.0717 40.9126 27.4401 39.6979H45.9053C46.2737 40.9126 46.9361 42.0565 47.8946 43.015C49.4031 44.5236 51.4087 45.3543 53.542 45.3543C55.6753 45.3543 57.6808 44.5236 59.1894 43.015C60.1479 42.0565 60.8102 40.9126 61.1786 39.6979H64.0664C65.1343 39.6979 66 38.8322 66 37.7643V24.3162C66 23.8142 65.8048 23.3321 65.4558 22.9714ZM59.5042 22.3826H45.8317V14.7888H52.1547L59.5042 22.3826ZM9.97206 19.9852H20.0362C21.104 19.9852 21.9698 19.1194 21.9698 18.0516C21.9698 16.9837 21.104 16.118 20.0362 16.118H9.97206V12.249H21.4545C22.5224 12.249 23.3881 11.3833 23.3881 10.3154C23.3881 9.24754 22.5224 8.3818 21.4545 8.3818H9.97206V4.51281H21.4545H42.0187L41.9644 35.8305H27.638C27.3448 34.3233 26.6158 32.8848 25.4509 31.7198C23.9424 30.2112 21.9368 29.3805 19.8035 29.3805C17.6702 29.3805 15.6647 30.2112 14.1561 31.7198C13.0217 32.8541 12.2708 34.2697 11.968 35.8092H9.97206V19.9852ZM22.7164 40.2806C21.9383 41.0586 20.9037 41.4871 19.8035 41.4871C18.7033 41.4871 17.6687 41.0586 16.8906 40.2806C16.1125 39.5025 15.684 38.4679 15.684 37.3675C15.684 36.2671 16.1125 35.2325 16.8906 34.4544C17.6687 33.6763 18.7033 33.2478 19.8035 33.2478C20.9037 33.2478 21.9383 33.6763 22.7164 34.4544C24.3225 36.0607 24.3225 38.6743 22.7164 40.2806ZM56.4546 40.2806C55.6765 41.0586 54.6419 41.4871 53.5417 41.4871C52.4415 41.4871 51.4069 41.0586 50.6288 40.2806C49.0227 38.6743 49.0227 36.0608 50.6288 34.4545C51.4069 33.6764 52.4415 33.2479 53.5417 33.2479C54.6419 33.2479 55.6765 33.6764 56.4546 34.4545C57.2327 35.2326 57.6611 36.2672 57.6611 37.3677C57.6612 38.4679 57.2327 39.5025 56.4546 40.2806ZM61.3764 35.8306C61.0831 34.3234 60.3542 32.8849 59.1891 31.7199C57.6806 30.2113 55.675 29.3806 53.5417 29.3806C51.4085 29.3806 49.4029 30.2113 47.8943 31.7199C46.8672 32.7471 46.181 33.9872 45.8316 35.2992V26.2498H62.1328V35.8306H61.3764Z" fill="url(#paint0_linear_73_259)"/>
<defs>
<linearGradient id="paint0_linear_73_259" x1="1.4539e-06" y1="-5.56377" x2="49.2896" y2="61.3514" gradientUnits="userSpaceOnUse">
<stop stop-color="#737C84"/>
<stop offset="0.15625" stop-color="#A2ABB4"/>
<stop offset="0.307292" stop-color="#A2ABB4"/>
<stop offset="0.473958" stop-color="#C31A44"/>
<stop offset="0.671875" stop-color="#0098B7"/>
<stop offset="0.838542" stop-color="#A2ABB4"/>
</linearGradient>
</defs>
</svg>
