<svg width="47" height="47" viewBox="0 0 47 47" fill="none" xmlns="http://www.w3.org/2000/svg">
<path d="M40.4855 19.4282H40.3691V16.578C40.3691 7.42222 32.947 0 23.7911 0C14.6353 0 7.21318 7.42222 7.21318 16.578V19.4282H6.5152C3.95577 19.4282 1.97807 21.6967 1.97807 24.3144V31.5854C1.91361 34.1225 3.91813 36.2314 6.45519 36.2959C6.47523 36.2964 6.49516 36.2968 6.5152 36.297H10.8196C11.4293 36.2684 11.9004 35.7508 11.8717 35.1411C11.8707 35.1191 11.869 35.0972 11.8666 35.0754V20.8242C11.8666 20.1262 11.4595 19.4281 10.8196 19.4281H9.53991V16.5779C9.53991 8.70717 15.9205 2.32662 23.7911 2.32662C31.6618 2.32662 38.0424 8.70717 38.0424 16.5779V19.4281H36.7627C36.1228 19.4281 35.7156 20.1261 35.7156 20.8242V35.0754C35.6507 35.6823 36.0901 36.227 36.697 36.2919C36.7188 36.2942 36.7407 36.2959 36.7627 36.2969H38.1005L37.9841 36.4713C36.2387 38.7911 33.4998 40.1497 30.5968 40.1359C29.9613 37.0197 26.9197 35.0086 23.8035 35.6442C21.1386 36.1877 19.2173 38.5215 19.1958 41.2412C19.2276 44.431 21.8227 47 25.0126 46.9998C26.5917 46.9742 28.0969 46.3262 29.2007 45.1965C29.9454 44.4339 30.4334 43.4578 30.5968 42.4044C34.2322 42.4182 37.6606 40.7148 39.8455 37.8092L40.9507 36.1804C43.4519 36.006 45.0225 34.4354 45.0225 32.1668V24.8958C45.0226 22.3948 43.1612 19.4282 40.4855 19.4282ZM9.53991 33.9703H6.5152C5.26265 33.9397 4.27197 32.8997 4.30247 31.6472C4.30303 31.6266 4.30381 31.606 4.30481 31.5853V24.3143C4.30481 22.9764 5.23548 21.7548 6.5152 21.7548H9.53991V33.9703ZM27.5139 43.568C26.8693 44.267 25.9636 44.6672 25.0127 44.6733C23.1202 44.6432 21.5844 43.133 21.5226 41.2413C21.5219 39.3459 23.0578 37.8087 24.9532 37.808C26.8486 37.8072 28.3857 39.3431 28.3865 41.2385C28.3865 41.2394 28.3865 41.2404 28.3865 41.2413C28.4349 42.1049 28.1183 42.9492 27.5139 43.568ZM42.6959 32.167C42.6959 33.7376 41.1834 33.9703 40.4855 33.9703H38.0424V21.7549H40.4855C41.7652 21.7549 42.6959 23.5582 42.6959 24.896V32.167Z" fill="url(#paint0_linear_381_5613)"/>
<defs>
<linearGradient id="paint0_linear_381_5613" x1="1.97656" y1="-6.52775" x2="55.4428" y2="38.5053" gradientUnits="userSpaceOnUse">
<stop stop-color="#737C84"/>
<stop offset="0.15625" stop-color="#A2ABB4"/>
<stop offset="0.307292" stop-color="#A2ABB4"/>
<stop offset="0.473958" stop-color="#C31A44"/>
<stop offset="0.671875" stop-color="#0098B7"/>
<stop offset="0.838542" stop-color="#A2ABB4"/>
</linearGradient>
</defs>
</svg>
