<svg width="47" height="47" viewBox="0 0 47 47" fill="none" xmlns="http://www.w3.org/2000/svg">
<g clip-path="url(#clip0_381_5611)">
<mask id="path-1-outside-1_381_5611" maskUnits="userSpaceOnUse" x="-1" y="2.12109" width="49" height="42" fill="black">
<rect fill="white" x="-1" y="2.12109" width="49" height="42"/>
<path d="M46.6482 15.2135L34.9076 3.47286C34.6809 3.24588 34.379 3.12109 34.0584 3.12109C33.7375 3.12109 33.4359 3.24624 33.209 3.47286L26.7523 9.92948C26.4866 10.1952 26.4866 10.6262 26.7523 10.8923C27.0184 11.158 27.4494 11.1583 27.7155 10.8923L34.0584 4.54932L45.5718 16.0627L24.8282 36.8062L22.411 34.3894C22.5092 34.2779 22.6057 34.1646 22.6982 34.0477L23.0693 33.5783C23.3046 33.6425 23.5617 33.6174 23.7901 33.4937C24.4305 33.148 25.2259 33.148 25.8659 33.4937C26.0144 33.574 26.1747 33.6131 26.3332 33.6131C26.5834 33.6131 26.8291 33.5155 27.0159 33.3287L28.5954 31.7492C28.8612 31.4835 28.8612 31.0524 28.5954 30.7864C28.3294 30.5207 27.8984 30.5207 27.6327 30.7864L26.251 32.1676C25.6626 31.9091 25.024 31.8191 24.4 31.8951L24.8813 31.287L27.955 28.2132L27.9554 28.2128L30.6942 25.474C31.5466 25.2527 32.3229 24.8095 32.949 24.1835C34.8817 22.2507 34.8817 19.1052 32.9486 17.1721C31.0159 15.2394 27.8708 15.2394 25.9376 17.1725C24.6485 18.4616 24.1838 20.3768 24.6955 22.0997C24.1243 22.4454 23.6047 22.8388 23.1794 23.2641L20.4621 25.9821C20.2875 26.1571 20.053 26.2532 19.8023 26.2532H19.7801C19.4107 26.2532 18.8818 25.8405 18.7316 25.4518V23.0919L32.6352 9.18793C33.5439 9.58775 34.573 9.58775 35.4816 9.18793L40.9332 14.6395C40.5337 15.5485 40.5337 16.5772 40.9332 17.4859L29.9093 28.5094C29.6436 28.7755 29.6436 29.2065 29.9093 29.4725C30.0423 29.6052 30.2166 29.6719 30.3909 29.6719C30.5651 29.6719 30.7394 29.6052 30.8724 29.4725L42.0942 18.2504C42.3994 17.9449 42.4657 17.4826 42.2592 17.1004C41.9132 16.4603 41.9132 15.665 42.2588 15.0253C42.4661 14.6427 42.3998 14.1801 42.0942 13.875L36.2465 8.02721C35.9406 7.72169 35.4788 7.65536 35.0962 7.8619C34.4561 8.20793 33.6608 8.20829 33.0207 7.8619C32.6385 7.65536 32.1762 7.72169 31.8704 8.02721L18.7312 21.1664V19.8765L25.4127 13.1951C25.5973 13.0104 25.6601 12.7357 25.5737 12.4887C25.4873 12.2416 25.2667 12.0663 25.0068 12.0372C23.8704 11.9099 22.7531 11.8181 21.8548 11.7446C21.2391 11.6941 20.7525 11.6543 20.4625 11.6191C19.5682 11.5123 18.6964 11.8203 17.7986 12.5611L11.8565 17.2488C11.8526 17.2521 11.8483 17.2553 11.8443 17.2589C10.8933 18.046 10.2167 19.0912 9.88789 20.2824C9.27184 22.5139 7.94079 26.5716 7.10207 28.2247L4.20724 31.1199L4.0993 31.0116C3.81495 30.7272 3.43665 30.5705 3.03468 30.5705C2.63271 30.5705 2.2544 30.7272 1.97005 31.0116L0.441055 32.5409C0.1567 32.8253 0 33.2032 0 33.6052C0 34.0075 0.1567 34.3855 0.441055 34.6698L9.13092 43.3597C9.41528 43.644 9.79322 43.8007 10.1952 43.8007C10.5975 43.8007 10.9755 43.644 11.2598 43.3597L12.7888 41.8303C13.0732 41.5463 13.2299 41.168 13.2299 40.7661C13.2299 40.3641 13.0732 39.9858 12.7892 39.7014L12.678 39.5906L13.3995 38.8692C13.71 38.5586 14.0969 38.3299 14.5186 38.2076C14.5279 38.2051 14.5369 38.2022 14.5462 38.199L18.9109 36.7291C19.8324 36.4132 20.6823 35.9396 21.4292 35.3332L23.9787 37.8827C24.2057 38.1097 24.5073 38.2345 24.8282 38.2345C25.1491 38.2345 25.4503 38.1097 25.6773 37.8827L46.6482 16.9121C46.8752 16.6852 47 16.3836 47 16.0627C47 15.7421 46.8752 15.4402 46.6482 15.2135ZM27.4738 26.7685L26.975 26.2693C26.8004 26.0947 26.8004 25.8107 26.975 25.6357L27.9493 24.6614C28.244 24.3667 28.6313 24.2193 29.0186 24.2193C29.2911 24.2193 29.5636 24.2925 29.8039 24.4384L27.4738 26.7685ZM26.9004 18.1353C28.3025 16.7328 30.5838 16.7332 31.9858 18.1349C33.2954 19.4444 33.3814 21.5203 32.2454 22.9313C32.2433 22.425 32.0407 21.9531 31.6466 21.5482C31.2124 21.0297 30.5038 20.73 29.5948 20.6812C28.494 20.6213 27.1679 20.9247 25.9355 21.4607C25.6755 20.2785 26.0269 19.0088 26.9004 18.1353ZM11.826 40.8675L10.297 42.3969C10.2622 42.4317 10.2224 42.4392 10.1952 42.4392C10.1683 42.4392 10.1285 42.4317 10.0937 42.3969L1.40385 33.707C1.36871 33.6722 1.36153 33.6324 1.36153 33.6052C1.36153 33.5779 1.36871 33.5385 1.40385 33.5037L2.93284 31.9744C2.96762 31.9396 3.00742 31.932 3.03468 31.932C3.06193 31.932 3.10137 31.9396 3.13615 31.9744L11.826 40.6642C11.8612 40.699 11.8683 40.7388 11.8683 40.7661C11.8683 40.7933 11.8612 40.8328 11.826 40.8675ZM22.4013 32.2279L21.6304 33.2029C21.431 33.4553 21.2151 33.6916 20.9849 33.9114C20.9824 33.9139 20.9795 33.9161 20.977 33.9186C20.9752 33.9204 20.9738 33.9222 20.972 33.924C20.2595 34.6013 19.4093 35.1188 18.4727 35.44L14.1245 36.9041C13.4888 37.0913 12.9053 37.4377 12.4367 37.9064L11.7152 38.6278L5.17003 32.0826L8.14016 29.1125C8.18857 29.0638 8.22945 29.0082 8.26136 28.9476C9.15172 27.2504 10.5401 23.0353 11.2003 20.645C11.4538 19.7266 11.9745 18.9202 12.7063 18.3128L18.648 13.6254C18.652 13.6222 18.6563 13.6189 18.6602 13.6153C19.2741 13.1076 19.7801 12.9089 20.3004 12.9713C20.6159 13.0093 21.1136 13.0499 21.7433 13.1019C22.2496 13.1434 22.8266 13.1904 23.4355 13.2467L17.5687 19.1135C17.441 19.2411 17.3693 19.4143 17.3693 19.5947L17.3697 25.5572C17.3697 25.6163 17.3776 25.6755 17.393 25.7325C17.6605 26.7355 18.776 27.6151 19.7801 27.6151H19.8023C20.4166 27.6151 20.9932 27.377 21.4252 26.9445L24.1422 24.2272C24.5876 23.7818 25.1653 23.3734 25.7992 23.0331C25.8017 23.0321 25.8042 23.0313 25.8068 23.0303C25.8358 23.0173 25.8627 23.0023 25.8889 22.9862C27.0794 22.364 28.4527 21.9821 29.5217 22.0409C30.043 22.0689 30.4296 22.2077 30.61 22.4314C30.6254 22.4504 30.6419 22.4687 30.6587 22.4859C30.8997 22.7269 30.899 22.9212 30.8717 23.0632C30.8502 23.1733 30.7996 23.2938 30.7254 23.419C29.6016 22.5881 28.0041 22.681 26.9865 23.6987L26.0122 24.6729C25.6705 25.015 25.4822 25.4693 25.4822 25.9527C25.4822 26.4361 25.6705 26.8904 26.0122 27.2321L26.5114 27.7313L23.8901 30.3521C23.8715 30.3708 23.8539 30.3905 23.8378 30.4113L22.4031 32.2257C22.4024 32.2264 22.4017 32.2272 22.4013 32.2279Z"/>
</mask>
<path d="M46.6482 15.2135L34.9076 3.47286C34.6809 3.24588 34.379 3.12109 34.0584 3.12109C33.7375 3.12109 33.4359 3.24624 33.209 3.47286L26.7523 9.92948C26.4866 10.1952 26.4866 10.6262 26.7523 10.8923C27.0184 11.158 27.4494 11.1583 27.7155 10.8923L34.0584 4.54932L45.5718 16.0627L24.8282 36.8062L22.411 34.3894C22.5092 34.2779 22.6057 34.1646 22.6982 34.0477L23.0693 33.5783C23.3046 33.6425 23.5617 33.6174 23.7901 33.4937C24.4305 33.148 25.2259 33.148 25.8659 33.4937C26.0144 33.574 26.1747 33.6131 26.3332 33.6131C26.5834 33.6131 26.8291 33.5155 27.0159 33.3287L28.5954 31.7492C28.8612 31.4835 28.8612 31.0524 28.5954 30.7864C28.3294 30.5207 27.8984 30.5207 27.6327 30.7864L26.251 32.1676C25.6626 31.9091 25.024 31.8191 24.4 31.8951L24.8813 31.287L27.955 28.2132L27.9554 28.2128L30.6942 25.474C31.5466 25.2527 32.3229 24.8095 32.949 24.1835C34.8817 22.2507 34.8817 19.1052 32.9486 17.1721C31.0159 15.2394 27.8708 15.2394 25.9376 17.1725C24.6485 18.4616 24.1838 20.3768 24.6955 22.0997C24.1243 22.4454 23.6047 22.8388 23.1794 23.2641L20.4621 25.9821C20.2875 26.1571 20.053 26.2532 19.8023 26.2532H19.7801C19.4107 26.2532 18.8818 25.8405 18.7316 25.4518V23.0919L32.6352 9.18793C33.5439 9.58775 34.573 9.58775 35.4816 9.18793L40.9332 14.6395C40.5337 15.5485 40.5337 16.5772 40.9332 17.4859L29.9093 28.5094C29.6436 28.7755 29.6436 29.2065 29.9093 29.4725C30.0423 29.6052 30.2166 29.6719 30.3909 29.6719C30.5651 29.6719 30.7394 29.6052 30.8724 29.4725L42.0942 18.2504C42.3994 17.9449 42.4657 17.4826 42.2592 17.1004C41.9132 16.4603 41.9132 15.665 42.2588 15.0253C42.4661 14.6427 42.3998 14.1801 42.0942 13.875L36.2465 8.02721C35.9406 7.72169 35.4788 7.65536 35.0962 7.8619C34.4561 8.20793 33.6608 8.20829 33.0207 7.8619C32.6385 7.65536 32.1762 7.72169 31.8704 8.02721L18.7312 21.1664V19.8765L25.4127 13.1951C25.5973 13.0104 25.6601 12.7357 25.5737 12.4887C25.4873 12.2416 25.2667 12.0663 25.0068 12.0372C23.8704 11.9099 22.7531 11.8181 21.8548 11.7446C21.2391 11.6941 20.7525 11.6543 20.4625 11.6191C19.5682 11.5123 18.6964 11.8203 17.7986 12.5611L11.8565 17.2488C11.8526 17.2521 11.8483 17.2553 11.8443 17.2589C10.8933 18.046 10.2167 19.0912 9.88789 20.2824C9.27184 22.5139 7.94079 26.5716 7.10207 28.2247L4.20724 31.1199L4.0993 31.0116C3.81495 30.7272 3.43665 30.5705 3.03468 30.5705C2.63271 30.5705 2.2544 30.7272 1.97005 31.0116L0.441055 32.5409C0.1567 32.8253 0 33.2032 0 33.6052C0 34.0075 0.1567 34.3855 0.441055 34.6698L9.13092 43.3597C9.41528 43.644 9.79322 43.8007 10.1952 43.8007C10.5975 43.8007 10.9755 43.644 11.2598 43.3597L12.7888 41.8303C13.0732 41.5463 13.2299 41.168 13.2299 40.7661C13.2299 40.3641 13.0732 39.9858 12.7892 39.7014L12.678 39.5906L13.3995 38.8692C13.71 38.5586 14.0969 38.3299 14.5186 38.2076C14.5279 38.2051 14.5369 38.2022 14.5462 38.199L18.9109 36.7291C19.8324 36.4132 20.6823 35.9396 21.4292 35.3332L23.9787 37.8827C24.2057 38.1097 24.5073 38.2345 24.8282 38.2345C25.1491 38.2345 25.4503 38.1097 25.6773 37.8827L46.6482 16.9121C46.8752 16.6852 47 16.3836 47 16.0627C47 15.7421 46.8752 15.4402 46.6482 15.2135ZM27.4738 26.7685L26.975 26.2693C26.8004 26.0947 26.8004 25.8107 26.975 25.6357L27.9493 24.6614C28.244 24.3667 28.6313 24.2193 29.0186 24.2193C29.2911 24.2193 29.5636 24.2925 29.8039 24.4384L27.4738 26.7685ZM26.9004 18.1353C28.3025 16.7328 30.5838 16.7332 31.9858 18.1349C33.2954 19.4444 33.3814 21.5203 32.2454 22.9313C32.2433 22.425 32.0407 21.9531 31.6466 21.5482C31.2124 21.0297 30.5038 20.73 29.5948 20.6812C28.494 20.6213 27.1679 20.9247 25.9355 21.4607C25.6755 20.2785 26.0269 19.0088 26.9004 18.1353ZM11.826 40.8675L10.297 42.3969C10.2622 42.4317 10.2224 42.4392 10.1952 42.4392C10.1683 42.4392 10.1285 42.4317 10.0937 42.3969L1.40385 33.707C1.36871 33.6722 1.36153 33.6324 1.36153 33.6052C1.36153 33.5779 1.36871 33.5385 1.40385 33.5037L2.93284 31.9744C2.96762 31.9396 3.00742 31.932 3.03468 31.932C3.06193 31.932 3.10137 31.9396 3.13615 31.9744L11.826 40.6642C11.8612 40.699 11.8683 40.7388 11.8683 40.7661C11.8683 40.7933 11.8612 40.8328 11.826 40.8675ZM22.4013 32.2279L21.6304 33.2029C21.431 33.4553 21.2151 33.6916 20.9849 33.9114C20.9824 33.9139 20.9795 33.9161 20.977 33.9186C20.9752 33.9204 20.9738 33.9222 20.972 33.924C20.2595 34.6013 19.4093 35.1188 18.4727 35.44L14.1245 36.9041C13.4888 37.0913 12.9053 37.4377 12.4367 37.9064L11.7152 38.6278L5.17003 32.0826L8.14016 29.1125C8.18857 29.0638 8.22945 29.0082 8.26136 28.9476C9.15172 27.2504 10.5401 23.0353 11.2003 20.645C11.4538 19.7266 11.9745 18.9202 12.7063 18.3128L18.648 13.6254C18.652 13.6222 18.6563 13.6189 18.6602 13.6153C19.2741 13.1076 19.7801 12.9089 20.3004 12.9713C20.6159 13.0093 21.1136 13.0499 21.7433 13.1019C22.2496 13.1434 22.8266 13.1904 23.4355 13.2467L17.5687 19.1135C17.441 19.2411 17.3693 19.4143 17.3693 19.5947L17.3697 25.5572C17.3697 25.6163 17.3776 25.6755 17.393 25.7325C17.6605 26.7355 18.776 27.6151 19.7801 27.6151H19.8023C20.4166 27.6151 20.9932 27.377 21.4252 26.9445L24.1422 24.2272C24.5876 23.7818 25.1653 23.3734 25.7992 23.0331C25.8017 23.0321 25.8042 23.0313 25.8068 23.0303C25.8358 23.0173 25.8627 23.0023 25.8889 22.9862C27.0794 22.364 28.4527 21.9821 29.5217 22.0409C30.043 22.0689 30.4296 22.2077 30.61 22.4314C30.6254 22.4504 30.6419 22.4687 30.6587 22.4859C30.8997 22.7269 30.899 22.9212 30.8717 23.0632C30.8502 23.1733 30.7996 23.2938 30.7254 23.419C29.6016 22.5881 28.0041 22.681 26.9865 23.6987L26.0122 24.6729C25.6705 25.015 25.4822 25.4693 25.4822 25.9527C25.4822 26.4361 25.6705 26.8904 26.0122 27.2321L26.5114 27.7313L23.8901 30.3521C23.8715 30.3708 23.8539 30.3905 23.8378 30.4113L22.4031 32.2257C22.4024 32.2264 22.4017 32.2272 22.4013 32.2279Z" fill="url(#paint0_linear_381_5611)"/>
<path d="M46.6482 15.2135L34.9076 3.47286C34.6809 3.24588 34.379 3.12109 34.0584 3.12109C33.7375 3.12109 33.4359 3.24624 33.209 3.47286L26.7523 9.92948C26.4866 10.1952 26.4866 10.6262 26.7523 10.8923C27.0184 11.158 27.4494 11.1583 27.7155 10.8923L34.0584 4.54932L45.5718 16.0627L24.8282 36.8062L22.411 34.3894C22.5092 34.2779 22.6057 34.1646 22.6982 34.0477L23.0693 33.5783C23.3046 33.6425 23.5617 33.6174 23.7901 33.4937C24.4305 33.148 25.2259 33.148 25.8659 33.4937C26.0144 33.574 26.1747 33.6131 26.3332 33.6131C26.5834 33.6131 26.8291 33.5155 27.0159 33.3287L28.5954 31.7492C28.8612 31.4835 28.8612 31.0524 28.5954 30.7864C28.3294 30.5207 27.8984 30.5207 27.6327 30.7864L26.251 32.1676C25.6626 31.9091 25.024 31.8191 24.4 31.8951L24.8813 31.287L27.955 28.2132L27.9554 28.2128L30.6942 25.474C31.5466 25.2527 32.3229 24.8095 32.949 24.1835C34.8817 22.2507 34.8817 19.1052 32.9486 17.1721C31.0159 15.2394 27.8708 15.2394 25.9376 17.1725C24.6485 18.4616 24.1838 20.3768 24.6955 22.0997C24.1243 22.4454 23.6047 22.8388 23.1794 23.2641L20.4621 25.9821C20.2875 26.1571 20.053 26.2532 19.8023 26.2532H19.7801C19.4107 26.2532 18.8818 25.8405 18.7316 25.4518V23.0919L32.6352 9.18793C33.5439 9.58775 34.573 9.58775 35.4816 9.18793L40.9332 14.6395C40.5337 15.5485 40.5337 16.5772 40.9332 17.4859L29.9093 28.5094C29.6436 28.7755 29.6436 29.2065 29.9093 29.4725C30.0423 29.6052 30.2166 29.6719 30.3909 29.6719C30.5651 29.6719 30.7394 29.6052 30.8724 29.4725L42.0942 18.2504C42.3994 17.9449 42.4657 17.4826 42.2592 17.1004C41.9132 16.4603 41.9132 15.665 42.2588 15.0253C42.4661 14.6427 42.3998 14.1801 42.0942 13.875L36.2465 8.02721C35.9406 7.72169 35.4788 7.65536 35.0962 7.8619C34.4561 8.20793 33.6608 8.20829 33.0207 7.8619C32.6385 7.65536 32.1762 7.72169 31.8704 8.02721L18.7312 21.1664V19.8765L25.4127 13.1951C25.5973 13.0104 25.6601 12.7357 25.5737 12.4887C25.4873 12.2416 25.2667 12.0663 25.0068 12.0372C23.8704 11.9099 22.7531 11.8181 21.8548 11.7446C21.2391 11.6941 20.7525 11.6543 20.4625 11.6191C19.5682 11.5123 18.6964 11.8203 17.7986 12.5611L11.8565 17.2488C11.8526 17.2521 11.8483 17.2553 11.8443 17.2589C10.8933 18.046 10.2167 19.0912 9.88789 20.2824C9.27184 22.5139 7.94079 26.5716 7.10207 28.2247L4.20724 31.1199L4.0993 31.0116C3.81495 30.7272 3.43665 30.5705 3.03468 30.5705C2.63271 30.5705 2.2544 30.7272 1.97005 31.0116L0.441055 32.5409C0.1567 32.8253 0 33.2032 0 33.6052C0 34.0075 0.1567 34.3855 0.441055 34.6698L9.13092 43.3597C9.41528 43.644 9.79322 43.8007 10.1952 43.8007C10.5975 43.8007 10.9755 43.644 11.2598 43.3597L12.7888 41.8303C13.0732 41.5463 13.2299 41.168 13.2299 40.7661C13.2299 40.3641 13.0732 39.9858 12.7892 39.7014L12.678 39.5906L13.3995 38.8692C13.71 38.5586 14.0969 38.3299 14.5186 38.2076C14.5279 38.2051 14.5369 38.2022 14.5462 38.199L18.9109 36.7291C19.8324 36.4132 20.6823 35.9396 21.4292 35.3332L23.9787 37.8827C24.2057 38.1097 24.5073 38.2345 24.8282 38.2345C25.1491 38.2345 25.4503 38.1097 25.6773 37.8827L46.6482 16.9121C46.8752 16.6852 47 16.3836 47 16.0627C47 15.7421 46.8752 15.4402 46.6482 15.2135ZM27.4738 26.7685L26.975 26.2693C26.8004 26.0947 26.8004 25.8107 26.975 25.6357L27.9493 24.6614C28.244 24.3667 28.6313 24.2193 29.0186 24.2193C29.2911 24.2193 29.5636 24.2925 29.8039 24.4384L27.4738 26.7685ZM26.9004 18.1353C28.3025 16.7328 30.5838 16.7332 31.9858 18.1349C33.2954 19.4444 33.3814 21.5203 32.2454 22.9313C32.2433 22.425 32.0407 21.9531 31.6466 21.5482C31.2124 21.0297 30.5038 20.73 29.5948 20.6812C28.494 20.6213 27.1679 20.9247 25.9355 21.4607C25.6755 20.2785 26.0269 19.0088 26.9004 18.1353ZM11.826 40.8675L10.297 42.3969C10.2622 42.4317 10.2224 42.4392 10.1952 42.4392C10.1683 42.4392 10.1285 42.4317 10.0937 42.3969L1.40385 33.707C1.36871 33.6722 1.36153 33.6324 1.36153 33.6052C1.36153 33.5779 1.36871 33.5385 1.40385 33.5037L2.93284 31.9744C2.96762 31.9396 3.00742 31.932 3.03468 31.932C3.06193 31.932 3.10137 31.9396 3.13615 31.9744L11.826 40.6642C11.8612 40.699 11.8683 40.7388 11.8683 40.7661C11.8683 40.7933 11.8612 40.8328 11.826 40.8675ZM22.4013 32.2279L21.6304 33.2029C21.431 33.4553 21.2151 33.6916 20.9849 33.9114C20.9824 33.9139 20.9795 33.9161 20.977 33.9186C20.9752 33.9204 20.9738 33.9222 20.972 33.924C20.2595 34.6013 19.4093 35.1188 18.4727 35.44L14.1245 36.9041C13.4888 37.0913 12.9053 37.4377 12.4367 37.9064L11.7152 38.6278L5.17003 32.0826L8.14016 29.1125C8.18857 29.0638 8.22945 29.0082 8.26136 28.9476C9.15172 27.2504 10.5401 23.0353 11.2003 20.645C11.4538 19.7266 11.9745 18.9202 12.7063 18.3128L18.648 13.6254C18.652 13.6222 18.6563 13.6189 18.6602 13.6153C19.2741 13.1076 19.7801 12.9089 20.3004 12.9713C20.6159 13.0093 21.1136 13.0499 21.7433 13.1019C22.2496 13.1434 22.8266 13.1904 23.4355 13.2467L17.5687 19.1135C17.441 19.2411 17.3693 19.4143 17.3693 19.5947L17.3697 25.5572C17.3697 25.6163 17.3776 25.6755 17.393 25.7325C17.6605 26.7355 18.776 27.6151 19.7801 27.6151H19.8023C20.4166 27.6151 20.9932 27.377 21.4252 26.9445L24.1422 24.2272C24.5876 23.7818 25.1653 23.3734 25.7992 23.0331C25.8017 23.0321 25.8042 23.0313 25.8068 23.0303C25.8358 23.0173 25.8627 23.0023 25.8889 22.9862C27.0794 22.364 28.4527 21.9821 29.5217 22.0409C30.043 22.0689 30.4296 22.2077 30.61 22.4314C30.6254 22.4504 30.6419 22.4687 30.6587 22.4859C30.8997 22.7269 30.899 22.9212 30.8717 23.0632C30.8502 23.1733 30.7996 23.2938 30.7254 23.419C29.6016 22.5881 28.0041 22.681 26.9865 23.6987L26.0122 24.6729C25.6705 25.015 25.4822 25.4693 25.4822 25.9527C25.4822 26.4361 25.6705 26.8904 26.0122 27.2321L26.5114 27.7313L23.8901 30.3521C23.8715 30.3708 23.8539 30.3905 23.8378 30.4113L22.4031 32.2257C22.4024 32.2264 22.4017 32.2272 22.4013 32.2279Z" stroke="url(#paint1_linear_381_5611)" stroke-width="0.4" mask="url(#path-1-outside-1_381_5611)"/>
</g>
<defs>
<linearGradient id="paint0_linear_381_5611" x1="1.03535e-06" y1="-2.52886" x2="46.8737" y2="47.2754" gradientUnits="userSpaceOnUse">
<stop stop-color="#737C84"/>
<stop offset="0.15625" stop-color="#A2ABB4"/>
<stop offset="0.307292" stop-color="#A2ABB4"/>
<stop offset="0.473958" stop-color="#C31A44"/>
<stop offset="0.671875" stop-color="#0098B7"/>
<stop offset="0.838542" stop-color="#A2ABB4"/>
</linearGradient>
<linearGradient id="paint1_linear_381_5611" x1="1.03535e-06" y1="-2.52886" x2="46.8737" y2="47.2754" gradientUnits="userSpaceOnUse">
<stop stop-color="#737C84"/>
<stop offset="0.15625" stop-color="#A2ABB4"/>
<stop offset="0.307292" stop-color="#A2ABB4"/>
<stop offset="0.473958" stop-color="#C31A44"/>
<stop offset="0.671875" stop-color="#0098B7"/>
<stop offset="0.838542" stop-color="#A2ABB4"/>
</linearGradient>
<clipPath id="clip0_381_5611">
<rect width="47" height="47" fill="white"/>
</clipPath>
</defs>
</svg>
