<svg width="47" height="47" viewBox="0 0 47 47" fill="none" xmlns="http://www.w3.org/2000/svg">
<g clip-path="url(#clip0_381_5578)">
<path d="M27.0653 16.276H24.1768C23.7412 16.276 23.3883 16.629 23.3883 17.0645C23.3883 17.4999 23.7412 17.853 24.1768 17.853H27.0653C27.5009 17.853 27.8538 17.4999 27.8538 17.0645C27.8538 16.629 27.5008 16.276 27.0653 16.276Z" fill="url(#paint0_linear_381_5578)" stroke="url(#paint1_linear_381_5578)" stroke-width="0.2"/>
<path d="M27.0653 13.9718H24.1768C23.7412 13.9718 23.3883 14.3249 23.3883 14.7603C23.3883 15.1958 23.7412 15.5488 24.1768 15.5488H27.0653C27.5009 15.5488 27.8538 15.1958 27.8538 14.7603C27.8538 14.3249 27.5008 13.9718 27.0653 13.9718Z" fill="url(#paint2_linear_381_5578)" stroke="url(#paint3_linear_381_5578)" stroke-width="0.2"/>
<path d="M23.2852 11.5471C22.1896 11.5471 21.2984 12.4382 21.2984 13.5338V18.291C21.2984 19.3866 22.1896 20.2777 23.2852 20.2777H27.9564C29.0519 20.2777 29.9431 19.3865 29.9431 18.291V13.5338C29.9431 12.4382 29.0519 11.5471 27.9564 11.5471H23.2852ZM28.366 13.5338V18.291C28.366 18.5168 28.1821 18.7007 27.9563 18.7007H23.2851C23.0592 18.7007 22.8753 18.5168 22.8753 18.291V13.5338C22.8753 13.3079 23.0592 13.124 23.2851 13.124H27.9563C28.1821 13.124 28.366 13.3079 28.366 13.5338Z" fill="url(#paint4_linear_381_5578)" stroke="url(#paint5_linear_381_5578)" stroke-width="0.2"/>
<path d="M17.9758 40.2335L17.918 40.1519C18.0339 40.0698 18.0553 39.9194 17.9843 39.8192L17.3509 38.9249L17.4325 38.8671L17.3509 38.9249L10.5046 29.259C10.4334 29.1586 10.2846 29.1292 10.1687 29.2111L17.9758 40.2335ZM17.9758 40.2335L17.918 40.1519L16.3795 41.2417L8.6301 30.3008L10.1686 29.2112L17.9758 40.2335ZM19.2711 38.9077L19.157 38.7467C21.029 37.8315 23.0926 37.362 25.182 37.3889L25.1821 37.3889L34.2808 37.4997C34.281 37.4997 34.2812 37.4997 34.2815 37.4997C36.0018 37.5431 37.7241 37.0207 39.1293 36.0306L44.7106 32.0983C46.0667 31.1428 46.4445 29.2616 45.5473 27.9017C45.0925 27.2123 44.3971 26.7449 43.5878 26.5838C43.4313 25.7538 42.9896 24.9973 42.3583 24.5458C40.9724 23.5547 39.057 23.8907 38.082 25.2965L33.9708 31.2245L32.8426 31.1121C33.1689 30.67 33.3871 30.1415 33.4574 29.5641C33.673 27.7958 32.4564 26.1986 30.6893 25.9284L20.5809 24.383C20.5809 24.383 20.5809 24.383 20.5808 24.383C19.2292 24.1761 17.8697 24.4956 16.7535 25.2821L11.9949 28.6348L11.7914 28.3474C11.2118 27.529 10.0776 27.343 9.25715 27.9242L1.74984 33.2416L1.80765 33.3232L1.74984 33.2416C0.922665 33.8276 0.709448 34.9635 1.2912 35.7847L8.77096 46.345C9.34916 47.1613 10.494 47.3427 11.322 46.7562L18.8293 41.4388L18.7715 41.3572L18.8293 41.4388C19.6511 40.8566 19.8498 39.7248 19.2711 38.9077ZM41.4411 25.8287C41.6871 26.0046 41.888 26.3208 41.9938 26.688C41.7105 26.7853 41.4447 26.9243 41.2171 27.0846L41.2747 27.1663L41.2171 27.0846L36.4145 30.4683L39.3779 26.1953C39.8524 25.5111 40.7731 25.3511 41.4411 25.8287ZM31.8921 29.3734L31.8921 29.3734C31.7925 30.192 31.119 30.8207 30.2899 30.8675C30.281 30.868 30.2742 30.8687 30.2683 30.8695C30.2618 30.8703 30.2619 30.8703 30.262 30.8703C30.262 30.8704 30.262 30.8704 30.2601 30.8706L30.2583 30.8706C30.2557 30.8707 30.2509 30.8707 30.2421 30.8703C30.2055 30.8689 30.1223 30.863 29.9091 30.8463C29.6861 30.8289 29.3232 30.7998 28.7275 30.752C28.1899 30.7089 27.4627 30.6506 26.4775 30.5719L26.4772 30.5719C26.0422 30.5382 25.6633 30.8609 25.6286 31.2951C25.594 31.7292 25.9177 32.1092 26.3519 32.1438L26.3689 32.1452C26.5763 32.1616 28.5551 32.3184 30.5453 32.4854C31.5853 32.5726 32.6281 32.6626 33.4227 32.7367C33.8201 32.7738 34.1549 32.8068 34.3962 32.8336C34.5169 32.847 34.6135 32.8587 34.6824 32.8685C34.717 32.8734 34.7436 32.8777 34.7624 32.8813C34.7718 32.8831 34.7783 32.8845 34.7823 32.8855L34.7936 32.8912L34.8119 32.8931C35.3113 32.9439 35.8338 32.8065 36.246 32.516L38.6865 30.7966L42.1255 28.3736L42.0679 28.2919L42.1255 28.3736C42.7969 27.9005 43.7575 28.0522 44.2311 28.77L44.3146 28.715L44.2311 28.7701C44.6603 29.4204 44.4727 30.3368 43.8026 30.809L38.2213 34.7412L38.2789 34.823L38.2213 34.7412C37.091 35.5377 35.7081 35.9575 34.3114 35.9228L34.3102 35.9228L25.2014 35.8119L25.2013 35.8119C22.7812 35.7842 20.3875 36.3448 18.234 37.4432L12.9063 29.9215L17.6617 26.5712L17.6041 26.4895L17.6617 26.5712C18.4434 26.0205 19.395 25.7971 20.3425 25.9418L30.451 27.4874C31.3719 27.6283 32.0039 28.4567 31.8921 29.3734ZM2.66131 34.5285L7.34318 31.2123L15.0925 42.1532L10.4106 45.4693C10.2829 45.5597 10.127 45.5309 10.0579 45.4334L2.57803 34.8733C2.57802 34.8733 2.57802 34.8732 2.57802 34.8732C2.51121 34.7789 2.53031 34.6214 2.66131 34.5285Z" fill="url(#paint6_linear_381_5578)" stroke="url(#paint7_linear_381_5578)" stroke-width="0.2"/>
<path d="M31.8265 6.25894V8.2533L30.7089 7.52195L30.7089 7.52194C30.2961 7.25187 29.7627 7.25196 29.3501 7.52195L28.2325 8.2533V1.47698H31.8266V3.04598C31.8266 3.48143 32.1795 3.83447 32.6151 3.83447C33.0506 3.83447 33.4036 3.48143 33.4036 3.04598V1.47698H39.3665C39.6447 1.47698 39.8711 1.7034 39.8711 1.98148V20.6553C39.871 20.9336 39.6446 21.16 39.3664 21.16H31.6359C31.2004 21.16 30.8474 21.513 30.8474 21.9485C30.8474 22.3839 31.2004 22.737 31.6359 22.737H39.3664C40.5142 22.737 41.448 21.8032 41.448 20.6554V1.98148C41.448 0.833657 40.5143 -0.1 39.3664 -0.1H39.3621H39.3575H39.3524H39.347H39.3412H39.335H39.3285H39.3216H39.3143H39.3067H39.2987H39.2903H39.2816H39.2725H39.2631H39.2533H39.2431H39.2326H39.2218H39.2106H39.199H39.1871H39.1748H39.1622H39.1493H39.136H39.1224H39.1084H39.0941H39.0795H39.0645H39.0492H39.0336H39.0176H39.0013H38.9847H38.9677H38.9505H38.9329H38.915H38.8967H38.8782H38.8593H38.8401H38.8206H38.8008H38.7807H38.7602H38.7395H38.7184H38.6971H38.6754H38.6535H38.6312H38.6087H38.5858H38.5626H38.5392H38.5155H38.4914H38.4671H38.4425H38.4176H38.3924H38.3669H38.3412H38.3152H38.2889H38.2623H38.2354H38.2083H38.1808H38.1531H38.1252H38.097H38.0685H38.0397H38.0107H37.9814H37.9518H37.922H37.8919H37.8616H37.831H37.8002H37.7691H37.7377H37.7061H37.6743H37.6422H37.6098H37.5773H37.5444H37.5114H37.4781H37.4445H37.4107H37.3767H37.3425H37.308H37.2733H37.2383H37.2031H37.1677H37.1321H37.0963H37.0602H37.0239H36.9874H36.9506H36.9137H36.8765H36.8392H36.8016H36.7638H36.7258H36.6876H36.6492H36.6105H36.5717H36.5327H36.4935H36.454H36.4144H36.3746H36.3346H36.2944H36.254H36.2134H36.1726H36.1317H36.0905H36.0492H36.0077H35.966H35.9241H35.8821H35.8399H35.7975H35.7549H35.7121H35.6692H35.6261H35.5829H35.5395H35.4959H35.4522H35.4082H35.3642H35.32H35.2756H35.231H35.1863H35.1415H35.0965H35.0514H35.0061H34.9606H34.9151H34.8693H34.8235H34.7774H34.7313H34.685H34.6386H34.592H34.5453H34.4985H34.4516H34.4045H34.3573H34.3099H34.2625H34.2149H34.1672H34.1193H34.0714H34.0233H33.9752H33.9269H33.8785H33.83H33.7813H33.7326H33.6838H33.6348H33.5858H33.5366H33.4874H33.438H33.3886H33.339H33.2894H33.2396H33.1898H33.1399H33.0899H33.0398H32.9896H32.9394H32.889H32.8386H32.7881H32.7375H32.6868H32.6361H32.5853H32.5344H32.4834H32.4324H32.3813H32.3302H32.2789H32.2276H32.1763H32.1249H32.0734H32.0219H31.9703H31.9186H31.8669H31.8152H31.7634H31.7116H31.6597H31.6077H31.5557H31.5037H31.4516H31.3995H31.3474H31.2952H31.243H31.1907H31.1384H31.0861H31.0338H30.9814H30.929H30.8765H30.8241H30.7716H30.7191H30.6666H30.6141H30.5615H30.5089H30.4564H30.4038H30.3512H30.2986H30.2459H30.1933H30.1407H30.0881H30.0354H29.9828H29.9301H29.8775H29.8249H29.7723H29.7197H29.6671H29.6145H29.5619H29.5093H29.4568H29.4042H29.3517H29.2992H29.2467H29.1942H29.1418H29.0894H29.037H28.9847H28.9323H28.88H28.8278H28.7755H28.7233H28.6712H28.6191H28.567H28.5149H28.463H28.411H28.3591H28.3072H28.2554H28.2037H28.152H28.1003H28.0487H27.9972H27.9457H27.8942H27.8429H27.7916H27.7403H27.6891H27.638H27.587H27.536H27.4851H27.4343H27.3835H27.3328H27.2822H27.2317H27.1813H27.1309H27.0806H27.0304H26.9803H26.9303H26.8803H26.8305H26.7807H26.7311H26.6815H26.632H26.5827H26.5334H26.4842H26.4351H26.3862H26.3373H26.2885H26.2399H26.1913H26.1429H26.0946H26.0464H25.9983H25.9503H25.9025H25.8547H25.8071H25.7596H25.7123H25.665H25.6179H25.5709H25.5241H25.4773H25.4307H25.3843H25.338H25.2918H25.2457H25.1998H25.1541H25.1085H25.063H25.0176H24.9725H24.9274H24.8826H24.8378H24.7933H24.7488H24.7046H24.6605H24.6165H24.5727H24.5291H24.4857H24.4424H24.3992H24.3563H24.3135H24.2709H24.2284H24.1862H24.1441H24.1022H24.0604H24.0189H23.9775H23.9363H23.8953H23.8545H23.8139H23.7734H23.7332H23.6931H23.6533H23.6136H23.5741H23.5348H23.4958H23.4569H23.4182H23.3797H23.3415H23.3034H23.2656H23.2279H23.1905H23.1533H23.1163H23.0795H23.043H23.0066H22.9705H22.9346H22.8989H22.8634H22.8282H22.7932H22.7584H22.7239H22.6896H22.6555H22.6217H22.5881H22.5547H22.5216H22.4887H22.456H22.4236H22.3915H22.3596H22.3279H22.2965H22.2654H22.2344H22.2038H22.1734H22.1433H22.1134H22.0838H22.0544H22.0253H21.9965H21.9679H21.9396H21.9116H21.8838H21.8564H21.8292H21.8022H21.7756H21.7492H21.7231H21.6973H21.6717H21.6465H21.6215H21.5968H21.5724H21.5483H21.5245H21.501H21.4778H21.4548H21.4322H21.4099H21.3878H21.3661H21.3447H21.3236H21.3027H21.2822H21.262H21.2421H21.2226H21.2033H21.1843H21.1657H21.1474H21.1294H21.1117H21.0944H21.0773H21.0606H21.0443H21.0282H21.0125H20.9971H20.9821H20.9673H20.953H20.9389H20.9252H20.9118H20.8988H20.8861H20.8738H20.8618H20.8501H20.8389H20.8279H20.8173H20.8071H20.7972H20.7877H20.7785H20.7697H20.7612H20.7531H20.7454H20.7381H20.7311H20.7244H20.7182H20.7123H20.7068H20.7017H20.6969H20.6925C19.5447 -0.1 18.6109 0.833654 18.6109 1.98148V20.6553C18.6109 21.8032 19.5447 22.7369 20.6925 22.7369H28.423C28.8585 22.7369 29.2115 22.3838 29.2115 21.9484C29.2115 21.5129 28.8585 21.1599 28.423 21.1599H20.6925C20.4143 21.1599 20.1879 20.9334 20.1879 20.6553V1.98148C20.1879 1.7034 20.4143 1.47698 20.6925 1.47698H26.6555V8.87512C26.6555 9.86588 27.7572 10.4491 28.5756 9.91332C28.5756 9.91331 28.5756 9.91331 28.5756 9.91331L30.0295 8.96194L31.4832 9.91322C32.3073 10.4527 33.4035 9.86001 33.4035 8.87512V6.25894C33.4035 5.82349 33.0505 5.47045 32.615 5.47045C32.1794 5.47045 31.8265 5.82349 31.8265 6.25894Z" fill="url(#paint8_linear_381_5578)" stroke="url(#paint9_linear_381_5578)" stroke-width="0.2"/>
</g>
<defs>
<linearGradient id="paint0_linear_381_5578" x1="23.4883" y1="16.1848" x2="24.4818" y2="19.0151" gradientUnits="userSpaceOnUse">
<stop stop-color="#737C84"/>
<stop offset="0.15625" stop-color="#A2ABB4"/>
<stop offset="0.307292" stop-color="#A2ABB4"/>
<stop offset="0.473958" stop-color="#C31A44"/>
<stop offset="0.671875" stop-color="#0098B7"/>
<stop offset="0.838542" stop-color="#A2ABB4"/>
</linearGradient>
<linearGradient id="paint1_linear_381_5578" x1="23.4883" y1="16.1848" x2="24.4818" y2="19.0151" gradientUnits="userSpaceOnUse">
<stop stop-color="#737C84"/>
<stop offset="0.15625" stop-color="#A2ABB4"/>
<stop offset="0.307292" stop-color="#A2ABB4"/>
<stop offset="0.473958" stop-color="#C31A44"/>
<stop offset="0.671875" stop-color="#0098B7"/>
<stop offset="0.838542" stop-color="#A2ABB4"/>
</linearGradient>
<linearGradient id="paint2_linear_381_5578" x1="23.4883" y1="13.8806" x2="24.4818" y2="16.7109" gradientUnits="userSpaceOnUse">
<stop stop-color="#737C84"/>
<stop offset="0.15625" stop-color="#A2ABB4"/>
<stop offset="0.307292" stop-color="#A2ABB4"/>
<stop offset="0.473958" stop-color="#C31A44"/>
<stop offset="0.671875" stop-color="#0098B7"/>
<stop offset="0.838542" stop-color="#A2ABB4"/>
</linearGradient>
<linearGradient id="paint3_linear_381_5578" x1="23.4883" y1="13.8806" x2="24.4818" y2="16.7109" gradientUnits="userSpaceOnUse">
<stop stop-color="#737C84"/>
<stop offset="0.15625" stop-color="#A2ABB4"/>
<stop offset="0.307292" stop-color="#A2ABB4"/>
<stop offset="0.473958" stop-color="#C31A44"/>
<stop offset="0.671875" stop-color="#0098B7"/>
<stop offset="0.838542" stop-color="#A2ABB4"/>
</linearGradient>
<linearGradient id="paint4_linear_381_5578" x1="21.3984" y1="10.4623" x2="31.2028" y2="19.3878" gradientUnits="userSpaceOnUse">
<stop stop-color="#737C84"/>
<stop offset="0.15625" stop-color="#A2ABB4"/>
<stop offset="0.307292" stop-color="#A2ABB4"/>
<stop offset="0.473958" stop-color="#C31A44"/>
<stop offset="0.671875" stop-color="#0098B7"/>
<stop offset="0.838542" stop-color="#A2ABB4"/>
</linearGradient>
<linearGradient id="paint5_linear_381_5578" x1="21.3984" y1="10.4623" x2="31.2028" y2="19.3878" gradientUnits="userSpaceOnUse">
<stop stop-color="#737C84"/>
<stop offset="0.15625" stop-color="#A2ABB4"/>
<stop offset="0.307292" stop-color="#A2ABB4"/>
<stop offset="0.473958" stop-color="#C31A44"/>
<stop offset="0.671875" stop-color="#0098B7"/>
<stop offset="0.838542" stop-color="#A2ABB4"/>
</linearGradient>
<linearGradient id="paint6_linear_381_5578" x1="1.0625" y1="20.8927" x2="23.5296" y2="61.3371" gradientUnits="userSpaceOnUse">
<stop stop-color="#737C84"/>
<stop offset="0.15625" stop-color="#A2ABB4"/>
<stop offset="0.307292" stop-color="#A2ABB4"/>
<stop offset="0.473958" stop-color="#C31A44"/>
<stop offset="0.671875" stop-color="#0098B7"/>
<stop offset="0.838542" stop-color="#A2ABB4"/>
</linearGradient>
<linearGradient id="paint7_linear_381_5578" x1="1.0625" y1="20.8927" x2="23.5296" y2="61.3371" gradientUnits="userSpaceOnUse">
<stop stop-color="#737C84"/>
<stop offset="0.15625" stop-color="#A2ABB4"/>
<stop offset="0.307292" stop-color="#A2ABB4"/>
<stop offset="0.473958" stop-color="#C31A44"/>
<stop offset="0.671875" stop-color="#0098B7"/>
<stop offset="0.838542" stop-color="#A2ABB4"/>
</linearGradient>
<linearGradient id="paint8_linear_381_5578" x1="18.7109" y1="-3.14402" x2="44.7513" y2="20.8037" gradientUnits="userSpaceOnUse">
<stop stop-color="#737C84"/>
<stop offset="0.15625" stop-color="#A2ABB4"/>
<stop offset="0.307292" stop-color="#A2ABB4"/>
<stop offset="0.473958" stop-color="#C31A44"/>
<stop offset="0.671875" stop-color="#0098B7"/>
<stop offset="0.838542" stop-color="#A2ABB4"/>
</linearGradient>
<linearGradient id="paint9_linear_381_5578" x1="18.7109" y1="-3.14402" x2="44.7513" y2="20.8037" gradientUnits="userSpaceOnUse">
<stop stop-color="#737C84"/>
<stop offset="0.15625" stop-color="#A2ABB4"/>
<stop offset="0.307292" stop-color="#A2ABB4"/>
<stop offset="0.473958" stop-color="#C31A44"/>
<stop offset="0.671875" stop-color="#0098B7"/>
<stop offset="0.838542" stop-color="#A2ABB4"/>
</linearGradient>
<clipPath id="clip0_381_5578">
<rect width="47" height="47" fill="white"/>
</clipPath>
</defs>
</svg>
