<svg width="23" height="22" viewBox="0 0 23 22" fill="none" xmlns="http://www.w3.org/2000/svg">
<g clip-path="url(#clip0_350_13667)">
<path d="M11.3916 22C17.4667 22 22.3916 17.0751 22.3916 11C22.3916 4.92487 17.4667 0 11.3916 0C5.31647 0 0.391602 4.92487 0.391602 11C0.391602 17.0751 5.31647 22 11.3916 22Z" fill="#3B5998"/>
<path d="M14.1576 11.4307H12.1948V18.6215H9.221V11.4307H7.80664V8.9035H9.221V7.26815C9.221 6.0987 9.77651 4.26746 12.2213 4.26746L14.4241 4.27667V6.7297H12.8258C12.5637 6.7297 12.195 6.86069 12.195 7.41855V8.90586H14.4175L14.1576 11.4307Z" fill="white"/>
</g>
<defs>
<clipPath id="clip0_350_13667">
<rect width="22" height="22" fill="white" transform="translate(0.391602)"/>
</clipPath>
</defs>
</svg>
