<svg width="36" height="46" viewBox="0 0 36 46" fill="none" xmlns="http://www.w3.org/2000/svg">
<path fill-rule="evenodd" clip-rule="evenodd" d="M25.311 1.35179L33.974 9.54752C34.9562 10.4767 35.5195 11.7851 35.5195 13.1371V41.0586C35.5195 43.7833 33.3028 46 30.5781 46H5.42188C2.69718 46 0.480469 43.7833 0.480469 41.0586V4.94141C0.480469 2.21671 2.69718 0 5.42188 0H21.9151C23.1835 0 24.3896 0.480035 25.311 1.35179ZM24.6484 10.7812H31.3563L24.1992 4.01027V10.332C24.1992 10.5797 24.4007 10.7812 24.6484 10.7812ZM5.42188 43.3047H30.5781C31.8166 43.3047 32.8242 42.2971 32.8242 41.0586V13.4766H24.6484C22.9145 13.4766 21.5039 12.0659 21.5039 10.332V2.69531H5.42188C4.18338 2.69531 3.17578 3.70291 3.17578 4.94141V41.0586C3.17578 42.2971 4.18338 43.3047 5.42188 43.3047ZM7.84766 17.9688H27.6133C28.3575 17.9688 28.9609 18.5721 28.9609 19.3164C28.9609 20.0607 28.3575 20.6641 27.6133 20.6641H7.84766C7.10339 20.6641 6.5 20.0607 6.5 19.3164C6.5 18.5721 7.10339 17.9688 7.84766 17.9688ZM27.6133 25.1562H7.84766C7.10339 25.1562 6.5 25.7596 6.5 26.5039C6.5 27.2482 7.10339 27.8516 7.84766 27.8516H27.6133C28.3575 27.8516 28.9609 27.2482 28.9609 26.5039C28.9609 25.7596 28.3575 25.1562 27.6133 25.1562ZM7.84766 32.3438H14.3811C15.1254 32.3438 15.7288 32.9471 15.7288 33.6914C15.7288 34.4357 15.1254 35.0391 14.3811 35.0391H7.84766C7.10339 35.0391 6.5 34.4357 6.5 33.6914C6.5 32.9471 7.10339 32.3438 7.84766 32.3438Z" fill="url(#paint0_linear_73_262)"/>
<defs>
<linearGradient id="paint0_linear_73_262" x1="0.48047" y1="-6.38889" x2="50.387" y2="28.5708" gradientUnits="userSpaceOnUse">
<stop stop-color="#737C84"/>
<stop offset="0.15625" stop-color="#A2ABB4"/>
<stop offset="0.307292" stop-color="#A2ABB4"/>
<stop offset="0.473958" stop-color="#C31A44"/>
<stop offset="0.671875" stop-color="#0098B7"/>
<stop offset="0.838542" stop-color="#A2ABB4"/>
</linearGradient>
</defs>
</svg>
