<svg width="14" height="14" viewBox="0 0 14 14" fill="none" xmlns="http://www.w3.org/2000/svg">
<path fill-rule="evenodd" clip-rule="evenodd" d="M0.585409 11.8065C0.22745 12.1646 0.227506 12.7449 0.585519 13.1029C0.943532 13.4608 1.52393 13.4608 1.88188 13.1028L7.00168 7.98208L12.1219 13.1023C12.4799 13.4603 13.0603 13.4603 13.4183 13.1023C13.7762 12.7444 13.7762 12.1639 13.4183 11.806L8.29794 6.68564L13.4179 1.56479C13.7758 1.20678 13.7758 0.626384 13.4177 0.268435C13.0597 -0.0895238 12.4793 -0.0894691 12.1214 0.268544L7.0015 5.38929L1.88125 0.268984C1.52328 -0.0889923 0.942872 -0.0889923 0.584896 0.268984C0.22691 0.62697 0.22691 1.20737 0.584896 1.56535L5.70533 6.68573L0.585409 11.8065Z" fill="#2D2D2D"/>
</svg>
