<svg xmlns="http://www.w3.org/2000/svg" width="40" height="40" fill="none"><path fill="#fff" d="M40 20C40 8.954 31.046 0 20 0S0 8.954 0 20s8.954 20 20 20 20-8.954 20-20Z"/><path fill="#4285F4" fill-rule="evenodd" d="M29.788 20.227c0-.709-.064-1.39-.182-2.045h-9.419v3.868h5.382a4.6 4.6 0 0 1-1.995 3.018v2.51h3.232c1.89-1.742 2.982-4.305 2.982-7.35Z" clip-rule="evenodd"/><path fill="#34A853" fill-rule="evenodd" d="M20.186 30c2.7 0 4.964-.895 6.619-2.423l-3.232-2.509c-.896.6-2.041.955-3.387.955-2.604 0-4.809-1.76-5.595-4.123H11.25v2.59A9.996 9.996 0 0 0 20.186 30Z" clip-rule="evenodd"/><path fill="#FBBC05" fill-rule="evenodd" d="M14.592 21.9c-.2-.6-.314-1.241-.314-1.9 0-.66.114-1.3.314-1.9v-2.591h-3.34A9.997 9.997 0 0 0 10.186 20c0 1.614.387 3.14 1.064 4.49l3.341-2.59Z" clip-rule="evenodd"/><path fill="#EA4335" fill-rule="evenodd" d="M20.186 13.977c1.469 0 2.787.505 3.823 1.496l2.868-2.868C25.145 10.99 22.882 10 20.187 10c-3.91 0-7.292 2.24-8.937 5.51l3.34 2.59c.787-2.364 2.992-4.123 5.596-4.123Z" clip-rule="evenodd"/></svg>