<svg width="19" height="19" viewBox="0 0 19 19" fill="none" xmlns="http://www.w3.org/2000/svg">
<g clip-path="url(#clip0_1392_5827)">
<path d="M6.04453 17.2707H4.31519V19H6.04453V17.2707Z" fill="#EDC867"/>
<path d="M14.6913 17.2707H12.9619V19H14.6913V17.2707Z" fill="#EDC867"/>
<path d="M6.10084 13.8781C6.05975 13.8781 5.99052 13.8172 5.98525 13.7759L4.43599 1.61306C4.32088 0.709254 3.51812 0 2.60642 0H0.856689V1.72934H2.60642C2.64634 1.72934 2.71528 1.79026 2.72055 1.8316L4.26981 13.9944C4.38508 14.8995 5.18934 15.6075 6.10088 15.6075H14.6913V13.8781H6.10084V13.8781Z" fill="#EDC867"/>
<path d="M15.9336 3.44081H3.32202V5.17015H15.9336C16.324 5.17015 16.4855 5.37982 16.3865 5.75493L15.4274 9.38749C15.2838 9.93137 14.6575 10.4137 14.0958 10.4137H7.77387V12.1431H14.0958C15.4425 12.1431 16.7554 11.1319 17.0994 9.82895L18.0585 6.1964C18.4472 4.72439 17.4584 3.44081 15.9336 3.44081Z" fill="#EDC867"/>
</g>
<defs>
<clipPath id="clip0_1392_5827">
<rect width="19" height="19" fill="white"/>
</clipPath>
</defs>
</svg>
