<svg width="156" height="42" viewBox="0 0 156 42" fill="none" xmlns="http://www.w3.org/2000/svg">
<path fill-rule="evenodd" clip-rule="evenodd" d="M6.05579 20.3074C6.18832 23.0656 7.29647 25.1627 9.0976 26.5432C10.9399 27.9552 13.2908 28.4528 15.5 28.4528C20.2742 28.4528 24.6949 24.8958 24.6949 19.7418C24.6949 18.3901 24.7257 16.9997 24.7558 15.6412C24.7694 15.0306 24.7828 14.4264 24.7931 13.8351C24.8256 11.9897 24.8308 10.2107 24.6818 8.9629C24.5192 7.60158 23.9429 5.64058 22.5214 3.98393C21.0429 2.2609 18.7578 1 15.5 1C12.4105 1 10.0048 1.90299 8.36265 3.49974C6.72767 5.08955 6.04237 7.18179 6.04237 9.18306L6.04238 13.6705L6.04237 15.1966L6.04237 15.563L5.92537 15.592V20.178L6.05579 20.3074ZM17.339 36.3116C22.2954 35.9238 25.6984 33.7064 27.8641 30.8626C30.1882 27.8109 31 24.1617 31 21.5896H27.322C27.322 23.5051 26.69 26.3231 24.9432 28.6168C23.2601 30.8268 20.4539 32.6764 15.765 32.6764C11.0681 32.6764 8.10839 30.818 6.28679 28.5723C4.40605 26.2537 3.67796 23.4406 3.67797 21.5896L0 21.5896C-4.5097e-06 24.2262 0.980655 27.8803 3.43579 30.9071C5.63441 33.6176 8.97165 35.7665 13.661 36.2633V38.3393H5.90455V42H25.095V38.3393H17.339V36.3116Z" fill="url(#paint0_linear_1462_12996)"/>
<path d="M52.9111 19.139H48.6546L41.962 10.3468V19.139H38.2677V0.375274H41.962V8.6581L48.3869 0.375274H52.6434L45.7099 9.48906L52.9111 19.139Z" fill="white"/>
<path d="M67.2551 19.139L66.1307 15.7615H58.6618L57.5374 19.139H53.5486L60.1074 0.375274H64.6851L71.2707 19.139H67.2551ZM59.8397 12.3036H64.9796L62.4096 4.63731L59.8397 12.3036Z" fill="white"/>
<path d="M83.3701 19.139L79.5954 12.6253H76.7845V19.139H73.0902V0.375274H80.5859C82.3171 0.375274 83.7895 0.98286 85.0031 2.19803C86.2167 3.4132 86.8235 4.87856 86.8235 6.59409C86.8235 7.75565 86.4933 8.8368 85.833 9.83753C85.1726 10.8204 84.2981 11.562 83.2094 12.0624L87.3589 19.139H83.3701ZM76.7845 3.83315V9.38184H80.5859C81.282 9.38184 81.8798 9.11379 82.3796 8.57768C82.8793 8.02371 83.1291 7.36251 83.1291 6.59409C83.1291 5.82568 82.8793 5.17341 82.3796 4.63731C81.8798 4.1012 81.282 3.83315 80.5859 3.83315H76.7845Z" fill="white"/>
<path d="M101.581 19.139L100.457 15.7615H92.9876L91.8632 19.139H87.8744L94.4332 0.375274H99.0109L105.596 19.139H101.581ZM94.1655 12.3036H99.3054L96.7354 4.63731L94.1655 12.3036Z" fill="white"/>
<path d="M122.504 16.6997C120.612 18.576 118.31 19.5142 115.597 19.5142C112.885 19.5142 110.582 18.576 108.691 16.6997C106.817 14.8054 105.88 12.4912 105.88 9.75711C105.88 7.02298 106.817 4.71772 108.691 2.84136C110.582 0.947119 112.885 0 115.597 0C118.31 0 120.612 0.947119 122.504 2.84136C124.396 4.71772 125.342 7.02298 125.342 9.75711C125.342 12.4912 124.396 14.8054 122.504 16.6997ZM111.287 14.18C112.447 15.3237 113.884 15.8955 115.597 15.8955C117.311 15.8955 118.747 15.3237 119.907 14.18C121.067 13.0184 121.647 11.5441 121.647 9.75711C121.647 7.9701 121.067 6.49581 119.907 5.33425C118.747 4.17268 117.311 3.5919 115.597 3.5919C113.884 3.5919 112.447 4.17268 111.287 5.33425C110.127 6.49581 109.547 7.9701 109.547 9.75711C109.547 11.5441 110.127 13.0184 111.287 14.18Z" fill="white"/>
<path d="M142.582 19.139H138.325L131.633 10.3468V19.139H127.938V0.375274H131.633V8.6581L138.058 0.375274H142.314L135.38 9.48906L142.582 19.139Z" fill="white"/>
<path d="M148.103 15.6007H156V19.139H144.408V0.375274H155.866V3.91357H148.103V7.90755H155.197V11.3922H148.103V15.6007Z" fill="white"/>
<path d="M44.6123 42C42.8811 42 41.4355 41.6158 40.2755 40.8474C39.1154 40.0611 38.3569 39.0693 38 37.872L38.4551 37.6039C38.7763 38.7655 39.4724 39.7126 40.5432 40.4453C41.6319 41.1601 42.9882 41.5175 44.6123 41.5175C46.3435 41.5175 47.6552 41.0976 48.5476 40.2577C49.4578 39.3999 49.9129 38.3277 49.9129 37.041C49.9129 35.8973 49.4488 34.986 48.5208 34.3069C47.6106 33.61 46.281 33.0024 44.532 32.4841C43.5861 32.2161 42.8098 31.957 42.203 31.7068C41.5962 31.4566 41.0072 31.1439 40.4361 30.7686C39.865 30.3933 39.4367 29.9376 39.1511 29.4015C38.8834 28.8654 38.7496 28.2489 38.7496 27.552C38.7496 26.1938 39.2582 25.0501 40.2755 24.1209C41.3106 23.1738 42.6402 22.7002 44.2643 22.7002C45.692 22.7002 46.8789 23.0487 47.8248 23.7456C48.7885 24.4426 49.4845 25.3539 49.9129 26.4798L49.4845 26.721C48.5743 24.3621 46.8343 23.1827 44.2643 23.1827C42.7116 23.1827 41.4891 23.6205 40.5967 24.4962C39.7222 25.3718 39.285 26.3904 39.285 27.552C39.285 28.0702 39.3921 28.5438 39.6062 28.9726C39.8204 29.3837 40.0613 29.7232 40.329 29.9912C40.5967 30.2593 41.0161 30.5363 41.5872 30.8222C42.1583 31.0903 42.6313 31.2958 43.0061 31.4387C43.3987 31.5817 43.9787 31.7783 44.7462 32.0284C46.6201 32.636 48.0389 33.3062 49.0027 34.0388C49.9664 34.7715 50.4483 35.7722 50.4483 37.041C50.4483 38.5243 49.9218 39.7216 48.8688 40.6329C47.8337 41.5443 46.4148 42 44.6123 42Z" fill="white"/>
<path d="M65.7085 22.9683L58.7482 33.9584V41.7319H58.2127V33.9584L51.2524 22.9683H51.8414L58.4804 33.5027L65.1195 22.9683H65.7085Z" fill="white"/>
<path d="M72.9775 42C71.2463 42 69.8007 41.6158 68.6407 40.8474C67.4806 40.0611 66.7221 39.0693 66.3652 37.872L66.8203 37.6039C67.1415 38.7655 67.8376 39.7126 68.9084 40.4453C69.997 41.1601 71.3534 41.5175 72.9775 41.5175C74.7086 41.5175 76.0204 41.0976 76.9127 40.2577C77.8229 39.3999 78.278 38.3277 78.278 37.041C78.278 35.8973 77.814 34.986 76.886 34.3069C75.9758 33.61 74.6462 33.0024 72.8972 32.4841C71.9513 32.2161 71.1749 31.957 70.5681 31.7068C69.9613 31.4566 69.3724 31.1439 68.8013 30.7686C68.2302 30.3933 67.8019 29.9376 67.5163 29.4015C67.2486 28.8654 67.1148 28.2489 67.1148 27.552C67.1148 26.1938 67.6234 25.0501 68.6407 24.1209C69.6758 23.1738 71.0054 22.7002 72.6295 22.7002C74.0572 22.7002 75.2441 23.0487 76.1899 23.7456C77.1537 24.4426 77.8497 25.3539 78.278 26.4798L77.8497 26.721C76.9395 24.3621 75.1994 23.1827 72.6295 23.1827C71.0768 23.1827 69.8543 23.6205 68.9619 24.4962C68.0874 25.3718 67.6502 26.3904 67.6502 27.552C67.6502 28.0702 67.7572 28.5438 67.9714 28.9726C68.1856 29.3837 68.4265 29.7232 68.6942 29.9912C68.9619 30.2593 69.3813 30.5363 69.9524 30.8222C70.5235 31.0903 70.9965 31.2958 71.3713 31.4387C71.7639 31.5817 72.3439 31.7783 73.1113 32.0284C74.9853 32.636 76.4041 33.3062 77.3678 34.0388C78.3316 34.7715 78.8134 35.7722 78.8134 37.041C78.8134 38.5243 78.287 39.7216 77.234 40.6329C76.1989 41.5443 74.78 42 72.9775 42Z" fill="white"/>
<path d="M93.1335 22.9683V23.4508H86.9763V41.7319H86.4409V23.4508H80.2837V22.9683H93.1335Z" fill="white"/>
<path d="M97.1502 41.2495H107.055V41.7319H96.6148V22.9683H106.921V23.4508H97.1502V32.0284H106.252V32.5109H97.1502V41.2495Z" fill="white"/>
<path d="M127.67 22.9683V41.7319H127.134V23.692L119.478 36.1297H119.264L111.607 23.692V41.7319H111.072V22.9683H111.768L119.371 35.3523L126.973 22.9683H127.67Z" fill="white"/>
<path d="M138.178 42C136.447 42 135.001 41.6158 133.841 40.8474C132.681 40.0611 131.923 39.0693 131.566 37.872L132.021 37.6039C132.342 38.7655 133.038 39.7126 134.109 40.4453C135.198 41.1601 136.554 41.5175 138.178 41.5175C139.909 41.5175 141.221 41.0976 142.113 40.2577C143.024 39.3999 143.479 38.3277 143.479 37.041C143.479 35.8973 143.015 34.986 142.087 34.3069C141.176 33.61 139.847 33.0024 138.098 32.4841C137.152 32.2161 136.376 31.957 135.769 31.7068C135.162 31.4566 134.573 31.1439 134.002 30.7686C133.431 30.3933 133.003 29.9376 132.717 29.4015C132.449 28.8654 132.315 28.2489 132.315 27.552C132.315 26.1938 132.824 25.0501 133.841 24.1209C134.877 23.1738 136.206 22.7002 137.83 22.7002C139.258 22.7002 140.445 23.0487 141.391 23.7456C142.354 24.4426 143.05 25.3539 143.479 26.4798L143.05 26.721C142.14 24.3621 140.4 23.1827 137.83 23.1827C136.277 23.1827 135.055 23.6205 134.163 24.4962C133.288 25.3718 132.851 26.3904 132.851 27.552C132.851 28.0702 132.958 28.5438 133.172 28.9726C133.386 29.3837 133.627 29.7232 133.895 29.9912C134.163 30.2593 134.582 30.5363 135.153 30.8222C135.724 31.0903 136.197 31.2958 136.572 31.4387C136.965 31.5817 137.545 31.7783 138.312 32.0284C140.186 32.636 141.605 33.3062 142.569 34.0388C143.532 34.7715 144.014 35.7722 144.014 37.041C144.014 38.5243 143.488 39.7216 142.435 40.6329C141.4 41.5443 139.981 42 138.178 42Z" fill="white"/>
<defs>
<linearGradient id="paint0_linear_1462_12996" x1="6.82894e-07" y1="-4.69445" x2="44.3684" y2="26.1564" gradientUnits="userSpaceOnUse">
<stop stop-color="#C3A79A"/>
<stop offset="0.229167" stop-color="#737C84"/>
<stop offset="0.473958" stop-color="#C31A44"/>
<stop offset="0.692708" stop-color="#0098B7"/>
<stop offset="0.807292" stop-color="#A2ABB4"/>
<stop offset="1" stop-color="#1B1B1B"/>
</linearGradient>
</defs>
</svg>
