<svg width="156" height="41" viewBox="0 0 156 41" fill="none" xmlns="http://www.w3.org/2000/svg">
<path d="M39.4606 26.4492H47.396V30H35.7485V11.1703H47.2615V14.721H39.4606V18.7291H46.589V22.226H39.4606V26.4492ZM54.6663 30L48.3449 11.1703H52.3798L56.9796 25.6423L61.5526 11.1703H65.6144L59.2661 30H54.6663ZM82.4324 27.5521C80.5314 29.4351 78.2181 30.3766 75.4923 30.3766C72.7664 30.3766 70.4531 29.4351 68.5521 27.5521C66.6692 25.6512 65.7277 23.3289 65.7277 20.5851C65.7277 17.8414 66.6692 15.528 68.5521 13.645C70.4531 11.7441 72.7664 10.7937 75.4923 10.7937C78.2181 10.7937 80.5314 11.7441 82.4324 13.645C84.3333 15.528 85.2837 17.8414 85.2837 20.5851C85.2837 23.3289 84.3333 25.6512 82.4324 27.5521ZM71.1614 25.0236C72.3271 26.1713 73.7707 26.7451 75.4923 26.7451C77.2138 26.7451 78.6574 26.1713 79.8231 25.0236C80.9887 23.8579 81.5716 22.3784 81.5716 20.5851C81.5716 18.7918 80.9887 17.3123 79.8231 16.1467C78.6574 14.981 77.2138 14.3982 75.4923 14.3982C73.7707 14.3982 72.3271 14.981 71.1614 16.1467C69.9958 17.3123 69.4129 18.7918 69.4129 20.5851C69.4129 22.3784 69.9958 23.8579 71.1614 25.0236ZM97.4421 30.269C94.6625 30.269 92.3491 29.3365 90.502 27.4714C88.6729 25.5885 87.7583 23.293 87.7583 20.5851C87.7583 17.8772 88.6729 15.5908 90.502 13.7257C92.3491 11.8428 94.6625 10.9013 97.4421 10.9013C99.1099 10.9013 100.643 11.2958 102.042 12.0849C103.459 12.856 104.562 13.9051 105.351 15.2321L104.893 15.5011C104.158 14.2458 103.127 13.2505 101.8 12.5152C100.473 11.7621 99.0202 11.3855 97.4421 11.3855C94.806 11.3855 92.6181 12.2731 90.8786 14.0485C89.157 15.8239 88.2963 18.0028 88.2963 20.5851C88.2963 23.1675 89.157 25.3464 90.8786 27.1217C92.6181 28.8971 94.806 29.7848 97.4421 29.7848C99.074 29.7848 100.562 29.3992 101.907 28.6281C103.27 27.8391 104.302 26.79 105.001 25.4809L105.485 25.7499C104.714 27.1307 103.611 28.2336 102.176 29.0585C100.742 29.8655 99.1637 30.269 97.4421 30.269ZM109.915 29.5158H119.33V30H109.377V11.1703H109.915V29.5158ZM133.916 28.5205C132.714 29.6862 131.082 30.269 129.02 30.269C126.957 30.269 125.317 29.6862 124.097 28.5205C122.896 27.3369 122.295 25.8126 122.295 23.9476V11.1703H122.833V23.9476C122.833 25.6333 123.362 27.0321 124.42 28.1439C125.496 29.2378 127.029 29.7848 129.02 29.7848C131.01 29.7848 132.535 29.2378 133.593 28.1439C134.669 27.0321 135.207 25.6333 135.207 23.9476V11.1703H135.745V23.9476C135.745 25.8126 135.135 27.3369 133.916 28.5205ZM149.832 20.3161C150.961 20.5493 151.894 21.1142 152.629 22.0108C153.382 22.8895 153.759 23.9117 153.759 25.0774C153.759 26.4403 153.275 27.6059 152.306 28.5743C151.356 29.5248 150.199 30 148.836 30H140.847V11.1703H148.218C149.527 11.1703 150.639 11.6365 151.553 12.569C152.486 13.5016 152.952 14.6134 152.952 15.9046C152.952 16.9088 152.665 17.8145 152.091 18.6215C151.517 19.4284 150.764 19.9933 149.832 20.3161ZM148.218 11.6545H141.385V20.1547H148.218C149.365 20.1547 150.352 19.7423 151.177 18.9174C152.002 18.0745 152.414 17.0702 152.414 15.9046C152.414 14.7389 152.002 13.7437 151.177 12.9187C150.352 12.0759 149.365 11.6545 148.218 11.6545ZM148.836 29.5158C150.038 29.5158 151.069 29.0854 151.93 28.2246C152.791 27.3459 153.221 26.2968 153.221 25.0774C153.221 23.8579 152.791 22.8178 151.93 21.957C151.069 21.0783 150.038 20.6389 148.836 20.6389H141.385V29.5158H148.836Z" fill="#2D2D2D"/>
<path fill-rule="evenodd" clip-rule="evenodd" d="M6.05579 19.3074C6.18832 22.0656 7.29647 24.1627 9.0976 25.5432C10.9399 26.9552 13.2908 27.4528 15.5 27.4528C20.2742 27.4528 24.6949 23.8958 24.6949 18.7418C24.6949 17.3901 24.7257 15.9997 24.7558 14.6412C24.7694 14.0306 24.7828 13.4264 24.7931 12.8351C24.8256 10.9897 24.8308 9.21069 24.6818 7.9629C24.5192 6.60158 23.9429 4.64058 22.5214 2.98393C21.0429 1.2609 18.7578 0 15.5 0C12.4105 0 10.0048 0.90299 8.36265 2.49974C6.72767 4.08955 6.04237 6.18179 6.04237 8.18306L6.04238 12.6705L6.04237 14.1966L6.04237 14.563L5.92537 14.592V19.178L6.05579 19.3074ZM17.339 35.3116C22.2954 34.9238 25.6984 32.7064 27.8641 29.8626C30.1882 26.8109 31 23.1617 31 20.5896H27.322C27.322 22.5051 26.69 25.3231 24.9432 27.6168C23.2601 29.8268 20.4539 31.6764 15.765 31.6764C11.0681 31.6764 8.10839 29.818 6.28679 27.5723C4.40605 25.2537 3.67796 22.4406 3.67797 20.5896L0 20.5896C-4.5097e-06 23.2262 0.980655 26.8803 3.43579 29.9071C5.63441 32.6176 8.97165 34.7665 13.661 35.2633V37.3393H5.90455V41H25.095V37.3393H17.339V35.3116Z" fill="url(#paint0_linear_1242_10456)"/>
<defs>
<linearGradient id="paint0_linear_1242_10456" x1="6.82894e-07" y1="-5.69445" x2="44.3684" y2="25.1564" gradientUnits="userSpaceOnUse">
<stop stop-color="#C3A79A"/>
<stop offset="0.229167" stop-color="#737C84"/>
<stop offset="0.473958" stop-color="#C31A44"/>
<stop offset="0.692708" stop-color="#0098B7"/>
<stop offset="0.807292" stop-color="#A2ABB4"/>
<stop offset="1" stop-color="#1B1B1B"/>
</linearGradient>
</defs>
</svg>
