<svg width="37" height="48" viewBox="0 0 37 48" fill="none" xmlns="http://www.w3.org/2000/svg">
<path fill-rule="evenodd" clip-rule="evenodd" d="M2.64192 1.1958H34.3581C34.9187 1.19656 35.456 1.41957 35.8524 1.81593C36.2488 2.2123 36.4718 2.74967 36.4725 3.31021V45.5985C36.4718 46.159 36.2488 46.6964 35.8524 47.0927C35.456 47.4891 34.9187 47.7121 34.3581 47.7129H2.64192C2.08138 47.7121 1.54401 47.4891 1.14764 47.0927C0.751277 46.6964 0.528267 46.159 0.527512 45.5985V3.31021C0.528267 2.74967 0.751277 2.2123 1.14764 1.81593C1.54401 1.41957 2.08138 1.19656 2.64192 1.1958ZM2.64192 3.31021V45.5985H34.3602L34.3581 3.31021H2.64192ZM12.0391 21.1283C13.9516 19.8505 16.2 19.1685 18.5 19.1685C21.5832 19.172 24.5391 20.3983 26.7193 22.5785C28.8995 24.7586 30.1258 27.7145 30.1293 30.7977C30.1293 33.0978 29.4472 35.3462 28.1694 37.2586C26.8916 39.171 25.0753 40.6616 22.9504 41.5418C20.8254 42.422 18.4871 42.6523 16.2313 42.2035C13.9754 41.7548 11.9033 40.6472 10.2769 39.0209C8.65051 37.3945 7.54293 35.3223 7.09421 33.0665C6.64549 30.8106 6.87579 28.4724 7.75598 26.3474C8.63617 24.2224 10.1267 22.4062 12.0391 21.1283ZM13.2139 38.709C14.7786 39.7545 16.6182 40.3126 18.5 40.3126C21.0227 40.3098 23.4412 39.3064 25.225 37.5227C27.0087 35.7389 28.0121 33.3204 28.0149 30.7977C28.0149 28.9159 27.4568 27.0763 26.4113 25.5116C25.3658 23.9468 23.8798 22.7273 22.1412 22.0071C20.4026 21.287 18.4895 21.0986 16.6438 21.4657C14.7981 21.8328 13.1027 22.739 11.772 24.0697C10.4413 25.4004 9.53513 27.0958 9.16799 28.9415C8.80086 30.7872 8.98929 32.7003 9.70944 34.4389C10.4296 36.1775 11.6491 37.6635 13.2139 38.709ZM18.5 25.5117C17.4545 25.5117 16.4325 25.8217 15.5633 26.4026C14.694 26.9834 14.0165 27.809 13.6164 28.7749C13.2163 29.7407 13.1116 30.8036 13.3156 31.829C13.5195 32.8544 14.023 33.7963 14.7622 34.5355C15.5015 35.2748 16.4434 35.7782 17.4688 35.9822C18.4942 36.1862 19.557 36.0815 20.5229 35.6814C21.4888 35.2813 22.3144 34.6038 22.8952 33.7345C23.476 32.8652 23.7861 31.8432 23.7861 30.7977C23.7844 29.3963 23.227 28.0527 22.236 27.0618C21.245 26.0708 19.9015 25.5134 18.5 25.5117ZM18.5 33.9693C17.8727 33.9693 17.2595 33.7833 16.738 33.4348C16.2164 33.0863 15.8099 32.591 15.5698 32.0115C15.3298 31.4319 15.267 30.7942 15.3893 30.179C15.5117 29.5637 15.8138 28.9986 16.2573 28.5551C16.7009 28.1115 17.266 27.8094 17.8813 27.6871C18.4965 27.5647 19.1342 27.6275 19.7137 27.8675C20.2933 28.1076 20.7886 28.5141 21.1371 29.0357C21.4856 29.5572 21.6716 30.1704 21.6716 30.7977C21.6707 31.6386 21.3363 32.4448 20.7417 33.0394C20.1471 33.634 19.3409 33.9684 18.5 33.9693ZM21.4368 16.163C20.5675 16.7438 19.5455 17.0538 18.5 17.0538C17.0986 17.0522 15.755 16.4947 14.7641 15.5038C13.7731 14.5128 13.2157 13.1692 13.214 11.7678C13.214 10.7223 13.524 9.70031 14.1049 8.83103C14.6857 7.96174 15.5113 7.28422 16.4772 6.88413C17.443 6.48404 18.5059 6.37936 19.5313 6.58333C20.5567 6.78729 21.4985 7.29073 22.2378 8.03C22.9771 8.76926 23.4805 9.71114 23.6845 10.7365C23.8884 11.7619 23.7838 12.8248 23.3837 13.7907C22.9836 14.7566 22.3061 15.5821 21.4368 16.163ZM20.2621 9.13068C19.7405 8.78218 19.1273 8.59617 18.5 8.59617C17.6591 8.59709 16.853 8.93154 16.2584 9.52613C15.6638 10.1207 15.3293 10.9269 15.3284 11.7678C15.3284 12.3951 15.5144 13.0083 15.8629 13.5298C16.2114 14.0514 16.7068 14.4579 17.2863 14.698C17.8658 14.938 18.5035 15.0008 19.1188 14.8785C19.734 14.7561 20.2991 14.454 20.7427 14.0105C21.1863 13.5669 21.4883 13.0018 21.6107 12.3865C21.7331 11.7713 21.6703 11.1336 21.4302 10.5541C21.1902 9.97452 20.7837 9.47919 20.2621 9.13068Z" fill="url(#paint0_linear_73_420)"/>
<path fill-rule="evenodd" clip-rule="evenodd" d="M34.3585 0.908447C34.9951 0.909305 35.6054 1.16257 36.0555 1.61271C36.5056 2.06285 36.7589 2.67312 36.7598 3.30972V45.5983C36.7589 46.2349 36.5056 46.8456 36.0555 47.2957C35.6054 47.7459 34.9951 47.9991 34.3585 48H2.64192C2.00533 47.9991 1.39467 47.7459 0.944528 47.2957C0.494388 46.8456 0.241123 46.2353 0.240265 45.5987L0.240265 3.3101C0.241123 2.67351 0.494388 2.06285 0.944527 1.61271C1.39467 1.16257 2.00494 0.909305 2.64153 0.908448L34.3585 0.908447ZM18.5003 18.8811C21.6596 18.8847 24.6885 20.1413 26.9224 22.3752C29.1563 24.6092 30.4129 27.638 30.4165 30.7973C30.4165 33.1542 29.7176 35.4584 28.4082 37.4181C27.0988 39.3777 25.2377 40.9051 23.0603 41.807C20.8828 42.709 18.4868 42.945 16.1752 42.4852C13.8636 42.0254 11.7403 40.8904 10.0738 39.2239C8.40722 37.5573 7.27228 35.434 6.81248 33.1224C6.35268 30.8108 6.58867 28.4148 7.4906 26.2374C8.39253 24.0599 9.9199 22.1988 11.8796 20.8894C13.8392 19.58 16.1435 18.8811 18.5003 18.8811ZM18.5004 25.2243C19.9779 25.2261 21.3943 25.8138 22.4391 26.8585C23.4838 27.9033 24.0715 29.3198 24.0733 30.7973C24.0733 31.8996 23.7464 32.9774 23.134 33.894C22.5216 34.8105 21.6512 35.5248 20.6328 35.9467C19.6144 36.3685 18.4938 36.4789 17.4127 36.2638C16.3316 36.0488 15.3386 35.518 14.5591 34.7385C13.7797 33.9591 13.2489 32.966 13.0338 31.8849C12.8188 30.8038 12.9292 29.6832 13.351 28.6648C13.7728 27.6464 14.4872 26.776 15.4037 26.1636C16.3202 25.5512 17.3981 25.2243 18.5004 25.2243ZM18.4997 17.3409C17.0222 17.3392 15.6057 16.7515 14.561 15.7068C13.5162 14.662 12.9285 13.2455 12.9268 11.768C12.9268 10.6657 13.2536 9.58785 13.866 8.67133C14.4784 7.75481 15.3488 7.04047 16.3672 6.61864C17.3856 6.19682 18.5062 6.08645 19.5873 6.30149C20.6684 6.51654 21.6615 7.04734 22.4409 7.82678C23.2204 8.60621 23.7512 9.59928 23.9662 10.6804C24.1812 11.7615 24.0709 12.8821 23.6491 13.9005C23.2272 14.9189 22.5129 15.7893 21.5964 16.4017C20.6798 17.0141 19.602 17.3409 18.4997 17.3409ZM2.64192 1.19569C2.08137 1.19644 1.544 1.41945 1.14764 1.81582C0.751272 2.21219 0.528261 2.74956 0.527506 3.3101V45.5983C0.528261 46.1589 0.751272 46.6963 1.14764 47.0926C1.544 47.489 2.08137 47.712 2.64192 47.7128H34.3581C34.9187 47.712 35.456 47.489 35.8524 47.0926C36.2488 46.6963 36.4718 46.1589 36.4725 45.5983V3.3101C36.4718 2.74956 36.2488 2.21219 35.8524 1.81582C35.456 1.41945 34.9187 1.19644 34.3581 1.19569H2.64192ZM2.92916 3.59734V45.3111H34.073L34.0709 3.59734H2.92916ZM13.3734 38.4701C14.8908 39.484 16.6748 40.0252 18.4997 40.0252C20.9463 40.0225 23.2919 39.0494 25.0218 37.3194C26.7518 35.5895 27.7249 33.2439 27.7276 30.7973C27.7276 28.9724 27.1864 27.1884 26.1725 25.671C25.1586 24.1536 23.7174 22.9708 22.0313 22.2724C20.3451 21.574 18.4898 21.3913 16.6998 21.7473C14.9098 22.1034 13.2656 22.9822 11.9751 24.2727C10.6846 25.5632 9.80576 27.2074 9.44971 28.9974C9.09366 30.7874 9.2764 32.6427 9.97481 34.3289C10.6732 36.015 11.856 37.4562 13.3734 38.4701ZM28.0149 30.7976C28.0121 33.3203 27.0087 35.7388 25.2249 37.5225C23.4412 39.3063 21.0227 40.3097 18.5 40.3125C16.6182 40.3125 14.7786 39.7544 13.2138 38.7089C11.6491 37.6634 10.4296 36.1774 9.70944 34.4388C8.98928 32.7002 8.80085 30.7871 9.16799 28.9414C9.53512 27.0957 10.4413 25.4003 11.772 24.0696C13.1027 22.7389 14.7981 21.8327 16.6438 21.4656C18.4895 21.0985 20.4026 21.2869 22.1412 22.007C23.8798 22.7272 25.3658 23.9467 26.4113 25.5114C27.4568 27.0762 28.0149 28.9158 28.0149 30.7976ZM23.786 30.7976C23.786 31.8431 23.476 32.8651 22.8952 33.7344C22.3144 34.6037 21.4888 35.2812 20.5229 35.6813C19.557 36.0814 18.4942 36.186 17.4688 35.9821C16.4434 35.7781 15.5015 35.2747 14.7622 34.5354C14.023 33.7961 13.5195 32.8543 13.3156 31.8289C13.1116 30.8035 13.2163 29.7406 13.6164 28.7747C14.0164 27.8088 14.694 26.9833 15.5633 26.4024C16.4325 25.8216 17.4545 25.5116 18.5 25.5116C19.9015 25.5132 21.245 26.0707 22.236 27.0617C23.2269 28.0526 23.7844 29.3962 23.786 30.7976ZM18.4997 33.682C17.9293 33.6819 17.3718 33.5128 16.8975 33.1959C16.4232 32.879 16.0535 32.4285 15.8352 31.9014C15.6169 31.3744 15.5598 30.7944 15.6711 30.2349C15.7824 29.6754 16.0571 29.1614 16.4605 28.7581C16.8638 28.3547 17.3778 28.08 17.9373 27.9687C18.4968 27.8574 19.0768 27.9145 19.6038 28.1328C20.1309 28.3511 20.5814 28.7208 20.8983 29.1951C21.2152 29.6694 21.3843 30.2269 21.3844 30.7973C21.3836 31.5621 21.0794 32.2954 20.5386 32.8362C19.9978 33.377 19.2645 33.6812 18.4997 33.682ZM21.6716 30.7976C21.6716 30.1703 21.4856 29.5571 21.1371 29.0356C20.7886 28.514 20.2933 28.1075 19.7137 27.8674C19.1342 27.6274 18.4965 27.5646 17.8813 27.6869C17.266 27.8093 16.7009 28.1114 16.2573 28.5549C15.8138 28.9985 15.5117 29.5636 15.3893 30.1789C15.267 30.7941 15.3298 31.4318 15.5698 32.0113C15.8099 32.5909 16.2164 33.0862 16.738 33.4347C17.2595 33.7832 17.8727 33.9692 18.5 33.9692C19.3409 33.9683 20.1471 33.6339 20.7417 33.0393C21.3363 32.4447 21.6707 31.6385 21.6716 30.7976ZM20.1025 9.3694C19.6282 9.05252 19.0707 8.88336 18.5003 8.8833C17.7355 8.88414 17.0023 9.18833 16.4615 9.72913C15.9207 10.2699 15.6165 11.0032 15.6156 11.768C15.6157 12.3384 15.7849 12.8959 16.1018 13.3702C16.4187 13.8445 16.8692 14.2142 17.3962 14.4325C17.9233 14.6508 18.5032 14.7079 19.0627 14.5966C19.6222 14.4853 20.1362 14.2106 20.5396 13.8072C20.943 13.4039 21.2177 12.8899 21.329 12.3304C21.4403 11.7709 21.3831 11.1909 21.1648 10.6639C20.9465 10.1368 20.5768 9.68634 20.1025 9.3694ZM15.3284 11.7677C15.3293 10.9268 15.6638 10.1206 16.2584 9.52602C16.853 8.93143 17.6591 8.59698 18.5 8.59606C19.1273 8.59606 19.7405 8.78207 20.2621 9.13057C20.7836 9.47907 21.1902 9.97441 21.4302 10.554C21.6703 11.1335 21.7331 11.7712 21.6107 12.3864C21.4883 13.0017 21.1863 13.5668 20.7427 14.0104C20.2991 14.4539 19.734 14.756 19.1188 14.8784C18.5035 15.0007 17.8658 14.9379 17.2863 14.6979C16.7068 14.4578 16.2114 14.0513 15.8629 13.5297C15.5144 13.0082 15.3284 12.395 15.3284 11.7677ZM2.64192 3.3101H34.3581L34.3602 45.5983H2.64192V3.3101ZM18.5 19.1684C16.2 19.1684 13.9516 19.8504 12.0391 21.1282C10.1267 22.4061 8.63617 24.2223 7.75597 26.3473C6.87578 28.4723 6.64548 30.8105 7.0942 33.0664C7.54292 35.3222 8.6505 37.3944 10.2769 39.0207C11.9033 40.6471 13.9754 41.7547 16.2313 42.2034C18.4871 42.6521 20.8254 42.4218 22.9503 41.5417C25.0753 40.6615 26.8916 39.1709 28.1694 37.2585C29.4472 35.3461 30.1293 33.0977 30.1293 30.7976C30.1258 27.7144 28.8994 24.7585 26.7193 22.5783C24.5391 20.3982 21.5832 19.1718 18.5 19.1684ZM18.5 17.0537C19.5455 17.0537 20.5675 16.7437 21.4368 16.1629C22.3061 15.582 22.9836 14.7564 23.3837 13.7906C23.7838 12.8247 23.8884 11.7618 23.6845 10.7364C23.4805 9.71103 22.9771 8.76915 22.2378 8.02989C21.4985 7.29062 20.5567 6.78718 19.5313 6.58321C18.5059 6.37925 17.443 6.48393 16.4771 6.88402C15.5113 7.28411 14.6857 7.96163 14.1049 8.83091C13.524 9.7002 13.214 10.7222 13.214 11.7677C13.2156 13.1691 13.7731 14.5127 14.7641 15.5036C15.755 16.4946 17.0986 17.0521 18.5 17.0537Z" fill="url(#paint1_linear_73_420)"/>
<defs>
<linearGradient id="paint0_linear_73_420" x1="0.527512" y1="-5.2649" x2="51.2384" y2="30.7717" gradientUnits="userSpaceOnUse">
<stop stop-color="#C3A79A"/>
<stop offset="0.229167" stop-color="#737C84"/>
<stop offset="0.473958" stop-color="#C31A44"/>
<stop offset="0.692708" stop-color="#0098B7"/>
<stop offset="0.807292" stop-color="#A2ABB4"/>
<stop offset="1" stop-color="#1B1B1B"/>
</linearGradient>
<linearGradient id="paint1_linear_73_420" x1="0.240266" y1="-5.63205" x2="51.6376" y2="31.0234" gradientUnits="userSpaceOnUse">
<stop stop-color="#737C84"/>
<stop offset="0.15625" stop-color="#A2ABB4"/>
<stop offset="0.307292" stop-color="#A2ABB4"/>
<stop offset="0.473958" stop-color="#C31A44"/>
<stop offset="0.671875" stop-color="#0098B7"/>
<stop offset="0.838542" stop-color="#A2ABB4"/>
</linearGradient>
</defs>
</svg>
