<svg width="20" height="25" viewBox="0 0 20 25" fill="none" xmlns="http://www.w3.org/2000/svg">
<path fill-rule="evenodd" clip-rule="evenodd" d="M1.275 0.152588H18.1125C18.4101 0.152989 18.6954 0.271381 18.9058 0.481804C19.1162 0.692227 19.2346 0.977506 19.235 1.27509V23.7251C19.2346 24.0227 19.1162 24.308 18.9058 24.5184C18.6954 24.7288 18.4101 24.8472 18.1125 24.8476H1.275C0.977415 24.8472 0.692135 24.7288 0.481712 24.5184C0.271289 24.308 0.152897 24.0227 0.152496 23.7251V1.27509C0.152897 0.977506 0.271289 0.692227 0.481712 0.481804C0.692135 0.271381 0.977415 0.152989 1.275 0.152588ZM1.275 1.27509V23.7251H18.1136L18.1125 1.27509H1.275ZM6.2638 10.7344C7.27907 10.056 8.4727 9.69393 9.69376 9.69393C11.3306 9.69579 12.8998 10.3468 14.0572 11.5042C15.2146 12.6616 15.8657 14.2309 15.8675 15.8677C15.8675 17.0887 15.5054 18.2824 14.827 19.2976C14.1487 20.3129 13.1845 21.1042 12.0564 21.5715C10.9282 22.0388 9.68691 22.161 8.48932 21.9228C7.29173 21.6846 6.19167 21.0966 5.32825 20.2332C4.46484 19.3698 3.87684 18.2697 3.63863 17.0721C3.40041 15.8745 3.52267 14.6332 3.98995 13.5051C4.45723 12.377 5.24853 11.4128 6.2638 10.7344ZM6.88743 20.0676C7.71811 20.6227 8.69471 20.9189 9.69376 20.9189C11.033 20.9174 12.3169 20.3848 13.2639 19.4378C14.2109 18.4908 14.7435 17.2069 14.745 15.8677C14.745 14.8686 14.4488 13.892 13.8937 13.0614C13.3387 12.2307 12.5498 11.5833 11.6268 11.2009C10.7038 10.8186 9.68815 10.7186 8.70831 10.9135C7.72846 11.1084 6.82841 11.5895 6.12198 12.2959C5.41555 13.0023 4.93447 13.9024 4.73956 14.8822C4.54466 15.8621 4.64469 16.8777 5.02701 17.8007C5.40932 18.7237 6.05676 19.5126 6.88743 20.0676ZM9.69376 13.0614C9.13873 13.0614 8.59617 13.226 8.13469 13.5344C7.6732 13.8427 7.31352 14.281 7.10112 14.7938C6.88872 15.3066 6.83314 15.8708 6.94142 16.4152C7.0497 16.9595 7.31697 17.4595 7.70944 17.852C8.1019 18.2445 8.60192 18.5117 9.14628 18.62C9.69064 18.7283 10.2549 18.6727 10.7677 18.4603C11.2804 18.2479 11.7187 17.8882 12.0271 17.4268C12.3354 16.9653 12.5 16.4227 12.5 15.8677C12.4991 15.1237 12.2032 14.4104 11.6771 13.8843C11.151 13.3582 10.4378 13.0623 9.69376 13.0614ZM9.69376 17.5514C9.36074 17.5514 9.03521 17.4527 8.75832 17.2677C8.48142 17.0827 8.26561 16.8197 8.13817 16.512C8.01073 16.2044 7.97739 15.8658 8.04236 15.5392C8.10733 15.2126 8.26769 14.9126 8.50316 14.6771C8.73864 14.4416 9.03866 14.2813 9.36527 14.2163C9.69189 14.1513 10.0304 14.1847 10.3381 14.3121C10.6458 14.4395 10.9087 14.6554 11.0937 14.9322C11.2788 15.2091 11.3775 15.5347 11.3775 15.8677C11.377 16.3141 11.1995 16.7421 10.8838 17.0577C10.5681 17.3734 10.1402 17.5509 9.69376 17.5514ZM11.2528 8.09837C10.7913 8.40672 10.2488 8.5713 9.69376 8.5713C8.94977 8.57043 8.23649 8.27449 7.71041 7.7484C7.18433 7.22232 6.88839 6.50905 6.88751 5.76505C6.88751 5.21003 7.05209 4.66747 7.36045 4.20598C7.6688 3.7445 8.10708 3.38481 8.61985 3.17241C9.13263 2.96002 9.69687 2.90444 10.2412 3.01272C10.7856 3.121 11.2856 3.38827 11.6781 3.78073C12.0705 4.17319 12.3378 4.67322 12.4461 5.21758C12.5544 5.76194 12.4988 6.32618 12.2864 6.83896C12.074 7.35173 11.7143 7.79001 11.2528 8.09837ZM10.6292 4.36506C10.3523 4.18005 10.0268 4.0813 9.69376 4.0813C9.24735 4.08179 8.81937 4.25934 8.50371 4.575C8.18805 4.89066 8.0105 5.31864 8.01001 5.76505C8.01001 6.09807 8.10876 6.4236 8.29377 6.70049C8.47878 6.97739 8.74175 7.1932 9.04942 7.32064C9.35708 7.44808 9.69563 7.48142 10.0222 7.41645C10.3489 7.35148 10.6489 7.19112 10.8844 6.95565C11.1198 6.72017 11.2802 6.42015 11.3452 6.09354C11.4101 5.76692 11.3768 5.42837 11.2493 5.12071C11.1219 4.81304 10.9061 4.55008 10.6292 4.36506Z" fill="url(#paint0_linear_73_423)"/>
<path fill-rule="evenodd" clip-rule="evenodd" d="M18.1127 0C18.4507 0.000455458 18.7747 0.134909 19.0136 0.373879C19.2526 0.612849 19.387 0.936832 19.3875 1.27479V23.725C19.387 24.063 19.2526 24.3872 19.0136 24.6261C18.7747 24.8651 18.4507 24.9995 18.1127 25H1.27499C0.937037 24.9995 0.612849 24.8651 0.373879 24.6261C0.134909 24.3872 0.000455458 24.0632 1.36337e-07 23.7252L0 1.27499C0.000455458 0.937037 0.134909 0.612849 0.373879 0.373879C0.61285 0.134909 0.936832 0.000455458 1.27479 1.36337e-07L18.1127 0ZM9.69392 9.54134C11.3711 9.54324 12.9791 10.2103 14.165 11.3963C15.351 12.5823 16.0181 14.1902 16.02 15.8674C16.02 17.1186 15.649 18.3419 14.9538 19.3823C14.2587 20.4226 13.2707 21.2335 12.1147 21.7123C10.9587 22.1911 9.68673 22.3164 8.45956 22.0723C7.23239 21.8282 6.10516 21.2257 5.22042 20.3409C4.33568 19.4562 3.73316 18.3289 3.48906 17.1018C3.24496 15.8746 3.37024 14.6026 3.84906 13.4466C4.32788 12.2907 5.13873 11.3026 6.17908 10.6075C7.21942 9.91237 8.44271 9.54134 9.69392 9.54134ZM9.69393 12.9088C10.4783 12.9098 11.2303 13.2218 11.7849 13.7764C12.3396 14.331 12.6516 15.083 12.6525 15.8674C12.6525 16.4526 12.479 17.0248 12.1539 17.5114C11.8287 17.9979 11.3667 18.3772 10.826 18.6011C10.2854 18.825 9.69047 18.8836 9.11653 18.7695C8.54259 18.6553 8.01539 18.3735 7.6016 17.9597C7.18782 17.5459 6.90602 17.0187 6.79186 16.4448C6.67769 15.8709 6.73629 15.276 6.96023 14.7353C7.18417 14.1947 7.5634 13.7326 8.04996 13.4075C8.53652 13.0824 9.10875 12.9088 9.69393 12.9088ZM9.69357 8.7237C8.9092 8.72277 8.15721 8.41077 7.60258 7.85613C7.04794 7.3015 6.73594 6.54951 6.73501 5.76514C6.73501 5.17995 6.90854 4.60773 7.23365 4.12117C7.55876 3.6346 8.02085 3.25537 8.56149 3.03143C9.10213 2.80749 9.69704 2.7489 10.271 2.86306C10.8449 2.97723 11.3721 3.25902 11.7859 3.67281C12.1997 4.0866 12.4815 4.61379 12.5956 5.18773C12.7098 5.76167 12.6512 6.35658 12.4273 6.89722C12.2033 7.43786 11.8241 7.89995 11.3375 8.22506C10.851 8.55017 10.2788 8.7237 9.69357 8.7237ZM1.27499 0.152491C0.977409 0.152892 0.69213 0.271284 0.481707 0.481706C0.271284 0.692129 0.152892 0.977409 0.152491 1.27499V23.725C0.152892 24.0226 0.271284 24.3079 0.481707 24.5183C0.69213 24.7287 0.977409 24.8471 1.27499 24.8475H18.1125C18.4101 24.8471 18.6954 24.7287 18.9058 24.5183C19.1162 24.3079 19.2346 24.0226 19.235 23.725V1.27499C19.2346 0.977409 19.1162 0.692129 18.9058 0.481706C18.6954 0.271284 18.4101 0.152892 18.1125 0.152491H1.27499ZM1.42748 1.42748V23.5725H17.9611L17.96 1.42748H1.42748ZM6.97215 19.9408C7.7777 20.479 8.72476 20.7663 9.69358 20.7663C10.9924 20.7649 12.2376 20.2483 13.1561 19.3299C14.0745 18.4115 14.5911 17.1663 14.5925 15.8674C14.5925 14.8986 14.3052 13.9515 13.7669 13.146C13.2286 12.3404 12.4636 11.7125 11.5684 11.3417C10.6733 10.9709 9.68832 10.8739 8.73805 11.063C7.78778 11.252 6.91491 11.7185 6.2298 12.4036C5.5447 13.0887 5.07814 13.9616 4.88912 14.9119C4.7001 15.8621 4.79711 16.8471 5.16788 17.7423C5.53866 18.6374 6.16655 19.4025 6.97215 19.9408ZM14.745 15.8676C14.7435 17.2068 14.2109 18.4907 13.2639 19.4377C12.3169 20.3847 11.033 20.9174 9.69375 20.9188C8.69471 20.9188 7.7181 20.6226 6.88743 20.0675C6.05675 19.5125 5.40932 18.7236 5.027 17.8006C4.64468 16.8776 4.54465 15.862 4.73956 14.8821C4.93446 13.9023 5.41555 13.0022 6.12198 12.2958C6.82841 11.5894 7.72845 11.1083 8.7083 10.9134C9.68815 10.7185 10.7038 10.8185 11.6268 11.2008C12.5498 11.5832 13.3387 12.2306 13.8937 13.0613C14.4488 13.8919 14.745 14.8685 14.745 15.8676ZM12.5 15.8676C12.5 16.4226 12.3354 16.9652 12.0271 17.4267C11.7187 17.8881 11.2804 18.2478 10.7677 18.4602C10.2549 18.6726 9.69064 18.7282 9.14628 18.6199C8.60192 18.5116 8.10189 18.2444 7.70943 17.8519C7.31697 17.4594 7.0497 16.9594 6.94142 16.4151C6.83314 15.8707 6.88871 15.3065 7.10111 14.7937C7.31351 14.2809 7.67319 13.8426 8.13468 13.5343C8.59617 13.2259 9.13873 13.0613 9.69375 13.0613C10.4377 13.0622 11.151 13.3581 11.6771 13.8842C12.2032 14.4103 12.4991 15.1236 12.5 15.8676ZM9.69358 17.3988C9.39079 17.3988 9.0948 17.309 8.84303 17.1408C8.59121 16.9725 8.39495 16.7334 8.27905 16.4536C8.16315 16.1738 8.13283 15.8659 8.19191 15.5689C8.251 15.2718 8.39683 14.999 8.61098 14.7848C8.82514 14.5707 9.09798 14.4248 9.39502 14.3657C9.69205 14.3067 9.99994 14.337 10.2797 14.4529C10.5595 14.5688 10.7987 14.765 10.9669 15.0169C11.1352 15.2686 11.225 15.5646 11.225 15.8674C11.2246 16.2734 11.0631 16.6627 10.776 16.9498C10.4889 17.2369 10.0996 17.3984 9.69358 17.3988ZM11.3775 15.8676C11.3775 15.5346 11.2788 15.209 11.0937 14.9321C10.9087 14.6553 10.6458 14.4394 10.3381 14.312C10.0304 14.1846 9.69188 14.1512 9.36527 14.2162C9.03865 14.2812 8.73864 14.4415 8.50316 14.677C8.26768 14.9125 8.10732 15.2125 8.04235 15.5391C7.97738 15.8657 8.01073 16.2043 8.13817 16.5119C8.26561 16.8196 8.48142 17.0826 8.75831 17.2676C9.0352 17.4526 9.36074 17.5513 9.69375 17.5513C10.1402 17.5508 10.5681 17.3733 10.8838 17.0576C11.1995 16.742 11.377 16.314 11.3775 15.8676ZM10.5445 4.49176C10.2927 4.32353 9.99672 4.23373 9.69392 4.23369C9.2879 4.23414 8.89863 4.39563 8.61153 4.68273C8.32443 4.96983 8.16294 5.3591 8.16249 5.76512C8.16253 6.06792 8.25233 6.36391 8.42056 6.61568C8.58881 6.86749 8.82796 7.06376 9.10777 7.17966C9.38757 7.29555 9.69545 7.32588 9.99249 7.26679C10.2895 7.20771 10.5624 7.06187 10.7765 6.84772C10.9907 6.63357 11.1365 6.36073 11.1956 6.06369C11.2547 5.76665 11.2243 5.45877 11.1085 5.17897C10.9926 4.89917 10.7963 4.66002 10.5445 4.49176ZM8.01 5.76496C8.01049 5.31855 8.18805 4.89056 8.5037 4.5749C8.81936 4.25925 9.24735 4.08169 9.69375 4.0812C10.0268 4.0812 10.3523 4.17995 10.6292 4.36497C10.9061 4.54998 11.1219 4.81295 11.2493 5.12061C11.3768 5.42828 11.4101 5.76682 11.3452 6.09344C11.2802 6.42005 11.1198 6.72007 10.8843 6.95555C10.6489 7.19102 10.3489 7.35139 10.0222 7.41635C9.69562 7.48132 9.35707 7.44798 9.04941 7.32054C8.74175 7.1931 8.47878 6.97729 8.29377 6.7004C8.10875 6.42351 8.01 6.09797 8.01 5.76496ZM1.27499 1.27499H18.1125L18.1136 23.725H1.27499V1.27499ZM9.69375 9.69383C8.4727 9.69383 7.27907 10.0559 6.2638 10.7343C5.24853 11.4127 4.45722 12.3769 3.98995 13.505C3.52267 14.6331 3.40041 15.8744 3.63862 17.072C3.87684 18.2696 4.46483 19.3697 5.32825 20.2331C6.19166 21.0965 7.29172 21.6845 8.48931 21.9227C9.6869 22.1609 10.9282 22.0387 12.0563 21.5714C13.1845 21.1041 14.1487 20.3128 14.827 19.2975C15.5054 18.2823 15.8675 17.0886 15.8675 15.8676C15.8657 14.2308 15.2146 12.6615 14.0572 11.5041C12.8998 10.3467 11.3306 9.69569 9.69375 9.69383ZM9.69375 8.57121C10.2488 8.57121 10.7913 8.40662 11.2528 8.09827C11.7143 7.78991 12.074 7.35164 12.2864 6.83886C12.4988 6.32609 12.5544 5.76184 12.4461 5.21748C12.3378 4.67312 12.0705 4.1731 11.6781 3.78064C11.2856 3.38817 10.7856 3.1209 10.2412 3.01262C9.69687 2.90434 9.13262 2.95992 8.61985 3.17232C8.10707 3.38471 7.6688 3.7444 7.36044 4.20588C7.05209 4.66737 6.8875 5.20993 6.8875 5.76496C6.88838 6.50895 7.18432 7.22222 7.7104 7.74831C8.23649 8.27439 8.94976 8.57033 9.69375 8.57121Z" fill="url(#paint1_linear_73_423)"/>
<defs>
<linearGradient id="paint0_linear_73_423" x1="0.152497" y1="-3.27728" x2="27.0739" y2="15.8538" gradientUnits="userSpaceOnUse">
<stop stop-color="#737C84"/>
<stop offset="0.15625" stop-color="#A2ABB4"/>
<stop offset="0.307292" stop-color="#A2ABB4"/>
<stop offset="0.473958" stop-color="#C31A44"/>
<stop offset="0.671875" stop-color="#0098B7"/>
<stop offset="0.838542" stop-color="#A2ABB4"/>
</linearGradient>
<linearGradient id="paint1_linear_73_423" x1="4.27084e-07" y1="-3.47222" x2="27.2859" y2="15.9875" gradientUnits="userSpaceOnUse">
<stop stop-color="#737C84"/>
<stop offset="0.15625" stop-color="#A2ABB4"/>
<stop offset="0.307292" stop-color="#A2ABB4"/>
<stop offset="0.473958" stop-color="#C31A44"/>
<stop offset="0.671875" stop-color="#0098B7"/>
<stop offset="0.838542" stop-color="#A2ABB4"/>
</linearGradient>
</defs>
</svg>
