<svg width="14" height="10" viewBox="0 0 14 10" fill="none" xmlns="http://www.w3.org/2000/svg">
<path d="M0.00962448 1.01525C0.0131245 0.9855 0.0174999 0.956625 0.0271254 0.92775C0.0953751 0.51125 0.440125 0.1875 0.875 0.1875H13.125C13.5599 0.1875 13.9046 0.51125 13.9729 0.92775C13.9825 0.956625 13.9869 0.9855 13.9904 1.01525C13.9912 1.03188 14 1.04588 14 1.0625V8.9375C14 8.95413 13.9912 8.969 13.9904 8.98563C13.9869 9.01538 13.9825 9.04338 13.9729 9.07225C13.9055 9.48787 13.5599 9.8125 13.125 9.8125H0.875C0.440125 9.8125 0.0945005 9.48787 0.0271254 9.07137C0.0174999 9.0425 0.0131245 9.0145 0.00962448 8.98475C0.00874996 8.969 0 8.95413 0 8.9375V1.0625C0 1.04588 0.00874996 1.03188 0.00962448 1.01525ZM1.17775 1.0625L6.034 4.62375L7 5.3325L7.96513 4.62463C7.96513 4.62463 7.966 4.62463 7.966 4.62375L12.8223 1.0625H1.17775ZM13.125 1.92613L8.932 5.00088L13.125 8.07475V1.92613ZM12.8223 8.9375L8.19175 5.54338L7.259 6.22762C7.182 6.2845 7.091 6.3125 7 6.3125C6.909 6.3125 6.818 6.2845 6.741 6.22762L5.80825 5.54338L1.17775 8.9375H12.8223ZM0.875 8.07475L5.068 5.00088L0.875 1.92613V8.07475Z" fill="#878787"/>
</svg>
