<svg width="50" height="50" viewBox="0 0 50 50" fill="none" xmlns="http://www.w3.org/2000/svg">
<path d="M36.7188 46.8749C33.7031 46.8749 31.25 44.4217 31.25 41.4061V20.8858C28.3359 19.028 26.5625 15.8327 26.5625 12.3342C26.5625 8.50611 28.6844 5.04361 32.1 3.29517C32.5859 3.04829 33.1641 3.06861 33.6281 3.35298C34.0922 3.63892 34.375 4.14204 34.375 4.68736V11.442L36.7188 12.3795L39.0625 11.442V4.68736C39.0625 4.14204 39.3453 3.63892 39.8094 3.35298C40.2734 3.06861 40.8516 3.04829 41.3375 3.29517C44.7531 5.04517 46.875 8.50611 46.875 12.3358C46.875 15.8327 45.1016 19.028 42.1875 20.8874V41.4061C42.1875 44.4217 39.7344 46.8749 36.7188 46.8749ZM31.25 7.91548C30.2547 9.14204 29.6875 10.6889 29.6875 12.3342C29.6875 14.9811 31.1578 17.3795 33.525 18.592C34.0469 18.8592 34.375 19.3967 34.375 19.9827V41.4061C34.375 42.6983 35.4266 43.7499 36.7188 43.7499C38.0109 43.7499 39.0625 42.6983 39.0625 41.4061V19.9827C39.0625 19.3967 39.3906 18.8592 39.9125 18.592C42.2797 17.3795 43.75 14.9827 43.75 12.3358C43.75 10.6905 43.1828 9.14361 42.1875 7.91704V12.4999C42.1875 13.1389 41.7984 13.7124 41.2062 13.9514L37.3 15.5139C36.9266 15.6639 36.5125 15.6639 36.1391 15.5139L32.2328 13.9514C31.6391 13.7124 31.25 13.1389 31.25 12.4999V7.91548Z" fill="url(#paint0_linear_73_240)"/>
<path d="M26.6781 46.875H23.3234C21.7 46.875 20.3312 45.6078 20.2078 43.9906L20.0109 41.4359C18.9391 41.1109 17.9016 40.6797 16.9094 40.1484L14.9625 41.8156C13.7297 42.8734 11.8672 42.8 10.7203 41.6547L8.34531 39.2781C7.19844 38.1313 7.12656 36.2672 8.18281 35.0344L9.85 33.0891C9.31875 32.0969 8.8875 31.0594 8.5625 29.9875L6.00937 29.7922C4.39219 29.6703 3.125 28.3016 3.125 26.6781V23.3219C3.125 21.6984 4.39219 20.3297 6.01094 20.2063L8.56406 20.0109C8.88906 18.9375 9.32031 17.9 9.85156 16.9094L8.18281 14.9609C7.12656 13.7297 7.19844 11.8672 8.34688 10.7172L10.7188 8.34375C11.8672 7.19531 13.7313 7.125 14.9625 8.18125L16.9094 9.84844C17.9016 9.31719 18.9391 8.88594 20.0109 8.56094L20.2078 6.00625C20.3312 4.39219 21.7 3.125 23.3219 3.125H25C25.8625 3.125 26.5625 3.82344 26.5625 4.6875C26.5625 5.55156 25.8625 6.25 25 6.25H23.3219L23.0406 9.90781C22.9875 10.5891 22.4984 11.1562 21.8344 11.3094C20.3234 11.6578 18.8859 12.2531 17.5625 13.0828C16.9859 13.4469 16.2375 13.3922 15.7172 12.9438L12.9281 10.5547L10.5563 12.9297L12.9453 15.7172C13.3906 16.2359 13.4453 16.9844 13.0828 17.5625C12.2547 18.8875 11.6578 20.325 11.3094 21.8344C11.1562 22.5 10.5875 22.9891 9.90625 23.0406L6.25 23.3219V26.6781L9.90625 26.9594C10.5875 27.0109 11.1562 27.5016 11.3094 28.1656C11.6578 29.6766 12.2531 31.1141 13.0828 32.4375C13.4453 33.0156 13.3891 33.7641 12.9453 34.2828L10.5563 37.0703L12.9297 39.4453L15.7172 37.0562C16.2375 36.6094 16.9859 36.5547 17.5625 36.9172C18.8875 37.7453 20.325 38.3422 21.8344 38.6906C22.5 38.8453 22.9891 39.4125 23.0406 40.0922L23.3219 43.75H26.6766C26.7422 42.8906 27.4906 42.2484 28.3547 42.3125C29.2156 42.3781 29.8594 43.1297 29.7922 43.9906C29.6687 45.6078 28.3 46.875 26.6781 46.875Z" fill="url(#paint1_linear_73_240)"/>
<path d="M14.0625 24.9999C14.0625 19.6343 17.8969 15.0983 23.1797 14.2139C24.0281 14.0624 24.8375 14.6452 24.9781 15.4968C25.1203 16.3483 24.5469 17.153 23.6953 17.2952C19.925 17.928 17.1875 21.1686 17.1875 24.9999C17.1875 30.3952 22.5469 34.1577 27.6047 32.3686C28.4141 32.0796 29.3109 32.5046 29.6 33.3186C29.8875 34.1327 29.4625 35.0249 28.6484 35.3124C21.5344 37.8296 14.0625 32.5249 14.0625 24.9999Z" fill="url(#paint2_linear_73_240)"/>
<defs>
<linearGradient id="paint0_linear_73_240" x1="26.5625" y1="-2.95276" x2="63.0407" y2="12.6221" gradientUnits="userSpaceOnUse">
<stop stop-color="#737C84"/>
<stop offset="0.15625" stop-color="#A2ABB4"/>
<stop offset="0.307292" stop-color="#A2ABB4"/>
<stop offset="0.473958" stop-color="#C31A44"/>
<stop offset="0.671875" stop-color="#0098B7"/>
<stop offset="0.838542" stop-color="#A2ABB4"/>
</linearGradient>
<linearGradient id="paint1_linear_73_240" x1="3.125" y1="-2.95139" x2="46.2121" y2="21.2055" gradientUnits="userSpaceOnUse">
<stop stop-color="#737C84"/>
<stop offset="0.15625" stop-color="#A2ABB4"/>
<stop offset="0.307292" stop-color="#A2ABB4"/>
<stop offset="0.473958" stop-color="#C31A44"/>
<stop offset="0.671875" stop-color="#0098B7"/>
<stop offset="0.838542" stop-color="#A2ABB4"/>
</linearGradient>
<linearGradient id="paint2_linear_73_240" x1="14.0625" y1="11.1683" x2="37.1626" y2="26.428" gradientUnits="userSpaceOnUse">
<stop stop-color="#737C84"/>
<stop offset="0.15625" stop-color="#A2ABB4"/>
<stop offset="0.307292" stop-color="#A2ABB4"/>
<stop offset="0.473958" stop-color="#C31A44"/>
<stop offset="0.671875" stop-color="#0098B7"/>
<stop offset="0.838542" stop-color="#A2ABB4"/>
</linearGradient>
</defs>
</svg>
