<svg width="47" height="47" viewBox="0 0 47 47" fill="none" xmlns="http://www.w3.org/2000/svg">
<path d="M44.3964 19.5674C43.458 18.9875 42.4135 18.8695 41.4922 18.9602V17.9922C41.4922 8.09658 33.3944 0 23.5 0C13.6044 0 5.50781 8.09777 5.50781 17.9922V18.9602C4.58654 18.8694 3.54189 18.9875 2.60363 19.5674C0.875926 20.6352 0 22.8849 0 26.2539C0 29.6285 0.877578 31.8901 2.60841 32.976C3.46818 33.5154 4.47225 33.7028 5.50781 33.6137V34.6074C5.50781 35.3679 6.12432 35.9844 6.88477 35.9844H12.3926C13.153 35.9844 13.7695 35.3679 13.7695 34.6074V17.9922C13.7695 17.2317 13.153 16.6152 12.3926 16.6152H8.3246C9.02299 8.85574 15.5618 2.75391 23.5 2.75391C31.4382 2.75391 37.977 8.85574 38.6754 16.6152H34.6074C33.847 16.6152 33.2305 17.2317 33.2305 17.9922V34.6074C33.2305 35.3679 33.847 35.9844 34.6074 35.9844H38.7383V37.3613C38.7383 39.6391 36.8852 41.4922 34.6074 41.4922H30.1479C29.5795 39.8896 28.049 38.7383 26.2539 38.7383H23.5C21.2222 38.7383 19.3691 40.5914 19.3691 42.8691C19.3691 45.1469 21.2222 47 23.5 47H26.2539C28.049 47 29.5795 45.8487 30.1479 44.2461H34.6074C38.4037 44.2461 41.4922 41.1576 41.4922 37.3613C41.4922 35.6841 41.4922 34.7021 41.4922 33.6136C42.5278 33.7027 43.532 33.5152 44.3916 32.9759C46.1224 31.8901 47 29.6285 47 26.2539C47 22.8849 46.1241 20.6352 44.3964 19.5674ZM5.50781 30.842C5.06847 30.9185 4.51934 30.9238 4.07193 30.6431C3.22198 30.1099 2.75391 28.5511 2.75391 26.2539C2.75391 23.9787 3.21151 22.438 4.04237 21.9157C4.49162 21.6332 5.05764 21.6533 5.50781 21.7422V30.842ZM11.0156 19.3691V33.2305H8.26172V19.3691H11.0156ZM26.2539 44.2461H23.5C22.7407 44.2461 22.123 43.6284 22.123 42.8691C22.123 42.1099 22.7407 41.4922 23.5 41.4922H26.2539C27.0132 41.4922 27.6309 42.1099 27.6309 42.8691C27.6309 43.6284 27.0132 44.2461 26.2539 44.2461ZM38.7383 33.2305H35.9844V19.3691H38.7383V33.2305ZM42.9379 30.6369C42.4929 30.921 41.9377 30.9155 41.4922 30.8383V21.7423C41.9424 21.6534 42.5083 21.6333 42.9576 21.9158C43.7885 22.438 44.2461 23.9787 44.2461 26.2539C44.2461 28.5418 43.7814 30.0984 42.9379 30.6369Z" fill="url(#paint0_linear_1003_5663)"/>
<defs>
<linearGradient id="paint0_linear_1003_5663" x1="1.03535e-06" y1="-6.52778" x2="54.0662" y2="43.1935" gradientUnits="userSpaceOnUse">
<stop stop-color="#737C84"/>
<stop offset="0.15625" stop-color="#A2ABB4"/>
<stop offset="0.307292" stop-color="#A2ABB4"/>
<stop offset="0.473958" stop-color="#C31A44"/>
<stop offset="0.671875" stop-color="#0098B7"/>
<stop offset="0.838542" stop-color="#A2ABB4"/>
</linearGradient>
</defs>
</svg>
