<svg width="46" height="46" viewBox="0 0 46 46" fill="none" xmlns="http://www.w3.org/2000/svg">
<path fill-rule="evenodd" clip-rule="evenodd" d="M30.311 1.35179L38.974 9.54752C39.9562 10.4767 40.5195 11.7851 40.5195 13.1371V41.0586C40.5195 43.7833 38.3028 46 35.5781 46H10.4219C7.69718 46 5.48047 43.7833 5.48047 41.0586V4.94141C5.48047 2.21671 7.69718 0 10.4219 0H26.9151C28.1835 0 29.3896 0.480035 30.311 1.35179ZM29.6484 10.7812H36.3563L29.1992 4.01027V10.332C29.1992 10.5797 29.4007 10.7812 29.6484 10.7812ZM10.4219 43.3047H35.5781C36.8166 43.3047 37.8242 42.2971 37.8242 41.0586V13.4766H29.6484C27.9145 13.4766 26.5039 12.0659 26.5039 10.332V2.69531H10.4219C9.18338 2.69531 8.17578 3.70291 8.17578 4.94141V41.0586C8.17578 42.2971 9.18338 43.3047 10.4219 43.3047ZM12.8477 17.9688H32.6133C33.3575 17.9688 33.9609 18.5721 33.9609 19.3164C33.9609 20.0607 33.3575 20.6641 32.6133 20.6641H12.8477C12.1034 20.6641 11.5 20.0607 11.5 19.3164C11.5 18.5721 12.1034 17.9688 12.8477 17.9688ZM32.6133 25.1562H12.8477C12.1034 25.1562 11.5 25.7596 11.5 26.5039C11.5 27.2482 12.1034 27.8516 12.8477 27.8516H32.6133C33.3575 27.8516 33.9609 27.2482 33.9609 26.5039C33.9609 25.7596 33.3575 25.1562 32.6133 25.1562ZM12.8477 32.3438H19.3811C20.1254 32.3438 20.7288 32.9471 20.7288 33.6914C20.7288 34.4357 20.1254 35.0391 19.3811 35.0391H12.8477C12.1034 35.0391 11.5 34.4357 11.5 33.6914C11.5 32.9471 12.1034 32.3438 12.8477 32.3438Z" fill="url(#paint0_linear_73_261)"/>
<defs>
<linearGradient id="paint0_linear_73_261" x1="5.48047" y1="-6.38889" x2="55.387" y2="28.5708" gradientUnits="userSpaceOnUse">
<stop stop-color="#737C84"/>
<stop offset="0.15625" stop-color="#A2ABB4"/>
<stop offset="0.307292" stop-color="#A2ABB4"/>
<stop offset="0.473958" stop-color="#C31A44"/>
<stop offset="0.671875" stop-color="#0098B7"/>
<stop offset="0.838542" stop-color="#A2ABB4"/>
</linearGradient>
</defs>
</svg>
