<svg width="65" height="48" viewBox="0 0 65 48" fill="none" xmlns="http://www.w3.org/2000/svg">
<path fill-rule="evenodd" clip-rule="evenodd" d="M2.64192 1.1958H34.3581C34.9187 1.19656 35.456 1.41957 35.8524 1.81593C36.2488 2.2123 36.4718 2.74967 36.4725 3.31021V45.5985C36.4718 46.159 36.2488 46.6964 35.8524 47.0927C35.456 47.4891 34.9187 47.7121 34.3581 47.7129H2.64192C2.08138 47.7121 1.54401 47.4891 1.14764 47.0927C0.751277 46.6964 0.528267 46.159 0.527512 45.5985V3.31021C0.528267 2.74967 0.751277 2.2123 1.14764 1.81593C1.54401 1.41957 2.08138 1.19656 2.64192 1.1958ZM2.64192 3.31021V45.5985H34.3602L34.3581 3.31021H2.64192ZM12.0391 21.1283C13.9516 19.8505 16.2 19.1685 18.5 19.1685C21.5832 19.172 24.5391 20.3983 26.7193 22.5785C28.8995 24.7586 30.1258 27.7145 30.1293 30.7977C30.1293 33.0978 29.4472 35.3462 28.1694 37.2586C26.8916 39.171 25.0753 40.6616 22.9504 41.5418C20.8254 42.422 18.4871 42.6523 16.2313 42.2035C13.9754 41.7548 11.9033 40.6472 10.2769 39.0209C8.65051 37.3945 7.54293 35.3223 7.09421 33.0665C6.64549 30.8106 6.87579 28.4724 7.75598 26.3474C8.63617 24.2224 10.1267 22.4062 12.0391 21.1283ZM13.2139 38.709C14.7786 39.7545 16.6182 40.3126 18.5 40.3126C21.0227 40.3098 23.4412 39.3064 25.225 37.5227C27.0087 35.7389 28.0121 33.3204 28.0149 30.7977C28.0149 28.9159 27.4568 27.0763 26.4113 25.5116C25.3658 23.9468 23.8798 22.7273 22.1412 22.0071C20.4026 21.287 18.4895 21.0986 16.6438 21.4657C14.7981 21.8328 13.1027 22.739 11.772 24.0697C10.4413 25.4004 9.53513 27.0958 9.16799 28.9415C8.80086 30.7872 8.98929 32.7003 9.70944 34.4389C10.4296 36.1775 11.6491 37.6635 13.2139 38.709ZM18.5 25.5117C17.4545 25.5117 16.4325 25.8217 15.5633 26.4026C14.694 26.9834 14.0165 27.809 13.6164 28.7749C13.2163 29.7407 13.1116 30.8036 13.3156 31.829C13.5195 32.8544 14.023 33.7963 14.7622 34.5355C15.5015 35.2748 16.4434 35.7782 17.4688 35.9822C18.4942 36.1862 19.557 36.0815 20.5229 35.6814C21.4888 35.2813 22.3144 34.6038 22.8952 33.7345C23.476 32.8652 23.7861 31.8432 23.7861 30.7977C23.7844 29.3963 23.227 28.0527 22.236 27.0618C21.245 26.0708 19.9015 25.5134 18.5 25.5117ZM18.5 33.9693C17.8727 33.9693 17.2595 33.7833 16.738 33.4348C16.2164 33.0863 15.8099 32.591 15.5698 32.0115C15.3298 31.4319 15.267 30.7942 15.3893 30.179C15.5117 29.5637 15.8138 28.9986 16.2573 28.5551C16.7009 28.1115 17.266 27.8094 17.8813 27.6871C18.4965 27.5647 19.1342 27.6275 19.7137 27.8675C20.2933 28.1076 20.7886 28.5141 21.1371 29.0357C21.4856 29.5572 21.6716 30.1704 21.6716 30.7977C21.6707 31.6386 21.3363 32.4448 20.7417 33.0394C20.1471 33.634 19.3409 33.9684 18.5 33.9693ZM21.4368 16.163C20.5675 16.7438 19.5455 17.0538 18.5 17.0538C17.0986 17.0522 15.755 16.4947 14.7641 15.5038C13.7731 14.5128 13.2157 13.1692 13.214 11.7678C13.214 10.7223 13.524 9.70031 14.1049 8.83103C14.6857 7.96174 15.5113 7.28422 16.4772 6.88413C17.443 6.48404 18.5059 6.37936 19.5313 6.58333C20.5567 6.78729 21.4985 7.29073 22.2378 8.03C22.9771 8.76926 23.4805 9.71114 23.6845 10.7365C23.8884 11.7619 23.7838 12.8248 23.3837 13.7907C22.9836 14.7566 22.3061 15.5821 21.4368 16.163ZM20.2621 9.13068C19.7405 8.78218 19.1273 8.59617 18.5 8.59617C17.6591 8.59709 16.853 8.93154 16.2584 9.52613C15.6638 10.1207 15.3293 10.9269 15.3284 11.7678C15.3284 12.3951 15.5144 13.0083 15.8629 13.5298C16.2114 14.0514 16.7068 14.4579 17.2863 14.698C17.8658 14.938 18.5035 15.0008 19.1188 14.8785C19.734 14.7561 20.2991 14.454 20.7427 14.0105C21.1863 13.5669 21.4883 13.0018 21.6107 12.3865C21.7331 11.7713 21.6703 11.1336 21.4302 10.5541C21.1902 9.97452 20.7837 9.47919 20.2621 9.13068Z" fill="url(#paint0_linear_1003_5662)"/>
<path fill-rule="evenodd" clip-rule="evenodd" d="M34.3585 0.908447C34.9951 0.909305 35.6054 1.16257 36.0555 1.61271C36.5056 2.06285 36.7589 2.67312 36.7598 3.30972V45.5983C36.7589 46.2349 36.5056 46.8456 36.0555 47.2957C35.6054 47.7459 34.9951 47.9991 34.3585 48H2.64192C2.00533 47.9991 1.39467 47.7459 0.944528 47.2957C0.494388 46.8456 0.241123 46.2353 0.240265 45.5987L0.240265 3.3101C0.241123 2.67351 0.494388 2.06285 0.944527 1.61271C1.39467 1.16257 2.00494 0.909305 2.64153 0.908448L34.3585 0.908447ZM18.5003 18.8811C21.6596 18.8847 24.6885 20.1413 26.9224 22.3752C29.1563 24.6092 30.4129 27.638 30.4165 30.7973C30.4165 33.1542 29.7176 35.4584 28.4082 37.4181C27.0988 39.3777 25.2377 40.9051 23.0603 41.807C20.8828 42.709 18.4868 42.945 16.1752 42.4852C13.8636 42.0254 11.7403 40.8904 10.0738 39.2239C8.40722 37.5573 7.27228 35.434 6.81248 33.1224C6.35268 30.8108 6.58867 28.4148 7.4906 26.2374C8.39253 24.0599 9.9199 22.1988 11.8796 20.8894C13.8392 19.58 16.1435 18.8811 18.5003 18.8811ZM18.5004 25.2243C19.9779 25.2261 21.3943 25.8138 22.4391 26.8585C23.4838 27.9033 24.0715 29.3198 24.0733 30.7973C24.0733 31.8996 23.7464 32.9774 23.134 33.894C22.5216 34.8105 21.6512 35.5248 20.6328 35.9467C19.6144 36.3685 18.4938 36.4789 17.4127 36.2638C16.3316 36.0488 15.3386 35.518 14.5591 34.7385C13.7797 33.9591 13.2489 32.966 13.0338 31.8849C12.8188 30.8038 12.9292 29.6832 13.351 28.6648C13.7728 27.6464 14.4872 26.776 15.4037 26.1636C16.3202 25.5512 17.3981 25.2243 18.5004 25.2243ZM18.4997 17.3409C17.0222 17.3392 15.6057 16.7515 14.561 15.7068C13.5162 14.662 12.9285 13.2455 12.9268 11.768C12.9268 10.6657 13.2536 9.58785 13.866 8.67133C14.4784 7.75481 15.3488 7.04047 16.3672 6.61864C17.3856 6.19682 18.5062 6.08645 19.5873 6.30149C20.6684 6.51654 21.6615 7.04734 22.4409 7.82678C23.2204 8.60621 23.7512 9.59928 23.9662 10.6804C24.1812 11.7615 24.0709 12.8821 23.6491 13.9005C23.2272 14.9189 22.5129 15.7893 21.5964 16.4017C20.6798 17.0141 19.602 17.3409 18.4997 17.3409ZM2.64192 1.19569C2.08137 1.19644 1.544 1.41945 1.14764 1.81582C0.751272 2.21219 0.528261 2.74956 0.527506 3.3101V45.5983C0.528261 46.1589 0.751272 46.6963 1.14764 47.0926C1.544 47.489 2.08137 47.712 2.64192 47.7128H34.3581C34.9187 47.712 35.456 47.489 35.8524 47.0926C36.2488 46.6963 36.4718 46.1589 36.4725 45.5983V3.3101C36.4718 2.74956 36.2488 2.21219 35.8524 1.81582C35.456 1.41945 34.9187 1.19644 34.3581 1.19569H2.64192ZM2.92916 3.59734V45.3111H34.073L34.0709 3.59734H2.92916ZM13.3734 38.4701C14.8908 39.484 16.6748 40.0252 18.4997 40.0252C20.9463 40.0225 23.2919 39.0494 25.0218 37.3194C26.7518 35.5895 27.7249 33.2439 27.7276 30.7973C27.7276 28.9724 27.1864 27.1884 26.1725 25.671C25.1586 24.1536 23.7174 22.9708 22.0313 22.2724C20.3451 21.574 18.4898 21.3913 16.6998 21.7473C14.9098 22.1034 13.2656 22.9822 11.9751 24.2727C10.6846 25.5632 9.80576 27.2074 9.44971 28.9974C9.09366 30.7874 9.2764 32.6427 9.97481 34.3289C10.6732 36.015 11.856 37.4562 13.3734 38.4701ZM28.0149 30.7976C28.0121 33.3203 27.0087 35.7388 25.2249 37.5225C23.4412 39.3063 21.0227 40.3097 18.5 40.3125C16.6182 40.3125 14.7786 39.7544 13.2138 38.7089C11.6491 37.6634 10.4296 36.1774 9.70944 34.4388C8.98928 32.7002 8.80085 30.7871 9.16799 28.9414C9.53512 27.0957 10.4413 25.4003 11.772 24.0696C13.1027 22.7389 14.7981 21.8327 16.6438 21.4656C18.4895 21.0985 20.4026 21.2869 22.1412 22.007C23.8798 22.7272 25.3658 23.9467 26.4113 25.5114C27.4568 27.0762 28.0149 28.9158 28.0149 30.7976ZM23.786 30.7976C23.786 31.8431 23.476 32.8651 22.8952 33.7344C22.3144 34.6037 21.4888 35.2812 20.5229 35.6813C19.557 36.0814 18.4942 36.186 17.4688 35.9821C16.4434 35.7781 15.5015 35.2747 14.7622 34.5354C14.023 33.7961 13.5195 32.8543 13.3156 31.8289C13.1116 30.8035 13.2163 29.7406 13.6164 28.7747C14.0164 27.8088 14.694 26.9833 15.5633 26.4024C16.4325 25.8216 17.4545 25.5116 18.5 25.5116C19.9015 25.5132 21.245 26.0707 22.236 27.0617C23.2269 28.0526 23.7844 29.3962 23.786 30.7976ZM18.4997 33.682C17.9293 33.6819 17.3718 33.5128 16.8975 33.1959C16.4232 32.879 16.0535 32.4285 15.8352 31.9014C15.6169 31.3744 15.5598 30.7944 15.6711 30.2349C15.7824 29.6754 16.0571 29.1614 16.4605 28.7581C16.8638 28.3547 17.3778 28.08 17.9373 27.9687C18.4968 27.8574 19.0768 27.9145 19.6038 28.1328C20.1309 28.3511 20.5814 28.7208 20.8983 29.1951C21.2152 29.6694 21.3843 30.2269 21.3844 30.7973C21.3836 31.5621 21.0794 32.2954 20.5386 32.8362C19.9978 33.377 19.2645 33.6812 18.4997 33.682ZM21.6716 30.7976C21.6716 30.1703 21.4856 29.5571 21.1371 29.0356C20.7886 28.514 20.2933 28.1075 19.7137 27.8674C19.1342 27.6274 18.4965 27.5646 17.8813 27.6869C17.266 27.8093 16.7009 28.1114 16.2573 28.5549C15.8138 28.9985 15.5117 29.5636 15.3893 30.1789C15.267 30.7941 15.3298 31.4318 15.5698 32.0113C15.8099 32.5909 16.2164 33.0862 16.738 33.4347C17.2595 33.7832 17.8727 33.9692 18.5 33.9692C19.3409 33.9683 20.1471 33.6339 20.7417 33.0393C21.3363 32.4447 21.6707 31.6385 21.6716 30.7976ZM20.1025 9.3694C19.6282 9.05252 19.0707 8.88336 18.5003 8.8833C17.7355 8.88414 17.0023 9.18833 16.4615 9.72913C15.9207 10.2699 15.6165 11.0032 15.6156 11.768C15.6157 12.3384 15.7849 12.8959 16.1018 13.3702C16.4187 13.8445 16.8692 14.2142 17.3962 14.4325C17.9233 14.6508 18.5032 14.7079 19.0627 14.5966C19.6222 14.4853 20.1362 14.2106 20.5396 13.8072C20.943 13.4039 21.2177 12.8899 21.329 12.3304C21.4403 11.7709 21.3831 11.1909 21.1648 10.6639C20.9465 10.1368 20.5768 9.68634 20.1025 9.3694ZM15.3284 11.7677C15.3293 10.9268 15.6638 10.1206 16.2584 9.52602C16.853 8.93143 17.6591 8.59698 18.5 8.59606C19.1273 8.59606 19.7405 8.78207 20.2621 9.13057C20.7836 9.47907 21.1902 9.97441 21.4302 10.554C21.6703 11.1335 21.7331 11.7712 21.6107 12.3864C21.4883 13.0017 21.1863 13.5668 20.7427 14.0104C20.2991 14.4539 19.734 14.756 19.1188 14.8784C18.5035 15.0007 17.8658 14.9379 17.2863 14.6979C16.7068 14.4578 16.2114 14.0513 15.8629 13.5297C15.5144 13.0082 15.3284 12.395 15.3284 11.7677ZM2.64192 3.3101H34.3581L34.3602 45.5983H2.64192V3.3101ZM18.5 19.1684C16.2 19.1684 13.9516 19.8504 12.0391 21.1282C10.1267 22.4061 8.63617 24.2223 7.75597 26.3473C6.87578 28.4723 6.64548 30.8105 7.0942 33.0664C7.54292 35.3222 8.6505 37.3944 10.2769 39.0207C11.9033 40.6471 13.9754 41.7547 16.2313 42.2034C18.4871 42.6521 20.8254 42.4218 22.9503 41.5417C25.0753 40.6615 26.8916 39.1709 28.1694 37.2585C29.4472 35.3461 30.1293 33.0977 30.1293 30.7976C30.1258 27.7144 28.8994 24.7585 26.7193 22.5783C24.5391 20.3982 21.5832 19.1718 18.5 19.1684ZM18.5 17.0537C19.5455 17.0537 20.5675 16.7437 21.4368 16.1629C22.3061 15.582 22.9836 14.7564 23.3837 13.7906C23.7838 12.8247 23.8884 11.7618 23.6845 10.7364C23.4805 9.71103 22.9771 8.76915 22.2378 8.02989C21.4985 7.29062 20.5567 6.78718 19.5313 6.58321C18.5059 6.37925 17.443 6.48393 16.4771 6.88402C15.5113 7.28411 14.6857 7.96163 14.1049 8.83091C13.524 9.7002 13.214 10.7222 13.214 11.7677C13.2156 13.1691 13.7731 14.5127 14.7641 15.5036C15.755 16.4946 17.0986 17.0521 18.5 17.0537Z" fill="url(#paint1_linear_1003_5662)"/>
<path fill-rule="evenodd" clip-rule="evenodd" d="M46.275 23.1526H63.1125C63.4101 23.153 63.6954 23.2714 63.9058 23.4818C64.1162 23.6922 64.2346 23.9775 64.235 24.2751V46.7251C64.2346 47.0227 64.1162 47.308 63.9058 47.5184C63.6954 47.7288 63.4101 47.8472 63.1125 47.8476H46.275C45.9774 47.8472 45.6921 47.7288 45.4817 47.5184C45.2713 47.308 45.1529 47.0227 45.1525 46.7251V24.2751C45.1529 23.9775 45.2713 23.6922 45.4817 23.4818C45.6921 23.2714 45.9774 23.153 46.275 23.1526ZM46.275 24.2751V46.7251H63.1136L63.1125 24.2751H46.275ZM51.2638 33.7344C52.2791 33.056 53.4727 32.6939 54.6938 32.6939C56.3306 32.6958 57.8998 33.3468 59.0572 34.5042C60.2146 35.6616 60.8657 37.2309 60.8675 38.8677C60.8675 40.0887 60.5054 41.2824 59.827 42.2976C59.1487 43.3129 58.1845 44.1042 57.0564 44.5715C55.9282 45.0388 54.6869 45.161 53.4893 44.9228C52.2917 44.6846 51.1917 44.0966 50.3283 43.2332C49.4648 42.3698 48.8768 41.2697 48.6386 40.0721C48.4004 38.8745 48.5227 37.6332 48.99 36.5051C49.4572 35.377 50.2485 34.4128 51.2638 33.7344ZM51.8874 43.0676C52.7181 43.6227 53.6947 43.9189 54.6938 43.9189C56.033 43.9174 57.3169 43.3848 58.2639 42.4378C59.2109 41.4908 59.7435 40.2069 59.745 38.8677C59.745 37.8686 59.4488 36.892 58.8937 36.0614C58.3387 35.2307 57.5498 34.5833 56.6268 34.2009C55.7038 33.8186 54.6882 33.7186 53.7083 33.9135C52.7285 34.1084 51.8284 34.5895 51.122 35.2959C50.4156 36.0023 49.9345 36.9024 49.7396 37.8822C49.5447 38.8621 49.6447 39.8777 50.027 40.8007C50.4093 41.7237 51.0568 42.5126 51.8874 43.0676ZM54.6938 36.0614C54.1387 36.0614 53.5962 36.226 53.1347 36.5344C52.6732 36.8427 52.3135 37.281 52.1011 37.7938C51.8887 38.3066 51.8331 38.8708 51.9414 39.4152C52.0497 39.9595 52.317 40.4595 52.7094 40.852C53.1019 41.2445 53.6019 41.5117 54.1463 41.62C54.6906 41.7283 55.2549 41.6727 55.7677 41.4603C56.2804 41.2479 56.7187 40.8882 57.0271 40.4268C57.3354 39.9653 57.5 39.4227 57.5 38.8677C57.4991 38.1237 57.2032 37.4104 56.6771 36.8843C56.151 36.3582 55.4378 36.0623 54.6938 36.0614ZM54.6938 40.5514C54.3607 40.5514 54.0352 40.4527 53.7583 40.2677C53.4814 40.0827 53.2656 39.8197 53.1382 39.512C53.0107 39.2044 52.9774 38.8658 53.0424 38.5392C53.1073 38.2126 53.2677 37.9126 53.5032 37.6771C53.7386 37.4416 54.0387 37.2813 54.3653 37.2163C54.6919 37.1513 55.0304 37.1847 55.3381 37.3121C55.6458 37.4395 55.9087 37.6554 56.0937 37.9322C56.2788 38.2091 56.3775 38.5347 56.3775 38.8677C56.377 39.3141 56.1995 39.7421 55.8838 40.0577C55.5681 40.3734 55.1402 40.5509 54.6938 40.5514ZM56.2528 31.0984C55.7913 31.4067 55.2488 31.5713 54.6938 31.5713C53.9498 31.5704 53.2365 31.2745 52.7104 30.7484C52.1843 30.2223 51.8884 29.509 51.8875 28.7651C51.8875 28.21 52.0521 27.6675 52.3604 27.206C52.6688 26.7445 53.1071 26.3848 53.6199 26.1724C54.1326 25.96 54.6969 25.9044 55.2412 26.0127C55.7856 26.121 56.2856 26.3883 56.6781 26.7807C57.0705 27.1732 57.3378 27.6732 57.4461 28.2176C57.5544 28.7619 57.4988 29.3262 57.2864 29.839C57.074 30.3517 56.7143 30.79 56.2528 31.0984ZM55.6292 27.3651C55.3523 27.1801 55.0268 27.0813 54.6938 27.0813C54.2474 27.0818 53.8194 27.2593 53.5037 27.575C53.1881 27.8907 53.0105 28.3186 53.01 28.7651C53.01 29.0981 53.1088 29.4236 53.2938 29.7005C53.4788 29.9774 53.7418 30.1932 54.0494 30.3206C54.3571 30.4481 54.6956 30.4814 55.0222 30.4165C55.3489 30.3515 55.6489 30.1911 55.8844 29.9556C56.1198 29.7202 56.2802 29.4202 56.3452 29.0935C56.4101 28.7669 56.3768 28.4284 56.2493 28.1207C56.1219 27.813 55.9061 27.5501 55.6292 27.3651Z" fill="url(#paint2_linear_1003_5662)"/>
<path fill-rule="evenodd" clip-rule="evenodd" d="M63.1127 23C63.4507 23.0005 63.7747 23.1349 64.0136 23.3739C64.2526 23.6128 64.387 23.9368 64.3875 24.2748V46.725C64.387 47.063 64.2526 47.3872 64.0136 47.6261C63.7747 47.8651 63.4507 47.9995 63.1127 48H46.275C45.937 47.9995 45.6128 47.8651 45.3739 47.6261C45.1349 47.3872 45.0005 47.0632 45 46.7252L45 24.275C45.0005 23.937 45.1349 23.6128 45.3739 23.3739C45.6128 23.1349 45.9368 23.0005 46.2748 23L63.1127 23ZM54.6939 32.5413C56.3711 32.5432 57.9791 33.2103 59.165 34.3963C60.351 35.5823 61.0181 37.1902 61.02 38.8674C61.02 40.1186 60.649 41.3419 59.9538 42.3823C59.2587 43.4226 58.2707 44.2335 57.1147 44.7123C55.9587 45.1911 54.6867 45.3164 53.4596 45.0723C52.2324 44.8282 51.1052 44.2257 50.2204 43.3409C49.3357 42.4562 48.7332 41.3289 48.4891 40.1018C48.245 38.8746 48.3702 37.6026 48.8491 36.4466C49.3279 35.2907 50.1387 34.3026 51.1791 33.6075C52.2194 32.9124 53.4427 32.5413 54.6939 32.5413ZM54.6939 35.9088C55.4783 35.9098 56.2303 36.2218 56.7849 36.7764C57.3396 37.331 57.6516 38.083 57.6525 38.8674C57.6525 39.4526 57.479 40.0248 57.1539 40.5114C56.8287 40.9979 56.3667 41.3772 55.826 41.6011C55.2854 41.825 54.6905 41.8836 54.1165 41.7695C53.5426 41.6553 53.0154 41.3735 52.6016 40.9597C52.1878 40.5459 51.906 40.0187 51.7919 39.4448C51.6777 38.8709 51.7363 38.276 51.9602 37.7353C52.1842 37.1947 52.5634 36.7326 53.05 36.4075C53.5365 36.0824 54.1087 35.9088 54.6939 35.9088ZM54.6936 31.7237C53.9092 31.7228 53.1572 31.4108 52.6026 30.8561C52.0479 30.3015 51.7359 29.5495 51.735 28.7651C51.735 28.18 51.9085 27.6077 52.2337 27.1212C52.5588 26.6346 53.0209 26.2554 53.5615 26.0314C54.1021 25.8075 54.697 25.7489 55.271 25.8631C55.8449 25.9772 56.3721 26.259 56.7859 26.6728C57.1997 27.0866 57.4815 27.6138 57.5956 28.1877C57.7098 28.7617 57.6512 29.3566 57.4273 29.8972C57.2033 30.4379 56.8241 30.8999 56.3375 31.2251C55.851 31.5502 55.2788 31.7237 54.6936 31.7237ZM46.275 23.1525C45.9774 23.1529 45.6921 23.2713 45.4817 23.4817C45.2713 23.6921 45.1529 23.9774 45.1525 24.275V46.725C45.1529 47.0226 45.2713 47.3079 45.4817 47.5183C45.6921 47.7287 45.9774 47.8471 46.275 47.8475H63.1125C63.4101 47.8471 63.6954 47.7287 63.9058 47.5183C64.1162 47.3079 64.2346 47.0226 64.235 46.725V24.275C64.2346 23.9774 64.1162 23.6921 63.9058 23.4817C63.6954 23.2713 63.4101 23.1529 63.1125 23.1525H46.275ZM46.4275 24.4275V46.5725H62.9611L62.96 24.4275H46.4275ZM51.9721 42.9408C52.7777 43.479 53.7248 43.7663 54.6936 43.7663C55.9924 43.7649 57.2376 43.2483 58.1561 42.3299C59.0745 41.4115 59.5911 40.1663 59.5925 38.8674C59.5925 37.8986 59.3052 36.9515 58.7669 36.146C58.2286 35.3404 57.4636 34.7125 56.5684 34.3417C55.6733 33.9709 54.6883 33.8739 53.738 34.063C52.7878 34.252 51.9149 34.7185 51.2298 35.4036C50.5447 36.0887 50.0781 36.9616 49.8891 37.9119C49.7001 38.8621 49.7971 39.8471 50.1679 40.7423C50.5387 41.6374 51.1665 42.4025 51.9721 42.9408ZM59.745 38.8676C59.7435 40.2068 59.2109 41.4907 58.2639 42.4377C57.3169 43.3847 56.033 43.9174 54.6938 43.9188C53.6947 43.9188 52.7181 43.6226 51.8874 43.0675C51.0568 42.5125 50.4093 41.7236 50.027 40.8006C49.6447 39.8776 49.5447 38.862 49.7396 37.8821C49.9345 36.9023 50.4155 36.0022 51.122 35.2958C51.8284 34.5894 52.7285 34.1083 53.7083 33.9134C54.6881 33.7185 55.7038 33.8185 56.6268 34.2008C57.5498 34.5832 58.3387 35.2306 58.8937 36.0613C59.4488 36.8919 59.745 37.8685 59.745 38.8676ZM57.5 38.8676C57.5 39.4226 57.3354 39.9652 57.0271 40.4267C56.7187 40.8881 56.2804 41.2478 55.7677 41.4602C55.2549 41.6726 54.6906 41.7282 54.1463 41.6199C53.6019 41.5116 53.1019 41.2444 52.7094 40.8519C52.317 40.4594 52.0497 39.9594 51.9414 39.4151C51.8331 38.8707 51.8887 38.3065 52.1011 37.7937C52.3135 37.2809 52.6732 36.8426 53.1347 36.5343C53.5962 36.2259 54.1387 36.0613 54.6938 36.0613C55.4377 36.0622 56.151 36.3581 56.6771 36.8842C57.2032 37.4103 57.4991 38.1236 57.5 38.8676ZM54.6936 40.3988C54.3908 40.3988 54.0948 40.309 53.843 40.1408C53.5912 39.9725 53.3949 39.7334 53.279 39.4536C53.1632 39.1738 53.1328 38.8659 53.1919 38.5689C53.251 38.2718 53.3968 37.999 53.611 37.7848C53.8251 37.5707 54.098 37.4248 54.395 37.3657C54.6921 37.3067 54.9999 37.337 55.2797 37.4529C55.5595 37.5688 55.7987 37.765 55.9669 38.0169C56.1352 38.2686 56.225 38.5646 56.225 38.8674C56.2246 39.2734 56.0631 39.6627 55.776 39.9498C55.4889 40.2369 55.0996 40.3984 54.6936 40.3988ZM56.3775 38.8676C56.3775 38.5346 56.2788 38.209 56.0937 37.9321C55.9087 37.6553 55.6458 37.4394 55.3381 37.312C55.0304 37.1846 54.6919 37.1512 54.3653 37.2162C54.0387 37.2812 53.7386 37.4415 53.5032 37.677C53.2677 37.9125 53.1073 38.2125 53.0424 38.5391C52.9774 38.8657 53.0107 39.2043 53.1382 39.5119C53.2656 39.8196 53.4814 40.0826 53.7583 40.2676C54.0352 40.4526 54.3607 40.5513 54.6938 40.5513C55.1402 40.5508 55.5681 40.3733 55.8838 40.0576C56.1995 39.742 56.377 39.314 56.3775 38.8676ZM55.5445 27.4918C55.2927 27.3235 54.9967 27.2337 54.6939 27.2337C54.2879 27.2341 53.8986 27.3956 53.6115 27.6827C53.3244 27.9698 53.1629 28.3591 53.1625 28.7651C53.1625 29.0679 53.2523 29.3639 53.4206 29.6157C53.5888 29.8675 53.828 30.0638 54.1078 30.1797C54.3876 30.2956 54.6955 30.3259 54.9925 30.2668C55.2895 30.2077 55.5624 30.0619 55.7765 29.8477C55.9907 29.6336 56.1365 29.3607 56.1956 29.0637C56.2547 28.7667 56.2243 28.4588 56.1085 28.179C55.9926 27.8992 55.7963 27.66 55.5445 27.4918ZM53.01 28.765C53.0105 28.3185 53.188 27.8906 53.5037 27.5749C53.8194 27.2592 54.2473 27.0817 54.6938 27.0812C55.0268 27.0812 55.3523 27.18 55.6292 27.365C55.9061 27.55 56.1219 27.8129 56.2493 28.1206C56.3768 28.4283 56.4101 28.7668 56.3452 29.0934C56.2802 29.4201 56.1198 29.7201 55.8843 29.9555C55.6489 30.191 55.3489 30.3514 55.0222 30.4164C54.6956 30.4813 54.3571 30.448 54.0494 30.3205C53.7417 30.1931 53.4788 29.9773 53.2938 29.7004C53.1088 29.4235 53.01 29.098 53.01 28.765ZM46.275 24.275H63.1125L63.1136 46.725H46.275V24.275ZM54.6938 32.6938C53.4727 32.6938 52.2791 33.0559 51.2638 33.7343C50.2485 34.4127 49.4572 35.3769 48.9899 36.505C48.5227 37.6331 48.4004 38.8744 48.6386 40.072C48.8768 41.2696 49.4648 42.3697 50.3282 43.2331C51.1917 44.0965 52.2917 44.6845 53.4893 44.9227C54.6869 45.1609 55.9282 45.0387 57.0563 44.5714C58.1845 44.1041 59.1487 43.3128 59.827 42.2975C60.5054 41.2823 60.8675 40.0886 60.8675 38.8676C60.8657 37.2308 60.2146 35.6615 59.0572 34.5041C57.8998 33.3467 56.3306 32.6957 54.6938 32.6938ZM54.6938 31.5712C55.2488 31.5712 55.7913 31.4066 56.2528 31.0983C56.7143 30.7899 57.074 30.3516 57.2864 29.8389C57.4988 29.3261 57.5544 28.7618 57.4461 28.2175C57.3378 27.6731 57.0705 27.1731 56.6781 26.7806C56.2856 26.3882 55.7856 26.1209 55.2412 26.0126C54.6969 25.9043 54.1326 25.9599 53.6198 26.1723C53.1071 26.3847 52.6688 26.7444 52.3604 27.2059C52.0521 27.6674 51.8875 28.2099 51.8875 28.765C51.8884 29.509 52.1843 30.2222 52.7104 30.7483C53.2365 31.2744 53.9498 31.5703 54.6938 31.5712Z" fill="url(#paint3_linear_1003_5662)"/>
<defs>
<linearGradient id="paint0_linear_1003_5662" x1="0.527512" y1="-5.2649" x2="51.2384" y2="30.7717" gradientUnits="userSpaceOnUse">
<stop stop-color="#C3A79A"/>
<stop offset="0.229167" stop-color="#737C84"/>
<stop offset="0.473958" stop-color="#C31A44"/>
<stop offset="0.692708" stop-color="#0098B7"/>
<stop offset="0.807292" stop-color="#A2ABB4"/>
<stop offset="1" stop-color="#1B1B1B"/>
</linearGradient>
<linearGradient id="paint1_linear_1003_5662" x1="0.240266" y1="-5.63205" x2="51.6376" y2="31.0234" gradientUnits="userSpaceOnUse">
<stop stop-color="#737C84"/>
<stop offset="0.15625" stop-color="#A2ABB4"/>
<stop offset="0.307292" stop-color="#A2ABB4"/>
<stop offset="0.473958" stop-color="#C31A44"/>
<stop offset="0.671875" stop-color="#0098B7"/>
<stop offset="0.838542" stop-color="#A2ABB4"/>
</linearGradient>
<linearGradient id="paint2_linear_1003_5662" x1="45.1525" y1="19.7227" x2="72.0739" y2="38.8538" gradientUnits="userSpaceOnUse">
<stop stop-color="#737C84"/>
<stop offset="0.15625" stop-color="#A2ABB4"/>
<stop offset="0.307292" stop-color="#A2ABB4"/>
<stop offset="0.473958" stop-color="#C31A44"/>
<stop offset="0.671875" stop-color="#0098B7"/>
<stop offset="0.838542" stop-color="#A2ABB4"/>
</linearGradient>
<linearGradient id="paint3_linear_1003_5662" x1="45" y1="19.5278" x2="72.2859" y2="38.9875" gradientUnits="userSpaceOnUse">
<stop stop-color="#737C84"/>
<stop offset="0.15625" stop-color="#A2ABB4"/>
<stop offset="0.307292" stop-color="#A2ABB4"/>
<stop offset="0.473958" stop-color="#C31A44"/>
<stop offset="0.671875" stop-color="#0098B7"/>
<stop offset="0.838542" stop-color="#A2ABB4"/>
</linearGradient>
</defs>
</svg>
