<svg width="48" height="48" viewBox="0 0 48 48" fill="none" xmlns="http://www.w3.org/2000/svg">
<path fill-rule="evenodd" clip-rule="evenodd" d="M17.0392 23.0056L14.1339 25.9109C10.3042 24.8859 6.15176 25.9378 3.26568 28.8237C-0.36468 32.454 -0.9164 37.8738 1.35656 42.0936C1.5674 42.4849 1.95074 42.7536 2.39053 42.8181C2.8303 42.8824 3.27477 42.7354 3.58902 42.4211L8.86637 37.1437C9.41462 36.5955 10.3067 36.5954 10.8551 37.1437C11.4034 37.6919 11.4034 38.584 10.8551 39.1324L5.57773 44.4097C5.26339 44.7241 5.1162 45.1684 5.1807 45.6082C5.24529 46.048 5.51389 46.4313 5.9052 46.6422C10.1409 48.9238 15.5571 48.3511 19.1752 44.7331C22.0676 41.8405 23.1107 37.6859 22.0881 33.8649L23.0046 32.9484L35.9936 45.9377C38.7352 48.6794 43.1959 48.6792 45.9374 45.9377C48.6884 43.1867 48.6867 38.7432 45.9374 35.9939L32.9483 23.0045L33.8646 22.0883C37.6943 23.1133 41.8467 22.0614 44.7328 19.1753C48.3632 15.5451 48.915 10.1253 46.642 5.90543C46.4312 5.51412 46.0478 5.24544 45.6081 5.18094C45.1684 5.11634 44.7239 5.26362 44.4096 5.57797L39.1322 10.8554C38.5839 11.4038 37.6918 11.4038 37.1435 10.8554C36.5952 10.3073 36.5952 9.41514 37.1435 8.8668L42.4209 3.58944C42.7352 3.2751 42.8824 2.83073 42.8179 2.39095C42.7533 1.95117 42.4847 1.56783 42.0934 1.35698C37.8577 -0.924602 32.4415 -0.35198 28.8234 3.26601C25.931 6.15856 24.8879 10.3132 25.9105 14.1342L23.0052 17.0395L15.3269 9.36132L16.3213 8.36701C16.9671 7.72127 16.8352 6.63771 16.0505 6.1669L6.10714 0.200859C5.55392 -0.131014 4.84555 -0.0439209 4.38936 0.412358L0.411941 4.38969C-0.0443387 4.84587 -0.131619 5.55415 0.200443 6.10746L6.16648 16.0508C6.63916 16.8387 7.72272 16.9655 8.3666 16.3217L9.361 15.3274L17.0392 23.0056ZM3.17709 5.60196L5.60164 3.17741L13.0591 7.65189L7.65147 13.0594L3.17709 5.60196ZM11.3497 13.3387L13.3383 11.35L21.0166 19.0282L19.0279 21.0168L11.3497 13.3387ZM43.9488 43.9492C42.3038 45.5942 39.6272 45.5942 37.9823 43.9492L24.9933 30.9598L30.9598 24.9933L43.9488 37.9827C45.6003 39.6342 45.5992 42.2988 43.9488 43.9492ZM6.87766 35.1551L3.1004 38.9324C2.31684 36.0625 3.08887 32.9781 5.25439 30.8125C7.54629 28.5207 11.0015 27.7423 14.0568 28.8299C14.5682 29.0119 15.1388 28.8834 15.5227 28.4995L28.4991 15.523C28.883 15.1392 29.0117 14.5686 28.8296 14.0572C27.742 11.0018 28.5202 7.54661 30.8121 5.25472C32.9776 3.08929 36.0623 2.31707 38.9321 3.10082L35.1548 6.87809C33.51 8.52302 33.51 11.1994 35.1548 12.8441C36.7997 14.4888 39.4761 14.4889 41.1208 12.8441L44.8981 9.06686C45.6817 11.9367 44.9096 15.0213 42.7442 17.1867C40.4523 19.4785 36.9973 20.2568 33.9418 19.1692C33.4291 18.9868 32.859 19.1166 32.4759 19.4997L19.4994 32.4762C19.1155 32.86 18.9868 33.4306 19.1689 33.9421C20.2565 36.9975 19.4783 40.4526 17.1864 42.7445C15.0209 44.9099 11.9363 45.682 9.06643 44.8984L12.8437 41.1212C14.4884 39.4762 14.4884 36.7999 12.8437 35.1551C11.1988 33.5104 8.5224 33.5105 6.87766 35.1551ZM31.7046 29.9982C31.1554 29.4492 30.2652 29.4492 29.716 29.9982C29.167 30.5473 29.167 31.4377 29.7161 31.9869L38.3089 40.5801C38.8581 41.1292 39.7482 41.1293 40.2975 40.5801C40.8466 40.0309 40.8466 39.1406 40.2975 38.5914L31.7046 29.9982Z" fill="url(#paint0_linear_73_249)"/>
<defs>
<linearGradient id="paint0_linear_73_249" x1="-6.57201e-06" y1="-6.66585" x2="55.2141" y2="44.1136" gradientUnits="userSpaceOnUse">
<stop stop-color="#737C84"/>
<stop offset="0.15625" stop-color="#A2ABB4"/>
<stop offset="0.307292" stop-color="#A2ABB4"/>
<stop offset="0.473958" stop-color="#C31A44"/>
<stop offset="0.671875" stop-color="#0098B7"/>
<stop offset="0.838542" stop-color="#A2ABB4"/>
</linearGradient>
</defs>
</svg>
