<svg width="66" height="66" viewBox="0 0 66 66" fill="none" xmlns="http://www.w3.org/2000/svg">
<g clip-path="url(#clip0_73_258)">
<path d="M65.4558 32.9714L54.3635 21.5105C53.9993 21.1341 53.4979 20.9216 52.9742 20.9216H45.886V12.5793C45.886 11.5115 45.0202 10.6458 43.9524 10.6458H8.03846C6.97061 10.6458 6.10487 11.5115 6.10487 12.5793V18.3819H4.64127C3.57341 18.3819 2.70768 19.2477 2.70768 20.3155C2.70768 21.3834 3.57341 22.2491 4.64127 22.2491H6.10487V26.1181H1.93359C0.865734 26.1181 0 26.9838 0 28.0517C0 29.1196 0.865734 29.9853 1.93359 29.9853H6.10487V47.743C6.10487 48.8109 6.97061 49.6766 8.03846 49.6766H12.1543C12.5292 50.9244 13.2089 52.0678 14.1561 53.015C15.6646 54.5236 17.6702 55.3543 19.8035 55.3543C21.9368 55.3543 23.9423 54.5236 25.4509 53.015C26.4094 52.0565 27.0717 50.9126 27.4401 49.6979H45.9053C46.2737 50.9126 46.9361 52.0565 47.8946 53.015C49.4031 54.5236 51.4087 55.3543 53.542 55.3543C55.6753 55.3543 57.6808 54.5236 59.1894 53.015C60.1479 52.0565 60.8102 50.9126 61.1786 49.6979H64.0664C65.1343 49.6979 66 48.8322 66 47.7643V34.3162C66 33.8142 65.8048 33.3321 65.4558 32.9714ZM59.5042 32.3826H45.8317V24.7888H52.1547L59.5042 32.3826ZM9.97206 29.9852H20.0362C21.104 29.9852 21.9698 29.1194 21.9698 28.0516C21.9698 26.9837 21.104 26.118 20.0362 26.118H9.97206V22.249H21.4545C22.5224 22.249 23.3881 21.3833 23.3881 20.3154C23.3881 19.2475 22.5224 18.3818 21.4545 18.3818H9.97206V14.5128H21.4545H42.0187L41.9644 45.8305H27.638C27.3448 44.3233 26.6158 42.8848 25.4509 41.7198C23.9424 40.2112 21.9368 39.3805 19.8035 39.3805C17.6702 39.3805 15.6647 40.2112 14.1561 41.7198C13.0217 42.8541 12.2708 44.2697 11.968 45.8092H9.97206V29.9852ZM22.7164 50.2806C21.9383 51.0586 20.9037 51.4871 19.8035 51.4871C18.7033 51.4871 17.6687 51.0586 16.8906 50.2806C16.1125 49.5025 15.684 48.4679 15.684 47.3675C15.684 46.2671 16.1125 45.2325 16.8906 44.4544C17.6687 43.6763 18.7033 43.2478 19.8035 43.2478C20.9037 43.2478 21.9383 43.6763 22.7164 44.4544C24.3225 46.0607 24.3225 48.6743 22.7164 50.2806ZM56.4546 50.2806C55.6765 51.0586 54.6419 51.4871 53.5417 51.4871C52.4415 51.4871 51.4069 51.0586 50.6288 50.2806C49.0227 48.6743 49.0227 46.0608 50.6288 44.4545C51.4069 43.6764 52.4415 43.2479 53.5417 43.2479C54.6419 43.2479 55.6765 43.6764 56.4546 44.4545C57.2327 45.2326 57.6611 46.2672 57.6611 47.3677C57.6612 48.4679 57.2327 49.5025 56.4546 50.2806ZM61.3764 45.8306C61.0831 44.3234 60.3542 42.8849 59.1891 41.7199C57.6806 40.2113 55.675 39.3806 53.5417 39.3806C51.4085 39.3806 49.4029 40.2113 47.8943 41.7199C46.8672 42.7471 46.181 43.9872 45.8316 45.2992V36.2498H62.1328V45.8306H61.3764Z" fill="url(#paint0_linear_73_258)"/>
</g>
<defs>
<linearGradient id="paint0_linear_73_258" x1="1.4539e-06" y1="4.43623" x2="49.2896" y2="71.3514" gradientUnits="userSpaceOnUse">
<stop stop-color="#737C84"/>
<stop offset="0.15625" stop-color="#A2ABB4"/>
<stop offset="0.307292" stop-color="#A2ABB4"/>
<stop offset="0.473958" stop-color="#C31A44"/>
<stop offset="0.671875" stop-color="#0098B7"/>
<stop offset="0.838542" stop-color="#A2ABB4"/>
</linearGradient>
<clipPath id="clip0_73_258">
<rect width="66" height="66" fill="white"/>
</clipPath>
</defs>
</svg>
