<svg width="42" height="30" viewBox="0 0 42 30" fill="none" xmlns="http://www.w3.org/2000/svg">
<rect x="1.37695" y="0.5" width="40.1238" height="28.0286" rx="3.5" fill="white" stroke="#D9D9D9"/>
<g clip-path="url(#clip0_108_207)">
<path d="M23.6839 11.6868C23.6316 11.5294 23.5631 11.3959 23.4157 11.39H23.4064H23.2833H23.0464C23.036 11.3888 23.0244 11.3876 23.0128 11.3876H22.8943C22.8827 11.3876 22.8711 11.3888 22.8607 11.39C22.7376 11.409 22.676 11.5354 22.6296 11.6832L20.8066 16.9127C20.8066 16.9818 20.8612 17.0378 20.9286 17.0378H21.3094C21.4603 17.0378 21.5381 16.9103 21.5834 16.7565L21.9469 15.667C21.9724 15.5919 22.0409 15.5418 22.1187 15.5418H24.146C24.2226 15.5418 24.2911 15.5919 24.3167 15.6658L24.6952 16.7673C24.7417 16.921 24.8229 17.0486 24.9809 17.0486H25.3791C25.4499 17.0486 25.5068 16.9926 25.5068 16.9234L23.6839 11.6868ZM22.1965 14.9232L23.1161 12.1719L24.0624 14.9232H22.1965Z" fill="#76A62D"/>
<path d="M29.0105 11.4043C28.9618 11.3852 28.6796 11.3876 28.6796 11.3876C28.4904 11.3924 28.3696 11.3876 28.2848 11.508C28.2721 11.5259 28.2628 11.545 28.2535 11.564L27.1237 14.0733L25.9603 11.5652C25.951 11.5461 25.9417 11.5271 25.9289 11.5092C25.8442 11.3888 25.7234 11.3924 25.5342 11.3888C25.5342 11.3888 25.252 11.3864 25.2032 11.4055C25.0871 11.4508 25.1638 11.5974 25.2183 11.7178L26.6453 14.6407C26.7104 14.7742 26.744 14.9208 26.744 15.0698V16.834C26.744 16.9532 26.8381 17.0498 26.9542 17.0498H27.2526C27.3687 17.0498 27.4628 16.9532 27.4628 16.834V15.0782C27.4628 14.9292 27.4964 14.7825 27.5615 14.649L28.9943 11.7166C29.05 11.5962 29.1266 11.4496 29.0105 11.4043Z" fill="#76A62D"/>
<path d="M34.4647 13.9607L31.0394 11.0151C31.0139 10.9937 30.9767 10.9949 30.9535 11.0199L30.4473 11.5611L33.2444 13.9607L30.4473 16.3602L30.9535 16.9014C30.9767 16.9264 31.0139 16.9276 31.0394 16.9062L34.4647 13.9607Z" fill="#76A62D"/>
<path d="M36.9276 13.9845L33.5023 11.039C33.4768 11.0175 33.4396 11.0187 33.4164 11.0438L32.9102 11.5849L35.7073 13.9845L32.9102 16.3841L33.4164 16.9253C33.4396 16.9503 33.4768 16.9515 33.5023 16.9301L36.9276 13.9845Z" fill="#76A62D"/>
<path d="M10.1433 11.384H9.71138C9.62082 11.384 9.54883 11.4591 9.54883 11.5509V16.8614C9.54883 16.958 9.62546 17.0378 9.72067 17.0378H10.1364C10.2304 17.0378 10.3082 16.9591 10.3082 16.8614V11.552C10.307 11.4591 10.2339 11.384 10.1433 11.384Z" fill="#76A62D"/>
<path d="M8.59851 16.3643H6.6699V11.5521C6.6699 11.4591 6.59675 11.3852 6.50735 11.3852H6.11373C6.02316 11.3852 5.95117 11.4603 5.95117 11.5521V16.3655V16.8054C5.95117 16.9151 6.03709 17.0033 6.14392 17.0033H6.67106H8.59967C8.69256 17.0033 8.76687 16.927 8.76687 16.8316V16.536C8.76571 16.4418 8.69024 16.3643 8.59851 16.3643Z" fill="#76A62D"/>
<path d="M20.2402 11.6963C19.9998 11.5295 19.6678 11.4114 19.0326 11.4114H18.0306H17.803C17.6567 11.4114 17.5371 11.533 17.5371 11.6844V16.7577C17.5371 16.9127 17.659 17.0391 17.8111 17.0391H18.0225C18.1734 17.0391 18.2965 16.9139 18.2965 16.7577V14.8517C18.5241 14.8517 19.3113 14.8517 19.4042 14.8517C19.5122 14.8517 20.8985 14.6288 20.8985 13.0791C20.8974 12.4044 20.5607 11.9204 20.2402 11.6963ZM19.1522 14.2676C19.0802 14.2676 18.3801 14.2676 18.3801 14.2676H18.2953V11.9955H18.9061C19.3252 11.9955 19.5447 12.073 19.7037 12.1839C19.9162 12.3317 20.138 12.6512 20.138 13.097C20.1392 14.1209 19.2242 14.2676 19.1522 14.2676Z" fill="#76A62D"/>
<path d="M16.8351 17.1642C16.8049 17.1415 16.7712 17.1249 16.7352 17.1106C16.4496 16.9985 16.0328 16.7017 15.8005 16.5479C15.6206 16.4287 15.6484 16.3345 15.6728 16.2952C15.6775 16.2892 15.6833 16.2821 15.6879 16.2761C15.6891 16.2749 15.6891 16.2749 15.6891 16.2749C16.0839 15.7779 16.3126 15.0698 16.3126 14.1757C16.3126 12.5951 15.6542 11.3137 13.8673 11.3137C12.2232 11.3137 11.4336 12.5951 11.4336 14.1757C11.4336 15.7564 11.9642 17.1094 13.8673 17.1094C14.2539 17.1094 14.6092 17.0331 14.9216 16.8853H14.9227C15.0145 16.8447 15.1039 16.8459 15.227 16.9377C16.1094 17.6088 16.5471 17.8556 16.8606 17.8556C17.0116 17.8556 16.9849 17.3788 16.9849 17.3788C16.9849 17.3788 16.9628 17.2584 16.8351 17.1642ZM12.2139 14.1877C12.2139 14.1841 12.2139 14.1805 12.2139 14.1757C12.2162 13.1029 12.597 11.9645 13.8696 11.9645C15.3117 11.9645 15.5323 13.1029 15.5335 14.1757C15.5335 14.1793 15.5335 14.1829 15.5335 14.1877C15.5335 15.4643 15.1306 16.4347 13.8696 16.4347C12.4217 16.4347 12.2139 15.2641 12.2139 14.1877Z" fill="#76A62D"/>
</g>
<defs>
<clipPath id="clip0_108_207">
<rect width="31.4476" height="12.1429" fill="white" transform="translate(5.71484 10)"/>
</clipPath>
</defs>
</svg>
