<svg width="42" height="30" viewBox="0 0 42 30" fill="none" xmlns="http://www.w3.org/2000/svg">
<rect x="0.71875" y="0.5" width="40.1238" height="28.0286" rx="3.5" fill="white" stroke="#D9D9D9"/>
<path fill-rule="evenodd" clip-rule="evenodd" d="M20.9983 20.3552C19.5661 21.5626 17.7082 22.2915 15.678 22.2915C11.1485 22.2915 7.47656 18.6633 7.47656 14.1877C7.47656 9.71206 11.1485 6.08386 15.678 6.08386C17.7082 6.08386 19.5661 6.81276 20.9983 8.02016C22.4305 6.81276 24.2884 6.08386 26.3186 6.08386C30.8481 6.08386 34.52 9.71206 34.52 14.1877C34.52 18.6633 30.8481 22.2915 26.3186 22.2915C24.2884 22.2915 22.4305 21.5626 20.9983 20.3552Z" fill="#ED0006"/>
<path fill-rule="evenodd" clip-rule="evenodd" d="M20.998 20.3552C22.7612 18.8688 23.8791 16.6572 23.8791 14.1877C23.8791 11.7181 22.7612 9.50654 20.998 8.02016C22.4302 6.81276 24.2882 6.08386 26.3184 6.08386C30.8479 6.08386 34.5198 9.71206 34.5198 14.1877C34.5198 18.6633 30.8479 22.2915 26.3184 22.2915C24.2882 22.2915 22.4302 21.5626 20.998 20.3552Z" fill="#F9A000"/>
<path fill-rule="evenodd" clip-rule="evenodd" d="M20.9963 20.3552C22.7595 18.8688 23.8774 16.6572 23.8774 14.1877C23.8774 11.7181 22.7595 9.50653 20.9963 8.02014C19.2332 9.50653 18.1152 11.7181 18.1152 14.1877C18.1152 16.6572 19.2332 18.8688 20.9963 20.3552Z" fill="#FF5E00"/>
</svg>
