<svg width="42" height="30" viewBox="0 0 42 30" fill="none" xmlns="http://www.w3.org/2000/svg">
<rect x="1.15625" y="0.5" width="40.1238" height="28.0286" rx="3.5" fill="white" stroke="#D9D9D9"/>
<path fill-rule="evenodd" clip-rule="evenodd" d="M15.1956 17.1839V12.7434C15.1956 11.4837 14.5765 10.8857 13.5368 10.8857C12.6723 10.8857 11.9248 11.4456 11.5977 12.0054C11.3874 11.3056 10.8617 10.8857 10.0324 10.8857C9.16791 10.8857 8.42035 11.471 8.18667 11.84V11.0385H6.70312V17.1839H8.18667V13.0488C8.40865 12.7052 8.84085 12.3235 9.3548 12.3235C9.96226 12.3235 10.1959 12.7306 10.1959 13.3032V17.1839H11.6911V13.036C11.9014 12.7052 12.3336 12.3235 12.8592 12.3235C13.4667 12.3235 13.7003 12.7306 13.7003 13.3032L13.7004 17.1839H15.1956ZM19.2724 17.3365C17.4151 17.3365 16.2936 15.8606 16.2936 14.1048C16.2936 12.3617 17.415 10.8858 19.2724 10.8858C21.1414 10.8858 22.2629 12.3617 22.2629 14.1048C22.2629 15.8606 21.1415 17.3365 19.2724 17.3365ZM19.2724 15.8988C20.1952 15.8988 20.7209 15.0718 20.7209 14.1048C20.7209 13.1506 20.1953 12.3235 19.2724 12.3235C18.3495 12.3235 17.8356 13.1506 17.8356 14.1048C17.8356 15.0718 18.3496 15.8988 19.2724 15.8988ZM28.6527 17.1839V12.8452C28.6527 11.6492 28.0569 10.8857 26.8187 10.8857C25.8959 10.8857 25.2067 11.3692 24.8445 11.84V11.0385H23.3609V17.1839H24.8445V13.0488C25.0898 12.6798 25.5454 12.3235 26.1295 12.3235C26.7603 12.3235 27.1692 12.6162 27.1692 13.4686V17.1839H28.6527ZM32.7412 17.3365C30.8839 17.3365 29.7624 15.8606 29.7624 14.1048C29.7624 12.3617 30.8838 10.8858 32.7412 10.8858C34.6102 10.8858 35.7317 12.3617 35.7317 14.1048C35.7317 15.8606 34.6103 17.3365 32.7412 17.3365ZM32.7412 15.8988C33.664 15.8988 34.1897 15.0718 34.1897 14.1048C34.1897 13.1506 33.6641 12.3235 32.7412 12.3235C31.8183 12.3235 31.3044 13.1506 31.3044 14.1048C31.3044 15.0718 31.8184 15.8988 32.7412 15.8988Z" fill="black"/>
</svg>
