<svg width="42" height="30" viewBox="0 0 42 30" fill="none" xmlns="http://www.w3.org/2000/svg">
<rect x="0.5" y="0.5" width="40.1238" height="28.0286" rx="3.5" fill="white" stroke="#D9D9D9"/>
<path fill-rule="evenodd" clip-rule="evenodd" d="M13.0036 19.1809H10.5123L8.64413 11.844C8.55546 11.5065 8.36718 11.2082 8.09024 11.0676C7.39908 10.7142 6.63748 10.4329 5.80664 10.2911V10.0086H9.81994C10.3738 10.0086 10.7893 10.4329 10.8585 10.9257L11.8278 16.218L14.3179 10.0086H16.74L13.0036 19.1809ZM18.1243 19.1809H15.7715L17.7089 10.0086H20.0617L18.1243 19.1809ZM23.1078 12.5496C23.1771 12.0556 23.5925 11.7732 24.0771 11.7732C24.8387 11.7022 25.6684 11.8441 26.3607 12.1963L26.7762 10.2214C26.0838 9.93896 25.3222 9.79712 24.631 9.79712C22.3474 9.79712 20.6858 11.0676 20.6858 12.8309C20.6858 14.1723 21.8628 14.8766 22.6936 15.301C23.5925 15.724 23.9387 16.0065 23.8694 16.4296C23.8694 17.0642 23.1771 17.3467 22.4859 17.3467C21.6551 17.3467 20.8242 17.1352 20.0638 16.7818L19.6484 18.7578C20.4793 19.11 21.3781 19.2518 22.209 19.2518C24.7695 19.3215 26.3607 18.0523 26.3607 16.1471C26.3607 13.748 23.1078 13.6074 23.1078 12.5496ZM34.5945 19.1809L32.7264 10.0086H30.7197C30.3043 10.0086 29.8889 10.2911 29.7504 10.7142L26.291 19.1809H28.7131L29.1965 17.8407H32.1725L32.4494 19.1809H34.5945ZM31.0646 12.4788L31.7558 15.9356H29.8183L31.0646 12.4788Z" fill="#172B85"/>
</svg>
