<svg width="234" height="322" viewBox="0 0 234 322" fill="none" xmlns="http://www.w3.org/2000/svg">
<path fill-rule="evenodd" clip-rule="evenodd" d="M88.6293 56.4375C89.9538 47.7586 94.1004 40.2031 101.027 35.2761C107.894 30.3925 119.146 26.9257 136.879 29.6317C153.354 32.1459 161.857 39.5872 166.573 47.1191C171.639 55.21 173.027 64.6094 172.823 70.9622C172.591 78.1753 170.903 89.496 168.504 103.552C167.8 107.675 167.041 112.004 166.261 116.449L166.261 116.45L166.261 116.45C164.469 126.669 162.568 137.505 160.985 147.877C157.845 168.452 137.297 182.451 114.098 178.91C101.17 176.938 90.735 172.301 84.2583 165.582C78.3095 159.411 74.3345 150.11 76.6395 135.005L49.1782 130.815C45.728 153.423 51.587 171.751 64.2667 184.904C76.4185 197.51 93.4064 203.892 109.901 206.409C145.548 211.849 182.594 190.418 188.446 152.068C189.981 142.01 191.79 131.699 193.558 121.624C194.352 117.096 195.138 112.616 195.887 108.228C198.225 94.533 200.284 81.3013 200.588 71.8468C200.92 61.532 198.844 46.2835 190.111 32.3367C181.029 17.831 165.399 5.84505 141.075 2.13301C118.007 -1.38721 99.0197 2.59078 84.9459 12.6011C70.933 22.568 63.4405 37.3554 61.168 52.2469L56.0723 85.6381L54.3394 96.9936L53.8488 100.208L53.719 101.059L53.6856 101.278L53.6772 101.333L53.6751 101.347L53.6745 101.35L53.6744 101.351L67.405 103.447L81.1357 105.542L81.1359 105.541L81.1364 105.538L81.1385 105.524L81.147 105.468L81.1803 105.25L81.3101 104.399L81.8008 101.184L83.5337 89.8289L88.6293 56.4375ZM199.481 238.428C180.081 257.121 152.155 269.743 114.708 266.982L111.94 285.119L169.217 293.859L165.026 321.321L23.0117 299.649L27.2024 272.187L84.479 280.928L87.3017 262.431C52.853 253.391 30.3758 233.599 17.0378 210.925C2.14361 185.605 -1.02906 157.298 1.96487 137.679L29.4262 141.87C27.3244 155.643 29.5663 177.405 40.9758 196.8C52.0266 215.586 72.0149 232.786 107.084 238.138C142.094 243.481 165.146 232.916 180.223 218.389C195.87 203.312 203.788 183.063 205.963 168.81L233.425 173.001C230.504 192.14 220.299 218.369 199.481 238.428Z" fill="white"/>
</svg>
