<svg width="45" height="45" viewBox="0 0 45 45" fill="none" xmlns="http://www.w3.org/2000/svg">
<g clip-path="url(#clip0_381_5611)">
<mask id="path-1-outside-1_381_5611" maskUnits="userSpaceOnUse" x="-1" y="1.98828" width="47" height="41" fill="black">
<rect fill="white" x="-1" y="1.98828" width="47" height="41"/>
<path d="M44.6632 14.5662L33.4221 3.32508C33.2051 3.10776 32.9161 2.98828 32.6091 2.98828C32.3019 2.98828 32.0131 3.1081 31.7958 3.32508L25.6139 9.50695C25.3595 9.76135 25.3595 10.174 25.6139 10.4288C25.8687 10.6832 26.2814 10.6835 26.5361 10.4288L32.6091 4.35574L43.6325 15.3791L23.7717 35.24L21.4573 32.926C21.5514 32.8193 21.6438 32.7108 21.7323 32.5988L22.0877 32.1494C22.3129 32.2109 22.5591 32.1869 22.7777 32.0684C23.3909 31.7374 24.1524 31.7374 24.7652 32.0684C24.9074 32.1453 25.0608 32.1827 25.2126 32.1827C25.4522 32.1827 25.6874 32.0893 25.8663 31.9105L27.3786 30.3981C27.633 30.1437 27.633 29.7311 27.3786 29.4763C27.1239 29.2219 26.7112 29.2219 26.4568 29.4763L25.134 30.7988C24.5706 30.5513 23.9591 30.4651 23.3617 30.5379L23.8225 29.9556L26.7654 27.0126L26.7658 27.0123L29.3881 24.39C30.2042 24.1782 30.9475 23.7538 31.5469 23.1544C33.3974 21.3039 33.3974 18.2922 31.5466 16.4414C29.696 14.5909 26.6848 14.5909 24.8339 16.4417C23.5997 17.676 23.1547 19.5097 23.6446 21.1593C23.0977 21.4903 22.6003 21.8669 22.1931 22.2741L19.5914 24.8765C19.4242 25.044 19.1996 25.136 18.9597 25.136H18.9384C18.5847 25.136 18.0783 24.7409 17.9345 24.3687V22.1093L31.2465 8.79696C32.1165 9.17976 33.1018 9.17976 33.9718 8.79696L39.1913 14.0165C38.8089 14.8868 38.8089 15.8718 39.1913 16.7418L28.6366 27.2962C28.3821 27.551 28.3821 27.9636 28.6366 28.2184C28.7639 28.3454 28.9308 28.4093 29.0976 28.4093C29.2645 28.4093 29.4313 28.3454 29.5587 28.2184L40.303 17.4738C40.5952 17.1812 40.6587 16.7387 40.4609 16.3727C40.1296 15.7599 40.1296 14.9984 40.4606 14.3859C40.659 14.0196 40.5955 13.5767 40.303 13.2845L34.7041 7.68562C34.4112 7.39311 33.969 7.3296 33.6027 7.52735C32.9899 7.85866 32.2284 7.859 31.6156 7.52735C31.2496 7.3296 30.807 7.39311 30.5142 7.68562L17.9342 20.2657V19.0307L24.3313 12.6336C24.5081 12.4568 24.5682 12.1938 24.4854 11.9572C24.4027 11.7207 24.1916 11.5528 23.9426 11.525C22.8547 11.4031 21.7849 11.3152 20.9248 11.2449C20.3354 11.1964 19.8695 11.1583 19.5917 11.1247C18.7355 11.0224 17.9008 11.3173 17.0412 12.0266L11.352 16.5149C11.3482 16.5179 11.3441 16.521 11.3403 16.5245C10.4298 17.2781 9.78195 18.2788 9.46712 19.4194C8.8773 21.5559 7.60288 25.4409 6.79985 27.0236L4.02821 29.7956L3.92487 29.6919C3.65261 29.4197 3.29041 29.2696 2.90554 29.2696C2.52068 29.2696 2.15847 29.4197 1.88622 29.6919L0.422287 31.1562C0.150032 31.4285 0 31.7903 0 32.1752C0 32.5604 0.150032 32.9222 0.422287 33.1945L8.74237 41.5146C9.01463 41.7868 9.37649 41.9369 9.76135 41.9369C10.1466 41.9369 10.5084 41.7868 10.7807 41.5146L12.2446 40.0503C12.5169 39.7784 12.6669 39.4162 12.6669 39.0313C12.6669 38.6465 12.5169 38.2843 12.2449 38.012L12.1385 37.9059L12.8293 37.2152C13.1266 36.9178 13.497 36.6988 13.9008 36.5817C13.9097 36.5793 13.9183 36.5766 13.9272 36.5735L18.1062 35.1662C18.9885 34.8637 19.8022 34.4102 20.5173 33.8297L22.9583 36.2707C23.1757 36.488 23.4644 36.6075 23.7717 36.6075C24.0789 36.6075 24.3673 36.488 24.5847 36.2707L44.6632 16.1925C44.8805 15.9752 45 15.6864 45 15.3791C45 15.0722 44.8805 14.7831 44.6632 14.5662V14.5662ZM26.3047 25.6294L25.8271 25.1515C25.6599 24.9843 25.6599 24.7124 25.8271 24.5448L26.7599 23.612C27.0422 23.3298 27.4129 23.1887 27.7837 23.1887C28.0447 23.1887 28.3056 23.2587 28.5356 23.3985L26.3047 25.6294ZM25.7557 17.3635C27.0981 16.0208 29.2823 16.0212 30.6247 17.3632C31.8785 18.617 31.9609 20.6045 30.8733 21.9555C30.8712 21.4707 30.6773 21.0189 30.2999 20.6313C29.8842 20.1348 29.2058 19.8478 28.3355 19.8011C27.2815 19.7438 26.0118 20.0343 24.8318 20.5475C24.5829 19.4156 24.9194 18.1999 25.7557 17.3635ZM11.3228 39.1285L9.85886 40.5928C9.82555 40.6261 9.78745 40.6333 9.76135 40.6333C9.7356 40.6333 9.69749 40.6261 9.66419 40.5928L1.34411 32.2727C1.31046 32.2394 1.3036 32.2013 1.3036 32.1752C1.3036 32.1491 1.31046 32.1113 1.34411 32.078L2.80804 30.6137C2.84134 30.5804 2.87945 30.5732 2.90554 30.5732C2.93163 30.5732 2.9694 30.5804 3.0027 30.6137L11.3228 38.9338C11.3564 38.9671 11.3633 39.0052 11.3633 39.0313C11.3633 39.0574 11.3564 39.0952 11.3228 39.1285V39.1285ZM21.4481 30.8565L20.7099 31.79C20.519 32.0317 20.3123 32.2579 20.0919 32.4684C20.0895 32.4708 20.0868 32.4728 20.0844 32.4752C20.0827 32.477 20.0813 32.4787 20.0796 32.4804C19.3974 33.1289 18.5834 33.6243 17.6866 33.932L13.5235 35.3337C12.9148 35.513 12.3562 35.8446 11.9075 36.2933L11.2167 36.9841L4.95003 30.7174L7.79377 27.8737C7.84012 27.827 7.87926 27.7738 7.90981 27.7158C8.76228 26.0908 10.0916 22.0551 10.7237 19.7665C10.9664 18.8872 11.4649 18.1151 12.1656 17.5335L17.8545 13.0456C17.8583 13.0425 17.8624 13.0394 17.8662 13.036C18.4539 12.5498 18.9384 12.3596 19.4365 12.4194C19.7387 12.4557 20.2152 12.4945 20.8181 12.5443C21.3028 12.5842 21.8552 12.6291 22.4382 12.683L16.8211 18.3001C16.6989 18.4224 16.6302 18.5882 16.6302 18.7609L16.6306 24.4696C16.6306 24.5263 16.6381 24.5829 16.6529 24.6375C16.909 25.5978 17.9771 26.44 18.9384 26.44H18.9597C19.5478 26.44 20.0998 26.212 20.5135 25.798L23.1149 23.1963C23.5413 22.7699 24.0944 22.3788 24.7014 22.053C24.7038 22.052 24.7062 22.0513 24.7086 22.0502C24.7364 22.0379 24.7622 22.0235 24.7872 22.008C25.927 21.4124 27.242 21.0467 28.2654 21.103C28.7646 21.1298 29.1347 21.2627 29.3074 21.4769C29.3222 21.4951 29.338 21.5126 29.3541 21.5291C29.5848 21.7598 29.5841 21.9459 29.558 22.0818C29.5374 22.1872 29.489 22.3026 29.418 22.4224C28.342 21.6269 26.8125 21.7159 25.8381 22.6902L24.9053 23.623C24.5781 23.9505 24.3979 24.3855 24.3979 24.8483C24.3979 25.3111 24.5781 25.7461 24.9053 26.0733L25.3832 26.5512L22.8735 29.0606C22.8557 29.0784 22.8389 29.0973 22.8234 29.1172L21.4498 30.8544C21.4491 30.8551 21.4484 30.8558 21.4481 30.8565V30.8565Z"/>
</mask>
<path d="M44.6632 14.5662L33.4221 3.32508C33.2051 3.10776 32.9161 2.98828 32.6091 2.98828C32.3019 2.98828 32.0131 3.1081 31.7958 3.32508L25.6139 9.50695C25.3595 9.76135 25.3595 10.174 25.6139 10.4288C25.8687 10.6832 26.2814 10.6835 26.5361 10.4288L32.6091 4.35574L43.6325 15.3791L23.7717 35.24L21.4573 32.926C21.5514 32.8193 21.6438 32.7108 21.7323 32.5988L22.0877 32.1494C22.3129 32.2109 22.5591 32.1869 22.7777 32.0684C23.3909 31.7374 24.1524 31.7374 24.7652 32.0684C24.9074 32.1453 25.0608 32.1827 25.2126 32.1827C25.4522 32.1827 25.6874 32.0893 25.8663 31.9105L27.3786 30.3981C27.633 30.1437 27.633 29.7311 27.3786 29.4763C27.1239 29.2219 26.7112 29.2219 26.4568 29.4763L25.134 30.7988C24.5706 30.5513 23.9591 30.4651 23.3617 30.5379L23.8225 29.9556L26.7654 27.0126L26.7658 27.0123L29.3881 24.39C30.2042 24.1782 30.9475 23.7538 31.5469 23.1544C33.3974 21.3039 33.3974 18.2922 31.5466 16.4414C29.696 14.5909 26.6848 14.5909 24.8339 16.4417C23.5997 17.676 23.1547 19.5097 23.6446 21.1593C23.0977 21.4903 22.6003 21.8669 22.1931 22.2741L19.5914 24.8765C19.4242 25.044 19.1996 25.136 18.9597 25.136H18.9384C18.5847 25.136 18.0783 24.7409 17.9345 24.3687V22.1093L31.2465 8.79696C32.1165 9.17976 33.1018 9.17976 33.9718 8.79696L39.1913 14.0165C38.8089 14.8868 38.8089 15.8718 39.1913 16.7418L28.6366 27.2962C28.3821 27.551 28.3821 27.9636 28.6366 28.2184C28.7639 28.3454 28.9308 28.4093 29.0976 28.4093C29.2645 28.4093 29.4313 28.3454 29.5587 28.2184L40.303 17.4738C40.5952 17.1812 40.6587 16.7387 40.4609 16.3727C40.1296 15.7599 40.1296 14.9984 40.4606 14.3859C40.659 14.0196 40.5955 13.5767 40.303 13.2845L34.7041 7.68562C34.4112 7.39311 33.969 7.3296 33.6027 7.52735C32.9899 7.85866 32.2284 7.859 31.6156 7.52735C31.2496 7.3296 30.807 7.39311 30.5142 7.68562L17.9342 20.2657V19.0307L24.3313 12.6336C24.5081 12.4568 24.5682 12.1938 24.4854 11.9572C24.4027 11.7207 24.1916 11.5528 23.9426 11.525C22.8547 11.4031 21.7849 11.3152 20.9248 11.2449C20.3354 11.1964 19.8695 11.1583 19.5917 11.1247C18.7355 11.0224 17.9008 11.3173 17.0412 12.0266L11.352 16.5149C11.3482 16.5179 11.3441 16.521 11.3403 16.5245C10.4298 17.2781 9.78195 18.2788 9.46712 19.4194C8.8773 21.5559 7.60288 25.4409 6.79985 27.0236L4.02821 29.7956L3.92487 29.6919C3.65261 29.4197 3.29041 29.2696 2.90554 29.2696C2.52068 29.2696 2.15847 29.4197 1.88622 29.6919L0.422287 31.1562C0.150032 31.4285 0 31.7903 0 32.1752C0 32.5604 0.150032 32.9222 0.422287 33.1945L8.74237 41.5146C9.01463 41.7868 9.37649 41.9369 9.76135 41.9369C10.1466 41.9369 10.5084 41.7868 10.7807 41.5146L12.2446 40.0503C12.5169 39.7784 12.6669 39.4162 12.6669 39.0313C12.6669 38.6465 12.5169 38.2843 12.2449 38.012L12.1385 37.9059L12.8293 37.2152C13.1266 36.9178 13.497 36.6988 13.9008 36.5817C13.9097 36.5793 13.9183 36.5766 13.9272 36.5735L18.1062 35.1662C18.9885 34.8637 19.8022 34.4102 20.5173 33.8297L22.9583 36.2707C23.1757 36.488 23.4644 36.6075 23.7717 36.6075C24.0789 36.6075 24.3673 36.488 24.5847 36.2707L44.6632 16.1925C44.8805 15.9752 45 15.6864 45 15.3791C45 15.0722 44.8805 14.7831 44.6632 14.5662V14.5662ZM26.3047 25.6294L25.8271 25.1515C25.6599 24.9843 25.6599 24.7124 25.8271 24.5448L26.7599 23.612C27.0422 23.3298 27.4129 23.1887 27.7837 23.1887C28.0447 23.1887 28.3056 23.2587 28.5356 23.3985L26.3047 25.6294ZM25.7557 17.3635C27.0981 16.0208 29.2823 16.0212 30.6247 17.3632C31.8785 18.617 31.9609 20.6045 30.8733 21.9555C30.8712 21.4707 30.6773 21.0189 30.2999 20.6313C29.8842 20.1348 29.2058 19.8478 28.3355 19.8011C27.2815 19.7438 26.0118 20.0343 24.8318 20.5475C24.5829 19.4156 24.9194 18.1999 25.7557 17.3635ZM11.3228 39.1285L9.85886 40.5928C9.82555 40.6261 9.78745 40.6333 9.76135 40.6333C9.7356 40.6333 9.69749 40.6261 9.66419 40.5928L1.34411 32.2727C1.31046 32.2394 1.3036 32.2013 1.3036 32.1752C1.3036 32.1491 1.31046 32.1113 1.34411 32.078L2.80804 30.6137C2.84134 30.5804 2.87945 30.5732 2.90554 30.5732C2.93163 30.5732 2.9694 30.5804 3.0027 30.6137L11.3228 38.9338C11.3564 38.9671 11.3633 39.0052 11.3633 39.0313C11.3633 39.0574 11.3564 39.0952 11.3228 39.1285V39.1285ZM21.4481 30.8565L20.7099 31.79C20.519 32.0317 20.3123 32.2579 20.0919 32.4684C20.0895 32.4708 20.0868 32.4728 20.0844 32.4752C20.0827 32.477 20.0813 32.4787 20.0796 32.4804C19.3974 33.1289 18.5834 33.6243 17.6866 33.932L13.5235 35.3337C12.9148 35.513 12.3562 35.8446 11.9075 36.2933L11.2167 36.9841L4.95003 30.7174L7.79377 27.8737C7.84012 27.827 7.87926 27.7738 7.90981 27.7158C8.76228 26.0908 10.0916 22.0551 10.7237 19.7665C10.9664 18.8872 11.4649 18.1151 12.1656 17.5335L17.8545 13.0456C17.8583 13.0425 17.8624 13.0394 17.8662 13.036C18.4539 12.5498 18.9384 12.3596 19.4365 12.4194C19.7387 12.4557 20.2152 12.4945 20.8181 12.5443C21.3028 12.5842 21.8552 12.6291 22.4382 12.683L16.8211 18.3001C16.6989 18.4224 16.6302 18.5882 16.6302 18.7609L16.6306 24.4696C16.6306 24.5263 16.6381 24.5829 16.6529 24.6375C16.909 25.5978 17.9771 26.44 18.9384 26.44H18.9597C19.5478 26.44 20.0998 26.212 20.5135 25.798L23.1149 23.1963C23.5413 22.7699 24.0944 22.3788 24.7014 22.053C24.7038 22.052 24.7062 22.0513 24.7086 22.0502C24.7364 22.0379 24.7622 22.0235 24.7872 22.008C25.927 21.4124 27.242 21.0467 28.2654 21.103C28.7646 21.1298 29.1347 21.2627 29.3074 21.4769C29.3222 21.4951 29.338 21.5126 29.3541 21.5291C29.5848 21.7598 29.5841 21.9459 29.558 22.0818C29.5374 22.1872 29.489 22.3026 29.418 22.4224C28.342 21.6269 26.8125 21.7159 25.8381 22.6902L24.9053 23.623C24.5781 23.9505 24.3979 24.3855 24.3979 24.8483C24.3979 25.3111 24.5781 25.7461 24.9053 26.0733L25.3832 26.5512L22.8735 29.0606C22.8557 29.0784 22.8389 29.0973 22.8234 29.1172L21.4498 30.8544C21.4491 30.8551 21.4484 30.8558 21.4481 30.8565V30.8565Z" fill="url(#paint0_linear_381_5611)"/>
<path d="M44.6632 14.5662L33.4221 3.32508C33.2051 3.10776 32.9161 2.98828 32.6091 2.98828C32.3019 2.98828 32.0131 3.1081 31.7958 3.32508L25.6139 9.50695C25.3595 9.76135 25.3595 10.174 25.6139 10.4288C25.8687 10.6832 26.2814 10.6835 26.5361 10.4288L32.6091 4.35574L43.6325 15.3791L23.7717 35.24L21.4573 32.926C21.5514 32.8193 21.6438 32.7108 21.7323 32.5988L22.0877 32.1494C22.3129 32.2109 22.5591 32.1869 22.7777 32.0684C23.3909 31.7374 24.1524 31.7374 24.7652 32.0684C24.9074 32.1453 25.0608 32.1827 25.2126 32.1827C25.4522 32.1827 25.6874 32.0893 25.8663 31.9105L27.3786 30.3981C27.633 30.1437 27.633 29.7311 27.3786 29.4763C27.1239 29.2219 26.7112 29.2219 26.4568 29.4763L25.134 30.7988C24.5706 30.5513 23.9591 30.4651 23.3617 30.5379L23.8225 29.9556L26.7654 27.0126L26.7658 27.0123L29.3881 24.39C30.2042 24.1782 30.9475 23.7538 31.5469 23.1544C33.3974 21.3039 33.3974 18.2922 31.5466 16.4414C29.696 14.5909 26.6848 14.5909 24.8339 16.4417C23.5997 17.676 23.1547 19.5097 23.6446 21.1593C23.0977 21.4903 22.6003 21.8669 22.1931 22.2741L19.5914 24.8765C19.4242 25.044 19.1996 25.136 18.9597 25.136H18.9384C18.5847 25.136 18.0783 24.7409 17.9345 24.3687V22.1093L31.2465 8.79696C32.1165 9.17976 33.1018 9.17976 33.9718 8.79696L39.1913 14.0165C38.8089 14.8868 38.8089 15.8718 39.1913 16.7418L28.6366 27.2962C28.3821 27.551 28.3821 27.9636 28.6366 28.2184C28.7639 28.3454 28.9308 28.4093 29.0976 28.4093C29.2645 28.4093 29.4313 28.3454 29.5587 28.2184L40.303 17.4738C40.5952 17.1812 40.6587 16.7387 40.4609 16.3727C40.1296 15.7599 40.1296 14.9984 40.4606 14.3859C40.659 14.0196 40.5955 13.5767 40.303 13.2845L34.7041 7.68562C34.4112 7.39311 33.969 7.3296 33.6027 7.52735C32.9899 7.85866 32.2284 7.859 31.6156 7.52735C31.2496 7.3296 30.807 7.39311 30.5142 7.68562L17.9342 20.2657V19.0307L24.3313 12.6336C24.5081 12.4568 24.5682 12.1938 24.4854 11.9572C24.4027 11.7207 24.1916 11.5528 23.9426 11.525C22.8547 11.4031 21.7849 11.3152 20.9248 11.2449C20.3354 11.1964 19.8695 11.1583 19.5917 11.1247C18.7355 11.0224 17.9008 11.3173 17.0412 12.0266L11.352 16.5149C11.3482 16.5179 11.3441 16.521 11.3403 16.5245C10.4298 17.2781 9.78195 18.2788 9.46712 19.4194C8.8773 21.5559 7.60288 25.4409 6.79985 27.0236L4.02821 29.7956L3.92487 29.6919C3.65261 29.4197 3.29041 29.2696 2.90554 29.2696C2.52068 29.2696 2.15847 29.4197 1.88622 29.6919L0.422287 31.1562C0.150032 31.4285 0 31.7903 0 32.1752C0 32.5604 0.150032 32.9222 0.422287 33.1945L8.74237 41.5146C9.01463 41.7868 9.37649 41.9369 9.76135 41.9369C10.1466 41.9369 10.5084 41.7868 10.7807 41.5146L12.2446 40.0503C12.5169 39.7784 12.6669 39.4162 12.6669 39.0313C12.6669 38.6465 12.5169 38.2843 12.2449 38.012L12.1385 37.9059L12.8293 37.2152C13.1266 36.9178 13.497 36.6988 13.9008 36.5817C13.9097 36.5793 13.9183 36.5766 13.9272 36.5735L18.1062 35.1662C18.9885 34.8637 19.8022 34.4102 20.5173 33.8297L22.9583 36.2707C23.1757 36.488 23.4644 36.6075 23.7717 36.6075C24.0789 36.6075 24.3673 36.488 24.5847 36.2707L44.6632 16.1925C44.8805 15.9752 45 15.6864 45 15.3791C45 15.0722 44.8805 14.7831 44.6632 14.5662V14.5662ZM26.3047 25.6294L25.8271 25.1515C25.6599 24.9843 25.6599 24.7124 25.8271 24.5448L26.7599 23.612C27.0422 23.3298 27.4129 23.1887 27.7837 23.1887C28.0447 23.1887 28.3056 23.2587 28.5356 23.3985L26.3047 25.6294ZM25.7557 17.3635C27.0981 16.0208 29.2823 16.0212 30.6247 17.3632C31.8785 18.617 31.9609 20.6045 30.8733 21.9555C30.8712 21.4707 30.6773 21.0189 30.2999 20.6313C29.8842 20.1348 29.2058 19.8478 28.3355 19.8011C27.2815 19.7438 26.0118 20.0343 24.8318 20.5475C24.5829 19.4156 24.9194 18.1999 25.7557 17.3635ZM11.3228 39.1285L9.85886 40.5928C9.82555 40.6261 9.78745 40.6333 9.76135 40.6333C9.7356 40.6333 9.69749 40.6261 9.66419 40.5928L1.34411 32.2727C1.31046 32.2394 1.3036 32.2013 1.3036 32.1752C1.3036 32.1491 1.31046 32.1113 1.34411 32.078L2.80804 30.6137C2.84134 30.5804 2.87945 30.5732 2.90554 30.5732C2.93163 30.5732 2.9694 30.5804 3.0027 30.6137L11.3228 38.9338C11.3564 38.9671 11.3633 39.0052 11.3633 39.0313C11.3633 39.0574 11.3564 39.0952 11.3228 39.1285V39.1285ZM21.4481 30.8565L20.7099 31.79C20.519 32.0317 20.3123 32.2579 20.0919 32.4684C20.0895 32.4708 20.0868 32.4728 20.0844 32.4752C20.0827 32.477 20.0813 32.4787 20.0796 32.4804C19.3974 33.1289 18.5834 33.6243 17.6866 33.932L13.5235 35.3337C12.9148 35.513 12.3562 35.8446 11.9075 36.2933L11.2167 36.9841L4.95003 30.7174L7.79377 27.8737C7.84012 27.827 7.87926 27.7738 7.90981 27.7158C8.76228 26.0908 10.0916 22.0551 10.7237 19.7665C10.9664 18.8872 11.4649 18.1151 12.1656 17.5335L17.8545 13.0456C17.8583 13.0425 17.8624 13.0394 17.8662 13.036C18.4539 12.5498 18.9384 12.3596 19.4365 12.4194C19.7387 12.4557 20.2152 12.4945 20.8181 12.5443C21.3028 12.5842 21.8552 12.6291 22.4382 12.683L16.8211 18.3001C16.6989 18.4224 16.6302 18.5882 16.6302 18.7609L16.6306 24.4696C16.6306 24.5263 16.6381 24.5829 16.6529 24.6375C16.909 25.5978 17.9771 26.44 18.9384 26.44H18.9597C19.5478 26.44 20.0998 26.212 20.5135 25.798L23.1149 23.1963C23.5413 22.7699 24.0944 22.3788 24.7014 22.053C24.7038 22.052 24.7062 22.0513 24.7086 22.0502C24.7364 22.0379 24.7622 22.0235 24.7872 22.008C25.927 21.4124 27.242 21.0467 28.2654 21.103C28.7646 21.1298 29.1347 21.2627 29.3074 21.4769C29.3222 21.4951 29.338 21.5126 29.3541 21.5291C29.5848 21.7598 29.5841 21.9459 29.558 22.0818C29.5374 22.1872 29.489 22.3026 29.418 22.4224C28.342 21.6269 26.8125 21.7159 25.8381 22.6902L24.9053 23.623C24.5781 23.9505 24.3979 24.3855 24.3979 24.8483C24.3979 25.3111 24.5781 25.7461 24.9053 26.0733L25.3832 26.5512L22.8735 29.0606C22.8557 29.0784 22.8389 29.0973 22.8234 29.1172L21.4498 30.8544C21.4491 30.8551 21.4484 30.8558 21.4481 30.8565V30.8565Z" stroke="url(#paint1_linear_381_5611)" stroke-width="0.4" mask="url(#path-1-outside-1_381_5611)"/>
</g>
<defs>
<linearGradient id="paint0_linear_381_5611" x1="9.91297e-07" y1="-2.42125" x2="44.8791" y2="45.2637" gradientUnits="userSpaceOnUse">
<stop stop-color="#737C84"/>
<stop offset="0.15625" stop-color="#A2ABB4"/>
<stop offset="0.307292" stop-color="#A2ABB4"/>
<stop offset="0.473958" stop-color="#C31A44"/>
<stop offset="0.671875" stop-color="#0098B7"/>
<stop offset="0.838542" stop-color="#A2ABB4"/>
</linearGradient>
<linearGradient id="paint1_linear_381_5611" x1="9.91297e-07" y1="-2.42125" x2="44.8791" y2="45.2637" gradientUnits="userSpaceOnUse">
<stop stop-color="#737C84"/>
<stop offset="0.15625" stop-color="#A2ABB4"/>
<stop offset="0.307292" stop-color="#A2ABB4"/>
<stop offset="0.473958" stop-color="#C31A44"/>
<stop offset="0.671875" stop-color="#0098B7"/>
<stop offset="0.838542" stop-color="#A2ABB4"/>
</linearGradient>
<clipPath id="clip0_381_5611">
<rect width="45" height="45" fill="white"/>
</clipPath>
</defs>
</svg>
