<svg width="14" height="14" viewBox="0 0 14 14" fill="none" xmlns="http://www.w3.org/2000/svg">
<path d="M8.67244 9.1526C8.23316 8.90512 7.39168 8.36802 6.47661 7.45272C5.56141 6.53731 5.0184 5.68945 4.76696 5.24586L6.24297 3.75042L2.51589 0L0.679769 1.82452C-0.0174716 2.52195 -0.198201 3.58314 0.23008 4.46517C0.883631 5.81111 2.08947 7.8424 4.12275 9.87615C6.15605 11.91 8.18678 13.1162 9.53237 13.7699C9.85118 13.9248 10.1934 14 10.5334 14C11.1337 14 11.7272 13.7653 12.1723 13.3201L14 11.4855L10.1974 7.67567L8.67244 9.1526ZM11.3988 12.5478C11.0307 12.9154 10.4726 13.0114 10.0098 12.7865C8.73968 12.1695 6.82138 11.0296 4.89552 9.10318C2.96969 7.17685 1.83004 5.25802 1.21312 3.98755C0.988203 3.52435 1.0844 2.96575 1.45125 2.59881L2.51107 1.54575L4.70463 3.75305L3.44722 5.02702L3.59896 5.36788C3.62359 5.42327 4.21999 6.74153 5.70382 8.22575C7.18861 9.71092 8.49541 10.295 8.5503 10.3192L8.88646 10.467L10.1844 9.20989L12.4564 11.4862L11.3988 12.5478Z" fill="white"/>
</svg>
