<svg width="35" height="23" viewBox="0 0 35 23" fill="none" xmlns="http://www.w3.org/2000/svg">
<path d="M33.7279 11.4857L28.1818 5.75524C27.9997 5.56704 27.7489 5.46082 27.4871 5.46082H23.943V1.28967C23.943 0.755743 23.5101 0.322876 22.9762 0.322876H5.01923C4.4853 0.322876 4.05244 0.755743 4.05244 1.28967V4.19097H3.32063C2.78671 4.19097 2.35384 4.62383 2.35384 5.15776C2.35384 5.69169 2.78671 6.12456 3.32063 6.12456H4.05244V8.05906H1.9668C1.43287 8.05906 1 8.49192 1 9.02585C1 9.55978 1.43287 9.99265 1.9668 9.99265H4.05244V18.8715C4.05244 19.4054 4.4853 19.8383 5.01923 19.8383H7.07716C7.26459 20.4622 7.60445 21.0339 8.07805 21.5075C8.83228 22.2618 9.8351 22.6772 10.9017 22.6772C11.9684 22.6772 12.9711 22.2618 13.7254 21.5075C14.2047 21.0282 14.5359 20.4563 14.7201 19.8489H23.9527C24.1369 20.4563 24.468 21.0282 24.9473 21.5075C25.7015 22.2618 26.7044 22.6772 27.771 22.6772C28.8376 22.6772 29.8404 22.2618 30.5947 21.5075C31.074 21.0282 31.4051 20.4563 31.5893 19.8489H33.0332C33.5671 19.8489 34 19.4161 34 18.8822V12.1581C34 11.9071 33.9024 11.666 33.7279 11.4857ZM30.7521 11.1913H23.9159V7.39441H27.0773L30.7521 11.1913ZM5.98603 9.99258H11.0181C11.552 9.99258 11.9849 9.55972 11.9849 9.02579C11.9849 8.49186 11.552 8.05899 11.0181 8.05899H5.98603V6.1245H11.7273C12.2612 6.1245 12.6941 5.69163 12.6941 5.1577C12.6941 4.62377 12.2612 4.1909 11.7273 4.1909H5.98603V2.25641H11.7273H22.0093L21.9822 17.9152H14.819C14.6724 17.1616 14.3079 16.4424 13.7254 15.8599C12.9712 15.1056 11.9684 14.6903 10.9017 14.6903C9.8351 14.6903 8.83234 15.1056 8.07805 15.8599C7.51086 16.4271 7.13542 17.1348 6.98402 17.9046H5.98603V9.99258ZM12.3582 20.1403C11.9691 20.5293 11.4518 20.7436 10.9017 20.7436C10.3516 20.7436 9.83433 20.5293 9.44529 20.1403C9.05625 19.7512 8.84201 19.2339 8.84201 18.6838C8.84201 18.1335 9.05625 17.6162 9.44529 17.2272C9.83433 16.8382 10.3516 16.6239 10.9017 16.6239C11.4518 16.6239 11.9691 16.8382 12.3582 17.2272C13.1613 18.0303 13.1613 19.3371 12.3582 20.1403ZM29.2273 20.1403C28.8383 20.5293 28.321 20.7436 27.7709 20.7436C27.2208 20.7436 26.7035 20.5293 26.3144 20.1403C25.5113 19.3371 25.5113 18.0304 26.3144 17.2273C26.7035 16.8382 27.2208 16.624 27.7709 16.624C28.321 16.624 28.8383 16.8382 29.2273 17.2273C29.6163 17.6163 29.8305 18.1336 29.8305 18.6838C29.8306 19.2339 29.6163 19.7512 29.2273 20.1403ZM31.6882 17.9153C31.5416 17.1617 31.1771 16.4425 30.5946 15.8599C29.8403 15.1056 28.8375 14.6903 27.7709 14.6903C26.7042 14.6903 25.7015 15.1056 24.9472 15.8599C24.4336 16.3736 24.0905 16.9936 23.9158 17.6496V13.1249H32.0664V17.9153H31.6882Z" fill="#878787" stroke="white" stroke-width="0.4"/>
</svg>
