<svg width="25" height="25" viewBox="0 0 25 25" fill="none" xmlns="http://www.w3.org/2000/svg">
<path fill-rule="evenodd" clip-rule="evenodd" d="M8.87474 11.982L7.36153 13.4952C5.36688 12.9613 3.2041 13.5092 1.70091 15.0123C-0.189937 16.9031 -0.477295 19.726 0.706558 21.9239C0.816374 22.1277 1.01604 22.2676 1.24509 22.3012C1.47415 22.3347 1.70564 22.2582 1.86932 22.0944L4.61799 19.3458C4.90354 19.0602 5.3682 19.0602 5.65379 19.3458C5.93939 19.6313 5.93939 20.0959 5.65379 20.3815L2.90512 23.1302C2.7414 23.2939 2.66474 23.5254 2.69833 23.7544C2.73198 23.9835 2.87187 24.1831 3.07568 24.2929C5.28182 25.4813 8.1028 25.183 9.98725 23.2986C11.4938 21.792 12.037 19.6281 11.5044 17.638L11.9818 17.1606L18.747 23.926C20.1749 25.354 22.4983 25.3539 23.9262 23.926C25.359 22.4932 25.3581 20.1788 23.9262 18.7469L17.1609 11.9814L17.6381 11.5042C19.6328 12.0381 21.7956 11.4902 23.2988 9.98704C25.1896 8.09624 25.477 5.2734 24.2932 3.07552C24.1833 2.87171 23.9837 2.73176 23.7546 2.69817C23.5256 2.66452 23.2941 2.74123 23.1304 2.90496L20.3817 5.65368C20.0961 5.93932 19.6315 5.93928 19.3459 5.65368C19.0603 5.36817 19.0603 4.90352 19.3459 4.61792L22.0946 1.86925C22.2583 1.70553 22.335 1.47408 22.3014 1.24502C22.2677 1.01597 22.1278 0.816306 21.924 0.70649C19.7179 -0.481857 16.8969 -0.183611 15.0125 1.70079C13.506 3.20735 12.9627 5.37125 13.4953 7.36141L11.9821 8.87462L7.98293 4.87549L8.50085 4.35761C8.83719 4.02128 8.76849 3.45692 8.35979 3.2117L3.18086 0.104331C2.89272 -0.0685226 2.52377 -0.0231607 2.28617 0.214489L0.214561 2.28605C-0.023087 2.52365 -0.0685487 2.89255 0.104404 3.18074L3.21177 8.35967C3.45796 8.77003 4.02233 8.83609 4.35768 8.50074L4.87561 7.98286L8.87474 11.982ZM1.65477 2.91746L2.91758 1.65465L6.80176 3.98515L3.98522 6.80159L1.65477 2.91746ZM5.91142 6.94705L6.94717 5.9113L10.9463 9.91042L9.91054 10.9462L5.91142 6.94705ZM22.8904 22.8903C22.0336 23.7471 20.6395 23.7471 19.7828 22.8903L13.0176 16.1249L16.1252 13.0173L22.8904 19.7827C23.7506 20.6429 23.75 22.0307 22.8904 22.8903ZM3.58218 18.31L1.61482 20.2774C1.20671 18.7826 1.60882 17.1761 2.73671 16.0482C3.93043 14.8545 5.73006 14.4491 7.32139 15.0156C7.58775 15.1103 7.88493 15.0434 8.08488 14.8434L14.8436 8.08476C15.0435 7.88486 15.1105 7.58769 15.0157 7.32128C14.4492 5.7299 14.8546 3.93031 16.0483 2.7366C17.1761 1.60875 18.7828 1.20654 20.2775 1.61475L18.3101 3.58211C17.4535 4.43886 17.4535 5.83283 18.3101 6.68948C19.1669 7.54609 20.5608 7.54613 21.4175 6.68948L23.3848 4.72212C23.793 6.21687 23.3908 7.82343 22.263 8.95128C21.0693 10.1449 19.2697 10.5503 17.6783 9.98386C17.4113 9.88884 17.1143 9.95647 16.9148 10.156L10.1561 16.9147C9.95615 17.1146 9.88915 17.4118 9.98398 17.6782C10.5504 19.2696 10.1451 21.0692 8.9514 22.2629C7.82355 23.3907 6.21694 23.7928 4.72219 23.3847L6.68955 21.4174C7.5462 20.5606 7.5462 19.1667 6.68955 18.31C5.8328 17.4534 4.43884 17.4534 3.58218 18.31ZM16.5116 15.6241C16.2255 15.3381 15.7619 15.3381 15.4758 15.6241C15.1899 15.9101 15.1899 16.3738 15.4759 16.6598L19.9514 21.1355C20.2374 21.4215 20.701 21.4216 20.9871 21.1355C21.2731 20.8495 21.2731 20.3858 20.9871 20.0998L16.5116 15.6241Z" fill="#878787"/>
</svg>
