<svg width="22" height="28" viewBox="0 0 22 28" fill="none" xmlns="http://www.w3.org/2000/svg">
<path fill-rule="evenodd" clip-rule="evenodd" d="M1.41165 0.169006H20.0669C20.3966 0.169451 20.7127 0.300624 20.9458 0.533763C21.1789 0.766902 21.3101 1.08298 21.3106 1.41269V26.2863C21.3101 26.616 21.1789 26.9321 20.9458 27.1652C20.7127 27.3984 20.3966 27.5296 20.0669 27.53H1.41165C1.08194 27.5296 0.765865 27.3984 0.532725 27.1652C0.299586 26.9321 0.168413 26.616 0.167969 26.2863V1.41269C0.168413 1.08298 0.299586 0.766902 0.532725 0.533763C0.765865 0.300624 1.08194 0.169451 1.41165 0.169006ZM1.41165 1.41269V26.2863H20.0681L20.0669 1.41269H1.41165ZM6.93903 11.8932C8.0639 11.1416 9.38639 10.7404 10.7393 10.7404C12.5528 10.7424 14.2914 11.4638 15.5738 12.7461C16.8561 14.0285 17.5775 15.7671 17.5795 17.5806C17.5795 18.9335 17.1783 20.256 16.4267 21.3809C15.6751 22.5057 14.6068 23.3825 13.3569 23.9002C12.107 24.4179 10.7317 24.5534 9.4048 24.2895C8.07792 24.0255 6.85911 23.3741 5.90248 22.4174C4.94585 21.4608 4.29438 20.242 4.03045 18.9151C3.76652 17.5882 3.90198 16.2129 4.4197 14.963C4.93742 13.7131 5.81415 12.6448 6.93903 11.8932ZM7.62998 22.234C8.55033 22.849 9.63237 23.1772 10.7393 23.1772C12.2231 23.1756 13.6456 22.5854 14.6948 21.5362C15.744 20.487 16.3342 19.0644 16.3358 17.5806C16.3358 16.4737 16.0076 15.3917 15.3926 14.4714C14.7777 13.551 13.9036 12.8337 12.881 12.4101C11.8583 11.9865 10.7331 11.8757 9.64743 12.0916C8.5618 12.3076 7.56459 12.8406 6.7819 13.6233C5.9992 14.406 5.46618 15.4032 5.25024 16.4888C5.03429 17.5744 5.14512 18.6997 5.56871 19.7224C5.9923 20.745 6.70963 21.6191 7.62998 22.234ZM10.7393 14.4714C10.1243 14.4714 9.52319 14.6538 9.01188 14.9954C8.50058 15.3371 8.10206 15.8227 7.86674 16.3908C7.63141 16.9589 7.56983 17.5841 7.6898 18.1872C7.80977 18.7903 8.1059 19.3444 8.54073 19.7792C8.97556 20.214 9.52956 20.5101 10.1327 20.6301C10.7358 20.7501 11.361 20.6885 11.9291 20.4532C12.4972 20.2178 12.9828 19.8193 13.3245 19.308C13.6661 18.7967 13.8485 18.1956 13.8485 17.5806C13.8475 16.7563 13.5196 15.9661 12.9367 15.3832C12.3539 14.8003 11.5636 14.4724 10.7393 14.4714ZM10.7393 19.4462C10.3703 19.4462 10.0096 19.3368 9.70284 19.1318C9.39605 18.9268 9.15695 18.6354 9.01575 18.2945C8.87455 17.9537 8.83761 17.5786 8.90959 17.2167C8.98157 16.8548 9.15924 16.5224 9.42014 16.2615C9.68104 16.0006 10.0134 15.8229 10.3753 15.751C10.7372 15.679 11.1123 15.7159 11.4532 15.8571C11.7941 15.9983 12.0854 16.2374 12.2904 16.5442C12.4954 16.851 12.6048 17.2117 12.6048 17.5806C12.6042 18.0752 12.4075 18.5494 12.0578 18.8992C11.7081 19.2489 11.2339 19.4456 10.7393 19.4462ZM12.4667 8.97258C11.9553 9.31422 11.3542 9.49657 10.7393 9.49657C9.91496 9.4956 9.12468 9.16772 8.5418 8.58484C7.95893 8.00196 7.63104 7.21168 7.63007 6.38737C7.63007 5.77243 7.81242 5.1713 8.15406 4.65999C8.49571 4.14868 8.9813 3.75017 9.54943 3.51484C10.1176 3.27951 10.7427 3.21794 11.3458 3.33791C11.949 3.45788 12.503 3.754 12.9378 4.18883C13.3726 4.62366 13.6688 5.17767 13.7887 5.7808C13.9087 6.38392 13.8471 7.00908 13.6118 7.57721C13.3765 8.14534 12.978 8.63094 12.4667 8.97258ZM11.7757 4.83625C11.4689 4.63126 11.1082 4.52185 10.7393 4.52185C10.2447 4.52239 9.77048 4.71911 9.42075 5.06885C9.07101 5.41858 8.87429 5.89277 8.87375 6.38737C8.87375 6.75634 8.98316 7.11702 9.18815 7.4238C9.39313 7.73058 9.68449 7.96969 10.0254 8.11089C10.3662 8.25209 10.7413 8.28903 11.1032 8.21705C11.4651 8.14507 11.7975 7.96739 12.0584 7.70649C12.3193 7.4456 12.497 7.11319 12.5689 6.75132C12.6409 6.38944 12.604 6.01435 12.4628 5.67347C12.3216 5.33259 12.0825 5.04123 11.7757 4.83625Z" fill="#878787"/>
<path fill-rule="evenodd" clip-rule="evenodd" d="M20.0681 0C20.4425 0.000504627 20.8015 0.149473 21.0663 0.414242C21.331 0.67901 21.48 1.03797 21.4805 1.41241V26.2863C21.48 26.6607 21.331 27.0199 21.0663 27.2847C20.8015 27.5494 20.4425 27.6984 20.0681 27.6989H1.41264C1.0382 27.6984 0.67901 27.5494 0.414242 27.2847C0.149473 27.0199 0.000504627 26.6609 1.51056e-07 26.2865L0 1.41263C0.000504627 1.0382 0.149474 0.67901 0.414242 0.414242C0.67901 0.149473 1.03797 0.000504627 1.41241 1.51056e-07L20.0681 0ZM10.7404 10.5714C12.5987 10.5735 14.3802 11.3126 15.6942 12.6266C17.0082 13.9406 17.7473 15.7221 17.7495 17.5804C17.7495 18.9667 17.3384 20.322 16.5682 21.4747C15.798 22.6273 14.7033 23.5257 13.4226 24.0562C12.1418 24.5868 10.7325 24.7256 9.37282 24.4551C8.01317 24.1847 6.76425 23.5171 5.784 22.5368C4.80374 21.5566 4.13618 20.3077 3.86573 18.948C3.59528 17.5884 3.73408 16.179 4.26459 14.8983C4.7951 13.6175 5.69349 12.5228 6.84615 11.7527C7.99881 10.9825 9.35415 10.5714 10.7404 10.5714ZM10.7404 14.3024C11.6095 14.3035 12.4427 14.6491 13.0572 15.2637C13.6717 15.8782 14.0174 16.7113 14.0184 17.5804C14.0184 18.2288 13.8261 18.8627 13.4659 19.4018C13.1057 19.9409 12.5938 20.3611 11.9947 20.6092C11.3957 20.8573 10.7366 20.9222 10.1007 20.7958C9.46481 20.6693 8.8807 20.3571 8.42224 19.8986C7.96378 19.4401 7.65157 18.856 7.52508 18.2201C7.39859 17.5842 7.46351 16.9251 7.71163 16.3261C7.95974 15.7271 8.37991 15.2151 8.919 14.8549C9.45809 14.4947 10.0921 14.3024 10.7404 14.3024ZM10.7401 9.66547C9.871 9.66445 9.03784 9.31877 8.42332 8.70425C7.80881 8.08974 7.46312 7.25657 7.4621 6.38752C7.4621 5.73916 7.65436 5.10516 8.01457 4.56607C8.37478 4.02698 8.88675 3.60681 9.48576 3.3587C10.0848 3.11058 10.7439 3.04566 11.3798 3.17215C12.0157 3.29864 12.5998 3.61085 13.0583 4.06931C13.5167 4.52777 13.8289 5.11188 13.9554 5.74778C14.0819 6.38368 14.017 7.04281 13.7689 7.64181C13.5208 8.24082 13.1006 8.7528 12.5615 9.11301C12.0224 9.47322 11.3884 9.66547 10.7401 9.66547ZM1.41264 0.168953C1.08293 0.169397 0.766849 0.30057 0.53371 0.53371C0.30057 0.766849 0.169397 1.08293 0.168953 1.41263V26.2863C0.169397 26.616 0.30057 26.9321 0.53371 27.1652C0.766849 27.3983 1.08293 27.5295 1.41264 27.53H20.0679C20.3976 27.5295 20.7137 27.3983 20.9468 27.1652C21.1799 26.9321 21.3111 26.616 21.3115 26.2863V1.41263C21.3111 1.08293 21.1799 0.766849 20.9468 0.53371C20.7137 0.30057 20.3976 0.169397 20.0679 0.168953H1.41264ZM1.58159 1.58159V26.1173H19.9001L19.8989 1.58159H1.58159ZM7.72483 22.0935C8.61735 22.6898 9.66665 23.0082 10.7401 23.0082C12.1791 23.0066 13.5588 22.4342 14.5763 21.4167C15.5939 20.3991 16.1663 19.0195 16.1679 17.5804C16.1678 16.507 15.8495 15.4577 15.2531 14.5652C14.6568 13.6726 13.8091 12.9769 12.8173 12.5661C11.8255 12.1553 10.7342 12.0478 9.68138 12.2573C8.62852 12.4667 7.66142 12.9836 6.90235 13.7427C6.14328 14.5018 5.62635 15.4689 5.41693 16.5217C5.2075 17.5746 5.31499 18.6659 5.72579 19.6576C6.13659 20.6494 6.83226 21.4971 7.72483 22.0935ZM16.3368 17.5806C16.3352 19.0644 15.745 20.4869 14.6958 21.5361C13.6466 22.5853 12.224 23.1755 10.7403 23.1772C9.63336 23.1772 8.55132 22.8489 7.63097 22.234C6.71062 21.619 5.99329 20.7449 5.5697 19.7223C5.14611 18.6997 5.03528 17.5744 5.25122 16.4888C5.46717 15.4031 6.00019 14.4059 6.78288 13.6232C7.56558 12.8405 8.56279 12.3075 9.64841 12.0916C10.734 11.8756 11.8593 11.9864 12.882 12.41C13.9046 12.8336 14.7787 13.551 15.3936 14.4713C16.0086 15.3917 16.3368 16.4737 16.3368 17.5806ZM13.8495 17.5806C13.8495 18.1955 13.6671 18.7967 13.3255 19.308C12.9838 19.8193 12.4982 20.2178 11.9301 20.4531C11.362 20.6884 10.7368 20.75 10.1337 20.6301C9.53055 20.5101 8.97654 20.214 8.54171 19.7791C8.10688 19.3443 7.81076 18.7903 7.69079 18.1872C7.57082 17.584 7.63239 16.9589 7.86772 16.3907C8.10305 15.8226 8.50156 15.337 9.01287 14.9954C9.52418 14.6537 10.1253 14.4714 10.7403 14.4714C11.5646 14.4724 12.3548 14.8002 12.9377 15.3831C13.5206 15.966 13.8485 16.7563 13.8495 17.5806ZM10.7401 19.2772C10.4046 19.2771 10.0766 19.1776 9.79769 18.9912C9.51869 18.8048 9.30123 18.5398 9.17282 18.2298C9.04442 17.9198 9.01082 17.5787 9.07628 17.2496C9.14174 16.9205 9.30332 16.6182 9.54059 16.3809C9.77786 16.1437 10.0802 15.9821 10.4093 15.9166C10.7384 15.8512 11.0795 15.8848 11.3895 16.0132C11.6995 16.1416 11.9645 16.359 12.1509 16.638C12.3373 16.917 12.4368 17.2449 12.4368 17.5804C12.4363 18.0303 12.2574 18.4615 11.9393 18.7796C11.6212 19.0977 11.1899 19.2767 10.7401 19.2772ZM12.6058 17.5806C12.6058 17.2116 12.4964 16.8509 12.2914 16.5442C12.0864 16.2374 11.795 15.9983 11.4542 15.8571C11.1133 15.7159 10.7382 15.6789 10.3763 15.7509C10.0144 15.8229 9.68202 16.0006 9.42113 16.2615C9.16023 16.5224 8.98255 16.8548 8.91057 17.2166C8.83859 17.5785 8.87554 17.9536 9.01673 18.2945C9.15793 18.6354 9.39704 18.9267 9.70382 19.1317C10.0106 19.3367 10.3713 19.4461 10.7403 19.4461C11.2349 19.4456 11.709 19.2489 12.0588 18.8991C12.4085 18.5494 12.6052 18.0752 12.6058 17.5806ZM11.6828 4.97667C11.4039 4.79028 11.0759 4.69078 10.7404 4.69075C10.2906 4.69124 9.8593 4.87017 9.5412 5.18826C9.2231 5.50636 9.04418 5.93765 9.04369 6.3875C9.04372 6.72299 9.14322 7.05093 9.32961 7.32988C9.51603 7.60888 9.781 7.82633 10.091 7.95474C10.401 8.08315 10.7421 8.11675 11.0712 8.05129C11.4003 7.98583 11.7026 7.82424 11.9399 7.58697C12.1772 7.3497 12.3388 7.0474 12.4042 6.7183C12.4697 6.3892 12.4361 6.04808 12.3077 5.73807C12.1793 5.42806 11.9618 5.16309 11.6828 4.97667ZM8.87473 6.38732C8.87528 5.89272 9.072 5.41853 9.42173 5.06879C9.77147 4.71906 10.2457 4.52234 10.7403 4.52179C11.1092 4.52179 11.4699 4.63121 11.7767 4.83619C12.0835 5.04118 12.3226 5.33253 12.4638 5.67341C12.605 6.01429 12.6419 6.38939 12.5699 6.75126C12.4979 7.11314 12.3203 7.44554 12.0594 7.70644C11.7985 7.96734 11.4661 8.14501 11.1042 8.217C10.7423 8.28898 10.3672 8.25203 10.0264 8.11084C9.68547 7.96964 9.39412 7.73053 9.18913 7.42375C8.98414 7.11696 8.87473 6.75628 8.87473 6.38732ZM1.41264 1.41263H20.0679L20.0691 26.2863H1.41264V1.41263ZM10.7403 10.7403C9.38738 10.7403 8.06489 11.1415 6.94001 11.8931C5.81514 12.6447 4.93841 13.713 4.42068 14.9629C3.90296 16.2128 3.7675 17.5882 4.03144 18.9151C4.29537 20.2419 4.94684 21.4607 5.90346 22.4174C6.86009 23.374 8.07891 24.0255 9.40578 24.2894C10.7327 24.5533 12.108 24.4179 13.3579 23.9002C14.6078 23.3824 15.6761 22.5057 16.4277 21.3808C17.1793 20.256 17.5805 18.9335 17.5805 17.5806C17.5784 15.7671 16.8571 14.0284 15.5748 12.7461C14.2924 11.4637 12.5538 10.7424 10.7403 10.7403ZM10.7403 9.49652C11.3552 9.49652 11.9563 9.31417 12.4676 8.97253C12.9789 8.63088 13.3775 8.14529 13.6128 7.57716C13.8481 7.00903 13.9097 6.38387 13.7897 5.78074C13.6697 5.17762 13.3736 4.62361 12.9388 4.18878C12.504 3.75395 11.95 3.45782 11.3468 3.33786C10.7437 3.21789 10.1185 3.27946 9.55041 3.51479C8.98228 3.75012 8.49669 4.14863 8.15505 4.65994C7.8134 5.17124 7.63105 5.77238 7.63105 6.38732C7.63202 7.21163 7.95991 8.00191 8.54279 8.58478C9.12567 9.16766 9.91594 9.49555 10.7403 9.49652Z" fill="#878787"/>
</svg>
