<svg width="27" height="22" viewBox="0 0 27 22" fill="none" xmlns="http://www.w3.org/2000/svg">
<path fill-rule="evenodd" clip-rule="evenodd" d="M6.19964 1C9.16293 1 11.3993 2.98476 11.3993 6.45109C11.3993 9.94541 9.16293 11.9023 6.19964 11.9023C3.23635 11.9023 1 9.94541 1 6.45109C1 2.98476 3.23635 1 6.19964 1ZM6.19964 4.01897C5.58465 4.01897 4.96966 4.57814 4.96966 6.45109C4.96966 8.32405 5.58465 8.88321 6.19964 8.88321C6.81463 8.88321 7.42962 8.32405 7.42962 6.45109C7.42962 4.57814 6.81463 4.01897 6.19964 4.01897ZM18.7187 1.27948C18.0741 1.27948 17.4712 1.59786 17.1077 2.13014L6.40943 17.797C5.52527 19.0918 6.45251 20.8478 8.02039 20.8478C8.66494 20.8478 9.26788 20.5294 9.63135 19.9971L20.3296 4.33027C21.2138 3.03547 20.2866 1.27948 18.7187 1.27948ZM20.5414 10.225C17.5783 10.225 15.3418 12.2097 15.3418 15.6762C15.3418 19.1705 17.5781 21.1273 20.5414 21.1273C23.5047 21.1273 25.7411 19.1705 25.7411 15.6762C25.7411 12.2097 23.5046 10.225 20.5414 10.225ZM20.5414 18.1082C19.9264 18.1082 19.3115 17.549 19.3115 15.6761C19.3115 13.8031 19.9264 13.244 20.5414 13.244C21.1564 13.244 21.7714 13.8031 21.7714 15.6761C21.7714 17.549 21.1564 18.1082 20.5414 18.1082Z" fill="#878787"/>
<path d="M20.3296 4.33027L19.6277 3.85093L20.3296 4.33027ZM17.1077 2.13014L16.4058 1.65081L17.1077 2.13014ZM12.2493 6.45109C12.2493 4.53 11.6253 2.93821 10.5117 1.82463C9.4006 0.713522 7.87322 0.15 6.19964 0.15V1.85C7.48935 1.85 8.56178 2.27886 9.30966 3.02672C10.055 3.7721 10.5493 4.90585 10.5493 6.45109H12.2493ZM6.19964 12.7523C7.86994 12.7523 9.39784 12.1978 10.5106 11.0892C11.6262 9.97779 12.2493 8.38463 12.2493 6.45109H10.5493C10.5493 8.01187 10.0541 9.14433 9.31078 9.88491C8.56454 10.6284 7.49263 11.0523 6.19964 11.0523V12.7523ZM0.15 6.45109C0.15 8.38463 0.773046 9.97779 1.88867 11.0892C3.00144 12.1978 4.52934 12.7523 6.19964 12.7523V11.0523C4.90665 11.0523 3.83474 10.6284 3.0885 9.88491C2.34513 9.14433 1.85 8.01187 1.85 6.45109H0.15ZM6.19964 0.15C4.52606 0.15 2.99868 0.713522 1.88755 1.82463C0.773945 2.93821 0.15 4.53 0.15 6.45109H1.85C1.85 4.90585 2.34423 3.7721 3.08962 3.02672C3.8375 2.27886 4.90993 1.85 6.19964 1.85V0.15ZM5.81966 6.45109C5.81966 5.58478 5.96586 5.15987 6.07749 4.97889C6.15779 4.8487 6.19543 4.86897 6.19964 4.86897V3.16897C5.58886 3.16897 5.01151 3.46883 4.63057 4.08646C4.28096 4.6533 4.11966 5.44445 4.11966 6.45109H5.81966ZM6.19964 8.03321C6.19543 8.03321 6.15779 8.05348 6.07749 7.92329C5.96586 7.74231 5.81966 7.31741 5.81966 6.45109H4.11966C4.11966 7.45774 4.28096 8.24889 4.63057 8.81572C5.01151 9.43335 5.58886 9.73321 6.19964 9.73321V8.03321ZM6.57962 6.45109C6.57962 7.31741 6.43342 7.74231 6.32179 7.92329C6.24149 8.05348 6.20385 8.03321 6.19964 8.03321V9.73321C6.81042 9.73321 7.38777 9.43335 7.76871 8.81573C8.11832 8.24889 8.27962 7.45774 8.27962 6.45109H6.57962ZM6.19964 4.86897C6.20385 4.86897 6.24149 4.8487 6.32179 4.97889C6.43342 5.15988 6.57962 5.58478 6.57962 6.45109H8.27962C8.27962 5.44445 8.11832 4.6533 7.76871 4.08646C7.38777 3.46883 6.81042 3.16897 6.19964 3.16897V4.86897ZM7.11139 18.2763L17.8097 2.60948L16.4058 1.65081L5.70748 17.3177L7.11139 18.2763ZM19.6277 3.85093L8.9294 19.5178L10.3333 20.4764L21.0316 4.8096L19.6277 3.85093ZM16.1918 15.6762C16.1918 14.1309 16.6861 12.9971 17.4315 12.2517C18.1794 11.5038 19.2518 11.075 20.5414 11.075V9.37498C18.8679 9.37498 17.3405 9.9385 16.2294 11.0496C15.1158 12.1632 14.4918 13.755 14.4918 15.6762H16.1918ZM20.5414 20.2773C19.2484 20.2773 18.1765 19.8534 17.4303 19.1099C16.6869 18.3694 16.1918 17.237 16.1918 15.6762H14.4918C14.4918 17.6097 15.1148 19.2029 16.2305 20.3143C17.3432 21.4229 18.8712 21.9773 20.5414 21.9773V20.2773ZM24.8911 15.6762C24.8911 17.237 24.3959 18.3694 23.6526 19.1099C22.9064 19.8534 21.8344 20.2773 20.5414 20.2773V21.9773C22.2117 21.9773 23.7396 21.4229 24.8524 20.3143C25.968 19.2029 26.5911 17.6097 26.5911 15.6762H24.8911ZM20.5414 11.075C21.8311 11.075 22.9035 11.5038 23.6514 12.2517C24.3968 12.9971 24.8911 14.1309 24.8911 15.6762H26.5911C26.5911 13.755 25.9671 12.1632 24.8535 11.0496C23.7423 9.9385 22.2149 9.37498 20.5414 9.37498V11.075ZM18.4615 15.6761C18.4615 16.6827 18.6228 17.4739 18.9724 18.0407C19.3533 18.6583 19.9307 18.9582 20.5414 18.9582V17.2582C20.5372 17.2582 20.4996 17.2785 20.4193 17.1483C20.3077 16.9673 20.1615 16.5424 20.1615 15.6761H18.4615ZM20.5414 12.394C19.9307 12.394 19.3533 12.6938 18.9724 13.3114C18.6228 13.8783 18.4615 14.6694 18.4615 15.6761H20.1615C20.1615 14.8098 20.3077 14.3849 20.4193 14.2039C20.4996 14.0737 20.5372 14.094 20.5414 14.094V12.394ZM22.6214 15.6761C22.6214 14.6694 22.4601 13.8783 22.1105 13.3114C21.7296 12.6938 21.1522 12.394 20.5414 12.394V14.094C20.5456 14.094 20.5833 14.0737 20.6636 14.2039C20.7752 14.3849 20.9214 14.8098 20.9214 15.6761H22.6214ZM20.5414 18.9582C21.1522 18.9582 21.7296 18.6583 22.1105 18.0407C22.4601 17.4739 22.6214 16.6827 22.6214 15.6761H20.9214C20.9214 16.5424 20.7752 16.9673 20.6636 17.1483C20.5833 17.2785 20.5456 17.2582 20.5414 17.2582V18.9582ZM21.0316 4.8096C22.301 2.95061 20.9697 0.42948 18.7187 0.42948V2.12948C19.6034 2.12948 20.1266 3.12032 19.6277 3.85093L21.0316 4.8096ZM8.02039 21.6978C8.94579 21.6978 9.81145 21.2407 10.3333 20.4764L8.9294 19.5178C8.7243 19.8181 8.38409 19.9978 8.02039 19.9978V21.6978ZM17.8097 2.60948C18.0148 2.30913 18.355 2.12948 18.7187 2.12948V0.42948C17.7933 0.42948 16.9276 0.886589 16.4058 1.65081L17.8097 2.60948ZM5.70748 17.3177C4.43805 19.1766 5.76933 21.6978 8.02039 21.6978V19.9978C7.13569 19.9978 6.61248 19.0069 7.11139 18.2763L5.70748 17.3177Z" fill="white"/>
</svg>
