<svg width="27" height="27" viewBox="0 0 27 27" fill="none" xmlns="http://www.w3.org/2000/svg">
<path d="M25.5043 11.2409C24.9652 10.9077 24.3652 10.8399 23.8359 10.892V10.3359C23.8359 4.65122 19.184 0 13.5 0C7.81529 0 3.16406 4.65191 3.16406 10.3359V10.892C2.63482 10.8399 2.0347 10.9077 1.49571 11.2409C0.503191 11.8543 0 13.1466 0 15.082C0 17.0207 0.504141 18.3199 1.49845 18.9437C1.99236 19.2535 2.56917 19.3612 3.16406 19.31V19.8809C3.16406 20.3177 3.51823 20.6719 3.95508 20.6719H7.11914C7.55599 20.6719 7.91016 20.3177 7.91016 19.8809V10.3359C7.91016 9.89909 7.55599 9.54492 7.11914 9.54492H4.78222C5.18342 5.08734 8.93974 1.58203 13.5 1.58203C18.0603 1.58203 21.8166 5.08734 22.2178 9.54492H19.8809C19.444 9.54492 19.0898 9.89909 19.0898 10.3359V19.8809C19.0898 20.3177 19.444 20.6719 19.8809 20.6719H22.2539V21.4629C22.2539 22.7714 21.1894 23.8359 19.8809 23.8359H17.319C16.9925 22.9153 16.1133 22.2539 15.082 22.2539H13.5C12.1915 22.2539 11.127 23.3185 11.127 24.627C11.127 25.9355 12.1915 27 13.5 27H15.082C16.1133 27 16.9925 26.3386 17.319 25.418H19.8809C22.0617 25.418 23.8359 23.6437 23.8359 21.4629C23.8359 20.4994 23.8359 19.9352 23.8359 19.31C24.4309 19.3611 25.0077 19.2534 25.5016 18.9436C26.4959 18.3199 27 17.0207 27 15.082C27 13.1466 26.4968 11.8543 25.5043 11.2409ZM3.16406 17.7177C2.91168 17.7617 2.59622 17.7647 2.33919 17.6035C1.85092 17.2972 1.58203 16.4017 1.58203 15.082C1.58203 13.775 1.84491 12.8899 2.32221 12.5899C2.58029 12.4276 2.90545 12.4391 3.16406 12.4902V17.7177ZM6.32812 11.127V19.0898H4.74609V11.127H6.32812ZM15.082 25.418H13.5C13.0638 25.418 12.709 25.0631 12.709 24.627C12.709 24.1908 13.0638 23.8359 13.5 23.8359H15.082C15.5182 23.8359 15.873 24.1908 15.873 24.627C15.873 25.0631 15.5182 25.418 15.082 25.418ZM22.2539 19.0898H20.6719V11.127H22.2539V19.0898ZM24.6665 17.5999C24.4108 17.7632 24.0919 17.76 23.8359 17.7156V12.4902C24.0945 12.4392 24.4197 12.4276 24.6778 12.5899C25.1551 12.8899 25.418 13.775 25.418 15.082C25.418 16.3963 25.151 17.2905 24.6665 17.5999Z" fill="#878787"/>
</svg>
