<svg width="27" height="27" viewBox="0 0 27 27" fill="none" xmlns="http://www.w3.org/2000/svg">
<path fill-rule="evenodd" clip-rule="evenodd" d="M17.7913 0.793441L22.8761 5.60398C23.4526 6.14936 23.7832 6.91733 23.7832 7.71093V24.0996C23.7832 25.6989 22.4821 27 20.8828 27H6.11719C4.51791 27 3.2168 25.6989 3.2168 24.0996V2.90039C3.2168 1.30112 4.51791 0 6.11719 0H15.798C16.5425 0 17.2504 0.28176 17.7913 0.793441ZM17.4023 6.32812H21.3395L17.1387 2.35385V6.06445C17.1387 6.20984 17.257 6.32812 17.4023 6.32812ZM6.11719 25.418H20.8828C21.6098 25.418 22.2012 24.8266 22.2012 24.0996V7.91016H17.4023C16.3846 7.91016 15.5566 7.08217 15.5566 6.06445V1.58203H6.11719C5.39024 1.58203 4.79883 2.17345 4.79883 2.90039V24.0996C4.79883 24.8266 5.39024 25.418 6.11719 25.418ZM7.54102 10.5469H19.1426C19.5794 10.5469 19.9336 10.901 19.9336 11.3379C19.9336 11.7747 19.5794 12.1289 19.1426 12.1289H7.54102C7.10416 12.1289 6.75 11.7747 6.75 11.3379C6.75 10.901 7.10416 10.5469 7.54102 10.5469ZM19.1426 14.7656H7.54102C7.10416 14.7656 6.75 15.1198 6.75 15.5566C6.75 15.9935 7.10416 16.3477 7.54102 16.3477H19.1426C19.5794 16.3477 19.9336 15.9935 19.9336 15.5566C19.9336 15.1198 19.5794 14.7656 19.1426 14.7656ZM7.54102 18.9844H11.3759C11.8127 18.9844 12.1669 19.3385 12.1669 19.7754C12.1669 20.2122 11.8127 20.5664 11.3759 20.5664H7.54102C7.10416 20.5664 6.75 20.2122 6.75 19.7754C6.75 19.3385 7.10416 18.9844 7.54102 18.9844Z" fill="#878787"/>
</svg>
