<svg width="19" height="19" viewBox="0 0 19 19" fill="none" xmlns="http://www.w3.org/2000/svg">
<g clip-path="url(#clip0_371_6457)">
<path d="M6.04575 17.2706H4.31641V19H6.04575V17.2706Z" fill="#EDC867"/>
<path d="M14.6903 17.2706H12.9609V19H14.6903V17.2706Z" fill="#EDC867"/>
<path d="M6.09962 13.8781C6.05852 13.8781 5.9893 13.8172 5.98403 13.7759L4.43477 1.61306C4.31966 0.709254 3.5169 0 2.6052 0H0.855469V1.72934H2.6052C2.64512 1.72934 2.71406 1.79026 2.71933 1.8316L4.26859 13.9944C4.38386 14.8995 5.18812 15.6075 6.09966 15.6075H14.6901V13.8781H6.09962Z" fill="#EDC867"/>
<path d="M15.9318 3.4408H3.32031V5.17013H15.9318C16.3223 5.17013 16.4838 5.3798 16.3848 5.75492L15.4257 9.38747C15.2821 9.93136 14.6558 10.4137 14.0941 10.4137H7.77217V12.1431H14.0941C15.4408 12.1431 16.7537 11.1319 17.0977 9.82894L18.0568 6.19638C18.4455 4.72437 17.4567 3.4408 15.9318 3.4408Z" fill="#EDC867"/>
</g>
<defs>
<clipPath id="clip0_371_6457">
<rect width="19" height="19" fill="white"/>
</clipPath>
</defs>
</svg>
