<svg width="23" height="22" viewBox="0 0 23 22" fill="none" xmlns="http://www.w3.org/2000/svg">
<path d="M21.7733 13.2841C21.9279 12.5829 22.0099 11.8582 22.0099 11.1126C22.0099 5.52541 17.4169 0.994993 11.7497 0.994993C11.1521 0.994993 10.5658 1.04609 9.99573 1.14291C9.07887 0.572819 7.99378 0.242065 6.83079 0.242065C3.54341 0.242065 0.879883 2.86926 0.879883 6.11093C0.879883 7.19328 1.17903 8.20703 1.69735 9.079C1.56089 9.73578 1.48962 10.4161 1.48962 11.1126C1.48962 16.7018 6.08259 21.0635 11.7491 21.0635C12.3911 21.0635 13.019 21.005 13.6274 20.8941C14.4657 21.3378 15.4231 21.758 16.4409 21.758C19.7276 21.758 22.3911 19.1314 22.3911 15.8898C22.3911 14.9547 22.1686 14.0693 21.7733 13.2841Z" fill="#00AFF0"/>
<path d="M16.4289 15.2423C16.0329 15.805 15.4534 16.2474 14.6904 16.5653C13.9274 16.886 13.0239 17.0447 11.9785 17.0447C10.7248 17.0447 9.69078 16.8268 8.8753 16.3905C8.29849 16.0773 7.82862 15.6578 7.46692 15.1347C7.10655 14.6117 6.92578 14.1021 6.92578 13.6066C6.92578 13.3203 7.03404 13.0742 7.25048 12.8705C7.46692 12.6641 7.74325 12.5626 8.0774 12.5626C8.349 12.5626 8.57955 12.6413 8.76645 12.802C8.95468 12.9613 9.11537 13.1972 9.24711 13.5112C9.40913 13.8843 9.58326 14.1956 9.77215 14.4449C9.95906 14.6943 10.2239 14.9014 10.5641 15.0634C10.9056 15.2241 11.354 15.3061 11.9079 15.3061C12.6703 15.3061 13.2901 15.1434 13.7674 14.8159C14.2433 14.4899 14.4827 14.0805 14.4827 13.5917C14.4827 13.2045 14.3536 12.8878 14.0968 12.6478C13.8393 12.4058 13.5072 12.2209 13.0998 12.0939C12.693 11.9655 12.1485 11.8297 11.4655 11.6865C10.5532 11.4909 9.78884 11.2596 9.17445 10.9975C8.55932 10.7332 8.06994 10.3749 7.70958 9.92117C7.34788 9.4654 7.1677 8.9007 7.1677 8.22642C7.1677 7.58241 7.35792 7.01166 7.73978 6.51217C8.12097 6.01202 8.67156 5.62817 9.39488 5.35922C10.1169 5.09035 10.9667 4.95654 11.9421 4.95654C12.7219 4.95654 13.3969 5.04597 13.9663 5.22276C14.5357 5.40161 15.007 5.63821 15.382 5.93337C15.7578 6.22853 16.0328 6.53772 16.2056 6.86242C16.379 7.18512 16.4657 7.50377 16.4657 7.8103C16.4657 8.09195 16.3581 8.34745 16.1417 8.57268C15.9253 8.79857 15.655 8.91215 15.3316 8.91215C15.0364 8.91215 14.8126 8.84354 14.6593 8.70848C14.506 8.57268 14.34 8.35085 14.1618 8.04225C13.9299 7.60124 13.6536 7.25705 13.3296 7.01033C13.0055 6.76295 12.4866 6.63926 11.7699 6.63926C11.1064 6.63926 10.5699 6.7724 10.1625 7.04194C9.75509 7.30948 9.55076 7.63351 9.55076 8.01064C9.55076 8.24325 9.62136 8.44626 9.75916 8.61632C9.89695 8.78772 10.0879 8.93231 10.3319 9.054C10.5732 9.17637 10.8193 9.27185 11.0673 9.34237C11.3154 9.41164 11.7262 9.51177 12.2989 9.64491C13.0142 9.79888 13.6629 9.96961 14.2438 10.1552C14.824 10.3414 15.3188 10.568 15.7262 10.8321C16.1329 11.0983 16.4515 11.4358 16.6794 11.8432C16.9073 12.2493 17.0223 12.7474 17.0223 13.3377C17.0225 14.0437 16.8236 14.679 16.4289 15.2423Z" fill="white"/>
</svg>
