<svg width="120" height="120" viewBox="0 0 120 120" fill="none" xmlns="http://www.w3.org/2000/svg">
<g filter="url(#filter0_d_371_6095)">
<path d="M80 56C80 44.9543 71.0457 36 60 36C48.9543 36 40 44.9543 40 56C40 67.0457 48.9543 76 60 76C71.0457 76 80 67.0457 80 56Z" fill="white"/>
</g>
<path fill-rule="evenodd" clip-rule="evenodd" d="M69.7875 56.2273C69.7875 55.5182 69.7239 54.8364 69.6057 54.1818H60.1875V58.05H65.5693C65.3375 59.3 64.633 60.3591 63.5739 61.0682V63.5773H66.8057C68.6966 61.8364 69.7875 59.2727 69.7875 56.2273Z" fill="#4285F4"/>
<path fill-rule="evenodd" clip-rule="evenodd" d="M60.1864 66C62.8864 66 65.15 65.1045 66.8046 63.5772L63.5728 61.0682C62.6773 61.6682 61.5318 62.0227 60.1864 62.0227C57.5818 62.0227 55.3773 60.2636 54.5909 57.9H51.25V60.4909C52.8955 63.7591 56.2773 66 60.1864 66Z" fill="#34A853"/>
<path fill-rule="evenodd" clip-rule="evenodd" d="M54.5921 57.9C54.3921 57.3 54.2784 56.659 54.2784 56C54.2784 55.3409 54.3921 54.6999 54.5921 54.0999V51.509H51.2511C50.5739 52.859 50.1875 54.3863 50.1875 56C50.1875 57.6136 50.5739 59.1409 51.2511 60.4909L54.5921 57.9Z" fill="#FBBC05"/>
<path fill-rule="evenodd" clip-rule="evenodd" d="M60.1864 49.9773C61.6546 49.9773 62.9728 50.4818 64.0091 51.4727L66.8773 48.6046C65.1455 46.9909 62.8818 46 60.1864 46C56.2773 46 52.8955 48.2409 51.25 51.5091L54.5909 54.1C55.3773 51.7364 57.5818 49.9773 60.1864 49.9773Z" fill="#EA4335"/>
<defs>
<filter id="filter0_d_371_6095" x="0" y="0" width="120" height="120" filterUnits="userSpaceOnUse" color-interpolation-filters="sRGB">
<feFlood flood-opacity="0" result="BackgroundImageFix"/>
<feColorMatrix in="SourceAlpha" type="matrix" values="0 0 0 0 0 0 0 0 0 0 0 0 0 0 0 0 0 0 127 0" result="hardAlpha"/>
<feOffset dy="4"/>
<feGaussianBlur stdDeviation="20"/>
<feComposite in2="hardAlpha" operator="out"/>
<feColorMatrix type="matrix" values="0 0 0 0 0 0 0 0 0 0 0 0 0 0 0 0 0 0 0.1 0"/>
<feBlend mode="normal" in2="BackgroundImageFix" result="effect1_dropShadow_371_6095"/>
<feBlend mode="normal" in="SourceGraphic" in2="effect1_dropShadow_371_6095" result="shape"/>
</filter>
</defs>
</svg>
