<svg width="120" height="120" viewBox="0 0 120 120" fill="none" xmlns="http://www.w3.org/2000/svg">
<g filter="url(#filter0_d_371_6087)">
<rect x="40" y="36" width="40" height="40" rx="20" fill="#27A6E5"/>
</g>
<path d="M68 48.6022L64.9946 64.2923C64.9946 64.2923 64.5741 65.3801 63.4189 64.8584L56.4846 59.3526L56.4524 59.3364C57.3891 58.4654 64.6524 51.7027 64.9698 51.3961C65.4613 50.9214 65.1562 50.6387 64.5856 50.9974L53.8568 58.053L49.7176 56.6108C49.7176 56.6108 49.0663 56.3708 49.0036 55.8491C48.9401 55.3265 49.7391 55.0439 49.7391 55.0439L66.6131 48.1889C66.6131 48.1889 68 47.5579 68 48.6022Z" fill="#FEFEFE"/>
<defs>
<filter id="filter0_d_371_6087" x="0" y="0" width="120" height="120" filterUnits="userSpaceOnUse" color-interpolation-filters="sRGB">
<feFlood flood-opacity="0" result="BackgroundImageFix"/>
<feColorMatrix in="SourceAlpha" type="matrix" values="0 0 0 0 0 0 0 0 0 0 0 0 0 0 0 0 0 0 127 0" result="hardAlpha"/>
<feOffset dy="4"/>
<feGaussianBlur stdDeviation="20"/>
<feComposite in2="hardAlpha" operator="out"/>
<feColorMatrix type="matrix" values="0 0 0 0 0 0 0 0 0 0 0 0 0 0 0 0 0 0 0.1 0"/>
<feBlend mode="normal" in2="BackgroundImageFix" result="effect1_dropShadow_371_6087"/>
<feBlend mode="normal" in="SourceGraphic" in2="effect1_dropShadow_371_6087" result="shape"/>
</filter>
</defs>
</svg>
