<svg width="45" height="45" viewBox="0 0 45 45" fill="none" xmlns="http://www.w3.org/2000/svg">
<g clip-path="url(#clip0_381_5543)">
<path d="M36.1637 37.3108L36.1637 37.3108C36.0658 36.8184 36.3853 36.3397 36.8778 36.2415C36.8779 36.2415 36.8779 36.2415 36.878 36.2415L36.9268 36.4866C37.2839 36.4152 37.6311 36.6473 37.7021 37.0045L36.1637 37.3108ZM36.1637 37.3108L37.1303 42.1654C37.1456 42.282 37.1602 42.466 37.1397 42.6559C37.1183 42.8535 37.062 43.0284 36.9588 43.1473L36.9587 43.1473C36.7832 43.3495 36.4916 43.4293 35.7879 43.4374C35.5558 43.4401 35.2777 43.4351 34.9536 43.4292C34.4136 43.4194 33.7459 43.4073 32.951 43.4248V37.4668C32.951 36.9645 32.5439 36.5574 32.0416 36.5574C31.5393 36.5574 31.1323 36.9645 31.1323 37.4668V43.4313H19.089C18.5868 43.4313 18.1797 43.8383 18.1797 44.3406C18.1797 44.8429 18.5868 45.25 19.089 45.25H36.0073C36.9989 45.25 37.7961 44.9567 38.3318 44.3398C38.938 43.6418 39.07 42.59 38.9193 41.8371L37.9473 36.9557L36.1637 37.3108Z" fill="url(#paint0_linear_381_5543)" stroke="url(#paint1_linear_381_5543)" stroke-width="0.5"/>
<mask id="path-2-outside-1_381_5543" maskUnits="userSpaceOnUse" x="5.27734" y="-0.999969" width="33" height="47" fill="black">
<rect fill="white" x="5.27734" y="-0.999969" width="33" height="47"/>
<path d="M37.1043 33.9866C36.7526 32.6676 36.8759 30.9579 35.1693 29.6212C34.1945 28.8596 33.894 28.9121 28.3017 27.2625L26.5684 26.0903V24.9976C29.7307 23.2818 31.2505 20.2396 31.2505 17.2562V17.1344C33.4091 16.7353 34.4632 14.5628 33.2602 12.9365C33.2609 12.9267 33.2955 10.4926 33.1862 9.46968C32.0812 0.154262 20.3702 -3.25853 14.4244 3.66812C14.1845 3.94199 14.2118 4.35859 14.4857 4.59853C14.7597 4.83847 15.1762 4.81105 15.4162 4.53727C20.3169 -1.12578 29.6389 1.10348 31.605 8.23922L31.6157 8.27877C32.06 9.92004 31.9153 11.0621 31.9437 11.9292C31.5532 11.7683 31.1193 11.6751 30.6618 11.6663C30.189 11.4075 29.787 10.9595 29.5717 10.3689C29.4612 10.044 29.419 9.8782 29.3859 9.33205C29.3728 8.81639 29.1371 8.33036 28.7394 7.99849C27.3634 6.85037 26.1844 8.60994 18.7232 7.73561L17.7295 7.59744C16.6569 7.43045 15.6643 8.23561 15.6358 9.33802C15.6206 9.65645 15.6027 9.85078 15.5048 10.2048C15.2883 10.9294 14.8599 11.295 14.8902 11.2635C14.7219 11.4331 14.5371 11.5699 14.3603 11.6663C13.9026 11.6751 13.4685 11.7682 13.0779 11.9293C13.0808 10.0038 13.0885 8.74696 13.8687 6.96815C14.0149 6.63469 13.8632 6.24577 13.5296 6.09952C13.1962 5.95336 12.8073 6.10506 12.661 6.43861C12.1304 7.64868 11.8277 8.94146 11.7697 10.2883C11.7697 10.2972 11.7487 12.7591 11.7616 12.9367C10.5543 14.5688 11.6185 16.7367 13.7717 17.1346C13.8125 22.8931 18.3479 24.91 18.4151 24.9768C18.4208 24.98 18.4267 24.9831 18.4324 24.9862V26.1006L16.7258 27.2547C11.6025 28.7659 11.1562 28.8946 11.0956 28.9172C9.6606 29.4523 8.5726 30.595 8.24468 32.2382C6.23726 42.3221 6.32234 41.8884 6.31751 41.9224C6.06526 43.7046 7.00657 44.9999 8.99069 44.9999H16.0151C16.3793 44.9999 16.6744 44.7048 16.6744 44.3406C16.6744 43.9764 16.3793 43.6812 16.0151 43.6812H13.6394V37.4668C13.6394 37.1026 13.3443 36.8075 12.98 36.8075C12.6158 36.8075 12.3207 37.1026 12.3207 37.4668V43.6813H8.99061C7.92318 43.6813 7.47467 43.2136 7.62092 42.1245C9.70683 31.9822 9.41863 31.93 10.2799 30.9953C10.6226 30.6229 11.0631 30.3403 11.5361 30.1603C16.364 28.7362 16.573 28.6746 16.5756 28.6738C16.577 28.6734 16.58 28.6725 16.5862 28.6707C17.8572 32.2048 17.7716 32.0548 17.8959 32.2727C18.2371 32.8709 19.0184 33.1592 19.7528 32.7346C19.9323 32.6635 21.4862 32.0475 21.7144 31.957V37.4667C21.7144 37.8309 22.0096 38.126 22.3738 38.126C22.738 38.126 23.0331 37.8309 23.0331 37.4667V31.9273C25.8913 32.9658 25.0761 32.658 25.4124 32.8157C26.1026 33.139 26.953 32.8097 27.2211 32.058L28.4285 28.6746C34.2433 30.3898 32.7452 29.955 32.9969 30.0222C33.0501 30.054 35.0396 30.374 35.4628 32.4955L35.8109 34.244C35.882 34.6012 36.2292 34.8331 36.5863 34.7619C36.9436 34.6908 37.1753 34.3437 37.1043 33.9866ZM31.2505 13.0779C32.8419 13.5512 32.8409 15.3086 31.2505 15.7818V13.0779ZM13.7719 15.7819C12.1803 15.3087 12.1806 13.5509 13.7719 13.0778V15.7819ZM15.6086 19.9859C14.9381 18.2942 15.0906 17.3942 15.0906 12.7679C16.1387 12.1498 16.9129 10.9765 16.9547 9.36553C16.9622 9.06846 17.2384 8.85515 17.5262 8.90033L17.7287 8.93109C18.3561 8.96124 21.6018 9.72993 27.4958 8.90042C27.6382 8.87836 27.784 8.91852 27.8948 9.0109C28.0557 9.14528 28.0628 9.29364 28.0703 9.42161C28.1123 10.5893 28.5431 11.6421 29.406 12.3887L29.4012 12.3847C29.5231 12.4946 29.7375 12.6539 29.9315 12.7677C29.9315 12.79 29.9318 17.1747 29.9318 17.2563C29.9318 22.5751 24.3417 26.4519 19.1057 23.8508C19.1028 23.8494 19.0989 23.8473 19.0949 23.8455C19.0949 23.8454 19.0949 23.8454 19.0948 23.8454C17.5579 23.0469 16.2824 21.6923 15.6086 19.9859ZM19.0471 31.6207C19.0283 31.619 19.092 31.7508 17.7919 28.1257L18.9456 27.3456L21.3452 30.685C19.0807 31.5916 19.1755 31.5255 19.0471 31.6207ZM22.3946 29.8855L19.7514 26.207V25.5485C21.1918 26.0248 22.3669 25.9869 22.4473 25.9942V25.9885C22.4512 25.9885 22.4552 25.9888 22.4592 25.9888L22.4593 25.9943C23.683 25.9733 24.3924 25.8373 25.2496 25.5558V26.214L22.3946 29.8855ZM25.9778 31.6182C25.963 31.6315 25.9389 31.5798 25.7984 31.5287C25.6179 31.4631 23.7283 30.777 23.4505 30.6761L26.0509 27.3322L27.2242 28.1257L25.9778 31.6182Z"/>
</mask>
<path d="M37.1043 33.9866C36.7526 32.6676 36.8759 30.9579 35.1693 29.6212C34.1945 28.8596 33.894 28.9121 28.3017 27.2625L26.5684 26.0903V24.9976C29.7307 23.2818 31.2505 20.2396 31.2505 17.2562V17.1344C33.4091 16.7353 34.4632 14.5628 33.2602 12.9365C33.2609 12.9267 33.2955 10.4926 33.1862 9.46968C32.0812 0.154262 20.3702 -3.25853 14.4244 3.66812C14.1845 3.94199 14.2118 4.35859 14.4857 4.59853C14.7597 4.83847 15.1762 4.81105 15.4162 4.53727C20.3169 -1.12578 29.6389 1.10348 31.605 8.23922L31.6157 8.27877C32.06 9.92004 31.9153 11.0621 31.9437 11.9292C31.5532 11.7683 31.1193 11.6751 30.6618 11.6663C30.189 11.4075 29.787 10.9595 29.5717 10.3689C29.4612 10.044 29.419 9.8782 29.3859 9.33205C29.3728 8.81639 29.1371 8.33036 28.7394 7.99849C27.3634 6.85037 26.1844 8.60994 18.7232 7.73561L17.7295 7.59744C16.6569 7.43045 15.6643 8.23561 15.6358 9.33802C15.6206 9.65645 15.6027 9.85078 15.5048 10.2048C15.2883 10.9294 14.8599 11.295 14.8902 11.2635C14.7219 11.4331 14.5371 11.5699 14.3603 11.6663C13.9026 11.6751 13.4685 11.7682 13.0779 11.9293C13.0808 10.0038 13.0885 8.74696 13.8687 6.96815C14.0149 6.63469 13.8632 6.24577 13.5296 6.09952C13.1962 5.95336 12.8073 6.10506 12.661 6.43861C12.1304 7.64868 11.8277 8.94146 11.7697 10.2883C11.7697 10.2972 11.7487 12.7591 11.7616 12.9367C10.5543 14.5688 11.6185 16.7367 13.7717 17.1346C13.8125 22.8931 18.3479 24.91 18.4151 24.9768C18.4208 24.98 18.4267 24.9831 18.4324 24.9862V26.1006L16.7258 27.2547C11.6025 28.7659 11.1562 28.8946 11.0956 28.9172C9.6606 29.4523 8.5726 30.595 8.24468 32.2382C6.23726 42.3221 6.32234 41.8884 6.31751 41.9224C6.06526 43.7046 7.00657 44.9999 8.99069 44.9999H16.0151C16.3793 44.9999 16.6744 44.7048 16.6744 44.3406C16.6744 43.9764 16.3793 43.6812 16.0151 43.6812H13.6394V37.4668C13.6394 37.1026 13.3443 36.8075 12.98 36.8075C12.6158 36.8075 12.3207 37.1026 12.3207 37.4668V43.6813H8.99061C7.92318 43.6813 7.47467 43.2136 7.62092 42.1245C9.70683 31.9822 9.41863 31.93 10.2799 30.9953C10.6226 30.6229 11.0631 30.3403 11.5361 30.1603C16.364 28.7362 16.573 28.6746 16.5756 28.6738C16.577 28.6734 16.58 28.6725 16.5862 28.6707C17.8572 32.2048 17.7716 32.0548 17.8959 32.2727C18.2371 32.8709 19.0184 33.1592 19.7528 32.7346C19.9323 32.6635 21.4862 32.0475 21.7144 31.957V37.4667C21.7144 37.8309 22.0096 38.126 22.3738 38.126C22.738 38.126 23.0331 37.8309 23.0331 37.4667V31.9273C25.8913 32.9658 25.0761 32.658 25.4124 32.8157C26.1026 33.139 26.953 32.8097 27.2211 32.058L28.4285 28.6746C34.2433 30.3898 32.7452 29.955 32.9969 30.0222C33.0501 30.054 35.0396 30.374 35.4628 32.4955L35.8109 34.244C35.882 34.6012 36.2292 34.8331 36.5863 34.7619C36.9436 34.6908 37.1753 34.3437 37.1043 33.9866ZM31.2505 13.0779C32.8419 13.5512 32.8409 15.3086 31.2505 15.7818V13.0779ZM13.7719 15.7819C12.1803 15.3087 12.1806 13.5509 13.7719 13.0778V15.7819ZM15.6086 19.9859C14.9381 18.2942 15.0906 17.3942 15.0906 12.7679C16.1387 12.1498 16.9129 10.9765 16.9547 9.36553C16.9622 9.06846 17.2384 8.85515 17.5262 8.90033L17.7287 8.93109C18.3561 8.96124 21.6018 9.72993 27.4958 8.90042C27.6382 8.87836 27.784 8.91852 27.8948 9.0109C28.0557 9.14528 28.0628 9.29364 28.0703 9.42161C28.1123 10.5893 28.5431 11.6421 29.406 12.3887L29.4012 12.3847C29.5231 12.4946 29.7375 12.6539 29.9315 12.7677C29.9315 12.79 29.9318 17.1747 29.9318 17.2563C29.9318 22.5751 24.3417 26.4519 19.1057 23.8508C19.1028 23.8494 19.0989 23.8473 19.0949 23.8455C19.0949 23.8454 19.0949 23.8454 19.0948 23.8454C17.5579 23.0469 16.2824 21.6923 15.6086 19.9859ZM19.0471 31.6207C19.0283 31.619 19.092 31.7508 17.7919 28.1257L18.9456 27.3456L21.3452 30.685C19.0807 31.5916 19.1755 31.5255 19.0471 31.6207ZM22.3946 29.8855L19.7514 26.207V25.5485C21.1918 26.0248 22.3669 25.9869 22.4473 25.9942V25.9885C22.4512 25.9885 22.4552 25.9888 22.4592 25.9888L22.4593 25.9943C23.683 25.9733 24.3924 25.8373 25.2496 25.5558V26.214L22.3946 29.8855ZM25.9778 31.6182C25.963 31.6315 25.9389 31.5798 25.7984 31.5287C25.6179 31.4631 23.7283 30.777 23.4505 30.6761L26.0509 27.3322L27.2242 28.1257L25.9778 31.6182Z" fill="url(#paint2_linear_381_5543)"/>
<path d="M37.1043 33.9866C36.7526 32.6676 36.8759 30.9579 35.1693 29.6212C34.1945 28.8596 33.894 28.9121 28.3017 27.2625L26.5684 26.0903V24.9976C29.7307 23.2818 31.2505 20.2396 31.2505 17.2562V17.1344C33.4091 16.7353 34.4632 14.5628 33.2602 12.9365C33.2609 12.9267 33.2955 10.4926 33.1862 9.46968C32.0812 0.154262 20.3702 -3.25853 14.4244 3.66812C14.1845 3.94199 14.2118 4.35859 14.4857 4.59853C14.7597 4.83847 15.1762 4.81105 15.4162 4.53727C20.3169 -1.12578 29.6389 1.10348 31.605 8.23922L31.6157 8.27877C32.06 9.92004 31.9153 11.0621 31.9437 11.9292C31.5532 11.7683 31.1193 11.6751 30.6618 11.6663C30.189 11.4075 29.787 10.9595 29.5717 10.3689C29.4612 10.044 29.419 9.8782 29.3859 9.33205C29.3728 8.81639 29.1371 8.33036 28.7394 7.99849C27.3634 6.85037 26.1844 8.60994 18.7232 7.73561L17.7295 7.59744C16.6569 7.43045 15.6643 8.23561 15.6358 9.33802C15.6206 9.65645 15.6027 9.85078 15.5048 10.2048C15.2883 10.9294 14.8599 11.295 14.8902 11.2635C14.7219 11.4331 14.5371 11.5699 14.3603 11.6663C13.9026 11.6751 13.4685 11.7682 13.0779 11.9293C13.0808 10.0038 13.0885 8.74696 13.8687 6.96815C14.0149 6.63469 13.8632 6.24577 13.5296 6.09952C13.1962 5.95336 12.8073 6.10506 12.661 6.43861C12.1304 7.64868 11.8277 8.94146 11.7697 10.2883C11.7697 10.2972 11.7487 12.7591 11.7616 12.9367C10.5543 14.5688 11.6185 16.7367 13.7717 17.1346C13.8125 22.8931 18.3479 24.91 18.4151 24.9768C18.4208 24.98 18.4267 24.9831 18.4324 24.9862V26.1006L16.7258 27.2547C11.6025 28.7659 11.1562 28.8946 11.0956 28.9172C9.6606 29.4523 8.5726 30.595 8.24468 32.2382C6.23726 42.3221 6.32234 41.8884 6.31751 41.9224C6.06526 43.7046 7.00657 44.9999 8.99069 44.9999H16.0151C16.3793 44.9999 16.6744 44.7048 16.6744 44.3406C16.6744 43.9764 16.3793 43.6812 16.0151 43.6812H13.6394V37.4668C13.6394 37.1026 13.3443 36.8075 12.98 36.8075C12.6158 36.8075 12.3207 37.1026 12.3207 37.4668V43.6813H8.99061C7.92318 43.6813 7.47467 43.2136 7.62092 42.1245C9.70683 31.9822 9.41863 31.93 10.2799 30.9953C10.6226 30.6229 11.0631 30.3403 11.5361 30.1603C16.364 28.7362 16.573 28.6746 16.5756 28.6738C16.577 28.6734 16.58 28.6725 16.5862 28.6707C17.8572 32.2048 17.7716 32.0548 17.8959 32.2727C18.2371 32.8709 19.0184 33.1592 19.7528 32.7346C19.9323 32.6635 21.4862 32.0475 21.7144 31.957V37.4667C21.7144 37.8309 22.0096 38.126 22.3738 38.126C22.738 38.126 23.0331 37.8309 23.0331 37.4667V31.9273C25.8913 32.9658 25.0761 32.658 25.4124 32.8157C26.1026 33.139 26.953 32.8097 27.2211 32.058L28.4285 28.6746C34.2433 30.3898 32.7452 29.955 32.9969 30.0222C33.0501 30.054 35.0396 30.374 35.4628 32.4955L35.8109 34.244C35.882 34.6012 36.2292 34.8331 36.5863 34.7619C36.9436 34.6908 37.1753 34.3437 37.1043 33.9866ZM31.2505 13.0779C32.8419 13.5512 32.8409 15.3086 31.2505 15.7818V13.0779ZM13.7719 15.7819C12.1803 15.3087 12.1806 13.5509 13.7719 13.0778V15.7819ZM15.6086 19.9859C14.9381 18.2942 15.0906 17.3942 15.0906 12.7679C16.1387 12.1498 16.9129 10.9765 16.9547 9.36553C16.9622 9.06846 17.2384 8.85515 17.5262 8.90033L17.7287 8.93109C18.3561 8.96124 21.6018 9.72993 27.4958 8.90042C27.6382 8.87836 27.784 8.91852 27.8948 9.0109C28.0557 9.14528 28.0628 9.29364 28.0703 9.42161C28.1123 10.5893 28.5431 11.6421 29.406 12.3887L29.4012 12.3847C29.5231 12.4946 29.7375 12.6539 29.9315 12.7677C29.9315 12.79 29.9318 17.1747 29.9318 17.2563C29.9318 22.5751 24.3417 26.4519 19.1057 23.8508C19.1028 23.8494 19.0989 23.8473 19.0949 23.8455C19.0949 23.8454 19.0949 23.8454 19.0948 23.8454C17.5579 23.0469 16.2824 21.6923 15.6086 19.9859ZM19.0471 31.6207C19.0283 31.619 19.092 31.7508 17.7919 28.1257L18.9456 27.3456L21.3452 30.685C19.0807 31.5916 19.1755 31.5255 19.0471 31.6207ZM22.3946 29.8855L19.7514 26.207V25.5485C21.1918 26.0248 22.3669 25.9869 22.4473 25.9942V25.9885C22.4512 25.9885 22.4552 25.9888 22.4592 25.9888L22.4593 25.9943C23.683 25.9733 24.3924 25.8373 25.2496 25.5558V26.214L22.3946 29.8855ZM25.9778 31.6182C25.963 31.6315 25.9389 31.5798 25.7984 31.5287C25.6179 31.4631 23.7283 30.777 23.4505 30.6761L26.0509 27.3322L27.2242 28.1257L25.9778 31.6182Z" stroke="url(#paint3_linear_381_5543)" mask="url(#path-2-outside-1_381_5543)"/>
<mask id="path-3-outside-2_381_5543" maskUnits="userSpaceOnUse" x="15.5742" y="27.6739" width="2" height="2" fill="black">
<rect fill="white" x="15.5742" y="27.6739" width="2" height="2"/>
<path d="M16.5751 28.6739C16.5729 28.6745 16.5754 28.6738 16.5751 28.6739V28.6739Z"/>
</mask>
<path d="M16.5751 28.6739C16.5729 28.6745 16.5754 28.6738 16.5751 28.6739V28.6739Z" fill="url(#paint4_linear_381_5543)"/>
<path d="M16.435 28.1939C16.4346 28.194 16.4341 28.1942 16.4335 28.1943C16.4332 28.1944 16.4328 28.1945 16.4323 28.1947C16.432 28.1948 16.4307 28.1952 16.4291 28.1956C16.4287 28.1958 16.4279 28.196 16.4271 28.1963C16.4263 28.1965 16.4248 28.197 16.4229 28.1976C16.4219 28.1979 16.4204 28.1984 16.4185 28.199C16.4169 28.1995 16.4136 28.2006 16.4093 28.2021C16.4072 28.2029 16.4036 28.2041 16.3993 28.2057C16.3974 28.2064 16.3931 28.2081 16.3907 28.209C16.3877 28.2102 16.3807 28.2131 16.3767 28.2148C16.3712 28.2172 16.3577 28.2234 16.3498 28.2273C16.3371 28.2339 16.3018 28.2548 16.2798 28.27C16.2301 28.3114 16.0912 28.545 16.0806 28.7536C16.1789 28.9803 16.4486 29.1581 16.5265 29.1719C16.5573 29.1738 16.6039 29.1732 16.6197 29.1721C16.6293 29.1711 16.6451 29.1691 16.6514 29.1681C16.656 29.1674 16.6639 29.166 16.6672 29.1654C16.6698 29.1649 16.6746 29.164 16.6766 29.1635C16.6813 29.1626 16.6851 29.1617 16.6873 29.1612C16.6898 29.1606 16.6918 29.1601 16.6932 29.1598C16.6961 29.1591 16.6983 29.1585 16.6996 29.1582C16.701 29.1578 16.7021 29.1575 16.7029 29.1573C16.7057 29.1566 16.7078 29.156 16.7083 29.1558C16.7097 29.1554 16.7109 29.1551 16.7112 29.155C16.7118 29.1548 16.7122 29.1547 16.7125 29.1546C16.7134 29.1544 16.7149 29.1539 16.7166 29.1534C16.717 29.1533 16.7179 29.1531 16.7189 29.1528C16.7195 29.1526 16.722 29.1518 16.7252 29.1508C16.7262 29.1505 16.7275 29.1501 16.7292 29.1495C16.7307 29.149 16.7334 29.1482 16.7368 29.147C16.7386 29.1464 16.7411 29.1455 16.744 29.1445C16.7468 29.1435 16.7515 29.1418 16.7572 29.1395C16.7602 29.1384 16.7643 29.1367 16.7691 29.1347C16.7736 29.1328 16.7807 29.1297 16.7893 29.1257C16.7931 29.1239 16.8014 29.1198 16.8059 29.1174C16.8115 29.1144 16.8243 29.1074 16.8314 29.1032C16.8406 29.0976 16.8622 29.0832 16.8745 29.0744C16.8918 29.0608 16.9335 29.0225 16.9568 28.9969C16.9918 28.9503 17.0574 28.8058 17.0741 28.7063C17.0641 28.5696 16.9534 28.3469 16.8699 28.27C16.8128 28.234 16.714 28.1935 16.6757 28.1841C16.6515 28.1797 16.6107 28.1751 16.5941 28.1742C16.5824 28.1739 16.5618 28.174 16.553 28.1743C16.5462 28.1747 16.5341 28.1755 16.5287 28.176C16.5243 28.1764 16.5164 28.1773 16.5127 28.1778C16.5097 28.1782 16.5041 28.1789 16.5015 28.1793C16.4954 28.1802 16.4903 28.1811 16.4868 28.1817C16.4831 28.1824 16.4799 28.183 16.4775 28.1835C16.4728 28.1844 16.469 28.1852 16.4666 28.1858C16.4618 28.1868 16.4581 28.1877 16.4563 28.1882C16.4542 28.1887 16.4525 28.1891 16.4514 28.1894L16.6988 29.1583C16.6977 29.1586 16.696 29.159 16.694 29.1595C16.6922 29.16 16.6884 29.1609 16.6837 29.1619C16.6813 29.1625 16.6775 29.1633 16.6728 29.1642C16.6704 29.1647 16.6672 29.1653 16.6635 29.166C16.66 29.1666 16.6549 29.1675 16.6488 29.1684C16.6462 29.1688 16.6406 29.1696 16.6375 29.17C16.6339 29.1704 16.626 29.1713 16.6216 29.1717C16.6162 29.1722 16.6041 29.173 16.5973 29.1734C16.5885 29.1737 16.5679 29.1738 16.5562 29.1735C16.5396 29.1726 16.4988 29.168 16.4746 29.1636C16.4363 29.1542 16.3375 29.1138 16.2804 29.0777C16.1969 29.0008 16.0861 28.7782 16.0762 28.6414C16.0929 28.5419 16.1585 28.3975 16.1935 28.3508C16.2168 28.3252 16.2585 28.2869 16.2758 28.2733C16.288 28.2645 16.3097 28.2502 16.3189 28.2445C16.326 28.2404 16.3387 28.2333 16.3444 28.2303C16.3489 28.228 16.3572 28.2238 16.361 28.222C16.3696 28.218 16.3767 28.2149 16.3812 28.213C16.386 28.211 16.3901 28.2094 16.3931 28.2082C16.3988 28.2059 16.4035 28.2042 16.4063 28.2032C16.4092 28.2022 16.4117 28.2013 16.4134 28.2007C16.4168 28.1996 16.4195 28.1987 16.421 28.1982C16.4227 28.1977 16.4241 28.1972 16.425 28.1969C16.4282 28.1959 16.4307 28.1952 16.4312 28.195C16.4322 28.1947 16.4329 28.1945 16.4333 28.1944C16.4347 28.194 16.4357 28.1937 16.4363 28.1935C16.4366 28.1935 16.4369 28.1933 16.4374 28.1932C16.4377 28.1931 16.4388 28.1928 16.4402 28.1924C16.4407 28.1923 16.4428 28.1917 16.4455 28.191C16.4463 28.1908 16.4475 28.1905 16.4489 28.1901C16.4501 28.1898 16.4524 28.1892 16.4552 28.1885C16.4566 28.1881 16.4587 28.1877 16.4611 28.1871C16.4634 28.1866 16.4671 28.1857 16.4718 28.1847C16.4739 28.1843 16.4786 28.1834 16.4812 28.1829C16.4846 28.1822 16.4925 28.1809 16.497 28.1801C16.5033 28.1792 16.5192 28.1772 16.5287 28.1762C16.5445 28.175 16.5911 28.1744 16.6219 28.1764C16.6998 28.1902 16.9695 28.368 17.0679 28.5946C17.0573 28.8032 16.9184 29.0368 16.8686 29.0783C16.8466 29.0934 16.8113 29.1143 16.7986 29.121C16.7907 29.1248 16.7772 29.1311 16.7717 29.1335C16.7678 29.1351 16.7607 29.138 16.7577 29.1392C16.7553 29.1402 16.751 29.1418 16.7491 29.1425C16.7448 29.1442 16.7413 29.1454 16.7391 29.1461C16.7349 29.1476 16.7315 29.1487 16.7299 29.1493C16.7281 29.1499 16.7266 29.1504 16.7256 29.1507C16.7237 29.1513 16.7222 29.1517 16.7214 29.152C16.7205 29.1522 16.7198 29.1525 16.7194 29.1526C16.7178 29.1531 16.7166 29.1534 16.7164 29.1535C16.716 29.1536 16.7156 29.1537 16.7155 29.1537C16.7152 29.1538 16.7151 29.1539 16.7152 29.1538L16.435 28.1939Z" fill="url(#paint5_linear_381_5543)" mask="url(#path-3-outside-2_381_5543)"/>
</g>
<defs>
<linearGradient id="paint0_linear_381_5543" x1="18.4297" y1="35.2895" x2="25.8693" y2="51.5764" gradientUnits="userSpaceOnUse">
<stop stop-color="#737C84"/>
<stop offset="0.15625" stop-color="#A2ABB4"/>
<stop offset="0.307292" stop-color="#A2ABB4"/>
<stop offset="0.473958" stop-color="#C31A44"/>
<stop offset="0.671875" stop-color="#0098B7"/>
<stop offset="0.838542" stop-color="#A2ABB4"/>
</linearGradient>
<linearGradient id="paint1_linear_381_5543" x1="18.4297" y1="35.2895" x2="25.8693" y2="51.5764" gradientUnits="userSpaceOnUse">
<stop stop-color="#737C84"/>
<stop offset="0.15625" stop-color="#A2ABB4"/>
<stop offset="0.307292" stop-color="#A2ABB4"/>
<stop offset="0.473958" stop-color="#C31A44"/>
<stop offset="0.671875" stop-color="#0098B7"/>
<stop offset="0.838542" stop-color="#A2ABB4"/>
</linearGradient>
<linearGradient id="paint2_linear_381_5543" x1="6.27734" y1="-6.24996" x2="53.1417" y2="23.2865" gradientUnits="userSpaceOnUse">
<stop stop-color="#737C84"/>
<stop offset="0.15625" stop-color="#A2ABB4"/>
<stop offset="0.307292" stop-color="#A2ABB4"/>
<stop offset="0.473958" stop-color="#C31A44"/>
<stop offset="0.671875" stop-color="#0098B7"/>
<stop offset="0.838542" stop-color="#A2ABB4"/>
</linearGradient>
<linearGradient id="paint3_linear_381_5543" x1="6.27734" y1="-6.24996" x2="53.1417" y2="23.2865" gradientUnits="userSpaceOnUse">
<stop stop-color="#737C84"/>
<stop offset="0.15625" stop-color="#A2ABB4"/>
<stop offset="0.307292" stop-color="#A2ABB4"/>
<stop offset="0.473958" stop-color="#C31A44"/>
<stop offset="0.671875" stop-color="#0098B7"/>
<stop offset="0.838542" stop-color="#A2ABB4"/>
</linearGradient>
<linearGradient id="paint4_linear_381_5543" x1="16.5742" y1="28.6738" x2="16.5744" y2="28.6744" gradientUnits="userSpaceOnUse">
<stop stop-color="#737C84"/>
<stop offset="0.15625" stop-color="#A2ABB4"/>
<stop offset="0.307292" stop-color="#A2ABB4"/>
<stop offset="0.473958" stop-color="#C31A44"/>
<stop offset="0.671875" stop-color="#0098B7"/>
<stop offset="0.838542" stop-color="#A2ABB4"/>
</linearGradient>
<linearGradient id="paint5_linear_381_5543" x1="16.5742" y1="28.6738" x2="16.5744" y2="28.6744" gradientUnits="userSpaceOnUse">
<stop stop-color="#737C84"/>
<stop offset="0.15625" stop-color="#A2ABB4"/>
<stop offset="0.307292" stop-color="#A2ABB4"/>
<stop offset="0.473958" stop-color="#C31A44"/>
<stop offset="0.671875" stop-color="#0098B7"/>
<stop offset="0.838542" stop-color="#A2ABB4"/>
</linearGradient>
<clipPath id="clip0_381_5543">
<rect width="45" height="45" fill="white"/>
</clipPath>
</defs>
</svg>
