<svg xmlns="http://www.w3.org/2000/svg" aria-hidden="true" style="position:absolute;width:0;height:0;overflow:hidden"><defs><symbol id="icon-cart" viewBox="0 0 32 32"><path fill="#edc867" d="M10.18 29.087H7.267V32h2.913v-2.913zM24.743 29.087H21.83V32h2.913v-2.913zM10.275 23.374c-.069 0-.186-.103-.195-.172L7.471 2.717C7.277 1.195 5.925 0 4.39 0H1.443v2.913H4.39c.067 0 .183.103.192.172L7.191 23.57c.194 1.524 1.549 2.717 3.084 2.717h14.468v-2.913H10.275z" style="fill:var(--color1, #edc867)"/><path fill="#edc867" d="M26.836 5.795H5.595v2.913h21.241c.658 0 .93.353.763.985l-1.615 6.118c-.242.916-1.297 1.728-2.243 1.728H13.093v2.913h10.648c2.268 0 4.479-1.703 5.059-3.898l1.615-6.118c.655-2.479-1.011-4.641-3.579-4.641z" style="fill:var(--color1, #edc867)"/></symbol><symbol id="icon-delievery" viewBox="0 0 46 32"><path d="m45.534 15.98-7.716-7.973a1.343 1.343 0 0 0-.966-.41h-4.931V1.794c0-.743-.602-1.345-1.345-1.345H5.592c-.743 0-1.345.602-1.345 1.345v4.037H3.229a1.345 1.345 0 1 0 0 2.69h1.018v2.691H1.345a1.345 1.345 0 1 0 0 2.69h2.902v12.353c0 .743.602 1.345 1.345 1.345h2.863a5.53 5.53 0 0 0 1.393 2.322c1.049 1.049 2.445 1.627 3.929 1.627s2.879-.578 3.929-1.627a5.519 5.519 0 0 0 1.384-2.308h12.845a5.519 5.519 0 0 0 1.384 2.308c1.049 1.049 2.445 1.627 3.929 1.627s2.879-.578 3.929-1.627a5.53 5.53 0 0 0 1.384-2.308h2.009c.743 0 1.345-.602 1.345-1.345v-9.355c0-.349-.136-.685-.379-.935zm-4.14-.41h-9.511v-5.283h4.399l5.113 5.283zM6.937 13.903h7.001a1.345 1.345 0 1 0 0-2.69H6.937V8.522h7.988a1.345 1.345 0 1 0 0-2.69H6.937V3.141H29.23l-.038 21.786h-9.966a5.527 5.527 0 0 0-1.521-2.86c-1.049-1.049-2.445-1.627-3.929-1.627s-2.879.578-3.929 1.627a5.513 5.513 0 0 0-1.522 2.845H6.937V13.904zm8.866 14.118c-.541.541-1.261.839-2.026.839s-1.485-.298-2.026-.839c-.541-.541-.839-1.261-.839-2.026s.298-1.485.839-2.026c.541-.541 1.261-.839 2.026-.839s1.485.298 2.026.839a2.87 2.87 0 0 1 0 4.053zm23.47 0c-.541.541-1.261.839-2.026.839s-1.485-.298-2.026-.839a2.87 2.87 0 0 1 0-4.053c.541-.541 1.261-.839 2.026-.839s1.485.298 2.026.839c.541.541.839 1.261.839 2.027s-.298 1.485-.839 2.026zm3.424-3.095a5.522 5.522 0 0 0-1.522-2.86c-1.049-1.049-2.445-1.627-3.929-1.627s-2.879.578-3.929 1.627a5.515 5.515 0 0 0-1.435 2.49v-6.295h11.34v6.665h-.526z"/></symbol><symbol id="icon-file" viewBox="0 0 25 32"><path d="m17.608.94 6.026 5.701a3.452 3.452 0 0 1 1.075 2.497v19.424A3.442 3.442 0 0 1 21.271 32h-17.5a3.442 3.442 0 0 1-3.438-3.438V3.437A3.442 3.442 0 0 1 3.771-.001h11.474c.882 0 1.721.334 2.362.94zm-.461 6.56h4.666l-4.979-4.71v4.398c0 .172.14.313.313.313zM3.772 30.125h17.5c.862 0 1.563-.701 1.563-1.563V9.375h-5.688a2.19 2.19 0 0 1-2.187-2.188V1.875H3.772c-.862 0-1.563.701-1.563 1.563v25.125c0 .862.701 1.563 1.563 1.563zM5.459 12.5h13.75a.937.937 0 1 1 0 1.875H5.459a.938.938 0 0 1 0-1.875zm13.75 5H5.459a.938.938 0 0 0 0 1.876h13.75a.937.937 0 0 0 0-1.876zm-13.75 5h4.545a.938.938 0 1 1 0 1.875H5.459a.938.938 0 0 1 0-1.875z"/></symbol><symbol id="icon-headphone" viewBox="0 0 32 32"><path d="M30.227 13.322c-.639-.395-1.35-.475-1.977-.413v-.659C28.25 5.513 22.737 0 16 0S3.75 5.513 3.75 12.25v.659c-.627-.062-1.338.019-1.977.413C.597 14.049 0 15.581 0 17.875c0 2.298.598 3.837 1.776 4.577.585.367 1.269.495 1.974.434v.677c0 .518.42.938.938.938h3.75c.518 0 .937-.42.937-.938V12.251a.938.938 0 0 0-.937-.938h-2.77C6.144 6.03 10.595 1.876 16 1.876s9.857 4.154 10.332 9.437h-2.77a.937.937 0 0 0-.937.938v11.312c0 .518.42.938.937.938h2.813v.937a2.816 2.816 0 0 1-2.813 2.813h-3.036a2.817 2.817 0 0 0-2.651-1.875H16c-1.551 0-2.813 1.262-2.813 2.812s1.262 2.813 2.813 2.813h1.875a2.817 2.817 0 0 0 2.651-1.875h3.036a4.693 4.693 0 0 0 4.688-4.688v-2.552c.705.061 1.389-.067 1.974-.434C31.402 21.713 32 20.173 32 17.875c0-2.294-.596-3.825-1.773-4.553zM3.75 20.999c-.299.052-.673.056-.978-.135-.579-.363-.897-1.424-.897-2.988 0-1.549.312-2.598.877-2.954.306-.192.691-.179.998-.118V21zm3.75-7.812v9.438H5.625v-9.438H7.5zm10.375 16.938H16a.938.938 0 0 1 0-1.875h1.875c.517 0 .938.421.938.937s-.421.938-.938.938zm8.5-7.5H24.5v-9.438h1.875v9.438zm2.859-1.766c-.303.193-.681.19-.984.137v-6.193c.307-.061.692-.074.998.118.566.356.877 1.405.877 2.954 0 1.558-.316 2.618-.891 2.984z"/></symbol><symbol id="loogo" viewBox="0 0 122 32"><path fill="#2d2d2d" d="M30.799 20.643h6.193v2.771h-9.091V8.718h8.986v2.771h-6.088v3.128h5.564v2.729h-5.564v3.296zm11.867 2.772L37.732 8.719h3.149l3.59 11.295L48.04 8.719h3.17l-4.955 14.696h-3.59zm21.671-1.911c-1.484 1.47-3.289 2.204-5.417 2.204s-3.933-.735-5.417-2.204c-1.47-1.484-2.204-3.296-2.204-5.438s.735-3.947 2.204-5.417c1.484-1.484 3.289-2.225 5.417-2.225s3.933.742 5.417 2.225c1.484 1.47 2.225 3.275 2.225 5.417s-.742 3.954-2.225 5.438zm-8.796-1.973c.91.896 2.037 1.344 3.38 1.344s2.47-.448 3.38-1.344c.91-.91 1.365-2.065 1.365-3.464s-.455-2.554-1.365-3.464c-.91-.91-2.037-1.365-3.38-1.365s-2.47.455-3.38 1.365c-.91.91-1.365 2.064-1.365 3.464s.455 2.554 1.365 3.464zm20.511 4.094c-2.169 0-3.975-.728-5.417-2.183-1.428-1.47-2.141-3.261-2.141-5.375s.714-3.898 2.141-5.354c1.442-1.47 3.247-2.204 5.417-2.204 1.302 0 2.498.308 3.59.924 1.106.602 1.967 1.421 2.583 2.456l-.357.21c-.574-.98-1.378-1.757-2.414-2.33a6.773 6.773 0 0 0-3.401-.882c-2.057 0-3.765.693-5.123 2.078-1.344 1.386-2.015 3.086-2.015 5.102s.672 3.716 2.015 5.102c1.358 1.386 3.065 2.079 5.123 2.079 1.274 0 2.435-.301 3.485-.903 1.064-.616 1.869-1.435 2.415-2.456l.378.21c-.602 1.078-1.463 1.939-2.583 2.582-1.119.63-2.351.945-3.695.945zm9.735-.588h7.348v.378h-7.768V8.719h.42v14.318zm18.733-.777c-.938.91-2.212 1.365-3.821 1.365s-2.89-.455-3.842-1.365c-.937-.924-1.406-2.113-1.406-3.569V8.718h.42v9.973c0 1.316.413 2.407 1.239 3.275.84.854 2.036 1.281 3.59 1.281s2.743-.427 3.569-1.281c.84-.868 1.26-1.959 1.26-3.275V8.718h.42v9.973c0 1.456-.476 2.645-1.427 3.569zm12.422-6.404a3.72 3.72 0 0 1 2.183 1.323c.588.686.882 1.484.882 2.393 0 1.064-.378 1.973-1.134 2.729-.741.742-1.644 1.113-2.708 1.113h-6.235V8.718h5.753c1.022 0 1.89.364 2.603 1.092.728.728 1.092 1.596 1.092 2.603 0 .784-.224 1.491-.672 2.12s-1.036 1.071-1.763 1.323zm-1.26-6.76h-5.333v6.634h5.333c.895 0 1.666-.322 2.309-.966.644-.658.965-1.442.965-2.351s-.322-1.687-.965-2.33c-.644-.658-1.414-.987-2.309-.987zm.483 13.941c.938 0 1.743-.336 2.415-1.008.672-.686 1.008-1.505 1.008-2.456s-.336-1.764-1.008-2.435c-.672-.686-1.477-1.029-2.415-1.029h-5.815v6.928h5.815z" style="fill:var(--color2, #2d2d2d)"/><path d="M4.726 15.069c.103 2.153.968 3.789 2.374 4.867 1.438 1.102 3.273 1.49 4.997 1.49 3.726 0 7.176-2.776 7.176-6.799 0-1.055.024-2.14.048-3.2.011-.477.021-.948.029-1.41.025-1.44.029-2.829-.087-3.803-.127-1.063-.577-2.593-1.686-3.886C16.423.983 14.64-.001 12.097-.001c-2.411 0-4.289.705-5.571 1.951C5.25 3.191 4.715 4.824 4.715 6.386v4.979l-.091.023v3.579l.102.101zm8.807 12.491c3.868-.303 6.524-2.033 8.215-4.253 1.814-2.382 2.448-5.23 2.448-7.237h-2.871c0 1.495-.493 3.694-1.857 5.485-1.314 1.725-3.504 3.168-7.163 3.168-3.666 0-5.976-1.45-7.398-3.203-1.468-1.81-2.036-4.005-2.036-5.45H0c0 2.058.765 4.91 2.682 7.272 1.716 2.116 4.321 3.793 7.981 4.18v1.62H4.609v2.857h14.978v-2.857h-6.053v-1.583z" style="fill:var(--color3, #000)"/></symbol><symbol id="icon-loudspeaker" viewBox="0 0 25 32"><path d="M1.761.797h21.144a1.409 1.409 0 0 1 1.409 1.409v28.192a1.409 1.409 0 0 1-1.409 1.409H1.761a1.413 1.413 0 0 1-1.409-1.409V2.206A1.413 1.413 0 0 1 1.761.797zm0 1.41v28.192h21.146l-.001-28.192H1.762zm6.265 11.879a7.753 7.753 0 0 1 4.307-1.307 7.765 7.765 0 0 1 7.753 7.752 7.753 7.753 0 1 1-12.061-6.447zm.783 11.72a6.344 6.344 0 0 0 3.524 1.069 6.35 6.35 0 0 0 6.343-6.343 6.342 6.342 0 0 0-7.581-6.221 6.344 6.344 0 0 0-2.287 11.496zm3.524-8.798a3.528 3.528 0 0 0-3.457 4.212 3.524 3.524 0 1 0 3.456-4.213zm0 5.638a2.119 2.119 0 0 1-1.954-1.305 2.112 2.112 0 0 1 .459-2.305 2.115 2.115 0 1 1 1.496 3.609zm1.958-11.871a3.528 3.528 0 0 1-1.958.594 3.524 3.524 0 1 1 1.957-.595zm-.783-4.688a2.118 2.118 0 0 0-2.933 2.933 2.113 2.113 0 0 0 3.254.32 2.115 2.115 0 0 0-.32-3.254z"/><path d="M22.906.606a1.604 1.604 0 0 1 1.601 1.6v28.192A1.604 1.604 0 0 1 22.906 32H1.762a1.604 1.604 0 0 1-1.601-1.601V2.207a1.607 1.607 0 0 1 1.6-1.602h21.145zM12.334 12.587a7.955 7.955 0 0 1 7.944 7.944 7.947 7.947 0 0 1-9.494 7.792 7.949 7.949 0 0 1-6.242-6.242 7.943 7.943 0 0 1 7.792-9.494zm0 4.229a3.716 3.716 0 0 0-3.643 4.44 3.713 3.713 0 0 0 2.919 2.919 3.71 3.71 0 0 0 4.44-3.643 3.722 3.722 0 0 0-3.715-3.715zm-.001-5.255a3.722 3.722 0 0 1-3.715-3.715 3.716 3.716 0 0 1 4.44-3.643 3.713 3.713 0 0 1 2.919 2.919 3.71 3.71 0 0 1-3.643 4.44zM1.761.797A1.409 1.409 0 0 0 .352 2.206v28.192a1.413 1.413 0 0 0 1.409 1.409h21.144a1.413 1.413 0 0 0 1.409-1.409V2.206A1.409 1.409 0 0 0 22.905.797H1.761zm.192 1.601v27.809h20.763l-.001-27.809H1.954zm6.963 23.249a6.153 6.153 0 0 0 3.418 1.037 6.16 6.16 0 0 0 6.152-6.152 6.153 6.153 0 1 0-9.57 5.115zm9.761-5.115a6.35 6.35 0 0 1-6.343 6.343 6.342 6.342 0 0 1-6.221-7.581 6.348 6.348 0 0 1 4.984-4.984 6.343 6.343 0 0 1 7.581 6.221zm-2.82 0a3.528 3.528 0 0 1-4.212 3.457 3.516 3.516 0 0 1-2.768-2.768 3.522 3.522 0 0 1 1.499-3.618 3.52 3.52 0 0 1 4.449.439 3.524 3.524 0 0 1 1.033 2.491zm-3.524 1.923a1.924 1.924 0 0 1-1.885-2.298 1.922 1.922 0 1 1 1.886 2.297zm2.115-1.923a2.119 2.119 0 0 0-1.305-1.954 2.111 2.111 0 0 0-2.305.459 2.115 2.115 0 1 0 3.609 1.496zM13.402 6.246a1.924 1.924 0 0 0-2.427.24 1.924 1.924 0 0 0 1.734 3.244 1.922 1.922 0 0 0 .694-3.485zm-3.183 1.599a2.118 2.118 0 0 1 3.289-1.758 2.113 2.113 0 0 1 .32 3.254 2.115 2.115 0 0 1-3.61-1.495zM1.761 2.207h21.144l.001 28.192H1.76V2.207zm10.572 10.572a7.753 7.753 0 1 0 7.754 7.754 7.765 7.765 0 0 0-7.753-7.753zm0-1.41a3.528 3.528 0 0 0 3.457-4.212 3.52 3.52 0 0 0-4.804-2.567 3.52 3.52 0 0 0-2.175 3.256 3.524 3.524 0 0 0 3.524 3.524z"/></symbol><symbol id="icon-loudspeaker-1" viewBox="0 0 26 32"><path d="M1.632.195h21.552a1.44 1.44 0 0 1 1.436 1.436v28.736a1.436 1.436 0 0 1-1.436 1.436H1.632a1.436 1.436 0 0 1-1.436-1.436V1.631A1.44 1.44 0 0 1 1.632.195zm0 1.437v28.736h21.553l-.001-28.736H1.632zM8.018 13.74a7.905 7.905 0 0 1 4.39-1.332 7.91 7.91 0 0 1 7.902 7.902c0 1.563-.463 3.091-1.332 4.39s-2.102 2.312-3.546 2.911A7.903 7.903 0 0 1 5.107 17.286a7.897 7.897 0 0 1 2.911-3.546zm.798 11.947a6.46 6.46 0 0 0 8.162-.806 6.46 6.46 0 0 0-2.096-10.543 6.473 6.473 0 0 0-7.047 1.401 6.461 6.461 0 0 0-1.401 7.046 6.465 6.465 0 0 0 2.381 2.902zm3.592-8.968a3.59 3.59 0 0 0-2.54 6.131 3.595 3.595 0 0 0 3.914.779 3.588 3.588 0 0 0 2.217-3.319 3.6 3.6 0 0 0-3.592-3.592zm0 5.747a2.152 2.152 0 0 1-1.991-1.33 2.157 2.157 0 0 1 1.571-2.939 2.156 2.156 0 0 1 2.575 2.114 2.16 2.16 0 0 1-2.155 2.155zm1.996-12.1a3.59 3.59 0 0 1-4.535-.448 3.592 3.592 0 1 1 4.534.447zm-.799-4.779a2.152 2.152 0 0 0-2.72.269 2.152 2.152 0 0 0 .698 3.514 2.157 2.157 0 0 0 2.939-1.571 2.156 2.156 0 0 0-.917-2.212z"/><path d="M23.184 0a1.635 1.635 0 0 1 1.632 1.632v28.736A1.633 1.633 0 0 1 23.184 32H1.632A1.633 1.633 0 0 1 0 30.368V1.632A1.633 1.633 0 0 1 1.632 0h21.553zM12.408 12.213a8.104 8.104 0 0 1 8.097 8.097 8.097 8.097 0 0 1-13.824 5.726 8.095 8.095 0 0 1-1.755-8.825 8.1 8.1 0 0 1 7.481-4.999zm0 4.31a3.786 3.786 0 0 0-2.679 6.465 3.792 3.792 0 0 0 4.127.821 3.78 3.78 0 0 0 1.227-6.175 3.8 3.8 0 0 0-2.676-1.111zm0-5.357c-1.004-.001-1.967-.401-2.676-1.111S8.623 8.383 8.621 7.379a3.786 3.786 0 1 1 3.787 3.786zM1.632.195A1.44 1.44 0 0 0 .196 1.631v28.736a1.44 1.44 0 0 0 1.436 1.436h21.552a1.436 1.436 0 0 0 1.436-1.436V1.631A1.436 1.436 0 0 0 23.184.195H1.632zm.195 1.632v28.346H22.99l-.001-28.346H1.827zm7.097 23.697a6.269 6.269 0 0 0 3.483 1.057 6.278 6.278 0 0 0 6.271-6.271 6.269 6.269 0 0 0-7.494-6.149 6.27 6.27 0 0 0-2.261 11.364zm9.95-5.213a6.475 6.475 0 0 1-6.466 6.466 6.46 6.46 0 0 1-5.973-3.992 6.461 6.461 0 0 1 4.712-8.815 6.474 6.474 0 0 1 6.638 2.749 6.46 6.46 0 0 1 1.09 3.592zm-2.874 0a3.59 3.59 0 0 1-6.131 2.54 3.595 3.595 0 0 1-.779-3.914 3.588 3.588 0 0 1 3.319-2.217 3.6 3.6 0 0 1 3.592 3.592zm-3.592 1.959a1.964 1.964 0 0 1-1.811-1.21 1.968 1.968 0 0 1-.112-1.132c.076-.38.262-.729.536-1.004s.623-.461 1.004-.536a1.965 1.965 0 0 1 2.342 1.923 1.96 1.96 0 0 1-1.961 1.96zm2.155-1.959a2.152 2.152 0 0 0-1.33-1.991 2.157 2.157 0 0 0-2.939 1.571 2.157 2.157 0 0 0 2.114 2.575 2.16 2.16 0 0 0 2.155-2.155zM13.497 5.749a1.961 1.961 0 1 0-1.839 3.441c.359.148.752.187 1.132.112.38-.076.729-.262 1.004-.536s.461-.623.536-1.004a1.966 1.966 0 0 0-.833-2.012zm-3.244 1.63a2.16 2.16 0 0 1 2.155-2.155 2.152 2.152 0 0 1 1.991 1.33 2.157 2.157 0 0 1-1.571 2.939 2.156 2.156 0 0 1-2.575-2.114zM1.632 1.632h21.552l.001 28.736H1.632V1.632zm10.776 10.776c-1.563 0-3.091.463-4.39 1.332s-2.312 2.103-2.911 3.546a7.903 7.903 0 1 0 15.204 3.024 7.91 7.91 0 0 0-7.902-7.902zm0-1.437a3.59 3.59 0 0 0 2.54-6.131 3.595 3.595 0 0 0-3.914-.779A3.588 3.588 0 0 0 8.817 7.38a3.6 3.6 0 0 0 3.592 3.592z"/></symbol><symbol id="icon-mail" viewBox="0 0 15 10">
<path fill="#878787" d="M0.00962448 1.01525C0.0131245 0.9855 0.0174999 0.956625 0.0271254 0.92775C0.0953751 0.51125 0.440125 0.1875 0.875 0.1875H13.125C13.5599 0.1875 13.9046 0.51125 13.9729 0.92775C13.9825 0.956625 13.9869 0.9855 13.9904 1.01525C13.9912 1.03188 14 1.04588 14 1.0625V8.9375C14 8.95413 13.9912 8.969 13.9904 8.98563C13.9869 9.01538 13.9825 9.04338 13.9729 9.07225C13.9055 9.48787 13.5599 9.8125 13.125 9.8125H0.875C0.440125 9.8125 0.0945005 9.48787 0.0271254 9.07137C0.0174999 9.0425 0.0131245 9.0145 0.00962448 8.98475C0.00874996 8.969 0 8.95413 0 8.9375V1.0625C0 1.04588 0.00874996 1.03188 0.00962448 1.01525ZM1.17775 1.0625L6.034 4.62375L7 5.3325L7.96513 4.62463C7.96513 4.62463 7.966 4.62463 7.966 4.62375L12.8223 1.0625H1.17775ZM13.125 1.92613L8.932 5.00088L13.125 8.07475V1.92613ZM12.8223 8.9375L8.19175 5.54338L7.259 6.22762C7.182 6.2845 7.091 6.3125 7 6.3125C6.909 6.3125 6.818 6.2845 6.741 6.22762L5.80825 5.54338L1.17775 8.9375H12.8223ZM0.875 8.07475L5.068 5.00088L0.875 1.92613V8.07475Z" style="fill:var(--color4, #878787)"/>
</symbol><symbol id="icon-phone" viewBox="0 0 32 32"><path fill="#878787" d="M19.823 20.92c-1.004-.566-2.927-1.793-5.019-3.885s-3.333-4.03-3.908-5.044l3.374-3.418L5.751.001l-4.197 4.17a5.282 5.282 0 0 0-1.028 6.036c1.494 3.076 4.25 7.719 8.898 12.368s9.289 7.406 12.365 8.9a5.23 5.23 0 0 0 2.288.526 5.295 5.295 0 0 0 3.746-1.554l4.178-4.193-8.692-8.708-3.486 3.376zm6.231 7.761a2.78 2.78 0 0 1-3.175.546c-2.903-1.41-7.288-4.016-11.69-8.419S4.182 12.019 2.772 9.115a2.78 2.78 0 0 1 .544-3.174l2.422-2.407 5.014 5.045-2.874 2.912.347.779c.056.127 1.419 3.14 4.811 6.532 3.394 3.395 6.381 4.73 6.506 4.785l.768.338 2.967-2.873 5.193 5.203-2.417 2.427z" style="fill:var(--color4, #878787)"/></symbol><symbol id="icon-repair" viewBox="0 0 32 32"><path d="M23.5 30c-1.93 0-3.5-1.57-3.5-3.5V13.367a6.468 6.468 0 0 1-3-5.473 6.474 6.474 0 0 1 3.544-5.785A1.002 1.002 0 0 1 22 3v4.323l1.5.6 1.5-.6V3a1.002 1.002 0 0 1 1.456-.891A6.476 6.476 0 0 1 30 7.895a6.471 6.471 0 0 1-3 5.473V26.5c0 1.93-1.57 3.5-3.5 3.5zM20 5.066c-.637.785-1 1.775-1 2.828 0 1.694.941 3.229 2.456 4.005a1 1 0 0 1 .544.89V26.5c0 .827.673 1.5 1.5 1.5s1.5-.673 1.5-1.5V12.789a1 1 0 0 1 .544-.89A4.484 4.484 0 0 0 28 7.895a4.476 4.476 0 0 0-1-2.828V8c0 .409-.249.776-.628.929l-2.5 1a.994.994 0 0 1-.743 0l-2.5-1A1.002 1.002 0 0 1 20 8V5.066z"/><path d="M17.074 30h-2.147a2.008 2.008 0 0 1-1.994-1.846l-.126-1.635a10.91 10.91 0 0 1-1.985-.824l-1.246 1.067a2.008 2.008 0 0 1-2.715-.103l-1.52-1.521a2.01 2.01 0 0 1-.104-2.716l1.067-1.245a10.91 10.91 0 0 1-.824-1.985l-1.634-.125A2.007 2.007 0 0 1 2 17.074v-2.148c0-1.039.811-1.915 1.847-1.994l1.634-.125c.208-.687.484-1.351.824-1.985L5.237 9.575a2.009 2.009 0 0 1 .105-2.716L6.86 5.34a2.009 2.009 0 0 1 2.716-.104l1.246 1.067a10.91 10.91 0 0 1 1.985-.824l.126-1.635A2.008 2.008 0 0 1 14.926 2H16a1 1 0 1 1 0 2h-1.074l-.18 2.341a1 1 0 0 1-.772.897 8.9 8.9 0 0 0-2.734 1.135.995.995 0 0 1-1.181-.089L8.274 6.755l-1.518 1.52 1.529 1.784c.285.332.32.811.088 1.181a8.946 8.946 0 0 0-1.135 2.734.999.999 0 0 1-.898.772l-2.34.18v2.148l2.34.18a1 1 0 0 1 .898.772 8.9 8.9 0 0 0 1.135 2.734 1 1 0 0 1-.088 1.181l-1.529 1.784 1.519 1.52 1.784-1.529a.998.998 0 0 1 1.181-.089c.848.53 1.768.912 2.734 1.135a1 1 0 0 1 .772.897l.18 2.341h2.147a1 1 0 1 1 1.994.154A2.008 2.008 0 0 1 17.074 30z"/><path d="M9 16a6.974 6.974 0 0 1 5.835-6.903.995.995 0 0 1 1.151.821 1 1 0 0 1-.821 1.151A4.982 4.982 0 0 0 11 16c0 3.453 3.43 5.861 6.667 4.716a1 1 0 0 1 .668 1.884C13.782 24.211 9 20.816 9 16z"/></symbol><symbol id="icon-tool" viewBox="0 0 32 32"><path d="m11.359 15.337-1.937 1.937a7.498 7.498 0 0 0-7.245 1.942c-2.42 2.42-2.788 6.033-1.273 8.847a.938.938 0 0 0 1.488.218l3.518-3.518a.939.939 0 0 1 1.326 1.326l-3.518 3.518a.937.937 0 0 0 .218 1.488c2.824 1.521 6.435 1.139 8.847-1.273a7.497 7.497 0 0 0 1.942-7.245l.611-.611 8.659 8.66a4.692 4.692 0 0 0 6.629 0 4.682 4.682 0 0 0 0-6.629l-8.659-8.66.611-.611a7.498 7.498 0 0 0 7.245-1.942c2.42-2.42 2.788-6.033 1.273-8.847a.938.938 0 0 0-1.488-.218l-3.518 3.518a.938.938 0 0 1-1.326-1.326l3.518-3.518a.937.937 0 0 0-.218-1.488c-2.824-1.521-6.435-1.139-8.847 1.273a7.497 7.497 0 0 0-1.942 7.245l-1.937 1.937-5.119-5.119.663-.663a.937.937 0 0 0-.181-1.467L4.07.134a.938.938 0 0 0-1.145.141L.273 2.927a.938.938 0 0 0-.141 1.145l3.977 6.629a.938.938 0 0 0 1.467.181l.663-.663 5.119 5.119zM2.118 3.735l1.616-1.616 4.972 2.983-3.605 3.605-2.983-4.972zm5.448 5.157 1.326-1.326 5.119 5.119-1.326 1.326-5.119-5.119zm21.733 20.407a2.816 2.816 0 0 1-3.978 0l-8.659-8.66 3.978-3.978 8.659 8.66a2.81 2.81 0 0 1 0 3.978zM4.585 23.437l-2.518 2.518a5.552 5.552 0 0 1 1.436-5.413 5.655 5.655 0 0 1 5.868-1.322.938.938 0 0 0 .977-.22l8.651-8.651a.936.936 0 0 0 .22-.977 5.655 5.655 0 0 1 1.322-5.868 5.553 5.553 0 0 1 5.413-1.436l-2.518 2.518c-1.097 1.097-1.097 2.881 0 3.977s2.881 1.097 3.977 0l2.518-2.518a5.552 5.552 0 0 1-1.436 5.413 5.655 5.655 0 0 1-5.868 1.322.937.937 0 0 0-.977.22l-8.651 8.651a.936.936 0 0 0-.22.977 5.655 5.655 0 0 1-1.322 5.868 5.553 5.553 0 0 1-5.413 1.436l2.518-2.518c1.096-1.097 1.096-2.881 0-3.977s-2.881-1.096-3.977 0zm16.551-3.438a.938.938 0 0 0-1.326 1.326l5.729 5.729a.938.938 0 0 0 1.326-1.326l-5.729-5.729z"/></symbol><symbol id="icon-user" viewBox="0 0 32 32"><path fill="#edc867" d="M16 18.024c-9.615 0-14.91 4.548-14.91 12.808 0 .645.523 1.168 1.168 1.168h27.484c.645 0 1.168-.523 1.168-1.168 0-8.259-5.295-12.808-14.91-12.808zM3.468 29.664C3.927 23.488 8.138 20.36 16 20.36s12.072 3.129 12.532 9.304H3.468zM16 0c-4.416 0-7.747 3.397-7.747 7.902 0 4.637 3.475 8.409 7.747 8.409s7.747-3.772 7.747-8.408C23.747 3.398 20.417 0 16 0zm0 13.976c-2.984 0-5.411-2.724-5.411-6.073 0-3.226 2.276-5.567 5.411-5.567 3.085 0 5.411 2.393 5.411 5.567 0 3.349-2.427 6.073-5.411 6.073z" style="fill:var(--color1, #edc867)"/></symbol>
<symbol id="icon-arrow" viewBox="0 0 20 12"><path d="M9.9522 0.299726C10.3089 0.299726 10.6656 0.436587 10.9376 0.709733L19.496 9.30937C20.0404 9.85641 20.0404 10.7433 19.496 11.2902C18.9518 11.837 18.0693 11.837 17.5248 11.2902L9.9522 3.68074L2.37958 11.2899C1.83515 11.8367 0.952721 11.8367 0.40856 11.2899C-0.136131 10.7431 -0.136131 9.85615 0.40856 9.3091L8.96683 0.709466C9.23893 0.436276 9.59561 0.299726 9.9522 0.299726Z" fill="#EDC867" style="fill:var(--color1, #edc867)"/></symbol></defs></svg>