<svg width="12" height="12" viewBox="0 0 12 12" fill="none" xmlns="http://www.w3.org/2000/svg">
<g clip-path="url(#clip0_378_5544)">
<path d="M10.7429 8.92227C10.5352 8.76774 10.2416 8.81089 10.0871 9.01857C10.0021 9.13281 9.91116 9.24487 9.81677 9.35162C9.64533 9.54557 9.66354 9.84182 9.85748 10.0133C9.94669 10.0921 10.0574 10.1309 10.1678 10.1309C10.2974 10.1309 10.4265 10.0773 10.5191 9.97256C10.6309 9.84614 10.7386 9.71343 10.8393 9.57813C10.9938 9.37044 10.9507 9.07677 10.7429 8.92227Z" fill="#F9A000"/>
<path d="M11.5275 6.72396C11.2747 6.6689 11.0248 6.82933 10.9698 7.08227C10.9394 7.22142 10.9028 7.36082 10.8609 7.49667C10.7844 7.74402 10.923 8.00648 11.1703 8.08291C11.2164 8.09713 11.263 8.10391 11.3089 8.10391C11.509 8.10391 11.6944 7.97467 11.7566 7.77339C11.8064 7.61219 11.8498 7.44674 11.8858 7.28167C11.9409 7.02874 11.7804 6.77903 11.5275 6.72396Z" fill="#F9A000"/>
<path d="M8.48703 10.4233C8.36258 10.4928 8.23372 10.5577 8.10406 10.6163C7.86812 10.7228 7.76324 11.0005 7.86978 11.2364C7.94806 11.4098 8.11867 11.5123 8.29726 11.5123C8.36176 11.5123 8.42731 11.499 8.48992 11.4707C8.64374 11.4012 8.7965 11.3242 8.94407 11.2418C9.17012 11.1157 9.25105 10.8301 9.12482 10.6041C8.99865 10.3781 8.71309 10.2971 8.48703 10.4233Z" fill="#F9A000"/>
<path d="M5.53195 2.25V5.80584L3.81307 7.5247C3.63002 7.70777 3.63002 8.00456 3.81307 8.18761C3.90461 8.27916 4.02454 8.32491 4.14454 8.32491C4.2645 8.32491 4.38447 8.27913 4.47602 8.18761L6.33218 6.33145C6.42007 6.24356 6.46945 6.12431 6.46945 6V2.25C6.46945 1.99111 6.25959 1.78125 6.0007 1.78125C5.74181 1.78125 5.53195 1.99111 5.53195 2.25Z" fill="#F9A000"/>
<path d="M11.5312 1.00781C11.2724 1.00781 11.0625 1.21767 11.0625 1.47656V2.77819C9.97144 1.06706 8.06604 0 6 0C4.39734 0 2.89062 0.624117 1.75734 1.75734C0.624117 2.89062 0 4.39734 0 6C0 7.60266 0.624117 9.10938 1.75734 10.2427C2.89062 11.3759 4.39734 12 6 12C6.00396 12 6.00778 11.9995 6.01172 11.9994C6.01566 11.9995 6.01948 12 6.02344 12C6.19238 12 6.36298 11.9929 6.53055 11.9789C6.78853 11.9572 6.98016 11.7306 6.95857 11.4726C6.93694 11.2147 6.7106 11.0229 6.45232 11.0446C6.31066 11.0565 6.16638 11.0625 6.02344 11.0625C6.01948 11.0625 6.01566 11.063 6.01172 11.0631C6.00778 11.063 6.00396 11.0625 6 11.0625C3.20852 11.0625 0.9375 8.79148 0.9375 6C0.9375 3.20852 3.20852 0.9375 6 0.9375C7.79902 0.9375 9.45368 1.8964 10.3579 3.42188H9.06898C8.81009 3.42188 8.60023 3.63173 8.60023 3.89062C8.60023 4.14952 8.81009 4.35938 9.06898 4.35938H10.5C10.7855 4.35938 11.0525 4.27915 11.2799 4.14016C11.2946 4.13182 11.3086 4.12284 11.322 4.11316C11.73 3.84478 12 3.38313 12 2.85938V1.47656C12 1.21767 11.7901 1.00781 11.5312 1.00781Z" fill="#F9A000"/>
</g>
<defs>
<clipPath id="clip0_378_5544">
<rect width="12" height="12" fill="white"/>
</clipPath>
</defs>
</svg>
