<svg width="45" height="45" viewBox="0 0 45 45" fill="none" xmlns="http://www.w3.org/2000/svg">
<path d="M38.7608 18.6015H38.6494V15.8725C38.6494 7.10638 31.5432 0 22.7769 0C14.0107 0 6.9044 7.10638 6.9044 15.8725V18.6015H6.23613C3.78561 18.6015 1.89207 20.7735 1.89207 23.2797V30.2413C1.83035 32.6704 3.74958 34.6896 6.17867 34.7514C6.19786 34.7519 6.21694 34.7522 6.23613 34.7524H10.3574C10.9411 34.725 11.3922 34.2295 11.3647 33.6457C11.3637 33.6247 11.3621 33.6037 11.3599 33.5828V19.938C11.3599 19.2698 10.97 18.6014 10.3574 18.6014H9.13213V15.8724C9.13213 8.33665 15.2412 2.22762 22.7769 2.22762C30.3127 2.22762 36.4217 8.33665 36.4217 15.8724V18.6014H35.1965C34.5838 18.6014 34.194 19.2696 34.194 19.938V33.5828C34.1319 34.1639 34.5525 34.6854 35.1336 34.7475C35.1545 34.7498 35.1755 34.7514 35.1965 34.7523H36.4774L36.366 34.9194C34.6948 37.1404 32.0724 38.4412 29.293 38.428C28.6845 35.4444 25.7724 33.5189 22.7888 34.1274C20.2373 34.6478 18.3977 36.8823 18.3771 39.4862C18.4076 42.5403 20.8922 45 23.9464 44.9998C25.4583 44.9753 26.8995 44.3549 27.9563 43.2733C28.6693 42.5431 29.1366 41.6085 29.293 40.6C32.7737 40.6132 36.0562 38.9822 38.1481 36.2003L39.2063 34.6408C41.6011 34.4738 43.1048 32.9701 43.1048 30.798V23.8364C43.1049 21.4418 41.3228 18.6015 38.7608 18.6015ZM9.13213 32.5247H6.23613C5.03688 32.4955 4.08835 31.4998 4.11756 30.3005C4.11809 30.2808 4.11884 30.2611 4.1198 30.2412V23.2796C4.1198 21.9987 5.01087 20.8291 6.23613 20.8291H9.13213V32.5247V32.5247ZM26.3413 41.7141C25.7241 42.3833 24.8569 42.7665 23.9465 42.7723C22.1346 42.7435 20.6641 41.2976 20.605 39.4863C20.6042 37.6716 22.0748 36.1999 23.8895 36.1991C25.7043 36.1984 27.176 37.6689 27.1767 39.4837C27.1767 39.4845 27.1767 39.4855 27.1767 39.4863C27.2231 40.3132 26.9199 41.1216 26.3413 41.7141ZM40.8772 30.7982C40.8772 32.3019 39.4291 32.5247 38.7608 32.5247H36.4217V20.8292H38.7608C39.9861 20.8292 40.8772 22.5557 40.8772 23.8366V30.7982Z" fill="url(#paint0_linear_381_5613)"/>
<defs>
<linearGradient id="paint0_linear_381_5613" x1="1.89063" y1="-6.24997" x2="53.0817" y2="36.8668" gradientUnits="userSpaceOnUse">
<stop stop-color="#737C84"/>
<stop offset="0.15625" stop-color="#A2ABB4"/>
<stop offset="0.307292" stop-color="#A2ABB4"/>
<stop offset="0.473958" stop-color="#C31A44"/>
<stop offset="0.671875" stop-color="#0098B7"/>
<stop offset="0.838542" stop-color="#A2ABB4"/>
</linearGradient>
</defs>
</svg>
