<svg width="23" height="22" viewBox="0 0 23 22" fill="none" xmlns="http://www.w3.org/2000/svg">
<g clip-path="url(#clip0_350_13657)">
<path d="M11.3643 22C17.4394 22 22.3643 17.0751 22.3643 11C22.3643 4.92487 17.4394 0 11.3643 0C5.28913 0 0.364258 4.92487 0.364258 11C0.364258 17.0751 5.28913 22 11.3643 22Z" fill="#039BE5"/>
<path d="M5.39767 10.7616L16.0035 6.67236C16.4958 6.49453 16.9257 6.79245 16.7662 7.53678L16.7671 7.53586L14.9613 16.0434C14.8274 16.6466 14.469 16.7933 13.9676 16.5091L11.2176 14.4824L9.89117 15.7602C9.7445 15.9069 9.62075 16.0306 9.33659 16.0306L9.53184 13.232L14.6285 8.62761C14.8503 8.43236 14.579 8.32236 14.2866 8.5167L7.98817 12.4822L5.273 11.6352C4.68359 11.4482 4.67075 11.0458 5.39767 10.7616Z" fill="white"/>
</g>
<defs>
<clipPath id="clip0_350_13657">
<rect width="22" height="22" fill="white" transform="translate(0.364258)"/>
</clipPath>
</defs>
</svg>
