<svg width="20" height="22" viewBox="0 0 20 22" fill="none" xmlns="http://www.w3.org/2000/svg">
<path d="M11.8339 0.242065H7.53064C3.37803 0.242065 0 3.6201 0 7.77271V11.0001C0 13.9183 1.68095 16.562 4.30322 17.8073V21.4032C4.30322 21.7152 4.6932 21.8765 4.91374 21.656L8.03896 18.5335H11.8339C15.9865 18.5335 19.3645 15.1554 19.3645 11.0001V7.77271C19.3645 3.6201 15.9865 0.242065 11.8339 0.242065ZM14.6525 14.3569L13.5632 15.422C12.4175 16.5435 9.42675 15.2633 6.79103 12.5711C4.1553 9.87618 2.99881 6.85854 4.08806 5.73701L5.17732 4.67197C5.57805 4.2793 6.2585 4.28737 6.70765 4.6881L8.27833 6.29374C8.83775 6.86661 8.60107 7.82677 7.86145 8.04731C7.35044 8.21137 7.0035 8.77348 7.16756 9.28448C7.4392 10.4786 8.9534 11.9713 10.083 12.2672C10.5913 12.3855 11.1615 12.1085 11.339 11.6002C11.573 10.8659 12.5385 10.6481 13.1006 11.2236L14.6686 12.8266C15.0613 13.227 15.0559 13.9078 14.6525 14.3569ZM10.6612 5.35214C10.5537 5.35214 10.4461 5.35752 10.3412 5.37097C10.1449 5.39249 9.96734 5.24994 9.94583 5.05361C9.92431 4.85727 10.0669 4.67977 10.2632 4.65825C10.395 4.64211 10.5295 4.63673 10.6612 4.63673C12.638 4.63673 14.2464 6.24506 14.2464 8.22186C14.2464 8.35364 14.241 8.48812 14.2248 8.61991C14.2033 8.81355 14.0231 8.95879 13.8295 8.93727C13.6358 8.91575 13.4906 8.73555 13.5121 8.54191C13.5229 8.43702 13.5309 8.32944 13.5309 8.22186C13.5309 6.64042 12.2427 5.35214 10.6612 5.35214ZM12.8128 8.22186C12.8128 8.41819 12.6488 8.57956 12.4525 8.57956C12.2588 8.57956 12.0947 8.41819 12.0947 8.22186C12.0947 7.43114 11.452 6.78835 10.6612 6.78835C10.4622 6.78835 10.3008 6.62698 10.3008 6.42795C10.3008 6.23162 10.4622 6.07025 10.6612 6.07025C11.8473 6.07025 12.8128 7.03578 12.8128 8.22186ZM15.5481 9.38104C15.5024 9.57468 15.2953 9.69571 15.1043 9.64461C14.9187 9.59351 14.8058 9.39987 14.8488 9.21429C14.9268 8.89155 14.9645 8.55805 14.9645 8.22186C14.9645 5.8497 13.0334 3.91863 10.6612 3.91863C10.551 3.91863 10.438 3.92132 10.3277 3.93208C10.1314 3.94553 9.95927 3.7976 9.94314 3.60127C9.92969 3.40225 10.0776 3.23012 10.2739 3.21667C10.403 3.20591 10.5321 3.20053 10.6612 3.20053C13.4287 3.20053 15.6826 5.45435 15.6826 8.22186C15.6826 8.61184 15.6368 9.00182 15.5481 9.38104Z" fill="#665CAC"/>
</svg>
