<svg width="30" height="30" viewBox="0 0 30 30" fill="none" xmlns="http://www.w3.org/2000/svg">
<g clip-path="url(#clip0_350_13918)">
<path d="M29.892 23.5456L28.1496 18.4747C28.9895 16.7578 29.4333 14.8484 29.4363 12.9271C29.4415 9.58651 28.149 6.42789 25.7969 4.03316C23.4444 1.63796 20.3095 0.289657 16.9697 0.236747C13.5065 0.18202 10.2512 1.49933 7.80395 3.94656C5.44414 6.30631 4.13527 9.41723 4.09384 12.7416C1.76802 14.4928 0.395223 17.2229 0.399735 20.1391C0.401903 21.5037 0.709052 22.8603 1.29106 24.0869L0.0908866 27.5796C-0.115422 28.18 0.035281 28.8319 0.484227 29.2809C0.800165 29.5968 1.21671 29.7651 1.64509 29.7651C1.82532 29.7651 2.00767 29.7353 2.1855 29.6742L5.67822 28.474C6.90488 29.056 8.26139 29.3632 9.62604 29.3653C9.63096 29.3653 9.63565 29.3653 9.64057 29.3653C12.6001 29.3652 15.3511 27.957 17.0959 25.5742C18.9115 25.5264 20.708 25.0869 22.332 24.2924L27.4029 26.0349C27.6142 26.1075 27.8309 26.1429 28.0451 26.1429C28.5541 26.1429 29.0491 25.9429 29.4247 25.5673C29.9581 25.0338 30.1372 24.2592 29.892 23.5456ZM9.64045 27.5796C9.63665 27.5796 9.6326 27.5796 9.62879 27.5796C8.42094 27.5778 7.22147 27.28 6.16027 26.7186C5.94207 26.6032 5.6859 26.5832 5.45258 26.6634L1.87114 27.8941L3.10179 24.3127C3.18195 24.0793 3.16202 23.8231 3.04659 23.605C2.48515 22.5437 2.18737 21.3443 2.1855 20.1364C2.18251 18.1935 2.93831 16.3519 4.26002 14.973C4.69174 17.6048 5.94605 20.03 7.89031 21.9397C9.82022 23.8353 12.2461 25.0422 14.8636 25.4367C13.4815 26.799 11.6185 27.5796 9.64045 27.5796ZM28.1619 24.3046C28.1111 24.3554 28.0508 24.3693 27.9831 24.346L22.5545 22.4806C22.4602 22.4482 22.3621 22.4321 22.2644 22.4321C22.1203 22.4321 21.9767 22.467 21.8468 22.5358C20.2969 23.3557 18.5454 23.7906 16.7816 23.7933C16.7758 23.7933 16.7705 23.7933 16.7647 23.7933C10.8548 23.7933 5.97312 18.9925 5.87949 13.0839C5.83232 10.1082 6.96424 7.31161 9.06664 5.2092C11.1691 3.10679 13.9661 1.97529 16.9414 2.02216C22.8557 2.11597 27.6598 7.00662 27.6506 12.9243C27.6479 14.6881 27.213 16.4397 26.3931 17.9895C26.2777 18.2077 26.2578 18.4638 26.3379 18.6972L28.2033 24.1258C28.2265 24.1938 28.2126 24.254 28.1619 24.3046Z" fill="#EDC867"/>
<path d="M22.0839 8.17456H11.4456C10.9525 8.17456 10.5527 8.57435 10.5527 9.06741C10.5527 9.56054 10.9525 9.96027 11.4456 9.96027H22.0839C22.577 9.96027 22.9767 9.56048 22.9767 9.06741C22.9767 8.57435 22.577 8.17456 22.0839 8.17456Z" fill="#EDC867"/>
<path d="M22.0839 11.8467H11.4456C10.9525 11.8467 10.5527 12.2465 10.5527 12.7395C10.5527 13.2326 10.9525 13.6324 11.4456 13.6324H22.0839C22.577 13.6324 22.9767 13.2326 22.9767 12.7395C22.9767 12.2465 22.577 11.8467 22.0839 11.8467Z" fill="#EDC867"/>
<path d="M17.9889 15.5188H11.4456C10.9525 15.5188 10.5527 15.9186 10.5527 16.4117C10.5527 16.9048 10.9525 17.3045 11.4456 17.3045H17.9889C18.482 17.3045 18.8817 16.9047 18.8817 16.4117C18.8817 15.9186 18.4821 15.5188 17.9889 15.5188Z" fill="#EDC867"/>
</g>
<defs>
<clipPath id="clip0_350_13918">
<rect width="30" height="30" fill="white"/>
</clipPath>
</defs>
</svg>
